<?xml version="1.0" encoding="UTF-8"?>
<!-- Created with Inkscape (http://www.inkscape.org/) -->
<svg width="1986" height="555.31" version="1.1" viewBox="0 0 1986 555.31" xmlns="http://www.w3.org/2000/svg">
 <defs>
  <clipPath id="clip24">
   <path d="m51.27 738.26h148.95v41.648h-148.95z"/>
  </clipPath>
 </defs>
 <g transform="translate(4.2318e-7 4.6087e-5)">
  <g transform="matrix(13.333 0 0 13.333 -683.59 -9843.5)" clip-path="url(#clip24)">
   <path d="m51.266 738.26h14.59c4.7812 0 7.9375 2.9102 7.9375 7.3945v17.496c0 3.8438-2.1211 7.8867-7.9375 7.8867h-14.59zm8.3789 27.355h5.7695v-21.934h-5.7695zm18.09-19.223h7.8867v24.645h-7.8867zm0-8.1328h7.8867v5.1758h-7.8867zm19.223 36.473h6.1641v-3.6953h-5.8672c-4.4844 0-7.9336-3.3516-7.9336-7.8867v-8.8242c0-4.5312 3.4492-7.9336 7.9336-7.9336h13.504v33.516h-13.801zm0.49609-8.8711h5.4219v-14.293h-5.4219zm17.25-19.469h7.8867v24.645h-7.8867zm0-8.1328h7.8867v5.1758h-7.8867zm12.086 0h8.3789v32.777h-8.3789zm17.645 0h9.0195l-8.2812 16.168 8.5274 16.609h-9.0195l-8.5274-16.609zm17.836 32.777c-4.4844 0-7.9336-3.3516-7.9336-7.8867v-8.8242c0-4.5312 3.4492-7.9336 7.9336-7.9336h5.3242c4.4844 0 7.9375 3.4023 7.9375 7.9336v7.8398h-13.062v3.6953h10.598v5.1758h-10.797m0.19922-14.047h5.4219v-5.4219h-5.4219zm37.75 22.918h-13.652v-5.1758h6.1094v-3.6953h-5.7148c-4.4883 0-7.9375-3.3516-7.9375-7.8867v-16.758h7.8867v19.469h5.4219v-19.469h7.8867z" fill="#ee2821"/>
  </g>
 </g>
</svg>
