<?xml version="1.0" encoding="UTF-8" standalone="no"?>
<svg
   xmlns:dc="http://purl.org/dc/elements/1.1/"
   xmlns:cc="http://creativecommons.org/ns#"
   xmlns:rdf="http://www.w3.org/1999/02/22-rdf-syntax-ns#"
   xmlns:svg="http://www.w3.org/2000/svg"
   xmlns="http://www.w3.org/2000/svg"
   xmlns:sodipodi="http://sodipodi.sourceforge.net/DTD/sodipodi-0.dtd"
   xmlns:inkscape="http://www.inkscape.org/namespaces/inkscape"
   width="50"
   height="66"
   viewBox="0 0 50 66"
   version="1.1"
   id="svg8"
   sodipodi:docname="lgo-elcamino-yellow.svg"
   inkscape:version="0.92.4 (5da689c313, 2019-01-14)">
  <metadata
     id="metadata14">
    <rdf:RDF>
      <cc:Work
         rdf:about="">
        <dc:format>image/svg+xml</dc:format>
        <dc:type
           rdf:resource="http://purl.org/dc/dcmitype/StillImage" />
        <dc:title></dc:title>
      </cc:Work>
    </rdf:RDF>
  </metadata>
  <defs
     id="defs12" />
  <sodipodi:namedview
     pagecolor="#ffffff"
     bordercolor="#666666"
     borderopacity="1"
     objecttolerance="10"
     gridtolerance="10"
     guidetolerance="10"
     inkscape:pageopacity="0"
     inkscape:pageshadow="2"
     inkscape:window-width="1632"
     inkscape:window-height="809"
     id="namedview10"
     showgrid="false"
     inkscape:zoom="3.5757576"
     inkscape:cx="25"
     inkscape:cy="44.186441"
     inkscape:window-x="0"
     inkscape:window-y="0"
     inkscape:window-maximized="0"
     inkscape:current-layer="svg8" />
  <g
     fill="#403731"
     fill-rule="evenodd"
     id="g6"
     style="fill:#ffaa00;fill-opacity:1">
    <path
       d="M29.248 32.71a.551.551 0 0 0-.551.55v13.157c0 .68.555 1.234 1.238 1.234h16.14c.682 0 1.237-.553 1.237-1.234V4.125c0-.68-.555-1.233-1.237-1.233H3.623c-.683 0-1.238.553-1.238 1.233v42.292c0 .68.555 1.234 1.238 1.234h15.22c.682 0 1.238-.553 1.238-1.234v-5.09h-4.62c-2.968 0-5.382-2.406-5.382-5.363v-8.577a3.746 3.746 0 0 1 3.748-3.735 3.746 3.746 0 0 1 3.749 3.735v5.076c0 .768.627 1.395 1.4 1.395h.887c.12 0 .218-.098.218-.218V12.688c0-2.366 1.932-4.29 4.308-4.29 2.375 0 4.308 1.924 4.308 4.29v11.319c0 .68.555 1.234 1.238 1.234h1.257l-.02-6.779c0-2.058 1.682-3.734 3.75-3.734a3.746 3.746 0 0 1 3.748 3.734v8.806c0 3-2.45 5.442-5.461 5.442h-3.96zm16.827 17.225h-16.14a3.528 3.528 0 0 1-3.531-3.518V33.259a2.843 2.843 0 0 1 2.844-2.834h3.96a3.167 3.167 0 0 0 3.17-3.157v-8.806c0-.799-.653-1.45-1.456-1.45-.804 0-1.457.651-1.457 1.45v6.797a2.271 2.271 0 0 1-2.273 2.265h-1.257a3.528 3.528 0 0 1-3.531-3.517V12.688a2.013 2.013 0 0 0-2.015-2.007c-1.111 0-2.016.9-2.016 2.007V33.64a2.509 2.509 0 0 1-2.51 2.501h-.888a3.69 3.69 0 0 1-3.692-3.678v-5.076c0-.8-.653-1.45-1.456-1.45-.802 0-1.455.65-1.455 1.45v8.577a3.088 3.088 0 0 0 3.09 3.079h4.88a2.03 2.03 0 0 1 2.031 2.024v5.35a3.528 3.528 0 0 1-3.53 3.518H3.623a3.528 3.528 0 0 1-3.53-3.518V4.125A3.528 3.528 0 0 1 3.622.607h42.452a3.528 3.528 0 0 1 3.53 3.518v42.292a3.528 3.528 0 0 1-3.53 3.518z"
       id="path2"
       style="fill:#ffaa00;fill-opacity:1" />
    <path
       d="M11.908 17.229c-2.615 0-4.742-2.12-4.742-4.723 0-2.605 2.127-4.725 4.742-4.725 2.614 0 4.74 2.12 4.74 4.725 0 2.604-2.126 4.723-4.74 4.723zm0-7.164a2.448 2.448 0 0 0-2.45 2.44 2.447 2.447 0 0 0 2.45 2.44 2.447 2.447 0 0 0 2.448-2.44 2.447 2.447 0 0 0-2.448-2.44zM1.728 59.542h1.451v-1.86c0-.43-.207-.635-.639-.635h-.19c-.415 0-.622.206-.622.636v1.86zm0 1.48v1.963c0 .43.207.637.623.637h.224c.432 0 .639-.207.639-.637v-.999H4.89v1.085c0 1.394-.709 2.1-2.108 2.1h-.674c-1.4 0-2.108-.706-2.108-2.1v-5.457c0-1.394.709-2.1 2.108-2.1h.674c1.4 0 2.108.706 2.108 2.1v3.409H1.728zM15.653 57.718c0-.43-.207-.637-.639-.637h-.207c-.415 0-.622.206-.622.637v5.25c0 .43.207.637.622.637h.224c.432 0 .64-.207.64-.637V61.04h1.71v2.031c0 1.394-.709 2.1-2.108 2.1h-.726c-1.399 0-2.108-.706-2.108-2.1v-5.457c0-1.394.71-2.1 2.108-2.1h.726c1.382 0 2.091.69 2.091 2.083v1.722h-1.711v-1.601zM21.907 63.329v-2.737l-.95.362c-.38.172-.501.344-.501.774v1.343c0 .362.172.534.552.534.312 0 .588-.086.9-.276zm-3.144-1.67c0-1.118.345-1.583 1.33-1.91l1.814-.62v-1.463c0-.413-.207-.637-.639-.637h-.12c-.416 0-.64.224-.64.637v1.17h-1.642v-1.222c0-1.394.709-2.1 2.108-2.1h.553c1.4 0 2.108.706 2.108 2.1v7.454h-1.728v-.603c-.432.38-.899.706-1.624.706h-.017c-1.002 0-1.503-.585-1.503-1.6V61.66zM30.08 65.068h-1.763v-7.436c0-.362-.155-.534-.517-.534-.311 0-.588.104-.916.293v7.677h-1.745v-9.45h1.727v.62c.45-.397.95-.724 1.642-.724h.07c.673 0 1.122.276 1.347.792.5-.465 1.036-.792 1.779-.792h.052c.967 0 1.503.569 1.503 1.601v7.953h-1.745v-7.436c0-.362-.173-.534-.535-.534-.312 0-.588.104-.899.293v7.677zM38.148 55.617h1.728v.62c.448-.395.933-.723 1.659-.723h.086c1.002 0 1.52.569 1.52 1.619v7.935h-1.745v-7.42c0-.378-.173-.55-.57-.55-.328 0-.605.103-.933.293v7.677h-1.745v-9.45zM47.011 57.081c-.415 0-.623.207-.623.637v5.25c0 .43.208.637.623.637h.276c.432 0 .64-.207.64-.638v-5.25c0-.43-.208-.636-.64-.636h-.276zm-.26 8.09c-1.4 0-2.108-.706-2.108-2.1v-5.457c0-1.394.709-2.1 2.108-2.1h.812c1.4 0 2.108.706 2.108 2.1v5.457c0 1.394-.708 2.1-2.108 2.1h-.812zM34.813 65.068h1.746v-9.451h-1.746zM8.155 63.597v-8.014H6.41v9.485h1.745v-.004h1.866v-1.467z"
       id="path4"
       style="fill:#ffaa00;fill-opacity:1" />
  </g>
</svg>
