<?xml version="1.0" encoding="UTF-8" standalone="no"?>
<svg
   id="a"
   data-name="Ebene 1"
   width="235.782"
   height="63.462"
   viewBox="0 0 235.782 63.462"
   version="1.1"
   sodipodi:docname="el camino Horizontal gelb RGB new.svg"
   inkscape:version="1.1.1 (3bf5ae0d25, 2021-09-20)"
   xmlns:inkscape="http://www.inkscape.org/namespaces/inkscape"
   xmlns:sodipodi="http://sodipodi.sourceforge.net/DTD/sodipodi-0.dtd"
   xmlns="http://www.w3.org/2000/svg"
   xmlns:svg="http://www.w3.org/2000/svg">
  <defs
     id="defs27" />
  <sodipodi:namedview
     id="namedview25"
     pagecolor="#ffffff"
     bordercolor="#666666"
     borderopacity="1.0"
     inkscape:pageshadow="2"
     inkscape:pageopacity="0.0"
     inkscape:pagecheckerboard="0"
     showgrid="false"
     inkscape:zoom="4.7883215"
     inkscape:cx="117.891"
     inkscape:cy="31.430638"
     inkscape:window-width="2240"
     inkscape:window-height="1197"
     inkscape:window-x="-8"
     inkscape:window-y="-8"
     inkscape:window-maximized="1"
     inkscape:current-layer="a" />
  <path
     d="m 71.602,33.86 v 7.423 c 0,1.966 0.982,2.948 2.948,2.948 h 0.859 c 1.966,0 2.948,-0.982 2.948,-2.948 v -3.308 h 4.545 v 3.124 c 0,4.975 -2.518,7.492 -7.493,7.492 h -0.982 c -4.975,0 -7.492,-2.518 -7.492,-7.492 V 23.182 c 0,-4.975 2.518,-7.492 7.492,-7.492 h 0.982 c 4.976,0 7.493,2.518 7.493,7.492 V 33.86 H 71.601 Z m 0,-4.422 h 6.633 v -6.439 c 0,-1.966 -0.982,-2.948 -2.947,-2.948 h -0.737 c -1.966,0 -2.948,0.982 -2.948,2.948 v 6.439 z"
     fill="#ffbb04"
     id="path2"
     style="fill:#ffaa00;fill-opacity:1" />
  <path
     d="m 118.525,22.998 c 0,-1.966 -0.982,-2.948 -2.948,-2.948 h -0.859 c -1.966,0 -2.948,0.982 -2.948,2.948 v 18.284 c 0,1.966 0.982,2.948 2.948,2.948 h 0.921 c 1.966,0 2.948,-0.982 2.948,-2.948 v -6.071 h 4.606 v 5.888 c 0,4.975 -2.519,7.492 -7.493,7.492 h -1.105 c -4.975,0 -7.493,-2.518 -7.493,-7.492 V 23.182 c 0,-4.975 2.519,-7.492 7.493,-7.492 h 1.167 c 4.913,0 7.37,2.456 7.37,7.37 v 4.904 h -4.606 v -4.966 z"
     fill="#ffbb04"
     id="path4"
     style="fill:#ffaa00;fill-opacity:1" />
  <path
     d="m 125.588,37.177 c 0,-4.115 1.352,-5.773 4.913,-7.002 l 6.265,-2.149 v -5.027 c 0,-1.966 -0.982,-3.01 -2.948,-3.01 h -0.368 c -1.966,0 -2.948,1.044 -2.948,3.01 v 3.614 h -4.545 v -3.431 c 0,-4.975 2.519,-7.492 7.493,-7.492 h 0.491 c 4.975,0 7.493,2.518 7.493,7.492 v 25.041 h -4.668 v -2.088 c -1.29,1.229 -3.01,2.456 -5.712,2.456 -3.746,0 -5.466,-2.149 -5.466,-5.834 z m 11.178,5.457 v -10.31 l -4.237,1.475 c -1.72,0.675 -2.272,1.535 -2.272,3.438 v 4.536 c 0,1.598 0.798,2.396 2.272,2.396 1.412,0 2.702,-0.491 4.237,-1.535 z"
     fill="#ffbb04"
     id="path6"
     style="fill:#ffaa00;fill-opacity:1" />
  <path
     d="m 160.227,48.223 h -4.668 V 22.507 c 0,-1.658 -0.798,-2.396 -2.211,-2.396 -1.29,0 -2.641,0.491 -4.299,1.658 v 26.453 h -4.668 V 16.058 h 4.668 v 2.149 c 1.351,-1.289 3.132,-2.518 5.712,-2.518 2.395,0 3.992,0.982 4.852,2.702 1.658,-1.413 3.624,-2.702 6.326,-2.702 3.623,0 5.466,2.211 5.466,5.834 v 26.699 h -4.668 V 22.506 c 0,-1.658 -0.798,-2.396 -2.211,-2.396 -1.289,0 -2.641,0.491 -4.299,1.658 v 26.453 z"
     fill="#ffbb04"
     id="path8"
     style="fill:#ffaa00;fill-opacity:1" />
  <path
     d="m 174.599,16.058 h 4.668 v 32.165 h -4.668 z"
     fill="#ffbb04"
     id="path10"
     style="fill:#ffaa00;fill-opacity:1" />
  <path
     d="m 182.522,16.058 h 4.668 v 2.149 c 1.351,-1.289 3.132,-2.518 5.896,-2.518 3.869,0 5.65,2.211 5.65,5.957 v 26.576 h -4.667 V 22.628 c 0,-1.72 -0.799,-2.518 -2.396,-2.518 -1.475,0 -2.825,0.491 -4.483,1.658 v 26.453 h -4.668 z"
     fill="#ffbb04"
     id="path12"
     style="fill:#ffaa00;fill-opacity:1" />
  <path
     d="m 209.054,48.591 c -4.975,0 -7.492,-2.518 -7.492,-7.492 V 23.182 c 0,-4.975 2.518,-7.492 7.492,-7.492 h 1.352 c 4.975,0 7.492,2.518 7.492,7.492 v 17.917 c 0,4.975 -2.518,7.492 -7.492,7.492 z m 0.123,-28.541 c -1.966,0 -2.948,0.982 -2.948,2.948 v 18.284 c 0,1.966 0.982,2.948 2.948,2.948 h 1.105 c 1.965,0 2.948,-0.982 2.948,-2.948 V 22.998 c 0,-1.966 -0.983,-2.948 -2.948,-2.948 z"
     fill="#ffbb04"
     id="path14"
     style="fill:#ffaa00;fill-opacity:1" />
  <polygon
     points="90.825 15.839 85.912 15.839 85.912 48.223 98.933 48.223 98.933 43.678 90.825 43.678 90.825 15.839"
     fill="#ffbb04"
     id="polygon18"
     style="fill:#ffaa00;fill-opacity:1" />
  <path
     d="m15.793,21.925c-3.714,0-6.734-3.021-6.734-6.733s3.021-6.733,6.734-6.733,6.733,3.021,6.733,6.733-3.021,6.733-6.733,6.733Zm0-9.631c-1.598,0-2.898,1.3-2.898,2.897s1.301,2.897,2.898,2.897,2.897-1.3,2.897-2.897-1.3-2.897-2.897-2.897Z"
     fill="#ffbb04"
     id="path20"
     style="fill:#ffaa00;fill-opacity:1" />
  <path
     d="m230.979,63.462H39.843c-2.648,0-4.803-2.154-4.803-4.803v-16.658c0-2.19,1.781-3.972,3.972-3.972h7.599c1.648,0,2.99-1.342,2.99-2.99v-10.556c0-1.103-.896-1.999-1.998-1.999s-2,.896-2,1.999l.002,6.844c0,1.811-1.472,3.282-3.281,3.282h-2.48c-2.648,0-4.803-2.154-4.803-4.803v-13.815c0-1.21-.985-2.195-2.195-2.195s-2.195.985-2.195,2.195v25.193c0,1.968-1.601,3.568-3.568,3.568h-3.173c-1.81,0-3.281-1.47-3.281-3.277v-6.733c0-1.102-.896-1.998-2-1.998s-2,.897-2.001,2.001l.003,10.552c0,1.586,1.291,2.876,2.876,2.876h8.155c1.648,0,2.989,1.341,2.989,2.989v8.074c0,2.33-1.896,4.226-4.226,4.226H4.803c-2.648,0-4.803-2.154-4.803-4.803V4.803C0,2.154,2.154,0,4.803,0h226.177c2.648,0,4.803,2.154,4.803,4.803v53.856c0,2.648-2.154,4.803-4.803,4.803ZM39.012,41.865c-.074,0-.136.062-.136.136v16.658c0,.533.434.967.967.967h191.137c.533,0,.967-.434.967-.967V4.803c0-.533-.434-.967-.967-.967H4.803c-.533,0-.967.434-.967.967v53.856c0,.533.434.967.967.967h21.621c.215,0,.39-.175.39-.39v-7.228h-7.309c-3.7,0-6.711-3.01-6.712-6.71l-.003-10.554c0-3.219,2.618-5.837,5.837-5.837s5.837,2.617,5.837,5.835v6.174s2.35,0,2.35,0V15.991c0-3.326,2.705-6.031,6.031-6.031s6.031,2.705,6.031,6.031v13.815c0,.533.434.967.967.967h1.925v-6.289c0-3.219,2.617-5.836,5.835-5.836s5.835,2.617,5.835,5.835v10.556c0,3.765-3.062,6.826-6.827,6.826h-7.599Z"
     fill="#ffbb04"
     id="path22"
     style="fill:#ffaa00;fill-opacity:1" />
</svg>
