<?xml version="1.0" encoding="UTF-8"?>
<!-- Generator: visioncortex VTracer 0.6.4 -->
<svg version="1.1" xmlns="http://www.w3.org/2000/svg" width="1920" height="612">
<path d="M0 0 C306.24 0 612.48 0 928 0 C928 193.71 928 387.42 928 587 C621.76 587 315.52 587 0 587 C0 393.29 0 199.58 0 0 Z " fill="#1a1a1a" transform="translate(856,9)"/>
<path d="M0 0 C306.24 0 612.48 0 928 0 C928 193.71 928 387.42 928 587 C621.76 587 315.52 587 0 587 C0 393.29 0 199.58 0 0 Z M32 78 C32 226.17 32 374.34 32 527 C317.78 527 603.56 527 898 527 C898 378.83 898 230.66 898 78 C612.22 78 326.44 78 32 78 Z " fill="#C5C8C8" transform="translate(856,9)"/>
<path d="M0 0 C24.09 0 48.18 0 73 0 C73 3.96 73 7.92 73 12 C75.36 11.98 75.36 11.98 77.77 11.97 C83.62 11.93 89.47 11.91 95.31 11.89 C97.84 11.88 100.37 11.87 102.9 11.85 C106.54 11.82 110.18 11.81 113.82 11.8 C114.95 11.79 116.08 11.78 117.24 11.77 C126.03 11.77 132.3 13.15 139 19 C145.86 26.97 145.29 37.77 145.25 47.75 C145.26 49 145.26 50.25 145.26 51.54 C145.27 54.99 145.27 58.44 145.26 61.88 C145.26 65.61 145.26 69.34 145.27 73.07 C145.28 80.36 145.28 87.65 145.27 94.94 C145.27 100.87 145.27 106.8 145.27 112.73 C145.27 113.57 145.27 114.42 145.27 115.29 C145.27 117 145.27 118.72 145.27 120.44 C145.28 136.52 145.27 152.61 145.26 168.69 C145.25 182.48 145.25 196.27 145.26 210.06 C145.27 226.09 145.28 242.11 145.27 258.14 C145.27 259.85 145.27 261.56 145.27 263.27 C145.27 264.11 145.27 264.96 145.27 265.82 C145.26 271.74 145.27 277.66 145.27 283.58 C145.28 290.79 145.28 298.01 145.27 305.23 C145.26 308.91 145.26 312.59 145.27 316.27 C145.27 320.26 145.26 324.25 145.25 328.25 C145.26 329.4 145.26 330.56 145.27 331.75 C145.18 349.75 145.18 349.75 138.88 356.44 C138.15 357.24 137.43 358.04 136.68 358.87 C129.35 364.69 121.61 364.43 112.64 364.39 C111.29 364.4 109.93 364.41 108.58 364.41 C104.87 364.43 101.16 364.43 97.46 364.42 C93.46 364.42 89.45 364.43 85.45 364.45 C77.61 364.47 69.78 364.47 61.94 364.47 C55.57 364.47 49.21 364.47 42.84 364.48 C41 364.48 39.17 364.48 37.33 364.49 C36.42 364.49 35.5 364.49 34.56 364.49 C17.29 364.51 0.02 364.51 -17.25 364.5 C-33.05 364.49 -48.85 364.52 -64.65 364.55 C-80.88 364.58 -97.1 364.6 -113.33 364.59 C-122.44 364.59 -131.55 364.6 -140.65 364.62 C-148.41 364.64 -156.16 364.64 -163.91 364.63 C-167.87 364.62 -171.82 364.62 -175.77 364.64 C-179.4 364.66 -183.02 364.65 -186.64 364.63 C-188.57 364.62 -190.49 364.64 -192.42 364.66 C-199.5 364.59 -204.62 363.86 -210 359 C-212.97 355.23 -217 349.97 -217 345 C-222.7 342.77 -227.33 342.4 -233.31 343.75 C-236.03 344.74 -236.03 344.74 -237.19 346.69 C-237.46 347.45 -237.72 348.21 -238 349 C-240.65 355.94 -244.12 360.86 -251 364 C-254.75 364.47 -258.47 364.46 -262.25 364.44 C-263.25 364.46 -264.25 364.48 -265.28 364.5 C-273.06 364.49 -279.02 362.96 -285.3 358.29 C-286.08 357.47 -286.08 357.47 -286.88 356.62 C-287.41 356.08 -287.94 355.54 -288.49 354.98 C-292.63 349.55 -293.43 345.13 -293.29 338.54 C-293.29 337.75 -293.28 336.96 -293.28 336.14 C-293.26 333.64 -293.23 331.13 -293.19 328.62 C-293.17 326.92 -293.16 325.21 -293.15 323.5 C-293.11 319.34 -293.06 315.17 -293 311 C-297.95 311 -302.9 311 -308 311 C-308 280.97 -308 250.94 -308 220 C-303.05 220 -298.1 220 -293 220 C-293.01 217.63 -293.02 215.25 -293.03 212.81 C-293.14 190.46 -293.21 168.11 -293.26 145.76 C-293.28 134.27 -293.32 122.77 -293.38 111.28 C-293.43 101.27 -293.46 91.25 -293.47 81.23 C-293.48 75.93 -293.49 70.63 -293.53 65.32 C-293.56 60.33 -293.57 55.34 -293.57 50.34 C-293.57 48.51 -293.58 46.68 -293.6 44.85 C-293.7 34.52 -293.77 25.99 -286.22 18.14 C-279.36 11.58 -271.99 11.68 -262.94 11.75 C-261.32 11.74 -261.32 11.74 -259.68 11.73 C-258.64 11.73 -257.6 11.73 -256.53 11.73 C-255.59 11.74 -254.65 11.74 -253.68 11.74 C-248.39 12.25 -245.09 14.33 -241.41 18.15 C-239.34 20.87 -238.21 23.86 -236.92 27.01 C-235.7 29.65 -234.65 30.79 -232 32 C-226.38 33.48 -223.06 32.82 -218 30 C-215.68 27.68 -214.89 25.71 -213.69 22.62 C-211.8 18.57 -209.63 15.64 -206 13 C-202.07 11.6 -197.97 11.86 -193.85 11.88 C-192.61 11.88 -192.61 11.88 -191.34 11.88 C-188.56 11.88 -185.78 11.88 -183 11.89 C-181.01 11.89 -179.02 11.89 -177.03 11.89 C-171.62 11.89 -166.21 11.89 -160.8 11.9 C-155.15 11.9 -149.5 11.91 -143.85 11.91 C-133.15 11.91 -122.45 11.92 -111.74 11.93 C-99.56 11.94 -87.38 11.94 -75.19 11.95 C-50.13 11.96 -25.06 11.98 0 12 C0 8.04 0 4.08 0 0 Z " fill="#7F7F7F" transform="translate(1389,122)"/>
<path d="M0 0 C1.91 -0 1.91 -0 3.86 -0.01 C4.52 -0 5.18 0 5.86 0 C7.87 0.02 9.88 0 11.89 -0.01 C13.17 -0.01 14.44 -0 15.75 0 C16.91 0 18.07 0 19.27 0.01 C23.28 0.35 25.36 1.54 28.5 3.95 C30.87 6.98 31.02 9.49 31.31 13.27 C32.3 13.6 33.29 13.93 34.31 14.27 C34.8 15.75 34.8 15.75 35.31 17.27 C37.31 18.47 37.31 18.47 39.31 19.27 C39.31 19.93 39.31 20.59 39.31 21.27 C42.61 21.27 45.91 21.27 49.31 21.27 C49.31 20.61 49.31 19.95 49.31 19.27 C50.96 18.94 52.61 18.61 54.31 18.27 C54.51 17.48 54.72 16.7 54.93 15.89 C59.39 4.14 59.39 4.14 64.05 1.15 C66.83 0.06 69.02 0.01 72 0.01 C73.76 0.01 73.76 0.01 75.54 -0 C76.83 0 78.11 0.01 79.44 0.01 C80.81 0.01 82.19 0.01 83.57 0 C87.36 -0.01 91.15 -0 94.94 0 C99.02 0.01 103.11 0 107.19 -0 C115.2 -0.01 123.2 -0.01 131.21 -0 C137.71 -0 144.22 0 150.72 -0 C152.11 -0 152.11 -0 153.53 -0 C155.4 -0 157.28 -0 159.16 -0 C176.79 -0.01 194.42 -0 212.05 0.01 C227.18 0.02 242.32 0.01 257.45 0 C275.02 -0.01 292.58 -0.01 310.14 -0 C312.02 -0 313.89 -0 315.76 -0 C316.68 -0 317.6 -0 318.55 -0 C325.05 0 331.55 -0 338.05 -0.01 C345.96 -0.01 353.88 -0.01 361.8 -0 C365.84 0 369.88 0.01 373.92 0 C377.62 -0.01 381.32 -0 385.02 0.01 C386.99 0.01 388.97 0.01 390.94 -0 C392.7 0.01 392.7 0.01 394.49 0.01 C395.5 0.01 396.51 0.01 397.55 0.01 C400.47 0.28 402.65 1.04 405.31 2.27 C405.31 2.93 405.31 3.59 405.31 4.27 C407.29 4.76 407.29 4.76 409.31 5.27 C409.31 5.93 409.31 6.59 409.31 7.27 C409.97 7.27 410.63 7.27 411.31 7.27 C413.31 10.27 413.31 10.27 413.31 14.27 C413.97 14.27 414.63 14.27 415.31 14.27 C416.36 21.14 416.45 27.88 416.44 34.83 C416.44 36.08 416.44 37.34 416.44 38.63 C416.44 42.1 416.44 45.56 416.44 49.03 C416.44 52.78 416.44 56.52 416.44 60.27 C416.45 67.6 416.45 74.93 416.44 82.26 C416.44 88.22 416.44 94.17 416.44 100.13 C416.44 100.98 416.44 101.83 416.44 102.7 C416.44 104.43 416.44 106.15 416.44 107.88 C416.45 124.04 416.44 140.2 416.44 156.36 C416.43 170.22 416.43 184.08 416.44 197.94 C416.44 214.04 416.45 230.14 416.44 246.25 C416.44 247.96 416.44 249.68 416.44 251.4 C416.44 252.24 416.44 253.09 416.44 253.96 C416.44 259.91 416.44 265.86 416.44 271.81 C416.45 279.06 416.45 286.31 416.44 293.57 C416.44 297.27 416.44 300.97 416.44 304.67 C416.44 308.68 416.44 312.69 416.44 316.7 C416.44 317.87 416.44 319.03 416.44 320.24 C416.43 326.01 416.18 331.56 415.31 337.27 C414.65 337.27 413.99 337.27 413.31 337.27 C412.65 339.25 411.99 341.23 411.31 343.27 C410.65 343.27 409.99 343.27 409.31 343.27 C408.98 344.26 408.65 345.25 408.31 346.27 C404.75 347.45 404.75 347.45 401.31 348.27 C401.31 348.93 401.31 349.59 401.31 350.27 C290.76 350.27 180.21 350.27 66.31 350.27 C66.31 349.61 66.31 348.95 66.31 348.27 C65.4 348.12 64.49 347.98 63.56 347.83 C59.31 345.79 58.82 343.71 57.19 339.46 C56.23 337.06 54.91 335.27 53.31 333.27 C53.31 332.61 53.31 331.95 53.31 331.27 C47.5 329.33 41.2 330.09 35.31 331.27 C35.16 331.88 35.02 332.5 34.87 333.14 C34.31 335.27 34.31 335.27 33.31 337.27 C32.65 337.27 31.99 337.27 31.31 337.27 C31.35 338.01 31.39 338.75 31.43 339.52 C31.3 342.49 31.11 343.89 29.31 346.27 C26.18 347.52 26.18 347.52 23.31 348.27 C23.31 348.93 23.31 349.59 23.31 350.27 C13.41 350.27 3.51 350.27 -6.69 350.27 C-6.69 349.61 -6.69 348.95 -6.69 348.27 C-7.72 348.1 -8.75 347.94 -9.82 347.77 C-13.98 346.56 -15.81 344.23 -18.33 340.82 C-22.57 332.85 -23.12 325.44 -23.07 316.51 C-23.08 314.62 -23.08 314.62 -23.09 312.69 C-23.1 309.2 -23.09 305.71 -23.08 302.23 C-23.08 298.46 -23.09 294.7 -23.1 290.93 C-23.11 283.56 -23.11 276.19 -23.1 268.81 C-23.09 262.82 -23.09 256.83 -23.09 250.84 C-23.09 249.98 -23.09 249.13 -23.09 248.25 C-23.1 246.52 -23.1 244.78 -23.1 243.05 C-23.11 226.79 -23.1 210.54 -23.08 194.28 C-23.07 180.35 -23.07 166.41 -23.08 152.47 C-23.1 136.27 -23.1 120.07 -23.1 103.88 C-23.09 102.15 -23.09 100.42 -23.09 98.69 C-23.09 97.84 -23.09 96.99 -23.09 96.12 C-23.09 90.13 -23.09 84.15 -23.1 78.17 C-23.11 70.87 -23.11 63.58 -23.09 56.29 C-23.08 52.57 -23.08 48.85 -23.09 45.13 C-23.1 41.09 -23.09 37.05 -23.07 33.02 C-23.08 31.85 -23.09 30.68 -23.09 29.47 C-23.04 22.07 -22.02 15.92 -18.69 9.27 C-18.03 9.27 -17.37 9.27 -16.69 9.27 C-16.42 8.67 -16.16 8.07 -15.88 7.45 C-12.36 0.96 -7.02 0.01 0 0 Z M-2.69 17.27 C-4.76 21.41 -4.97 24.15 -4.93 28.62 C-4.93 29.36 -4.94 30.1 -4.94 30.87 C-4.94 33.36 -4.93 35.85 -4.92 38.33 C-4.92 40.12 -4.92 41.9 -4.92 43.69 C-4.92 48.53 -4.91 53.38 -4.89 58.22 C-4.88 63.28 -4.88 68.34 -4.88 73.41 C-4.87 82.99 -4.86 92.58 -4.84 102.17 C-4.81 113.08 -4.8 124 -4.79 134.91 C-4.77 157.36 -4.74 179.81 -4.69 202.27 C-4.09 202.27 -3.49 202.27 -2.88 202.28 C11.71 202.36 26.29 202.45 40.87 202.55 C47.92 202.6 54.97 202.65 62.02 202.69 C68.82 202.72 75.62 202.77 82.42 202.82 C85.02 202.84 87.62 202.86 90.22 202.87 C93.85 202.89 97.48 202.91 101.11 202.95 C102.19 202.95 103.27 202.95 104.39 202.95 C105.87 202.97 105.87 202.97 107.39 202.99 C108.24 202.99 109.1 203 109.99 203 C112.56 203.29 114.16 203.83 116.31 205.27 C117.49 208.82 117.58 211.54 117.31 215.27 C115.71 217.5 114.81 218.18 112.08 218.65 C111.21 218.65 110.33 218.66 109.43 218.66 C108.42 218.68 107.42 218.69 106.38 218.7 C105.28 218.7 104.18 218.7 103.04 218.7 C101.3 218.71 101.3 218.71 99.53 218.73 C95.68 218.76 91.83 218.77 87.98 218.78 C85.32 218.79 82.66 218.81 79.99 218.83 C73.69 218.88 67.39 218.9 61.09 218.93 C53.92 218.95 46.75 219 39.57 219.04 C24.82 219.14 10.06 219.21 -4.69 219.27 C-4.69 225.87 -4.69 232.47 -4.69 239.27 C-2.31 239.28 -2.31 239.28 0.11 239.29 C5.98 239.33 11.86 239.4 17.73 239.47 C20.28 239.5 22.82 239.52 25.36 239.54 C29.02 239.56 32.67 239.6 36.32 239.66 C37.46 239.66 38.6 239.66 39.77 239.66 C40.84 239.68 41.9 239.7 42.99 239.72 C43.92 239.73 44.85 239.74 45.82 239.75 C49.08 240.43 50.29 241.65 52.31 244.27 C52.77 248.67 52.79 250.55 50.31 254.27 C47.34 255.26 45.3 255.42 42.19 255.47 C41.15 255.49 40.11 255.51 39.04 255.53 C37.36 255.56 37.36 255.56 35.64 255.58 C34.49 255.6 33.34 255.62 32.16 255.65 C28.48 255.71 24.8 255.77 21.12 255.83 C18.63 255.87 16.14 255.91 13.65 255.96 C7.53 256.07 1.42 256.17 -4.69 256.27 C-4.69 262.54 -4.69 268.81 -4.69 275.27 C-1.03 275.3 -1.03 275.3 2.7 275.34 C10.74 275.42 18.79 275.51 26.84 275.6 C31.72 275.66 36.6 275.71 41.48 275.76 C46.18 275.81 50.89 275.86 55.6 275.92 C57.39 275.94 59.19 275.96 60.99 275.97 C63.5 276 66.02 276.03 68.53 276.06 C69.28 276.07 70.03 276.07 70.79 276.08 C73.9 276.12 76.34 276.28 79.31 277.27 C80.55 279.74 80.48 281.5 80.5 284.27 C80.51 285.15 80.52 286.04 80.54 286.95 C80.31 289.27 80.31 289.27 78.31 291.27 C75.66 291.48 73.11 291.58 70.46 291.58 C69.65 291.59 68.84 291.6 68.01 291.61 C65.32 291.65 62.64 291.66 59.96 291.68 C58.1 291.7 56.24 291.72 54.38 291.74 C49.49 291.79 44.59 291.83 39.7 291.87 C34.7 291.91 29.71 291.96 24.71 292.01 C14.91 292.1 5.11 292.19 -4.69 292.27 C-4.74 297.46 -4.78 302.66 -4.8 307.85 C-4.81 309.62 -4.82 311.39 -4.84 313.16 C-4.87 315.7 -4.88 318.24 -4.89 320.78 C-4.9 321.57 -4.91 322.36 -4.92 323.17 C-4.99 328.56 -4.99 328.56 -2.69 333.27 C1.07 334.52 4.58 334.37 8.5 334.33 C9.62 334.32 9.62 334.32 10.77 334.31 C12.61 334.3 14.46 334.28 16.31 334.27 C16.7 333.05 17.09 331.83 17.5 330.58 C19 326.51 21.06 324.18 24.31 321.27 C24.97 320.28 25.63 319.29 26.31 318.27 C28.43 317.08 28.43 317.08 30.31 316.27 C30.31 315.61 30.31 314.95 30.31 314.27 C40.12 312.98 49.5 312.98 59.31 314.27 C59.8 315.75 59.8 315.75 60.31 317.27 C61.3 317.6 62.29 317.93 63.31 318.27 C64.98 320.26 66.65 322.26 68.31 324.27 C68.97 324.27 69.63 324.27 70.31 324.27 C70.6 325.19 70.89 326.12 71.18 327.08 C72.2 330.36 72.2 330.36 74.31 333.27 C77.01 333.57 79.49 333.68 82.2 333.66 C83.02 333.67 83.85 333.68 84.7 333.68 C87.49 333.7 90.28 333.7 93.07 333.7 C95.07 333.71 97.06 333.72 99.06 333.73 C104.53 333.76 110 333.77 115.47 333.77 C121.3 333.78 127.12 333.81 132.94 333.83 C144.09 333.88 155.24 333.9 166.39 333.93 C178.68 333.95 190.96 334 203.24 334.04 C230.87 334.15 258.49 334.21 286.11 334.25 C290.95 334.26 295.79 334.27 300.63 334.28 C314.81 334.31 328.99 334.33 343.17 334.34 C347.55 334.34 351.93 334.35 356.31 334.36 C361.38 334.37 366.45 334.37 371.52 334.37 C373.37 334.37 375.22 334.38 377.07 334.38 C379.58 334.39 382.09 334.39 384.6 334.38 C385.33 334.39 386.06 334.39 386.81 334.39 C390.12 334.38 393.14 334.29 396.31 333.27 C396.31 332.61 396.31 331.95 396.31 331.27 C397.3 330.94 398.29 330.61 399.31 330.27 C399.38 290.68 399.43 251.09 399.46 211.51 C399.47 206.84 399.47 202.17 399.47 197.5 C399.47 196.57 399.47 195.64 399.48 194.69 C399.49 179.62 399.51 164.55 399.54 149.48 C399.57 134.03 399.58 118.57 399.59 103.12 C399.59 93.58 399.61 84.04 399.63 74.5 C399.65 67.96 399.65 61.43 399.65 54.89 C399.65 51.12 399.65 47.34 399.67 43.57 C399.68 39.48 399.68 35.4 399.67 31.31 C399.68 30.11 399.69 28.9 399.7 27.66 C399.69 26.58 399.68 25.49 399.68 24.37 C399.68 23.42 399.68 22.48 399.68 21.51 C399.5 20.4 399.5 20.4 399.31 19.27 C395.44 16.69 392.28 17 387.8 17.04 C386.93 17.04 386.06 17.04 385.17 17.04 C382.29 17.04 379.42 17.05 376.55 17.07 C374.56 17.07 372.56 17.08 370.57 17.08 C365.33 17.09 360.09 17.11 354.85 17.13 C349.5 17.15 344.15 17.16 338.8 17.17 C328.3 17.19 317.81 17.22 307.31 17.27 C307.31 29.81 307.31 42.35 307.31 55.27 C307.97 55.27 308.63 55.27 309.31 55.27 C309.31 56.26 309.31 57.25 309.31 58.27 C310.28 58.72 311.25 59.17 312.25 59.64 C315.31 61.27 315.31 61.27 316.31 63.27 C316.97 63.27 317.63 63.27 318.31 63.27 C318.31 63.93 318.31 64.59 318.31 65.27 C319.3 65.27 320.29 65.27 321.31 65.27 C321.64 66.26 321.97 67.25 322.31 68.27 C324.32 69 324.32 69 326.31 69.27 C326.31 69.93 326.31 70.59 326.31 71.27 C327.89 73.51 327.89 73.51 330.31 75.27 C333.48 75.6 333.48 75.6 336.31 75.27 C336.31 74.61 336.31 73.95 336.31 73.27 C338.68 73.21 341.06 73.17 343.43 73.14 C344.1 73.12 344.76 73.11 345.45 73.09 C349.82 73.05 353.25 73.68 357.31 75.27 C358.42 75.64 359.54 76.01 360.68 76.39 C361.55 76.68 362.42 76.97 363.31 77.27 C363.31 77.93 363.31 78.59 363.31 79.27 C363.97 79.6 364.63 79.93 365.31 80.27 C365.98 81.6 366.64 82.93 367.31 84.27 C367.97 84.6 368.63 84.93 369.31 85.27 C372.38 94.64 372.44 104.17 368.31 113.27 C365.68 116.2 365.68 116.2 363.31 118.27 C362.98 119.26 362.65 120.25 362.31 121.27 C360.24 122 360.24 122 357.75 122.45 C356.92 122.61 356.09 122.77 355.24 122.93 C354.6 123.04 353.97 123.15 353.31 123.27 C353.31 123.93 353.31 124.59 353.31 125.27 C348.36 125.27 343.41 125.27 338.31 125.27 C338.31 124.61 338.31 123.95 338.31 123.27 C337.67 123.16 337.03 123.05 336.38 122.93 C335.14 122.7 335.14 122.7 333.87 122.45 C333.05 122.3 332.22 122.15 331.38 122 C330.69 121.76 330.01 121.51 329.31 121.27 C328.98 120.28 328.65 119.29 328.31 118.27 C327.88 117.85 327.44 117.44 327 117.02 C322.05 111.89 320.86 107.47 320.96 100.54 C321.01 99.2 321.01 99.2 321.06 97.83 C321.08 96.91 321.09 95.98 321.11 95.03 C321.16 92.78 321.23 90.52 321.31 88.27 C320.65 88.27 319.99 88.27 319.31 88.27 C319.31 87.61 319.31 86.95 319.31 86.27 C316.25 83.24 316.25 83.24 312.31 82.27 C312.31 81.61 312.31 80.95 312.31 80.27 C311.32 79.94 310.33 79.61 309.31 79.27 C307.98 77.93 306.64 76.6 305.31 75.27 C304.65 75.27 303.99 75.27 303.31 75.27 C302.98 74.28 302.65 73.29 302.31 72.27 C300.71 70.68 300.71 70.68 298.81 69.2 C295.41 66.46 295.41 66.46 294.31 64.27 C293.65 64.27 292.99 64.27 292.31 64.27 C291.4 58.77 291.1 53.4 290.99 47.83 C290.97 47.05 290.95 46.27 290.94 45.47 C290.87 42.59 290.81 39.71 290.75 36.83 C290.6 30.37 290.46 23.92 290.31 17.27 C276.78 17.27 263.25 17.27 249.31 17.27 C249.2 24.87 249.1 32.46 249.05 40.06 C249.02 43.6 248.99 47.14 248.93 50.68 C248.87 54.74 248.84 58.81 248.82 62.87 C248.79 64.14 248.77 65.4 248.74 66.7 C248.46 73.69 248.46 73.69 251.72 79.51 C252.57 80.09 253.43 80.67 254.31 81.27 C254.95 81.75 255.6 82.24 256.26 82.74 C256.83 83.12 257.41 83.5 258 83.89 C260.6 85.61 261.49 86.53 263.31 89.27 C264.3 89.27 265.29 89.27 266.31 89.27 C266.56 89.84 266.8 90.42 267.06 91.02 C268.57 93.74 269.77 95.42 272.31 97.27 C276.66 97.26 276.66 97.26 280.31 95.27 C289.31 94.46 297 94.4 304.31 100.27 C306.06 101.87 307.68 103.53 309.31 105.27 C309.97 105.27 310.63 105.27 311.31 105.27 C312.15 109.25 312.76 113.24 313.31 117.27 C313.97 117.27 314.63 117.27 315.31 117.27 C315.31 119.25 315.31 121.23 315.31 123.27 C314.65 123.27 313.99 123.27 313.31 123.27 C312.65 127.23 311.99 131.19 311.31 135.27 C310.65 135.27 309.99 135.27 309.31 135.27 C309.31 136.26 309.31 137.25 309.31 138.27 C307.99 138.6 306.67 138.93 305.31 139.27 C305.31 140.26 305.31 141.25 305.31 142.27 C303.33 142.93 301.35 143.59 299.31 144.27 C299.31 144.93 299.31 145.59 299.31 146.27 C296.6 146.32 293.89 146.36 291.18 146.39 C290.42 146.41 289.66 146.42 288.88 146.44 C282.8 146.49 277.6 145.44 272.31 142.27 C270.64 140.61 270.64 140.61 269.12 138.77 C268.61 138.16 268.1 137.55 267.58 136.92 C266.31 135.27 266.31 135.27 265.31 133.27 C264.65 133.27 263.99 133.27 263.31 133.27 C263.11 130.75 262.93 128.22 262.75 125.7 C262.69 125 262.63 124.29 262.58 123.57 C262.26 118.95 262.5 114.82 263.31 110.27 C261.99 109.61 260.67 108.95 259.31 108.27 C259.31 107.61 259.31 106.95 259.31 106.27 C258.44 105.89 258.44 105.89 257.56 105.52 C255.02 104.1 253.36 102.31 251.31 100.27 C250.65 100.27 249.99 100.27 249.31 100.27 C249.31 99.61 249.31 98.95 249.31 98.27 C246.8 96.06 244.23 93.99 241.61 91.93 C237.41 88.57 237.41 88.57 236.31 85.27 C235.65 84.94 234.99 84.61 234.31 84.27 C229.93 62.36 232.67 39.61 232.31 17.27 C180.17 17.27 128.03 17.27 74.31 17.27 C74.31 17.93 74.31 18.59 74.31 19.27 C73.65 19.27 72.99 19.27 72.31 19.27 C72.14 20.11 71.98 20.96 71.81 21.83 C69.97 26.05 67.55 27.94 63.99 30.75 C63.43 31.25 62.88 31.75 62.31 32.27 C62.31 32.93 62.31 33.59 62.31 34.27 C56.86 35.26 56.86 35.26 51.31 36.27 C51.31 36.93 51.31 37.59 51.31 38.27 C47.02 38.27 42.73 38.27 38.31 38.27 C38.31 37.61 38.31 36.95 38.31 36.27 C37.69 36.16 37.08 36.05 36.45 35.93 C35.23 35.7 35.23 35.7 34 35.45 C33.2 35.3 32.4 35.15 31.57 35 C29.02 34.17 28.04 33.27 26.31 31.27 C25.44 30.42 24.58 29.57 23.68 28.7 C21.31 26.27 21.31 26.27 20.31 24.27 C19.65 24.27 18.99 24.27 18.31 24.27 C17.65 21.96 16.99 19.65 16.31 17.27 C10.04 17.27 3.77 17.27 -2.69 17.27 Z M340.31 90.27 C340.31 90.93 340.31 91.59 340.31 92.27 C339.32 92.6 338.33 92.93 337.31 93.27 C336.39 97.96 335.95 101.02 338.31 105.27 C340.16 107.85 341.16 108.23 344.31 109.02 C347.36 109.47 347.36 109.47 350.31 108.27 C353.28 105.57 353.28 105.57 355.31 102.27 C355.44 99.15 354.99 96.3 354.31 93.27 C353.32 92.94 352.33 92.61 351.31 92.27 C351.31 91.61 351.31 90.95 351.31 90.27 C347.91 88.57 343.71 88.57 340.31 90.27 Z M281.12 112.83 C278.65 116.16 278.2 119.16 278.31 123.27 C279.1 125.69 279.1 125.69 280.31 127.27 C280.97 127.27 281.63 127.27 282.31 127.27 C282.31 127.93 282.31 128.59 282.31 129.27 C285.3 130.76 288.01 130.38 291.31 130.27 C294.5 129.54 294.5 129.54 296.06 126.7 C297.7 122.18 297.47 119.92 296.31 115.27 C294.39 113.68 294.39 113.68 292.31 113.27 C292.31 112.61 292.31 111.95 292.31 111.27 C287.63 110.1 285.1 109.99 281.12 112.83 Z " fill="#1a1a1a" transform="translate(175.69140625,121.734375)"/>
<path d="M0 0 C133.65 0 267.3 0 405 0 C405 10.89 405 21.78 405 33 C271.35 33 137.7 33 0 33 C0 22.11 0 11.22 0 0 Z " fill="#888F8F" transform="translate(887,33)"/>
<path d="M0 0 C3.56 1.45 6.4 3.14 9 6 C9 6.66 9 7.32 9 8 C9.66 8 10.32 8 11 8 C11 8.66 11 9.32 11 10 C11.57 10.26 12.14 10.52 12.73 10.79 C20.5 14.93 27.1 21.77 33.75 27.5 C38.18 31.32 42.68 35.04 47.22 38.72 C50.9 41.74 54.53 44.83 58.16 47.91 C61.63 50.86 65.14 53.76 68.69 56.62 C88.09 72.48 88.09 72.48 89 80 C89.5 86.54 88.51 91.94 84.31 97.06 C82.6 98.83 80.95 100.5 79 102 C78.34 102 77.68 102 77 102 C77 102.66 77 103.32 77 104 C74.97 105.72 72.93 107.34 70.81 108.94 C65.91 112.71 61.08 116.54 56.38 120.56 C55.85 121.01 55.32 121.46 54.78 121.92 C52.62 123.76 50.46 125.61 48.3 127.45 C46.64 128.87 44.98 130.28 43.31 131.69 C42.34 132.52 41.37 133.35 40.36 134.2 C38 136 38 136 36 136 C36 136.66 36 137.32 36 138 C34.42 139.41 34.42 139.41 32.19 141.06 C27.46 144.62 22.91 148.37 18.38 152.18 C16 154 16 154 13 155 C13 155.66 13 156.32 13 157 C10.74 158.77 8.48 160.43 6.12 162.06 C5.47 162.52 4.82 162.98 4.15 163.46 C-2.26 167.96 -6.19 168.75 -14 168 C-19.94 166.26 -23.5 162.99 -27 158 C-28.12 154.64 -28.11 152.12 -28.1 148.58 C-28.09 146.7 -28.09 146.7 -28.09 144.78 C-28.08 142.82 -28.08 142.82 -28.06 140.81 C-28.06 139.48 -28.05 138.14 -28.05 136.81 C-28.04 133.54 -28.02 130.27 -28 127 C-29.17 127.01 -30.34 127.02 -31.55 127.03 C-42.62 127.14 -53.68 127.21 -64.74 127.26 C-70.43 127.29 -76.12 127.32 -81.81 127.38 C-87.3 127.43 -92.79 127.46 -98.28 127.47 C-100.38 127.48 -102.47 127.5 -104.56 127.53 C-107.5 127.57 -110.43 127.57 -113.37 127.57 C-114.23 127.59 -115.09 127.6 -115.98 127.62 C-122.15 127.57 -126.19 125.88 -131 122 C-135.21 117.47 -136.12 114.24 -136.16 108.16 C-136.17 106.95 -136.18 105.75 -136.19 104.51 C-136.19 103.21 -136.2 101.91 -136.2 100.57 C-136.21 99.23 -136.21 97.88 -136.22 96.53 C-136.23 93.7 -136.24 90.87 -136.24 88.04 C-136.25 84.43 -136.27 80.81 -136.3 77.2 C-136.32 74.41 -136.32 71.62 -136.32 68.84 C-136.33 66.86 -136.35 64.88 -136.37 62.9 C-136.36 61.69 -136.36 60.48 -136.36 59.23 C-136.36 58.17 -136.36 57.11 -136.37 56.02 C-135.74 50.9 -133.55 46.98 -129.62 43.69 C-128.78 42.95 -128.78 42.95 -127.91 42.2 C-123.17 39.23 -117.3 39.86 -111.9 39.89 C-110.99 39.89 -110.08 39.89 -109.14 39.89 C-106.15 39.89 -103.16 39.89 -100.17 39.9 C-98.09 39.9 -96.01 39.91 -93.93 39.91 C-88.47 39.91 -83.01 39.92 -77.55 39.93 C-71.97 39.94 -66.39 39.95 -60.81 39.95 C-49.88 39.96 -38.94 39.98 -28 40 C-28.02 39.28 -28.03 38.57 -28.05 37.83 C-28.11 34.55 -28.15 31.28 -28.19 28 C-28.21 26.87 -28.24 25.75 -28.26 24.59 C-28.33 16.58 -27.95 10.4 -22.5 4.12 C-16.03 -1.37 -8.19 -1.23 0 0 Z M-10 15 C-12.85 17.85 -12.3 20.67 -12.31 24.49 C-12.33 26.02 -12.36 27.54 -12.38 29.07 C-12.41 31.47 -12.44 33.88 -12.46 36.28 C-12.48 38.6 -12.52 40.92 -12.56 43.24 C-12.56 43.96 -12.56 44.68 -12.56 45.41 C-12.61 48.21 -12.83 50.6 -13.92 53.19 C-17.37 56.19 -21.25 55.55 -25.67 55.51 C-27.16 55.52 -27.16 55.52 -28.68 55.54 C-31.96 55.56 -35.25 55.55 -38.54 55.54 C-40.81 55.55 -43.09 55.56 -45.37 55.57 C-51.37 55.61 -57.37 55.62 -63.37 55.62 C-72.98 55.63 -82.59 55.67 -92.2 55.71 C-95.57 55.73 -98.93 55.73 -102.3 55.72 C-104.35 55.73 -106.4 55.74 -108.46 55.74 C-109.4 55.74 -110.34 55.74 -111.31 55.73 C-112.17 55.74 -113.02 55.74 -113.91 55.75 C-115.03 55.75 -115.03 55.75 -116.17 55.75 C-118.25 55.85 -118.25 55.85 -120 58 C-120.31 60.25 -120.31 60.25 -120.26 62.88 C-120.27 63.89 -120.27 64.91 -120.28 65.95 C-120.27 67.05 -120.27 68.15 -120.27 69.28 C-120.27 70.41 -120.27 71.53 -120.27 72.69 C-120.27 75.07 -120.27 77.45 -120.26 79.83 C-120.25 83.48 -120.26 87.14 -120.27 90.79 C-120.27 93.1 -120.27 95.41 -120.27 97.72 C-120.27 98.82 -120.27 99.92 -120.28 101.05 C-120.27 102.06 -120.27 103.08 -120.26 104.12 C-120.26 105.02 -120.26 105.91 -120.25 106.84 C-120.2 109.21 -120.2 109.21 -118 111 C-116.12 111.3 -116.12 111.3 -113.95 111.25 C-113.11 111.26 -112.26 111.26 -111.39 111.27 C-109.99 111.26 -109.99 111.26 -108.56 111.26 C-107.59 111.26 -106.61 111.26 -105.6 111.27 C-103.47 111.27 -101.34 111.28 -99.21 111.27 C-95.84 111.27 -92.47 111.29 -89.1 111.3 C-79.51 111.35 -69.93 111.37 -60.34 111.38 C-54.49 111.39 -48.63 111.41 -42.77 111.45 C-40.54 111.46 -38.3 111.46 -36.07 111.45 C-32.94 111.45 -29.82 111.46 -26.69 111.49 C-25.77 111.48 -24.84 111.47 -23.89 111.46 C-17.65 111.54 -17.65 111.54 -14.43 113.81 C-12.34 117.02 -12.4 120.12 -12.39 123.83 C-12.37 124.58 -12.36 125.33 -12.34 126.1 C-12.29 128.48 -12.27 130.87 -12.25 133.25 C-12.22 134.87 -12.19 136.49 -12.16 138.11 C-12.09 142.07 -12.04 146.04 -12 150 C-10.02 150.99 -10.02 150.99 -8 152 C-6.68 150.86 -6.68 150.86 -5.32 149.69 C2.89 142.62 11.21 135.69 19.63 128.87 C24.72 124.73 29.73 120.53 34.69 116.25 C40.37 111.35 46.16 106.6 52 101.89 C58.79 96.4 65.41 90.72 72 85 C71.16 80.27 68.2 78.23 64.62 75.31 C63.99 74.78 63.36 74.25 62.7 73.7 C60.81 72.12 58.91 70.56 57 69 C56.05 68.22 55.1 67.44 54.12 66.64 C52.35 65.2 50.59 63.76 48.82 62.33 C45.61 59.68 42.46 56.97 39.31 54.25 C33.62 49.34 27.82 44.58 21.98 39.87 C17.46 36.21 13.02 32.48 8.62 28.69 C0.06 19.8 0.06 19.8 -10 15 Z " fill="#00FFD1" transform="translate(747,217)"/>
<path d="M0 0 C0.65 0.11 1.3 0.23 1.96 0.35 C2.94 0.48 2.94 0.48 3.94 0.62 C6.83 1.78 8.08 2.85 9.9 5.41 C10.38 8.34 10.28 11.2 10.15 14.16 C10.13 14.95 10.12 15.75 10.1 16.56 C10.05 18.51 9.98 20.46 9.9 22.41 C13.86 22.41 17.82 22.41 21.9 22.41 C21.84 21.24 21.79 20.07 21.73 18.87 C21.68 17.32 21.63 15.77 21.59 14.22 C21.55 13.45 21.51 12.68 21.46 11.89 C21.37 7.64 21.54 5.91 24.13 2.36 C27.08 0.29 28.04 -0.19 31.53 0.35 C32.28 0.44 33.04 0.53 33.82 0.62 C36.73 1.72 37.5 2.61 38.9 5.41 C39.25 8.34 39.19 11.22 39.09 14.16 C39.07 15.35 39.07 15.35 39.05 16.56 C39.01 18.51 38.96 20.46 38.9 22.41 C42.86 22.41 46.82 22.41 50.9 22.41 C50.86 21.23 50.81 20.05 50.76 18.83 C50.72 17.27 50.69 15.72 50.65 14.16 C50.62 13.38 50.59 12.61 50.55 11.8 C50.45 6.03 50.45 6.03 52.7 2.92 C55.77 0.82 58.22 0.54 61.9 0.41 C65.3 1.51 65.85 2.33 67.9 5.41 C68.13 7.31 68.13 7.31 68.1 9.42 C68.09 10.18 68.08 10.94 68.08 11.72 C68.05 12.9 68.05 12.9 68.03 14.1 C68.02 14.89 68.01 15.69 68 16.51 C67.98 18.48 67.94 20.44 67.9 22.41 C71.86 22.41 75.82 22.41 79.9 22.41 C79.86 21.23 79.81 20.05 79.76 18.83 C79.72 17.27 79.69 15.72 79.65 14.16 C79.62 13.38 79.59 12.61 79.55 11.8 C79.45 6.03 79.45 6.03 81.7 2.92 C84.77 0.82 87.22 0.54 90.9 0.41 C93.34 1.35 93.34 1.35 94.9 2.41 C94.9 3.4 94.9 4.39 94.9 5.41 C95.56 5.41 96.22 5.41 96.9 5.41 C96.9 11.02 96.9 16.63 96.9 22.41 C98.88 22.74 100.86 23.07 102.9 23.41 C107.01 26.25 109.61 28.52 110.9 33.41 C110.9 34.4 110.9 35.39 110.9 36.41 C112 36.38 113.1 36.34 114.23 36.3 C115.68 36.28 117.14 36.25 118.59 36.22 C119.67 36.18 119.67 36.18 120.78 36.15 C125.31 36.08 128.43 36.37 131.9 39.41 C131.9 40.73 131.9 42.05 131.9 43.41 C132.56 43.41 133.22 43.41 133.9 43.41 C133.9 44.73 133.9 46.05 133.9 47.41 C133.24 47.41 132.58 47.41 131.9 47.41 C131.82 48.19 131.74 48.98 131.65 49.79 C130.9 52.41 130.9 52.41 129.37 53.57 C125.82 54.78 122.36 54.62 118.65 54.54 C117.91 54.53 117.16 54.52 116.39 54.51 C114.56 54.48 112.73 54.45 110.9 54.41 C110.9 58.04 110.9 61.67 110.9 65.41 C116.51 65.41 122.12 65.41 127.9 65.41 C127.9 66.07 127.9 66.73 127.9 67.41 C129.22 67.74 130.54 68.07 131.9 68.41 C131.9 69.73 131.9 71.05 131.9 72.41 C132.56 72.41 133.22 72.41 133.9 72.41 C133.9 73.73 133.9 75.05 133.9 76.41 C133.24 76.41 132.58 76.41 131.9 76.41 C131.82 77.19 131.74 77.98 131.65 78.79 C130.9 81.41 130.9 81.41 129.37 82.57 C125.82 83.78 122.36 83.62 118.65 83.54 C117.91 83.53 117.16 83.52 116.39 83.51 C114.56 83.48 112.73 83.45 110.9 83.41 C110.85 84 110.8 84.59 110.75 85.2 C110.22 88.83 109.84 91.51 107.13 94.12 C103.38 96.53 101.47 97.41 96.9 97.41 C96.95 98.59 97 99.77 97.04 100.99 C97.08 102.55 97.12 104.1 97.15 105.66 C97.2 106.83 97.2 106.83 97.25 108.02 C97.32 111.77 97.34 113.77 95.17 116.93 C92.66 118.57 91.37 118.95 88.4 118.91 C87.65 118.92 86.9 118.93 86.12 118.94 C82.88 118.17 81.8 117.16 79.9 114.41 C79.43 111.48 79.52 108.62 79.65 105.66 C79.67 104.87 79.69 104.07 79.71 103.26 C79.75 101.31 79.83 99.36 79.9 97.41 C75.94 97.41 71.98 97.41 67.9 97.41 C67.93 98.52 67.95 99.63 67.97 100.77 C67.99 102.23 68.01 103.7 68.03 105.16 C68.04 105.89 68.06 106.62 68.08 107.37 C68.14 114.45 68.14 114.45 65.9 117.41 C62.76 118.83 60.36 119.76 56.92 118.93 C52.2 117.01 52.2 117.01 50.9 114.41 C50.83 111.53 50.81 108.67 50.84 105.79 C50.84 104.98 50.85 104.18 50.85 103.36 C50.87 101.37 50.88 99.39 50.9 97.41 C46.94 97.41 42.98 97.41 38.9 97.41 C38.95 98.59 39 99.77 39.04 100.99 C39.08 102.55 39.12 104.1 39.15 105.66 C39.19 106.44 39.22 107.21 39.25 108.02 C39.35 113.79 39.35 113.79 37.1 116.9 C34 119.03 31.65 119.34 27.9 119.41 C25.03 118.16 25.03 118.16 22.9 116.41 C21.65 112.65 21.8 109.14 21.84 105.22 C21.84 104.47 21.85 103.72 21.85 102.95 C21.87 101.1 21.88 99.26 21.9 97.41 C17.94 97.41 13.98 97.41 9.9 97.41 C9.95 98.59 10 99.77 10.04 100.99 C10.08 102.55 10.12 104.1 10.15 105.66 C10.19 106.44 10.22 107.21 10.25 108.02 C10.35 113.79 10.35 113.79 8.1 116.9 C5 119.03 2.65 119.34 -1.1 119.41 C-4.05 118.06 -5.64 117.32 -7.1 114.41 C-7.17 111.53 -7.19 108.67 -7.16 105.79 C-7.16 104.98 -7.15 104.18 -7.15 103.36 C-7.13 101.37 -7.12 99.39 -7.1 97.41 C-9.41 97.08 -11.72 96.75 -14.1 96.41 C-14.1 95.75 -14.1 95.09 -14.1 94.41 C-14.9 94.2 -15.71 94 -16.54 93.79 C-17.8 93.1 -17.8 93.1 -19.1 92.41 C-19.91 89.29 -19.91 89.29 -20.1 86.41 C-20.76 86.41 -21.42 86.41 -22.1 86.41 C-22.1 85.42 -22.1 84.43 -22.1 83.41 C-27.05 83.41 -32 83.41 -37.1 83.41 C-37.1 82.75 -37.1 82.09 -37.1 81.41 C-38.42 81.41 -39.74 81.41 -41.1 81.41 C-41.1 80.75 -41.1 80.09 -41.1 79.41 C-41.76 79.41 -42.42 79.41 -43.1 79.41 C-44.22 72.79 -44.22 72.79 -43.1 69.41 C-42.44 69.41 -41.78 69.41 -41.1 69.41 C-41.1 68.75 -41.1 68.09 -41.1 67.41 C-37.31 64.88 -34.29 65.19 -29.91 65.29 C-29.16 65.29 -28.41 65.3 -27.64 65.31 C-25.79 65.34 -23.94 65.37 -22.1 65.41 C-22.1 61.78 -22.1 58.15 -22.1 54.41 C-27.05 54.41 -32 54.41 -37.1 54.41 C-37.1 53.75 -37.1 53.09 -37.1 52.41 C-38.42 52.41 -39.74 52.41 -41.1 52.41 C-41.1 51.75 -41.1 51.09 -41.1 50.41 C-41.76 50.41 -42.42 50.41 -43.1 50.41 C-44.44 44.18 -44.44 44.18 -42.85 40.6 C-41.1 38.41 -41.1 38.41 -38.1 36.41 C-35.33 36.27 -32.67 36.22 -29.91 36.29 C-29.16 36.29 -28.41 36.3 -27.64 36.31 C-25.79 36.34 -23.94 36.37 -22.1 36.41 C-22.1 35.42 -22.1 34.43 -22.1 33.41 C-21.44 33.41 -20.78 33.41 -20.1 33.41 C-20.04 32.46 -19.97 31.51 -19.91 30.54 C-19.64 29.5 -19.37 28.47 -19.1 27.41 C-16.54 26.04 -16.54 26.04 -14.1 25.41 C-14.1 24.75 -14.1 24.09 -14.1 23.41 C-11.79 23.08 -9.48 22.75 -7.1 22.41 C-7.16 21.24 -7.21 20.07 -7.27 18.87 C-7.32 17.32 -7.37 15.77 -7.41 14.22 C-7.45 13.45 -7.49 12.68 -7.54 11.89 C-7.63 7.62 -7.47 5.91 -4.83 2.36 C-2.1 0.41 -2.1 0.41 0 0 Z M-5.1 39.41 C-5.1 52.94 -5.1 66.47 -5.1 80.41 C27.57 80.41 60.24 80.41 93.9 80.41 C93.9 66.88 93.9 53.35 93.9 39.41 C61.23 39.41 28.56 39.41 -5.1 39.41 Z " fill="#03FACE" transform="translate(241.09765625,171.58984375)"/>
<path d="M0 0 C43.56 0 87.12 0 132 0 C132 23.1 132 46.2 132 70 C88.44 70 44.88 70 0 70 C0 46.9 0 23.8 0 0 Z " fill="#000000" transform="translate(1198,216)"/>
<path d="M0 0 C31.02 0 62.04 0 94 0 C94 30.03 94 60.06 94 91 C62.98 91 31.96 91 0 91 C0 60.97 0 30.94 0 0 Z " fill="#606060" transform="translate(1081,342)"/>
<path d="M0 0 C1.41 -0.11 2.83 -0.19 4.25 -0.25 C5.04 -0.3 5.83 -0.34 6.64 -0.39 C9 0 9 0 11.28 1.47 C13.8 5.18 13.44 8.38 13.25 12.75 C13.23 13.54 13.21 14.34 13.2 15.15 C13.15 17.1 13.08 19.05 13 21 C16.96 21 20.92 21 25 21 C24.98 19.96 24.95 18.93 24.93 17.86 C24.91 16.49 24.89 15.12 24.88 13.75 C24.86 13.07 24.84 12.39 24.82 11.68 C24.79 7.94 24.92 5.18 27 2 C27.66 2 28.32 2 29 2 C29 1.34 29 0.68 29 0 C31.97 0 34.94 0 38 0 C38 0.66 38 1.32 38 2 C39.32 2.66 40.64 3.32 42 4 C42 9.61 42 15.22 42 21 C45.96 21 49.92 21 54 21 C53.98 19.96 53.95 18.93 53.93 17.86 C53.91 16.49 53.89 15.12 53.88 13.75 C53.86 13.07 53.84 12.39 53.82 11.68 C53.79 7.94 53.92 5.18 56 2 C56.99 2 57.98 2 59 2 C59 1.34 59 0.68 59 0 C61.64 0 64.28 0 67 0 C67 0.66 67 1.32 67 2 C67.66 2 68.32 2 69 2 C69 2.66 69 3.32 69 4 C69.66 4 70.32 4 71 4 C71 9.61 71 15.22 71 21 C71.66 21 72.32 21 73 21 C73 21.66 73 22.32 73 23 C73.89 23.06 74.77 23.12 75.69 23.19 C79.89 24.22 81.39 25.57 84 29 C84.4 31.32 84.74 33.66 85 36 C86.65 35.95 86.65 35.95 88.32 35.89 C89.78 35.87 91.23 35.84 92.69 35.81 C93.77 35.77 93.77 35.77 94.87 35.74 C99.46 35.67 102.37 36.13 106 39 C107.51 42.02 107.17 44.66 107 48 C105.98 50.76 105.64 51.68 103 53 C101.62 53.08 100.25 53.11 98.87 53.1 C98.06 53.09 97.26 53.09 96.43 53.09 C95.16 53.08 95.16 53.08 93.88 53.06 C92.6 53.06 92.6 53.06 91.3 53.05 C89.2 53.04 87.1 53.02 85 53 C85 56.96 85 60.92 85 65 C86.11 64.98 87.22 64.95 88.36 64.93 C89.82 64.91 91.29 64.89 92.75 64.88 C93.84 64.85 93.84 64.85 94.96 64.82 C101.95 64.76 101.95 64.76 105 67 C107.47 70.7 107.31 72.62 107 77 C105.98 79.76 105.64 80.68 103 82 C101.62 82.08 100.25 82.11 98.87 82.1 C98.06 82.09 97.26 82.09 96.43 82.09 C95.16 82.08 95.16 82.08 93.88 82.06 C93.03 82.06 92.18 82.05 91.3 82.05 C89.2 82.04 87.1 82.02 85 82 C84.88 83.26 84.76 84.52 84.63 85.82 C84.31 89.14 83.96 90.05 81.94 92.94 C78.12 95.61 75.59 95.55 71 96 C71.05 97.77 71.05 97.77 71.11 99.58 C71.13 101.14 71.16 102.69 71.19 104.25 C71.21 105.03 71.24 105.8 71.26 106.61 C71.31 110.11 71.31 112.4 69.68 115.55 C68 117 68 117 65 117 C65 117.66 65 118.32 65 119 C63.02 119 61.04 119 59 119 C59 118.34 59 117.68 59 117 C57.02 116.5 57.02 116.5 55 116 C53.85 111.91 53.89 107.97 53.94 103.75 C53.94 103 53.95 102.26 53.95 101.49 C53.96 99.66 53.98 97.83 54 96 C50.04 96 46.08 96 42 96 C42.05 97.9 42.05 97.9 42.11 99.83 C42.13 101.49 42.16 103.15 42.19 104.81 C42.21 105.65 42.24 106.48 42.26 107.34 C42.27 108.14 42.28 108.94 42.29 109.77 C42.31 110.51 42.32 111.25 42.34 112.01 C41.9 114.58 41.08 115.46 39 117 C38.01 117 37.02 117 36 117 C36 117.66 36 118.32 36 119 C34.02 119 32.04 119 30 119 C30 118.34 30 117.68 30 117 C29.01 117 28.02 117 27 117 C24.29 113.02 24.78 108.86 24.88 104.25 C24.88 103.46 24.89 102.66 24.9 101.85 C24.93 99.9 24.96 97.95 25 96 C21.04 96 17.08 96 13 96 C13.05 98.02 13.05 98.02 13.11 100.09 C13.13 101.85 13.16 103.61 13.19 105.38 C13.21 106.26 13.24 107.15 13.26 108.07 C13.27 108.92 13.28 109.77 13.29 110.65 C13.31 111.43 13.32 112.22 13.34 113.03 C13.23 113.68 13.12 114.33 13 115 C10 117 10 117 7 117 C7 117.66 7 118.32 7 119 C5.02 119 3.04 119 1 119 C1 118.34 1 117.68 1 117 C0.01 117 -0.98 117 -2 117 C-4.71 113.02 -4.22 108.86 -4.12 104.25 C-4.12 103.46 -4.11 102.66 -4.1 101.85 C-4.07 99.9 -4.04 97.95 -4 96 C-6 95.8 -8 95.6 -10.01 95.4 C-12.98 94.8 -14.29 93.43 -16 91 C-16 90.01 -16 89.02 -16 88 C-16.66 88 -17.32 88 -18 88 C-18.33 86.35 -18.66 84.7 -19 83 C-20.18 82.97 -21.36 82.95 -22.58 82.92 C-24.14 82.87 -25.69 82.81 -27.25 82.75 C-28.03 82.74 -28.8 82.72 -29.61 82.71 C-33.32 82.55 -35.42 82.4 -38.52 80.24 C-40.19 77.72 -40.51 76.43 -40.44 73.44 C-40.44 72.67 -40.43 71.91 -40.43 71.12 C-39.89 68.47 -39.15 67.61 -37 66 C-33.27 64.5 -29.21 64.89 -25.25 64.94 C-24.55 64.94 -23.86 64.95 -23.14 64.95 C-21.42 64.96 -19.71 64.98 -18 65 C-18.33 61.37 -18.66 57.74 -19 54 C-20.18 53.97 -21.36 53.95 -22.58 53.92 C-24.14 53.87 -25.69 53.81 -27.25 53.75 C-28.03 53.74 -28.8 53.72 -29.61 53.71 C-33.32 53.55 -35.42 53.4 -38.52 51.24 C-40.19 48.72 -40.51 47.43 -40.44 44.44 C-40.44 43.67 -40.43 42.91 -40.43 42.12 C-39.89 39.47 -39.15 38.61 -37 37 C-33.27 35.5 -29.21 35.89 -25.25 35.94 C-24.2 35.94 -24.2 35.94 -23.14 35.95 C-21.42 35.96 -19.71 35.98 -18 36 C-17.89 34.9 -17.77 33.81 -17.66 32.68 C-16.86 28.24 -15.37 26.87 -12 24 C-11.67 23.67 -11.34 23.34 -11 23 C-9.33 22.96 -7.67 22.96 -6 23 C-6 22.34 -6 21.68 -6 21 C-5.34 21 -4.68 21 -4 21 C-4.02 19.96 -4.05 18.93 -4.07 17.86 C-4.09 16.49 -4.11 15.12 -4.12 13.75 C-4.14 13.07 -4.16 12.39 -4.18 11.68 C-4.21 7.94 -4.08 5.18 -2 2 C-1.34 2 -0.68 2 0 2 C0 1.34 0 0.68 0 0 Z M-2 38 C-2.02 44.91 -2.04 51.82 -2.06 58.94 C-2.07 61.12 -2.08 63.3 -2.09 65.55 C-2.09 67.27 -2.1 68.99 -2.1 70.71 C-2.1 71.62 -2.11 72.52 -2.11 73.45 C-2.11 75.63 -2.06 77.82 -2 80 C-0.91 81.31 -0.91 81.31 1.74 81.12 C2.96 81.12 4.19 81.12 5.45 81.11 C6.12 81.11 6.79 81.11 7.49 81.11 C9.72 81.11 11.96 81.11 14.19 81.1 C15.74 81.1 17.28 81.09 18.83 81.09 C22.9 81.09 26.98 81.08 31.05 81.07 C35.94 81.06 40.83 81.05 45.71 81.05 C53.14 81.04 60.57 81.02 68 81 C68 66.81 68 52.62 68 38 C44.9 38 21.8 38 -2 38 Z " fill="#02FBCE" transform="translate(441,303)"/>
<path d="M0 0 C34.65 0 69.3 0 105 0 C105 19.8 105 39.6 105 60 C70.35 60 35.7 60 0 60 C0 40.2 0 20.4 0 0 Z " fill="#000000" transform="translate(1363,358)"/>
<path d="M0 0 C0.7 0 1.41 0 2.13 0 C8.14 0.15 12.96 1.45 18.25 4.38 C19.3 4.95 20.35 5.53 21.44 6.12 C28.59 11.84 34.48 19.21 36.25 28.38 C37 40.48 35.44 50.69 27.68 60.32 C21.34 67.13 14.15 70.96 4.87 71.61 C-5.31 71.82 -13.88 70.86 -22 64.19 C-23.28 62.95 -24.53 61.68 -25.75 60.38 C-26.39 59.69 -27.03 59.01 -27.69 58.31 C-33.61 51.4 -36.56 43.04 -36.15 33.88 C-34.26 22.06 -29.08 13.01 -19.6 5.72 C-13.41 1.63 -7.43 -0.02 0 0 Z " fill="#00F9CC" transform="translate(1035.75,349.625)"/>
<path d="M0 0 C33 0 66 0 100 0 C100 11.22 100 22.44 100 34 C67 34 34 34 0 34 C0 22.78 0 11.56 0 0 Z " fill="#888F8F" transform="translate(1654,549)"/>
<path d="M0 0 C33 0 66 0 100 0 C100 11.22 100 22.44 100 34 C67 34 34 34 0 34 C0 22.78 0 11.56 0 0 Z " fill="#888F8F" transform="translate(1546,549)"/>
<path d="M0 0 C24.09 0 48.18 0 73 0 C73 3.96 73 7.92 73 12 C90.49 12 107.98 12 126 12 C126 12.33 126 12.66 126 13 C108.51 13 91.02 13 73 13 C73 22.57 73 32.14 73 42 C48.91 42 24.82 42 0 42 C0 32.43 0 22.86 0 13 C-66.66 13 -133.32 13 -202 13 C-202 12.67 -202 12.34 -202 12 C-135.34 12 -68.68 12 0 12 C0 8.04 0 4.08 0 0 Z " fill="#9F9F9F" transform="translate(1389,122)"/>
<path d="M0 0 C29.7 0 59.4 0 90 0 C90 0.66 90 1.32 90 2 C90.64 2.12 91.28 2.25 91.94 2.38 C92.62 2.58 93.3 2.79 94 3 C95.26 5.53 95.13 7.26 95.13 10.09 C95.13 11.18 95.14 12.26 95.14 13.38 C95.14 14.58 95.14 15.78 95.13 17.02 C95.14 18.29 95.14 19.56 95.14 20.87 C95.15 24.4 95.15 27.93 95.15 31.47 C95.15 35.27 95.15 39.08 95.16 42.89 C95.16 50.35 95.17 57.81 95.17 65.27 C95.17 71.34 95.17 77.4 95.17 83.46 C95.18 100.64 95.19 117.82 95.19 135 C95.19 136.39 95.19 136.39 95.19 137.8 C95.19 138.73 95.19 139.66 95.19 140.62 C95.18 155.66 95.19 170.7 95.21 185.74 C95.22 201.17 95.23 216.6 95.23 232.04 C95.23 240.7 95.23 249.37 95.24 258.04 C95.25 265.42 95.25 272.8 95.25 280.18 C95.24 283.95 95.24 287.72 95.25 291.49 C95.26 295.57 95.25 299.65 95.25 303.73 C95.25 304.92 95.26 306.12 95.26 307.35 C95.26 308.44 95.25 309.53 95.25 310.66 C95.25 312.07 95.25 312.07 95.25 313.51 C94.98 316.15 94.4 317.76 93 320 C89.66 322.4 86.49 322.25 82.47 322.25 C81.81 322.25 81.16 322.25 80.48 322.25 C78.27 322.26 76.07 322.25 73.86 322.24 C72.27 322.24 70.68 322.25 69.09 322.25 C64.73 322.25 60.37 322.25 56.01 322.24 C51.34 322.23 46.68 322.23 42.01 322.23 C32.96 322.23 23.91 322.22 14.85 322.2 C7.55 322.19 0.25 322.18 -7.05 322.18 C-82.71 322.12 -158.35 321.71 -234 321 C-234 319.68 -234 318.36 -234 317 C-234.66 317 -235.32 317 -236 317 C-237.46 314.35 -238 313.11 -238 310 C-237.34 310 -236.68 310 -236 310 C-234.68 312.64 -233.36 315.28 -232 318 C-205.22 318.13 -178.45 318.26 -151.67 318.39 C-139.23 318.45 -126.78 318.51 -114.34 318.57 C-99.88 318.65 -85.42 318.71 -70.96 318.78 C-69.18 318.79 -69.18 318.79 -67.35 318.8 C-14.9 319.04 37.55 319.06 90 319 C90 318.34 90 317.68 90 317 C90.66 316.67 91.32 316.34 92 316 C92 213.37 92 110.74 92 5 C88.75 3.38 85.17 3.82 81.6 3.79 C80.73 3.78 79.87 3.77 78.97 3.76 C76.09 3.73 73.21 3.71 70.34 3.68 C68.34 3.66 66.35 3.64 64.36 3.62 C59.11 3.57 53.86 3.52 48.61 3.47 C43.25 3.42 37.89 3.36 32.54 3.31 C22.03 3.2 11.51 3.1 1 3 C0.67 2.01 0.34 1.02 0 0 Z " fill="#1a1a1a" transform="translate(482,136)"/>
<path d="M0 0 C1.15 -0.02 1.15 -0.02 2.31 -0.04 C9.24 -0.06 9.24 -0.06 12.56 2.19 C12.56 2.85 12.56 3.51 12.56 4.19 C13.33 4.46 14.09 4.72 14.88 5 C18.71 6.69 20.08 7.97 21.63 11.89 C22.6 15.32 22.83 18.14 22.81 21.69 C22.82 23.31 22.82 23.31 22.83 24.97 C22.55 28.32 21.75 31.05 20.56 34.19 C19.9 34.19 19.24 34.19 18.56 34.19 C18.31 34.99 18.07 35.8 17.81 36.62 C16.56 39.19 16.56 39.19 14.44 40 C13.82 40.06 13.2 40.12 12.56 40.19 C12.56 40.85 12.56 41.51 12.56 42.19 C8.79 44.66 4.98 44.49 0.62 44.44 C-0.43 44.45 -0.43 44.45 -1.51 44.46 C-5.59 44.45 -8.76 44 -12.44 42.19 C-12.44 41.53 -12.44 40.87 -12.44 40.19 C-13.3 40.09 -13.3 40.09 -14.19 40 C-17.51 38.8 -18.59 37.18 -20.44 34.19 C-21.04 31.49 -21.25 28.97 -21.44 26.19 C-22.1 26.19 -22.76 26.19 -23.44 26.19 C-23.44 23.55 -23.44 20.91 -23.44 18.19 C-22.78 18.19 -22.12 18.19 -21.44 18.19 C-21.42 17.6 -21.41 17 -21.39 16.39 C-21.13 11.96 -20.86 9.73 -18.06 6.12 C-15.44 4.19 -15.44 4.19 -12.44 4.19 C-12.11 3.2 -11.78 2.21 -11.44 1.19 C-7.61 -0.09 -3.99 0 0 0 Z M-1.44 15.19 C-1.44 15.85 -1.44 16.51 -1.44 17.19 C-2.08 17.44 -2.72 17.68 -3.38 17.94 C-5.56 19.01 -5.56 19.01 -6.38 21.06 C-6.59 23.27 -6.59 23.27 -5.44 25.44 C-3.43 27.53 -3.43 27.53 0.12 27.56 C3.62 27.54 3.62 27.54 5.56 25.19 C5.9 22.19 5.9 22.19 5.56 19.19 C4.9 18.53 4.24 17.87 3.56 17.19 C2.57 17.19 1.58 17.19 0.56 17.19 C0.56 16.53 0.56 15.87 0.56 15.19 C-0.1 15.19 -0.76 15.19 -1.44 15.19 Z " fill="#1a1a1a" transform="translate(358.4375,383.8125)"/>
<path d="M0 0 C0.76 -0.01 1.51 -0.02 2.29 -0.04 C7.24 -0.05 11.37 0.13 15.21 3.62 C18.62 7.97 18.62 7.97 18.62 10.19 C19.28 10.19 19.94 10.19 20.62 10.19 C23.47 18.37 23.47 26.01 20.62 34.19 C19.97 34.19 19.31 34.19 18.62 34.19 C18.38 34.99 18.13 35.8 17.88 36.62 C16.62 39.19 16.62 39.19 14.5 40 C13.88 40.06 13.26 40.12 12.62 40.19 C12.62 40.85 12.62 41.51 12.62 42.19 C8.13 43.92 4.37 44.46 -0.44 44.44 C-1.62 44.44 -2.81 44.45 -4.04 44.45 C-7.25 44.2 -9.48 43.56 -12.38 42.19 C-12.38 41.53 -12.38 40.87 -12.38 40.19 C-13.33 40.03 -13.33 40.03 -14.31 39.88 C-15.33 39.53 -15.33 39.53 -16.38 39.19 C-16.87 37.7 -16.87 37.7 -17.38 36.19 C-18.04 36.19 -18.69 36.19 -19.38 36.19 C-20.04 33.22 -20.69 30.25 -21.38 27.19 C-22.04 27.19 -22.69 27.19 -23.38 27.19 C-23.38 23.89 -23.38 20.59 -23.38 17.19 C-22.71 17.19 -22.06 17.19 -21.38 17.19 C-21.16 15.52 -21.16 15.52 -20.94 13.81 C-20.38 10.19 -20.38 10.19 -19.38 8.19 C-18.71 8.19 -18.06 8.19 -17.38 8.19 C-16.71 6.87 -16.06 5.55 -15.38 4.19 C-14.38 4.19 -13.39 4.19 -12.38 4.19 C-12.05 3.2 -11.71 2.21 -11.38 1.19 C-7.57 -0.08 -3.97 0 0 0 Z M-0.38 15.19 C-3.49 16.76 -3.49 16.76 -6.38 19.19 C-7.13 22.27 -7.13 22.27 -6.38 25.19 C-2.7 27.64 -0.71 27.5 3.62 27.19 C5.94 25.3 5.94 25.3 5.88 22.19 C5.94 19.07 5.94 19.07 3.62 17.19 C2.63 17.19 1.64 17.19 0.62 17.19 C0.3 16.53 -0.04 15.87 -0.38 15.19 Z " fill="#1a1a1a" transform="translate(300.375,383.8125)"/>
<path d="M0 0 C0.7 0 1.41 0 2.13 0 C8.14 0.15 12.96 1.45 18.25 4.38 C19.3 4.95 20.35 5.53 21.44 6.12 C28.59 11.84 34.48 19.21 36.25 28.38 C37 40.48 35.44 50.69 27.68 60.32 C21.34 67.13 14.15 70.96 4.87 71.61 C-5.31 71.82 -13.88 70.86 -22 64.19 C-23.28 62.95 -24.53 61.68 -25.75 60.38 C-26.39 59.69 -27.03 59.01 -27.69 58.31 C-33.61 51.4 -36.56 43.04 -36.15 33.88 C-34.26 22.06 -29.08 13.01 -19.6 5.72 C-13.41 1.63 -7.43 -0.02 0 0 Z M-24.31 18.25 C-28.23 24.04 -29.25 28.4 -29.19 35.25 C-29.21 36.01 -29.23 36.78 -29.25 37.57 C-29.24 46.07 -25.5 52.43 -19.77 58.54 C-13.18 64.52 -6.41 66.08 2.34 65.97 C8.58 65.65 13.14 63.85 18.25 60.38 C19.16 59.82 20.07 59.26 21 58.69 C27.83 51.67 30.63 44.07 30.7 34.42 C30.51 26.66 27.79 20.12 22.42 14.44 C20.44 12.83 18.49 11.59 16.25 10.38 C15.51 9.97 14.77 9.56 14.01 9.13 C-0.37 2.3 -14.39 6.34 -24.31 18.25 Z " fill="#060E0D" transform="translate(1035.75,349.625)"/>
<path d="M0 0 C0.9 0 1.79 0.01 2.71 0.01 C4.12 0.02 4.12 0.02 5.55 0.04 C6.5 0.04 7.44 0.04 8.42 0.05 C10.76 0.06 13.09 0.08 15.43 0.1 C18.43 5.72 18.43 5.72 18.43 9.1 C17.77 9.1 17.11 9.1 16.43 9.1 C15.77 6.79 15.11 4.48 14.43 2.1 C5.02 2.59 5.02 2.59 -4.57 3.1 C-5.73 6.58 -5.72 9.71 -5.73 13.33 C-5.73 14.07 -5.74 14.81 -5.74 15.58 C-5.76 18.07 -5.77 20.56 -5.78 23.05 C-5.79 24.84 -5.8 26.62 -5.81 28.4 C-5.83 33.25 -5.85 38.1 -5.87 42.95 C-5.9 48.02 -5.92 53.08 -5.95 58.15 C-6 67.74 -6.04 77.33 -6.09 86.93 C-6.14 97.85 -6.19 108.77 -6.25 119.69 C-6.36 142.16 -6.47 164.63 -6.57 187.1 C-5.97 187.09 -5.37 187.09 -4.76 187.09 C9.81 187.02 24.37 186.97 38.94 186.94 C45.98 186.93 53.02 186.91 60.06 186.87 C66.86 186.84 73.65 186.82 80.45 186.81 C83.04 186.81 85.64 186.8 88.23 186.78 C91.86 186.76 95.49 186.76 99.12 186.76 C100.2 186.75 101.27 186.74 102.38 186.72 C111.72 186.76 111.72 186.76 115.43 190.1 C116.63 193.69 116.76 196.32 116.43 200.1 C114.45 202.64 113.25 203.93 110.06 204.59 C109.18 204.59 108.3 204.58 107.39 204.58 C105.87 204.59 105.87 204.59 104.32 204.6 C102.66 204.57 102.66 204.57 100.96 204.55 C99.79 204.55 98.62 204.55 97.41 204.55 C93.54 204.55 89.66 204.52 85.79 204.49 C83.1 204.48 80.42 204.47 77.73 204.47 C71.39 204.46 65.04 204.43 58.7 204.39 C51.47 204.34 44.24 204.32 37.02 204.3 C22.15 204.26 7.29 204.19 -7.57 204.1 C-7.57 203.44 -7.57 202.78 -7.57 202.1 C52.32 201.6 52.32 201.6 113.43 201.1 C112.93 196.64 112.93 196.64 112.43 192.1 C110 190.88 108.43 190.96 105.72 190.95 C104.72 190.94 103.73 190.93 102.7 190.92 C101.06 190.91 101.06 190.91 99.39 190.91 C98.24 190.9 97.09 190.89 95.9 190.88 C93.4 190.87 90.9 190.85 88.4 190.84 C84.44 190.82 80.49 190.79 76.54 190.76 C67.43 190.7 58.33 190.64 49.22 190.58 C40.22 190.53 31.21 190.47 22.2 190.41 C18.3 190.38 14.39 190.36 10.48 190.34 C8.1 190.32 5.72 190.3 3.34 190.29 C2.25 190.28 1.15 190.28 0.02 190.27 C-0.97 190.27 -1.96 190.26 -2.98 190.25 C-4.28 190.24 -4.28 190.24 -5.61 190.23 C-7.57 190.1 -7.57 190.1 -8.57 189.1 C-8.67 186.74 -8.71 184.42 -8.7 182.06 C-8.71 181.32 -8.71 180.57 -8.71 179.81 C-8.72 177.29 -8.72 174.78 -8.72 172.26 C-8.72 170.47 -8.72 168.67 -8.73 166.88 C-8.73 161.99 -8.74 157.1 -8.74 152.21 C-8.74 148.13 -8.74 144.05 -8.75 139.97 C-8.75 130.35 -8.76 120.73 -8.76 111.11 C-8.76 101.18 -8.77 91.25 -8.78 81.31 C-8.79 72.8 -8.8 64.28 -8.8 55.76 C-8.8 50.67 -8.8 45.58 -8.81 40.49 C-8.82 35.7 -8.82 30.91 -8.81 26.12 C-8.81 24.36 -8.82 22.6 -8.82 20.84 C-8.83 18.44 -8.83 16.04 -8.82 13.64 C-8.82 12.94 -8.83 12.25 -8.83 11.53 C-8.81 7.63 -8.41 4.56 -6.57 1.1 C-4.17 -0.1 -2.68 -0.02 0 0 Z " fill="#A1A1A1" transform="translate(177.5703125,136.90234375)"/>
<path d="M0 0 C2.96 0.61 4.38 1.25 7 3 C7 3.66 7 4.32 7 5 C7.66 5 8.32 5 9 5 C9.67 6.62 10.34 8.25 11 9.88 C11.37 10.78 11.74 11.68 12.12 12.62 C13 15 13 15 13 17 C14.65 17.33 16.3 17.66 18 18 C18 18.66 18 19.32 18 20 C59.76 19.94 101.52 19.87 143.28 19.77 C148.21 19.76 153.14 19.75 158.07 19.74 C159.05 19.74 160.03 19.73 161.04 19.73 C176.94 19.7 192.83 19.67 208.72 19.65 C225.03 19.63 241.33 19.59 257.64 19.55 C267.7 19.52 277.77 19.51 287.83 19.5 C294.73 19.5 301.63 19.48 308.53 19.45 C312.51 19.44 316.49 19.43 320.47 19.43 C324.12 19.44 327.77 19.43 331.41 19.41 C333.35 19.4 335.29 19.41 337.23 19.41 C343.29 19.36 348.45 18.98 354.12 16.74 C356.06 15.98 357.97 15.47 360 15 C359.67 15.99 359.34 16.98 359 18 C355.44 19.19 355.44 19.19 352 20 C352 20.66 352 21.32 352 22 C241.45 22 130.9 22 17 22 C17 21.34 17 20.68 17 20 C15.64 19.78 15.64 19.78 14.25 19.56 C10 17.52 9.51 15.44 7.88 11.19 C6.92 8.8 5.61 7.01 4 5 C4 4.34 4 3.68 4 3 C2.68 2.67 1.36 2.34 0 2 C0 1.34 0 0.68 0 0 Z " fill="#1a1a1a" transform="translate(225,450)"/>
<path d="M0 0 C29.7 0 59.4 0 90 0 C90 0.66 90 1.32 90 2 C90.64 2.12 91.28 2.25 91.94 2.38 C92.62 2.58 93.3 2.79 94 3 C95.26 5.52 95.12 7.25 95.12 10.07 C95.13 11.15 95.13 12.23 95.13 13.35 C95.13 14.54 95.12 15.74 95.12 16.97 C95.12 18.23 95.12 19.5 95.12 20.8 C95.13 24.32 95.12 27.84 95.12 31.36 C95.11 35.15 95.11 38.94 95.11 42.73 C95.11 49.3 95.11 55.87 95.11 62.44 C95.1 71.94 95.09 81.44 95.09 90.94 C95.09 106.35 95.08 121.76 95.08 137.17 C95.07 152.14 95.06 167.12 95.05 182.09 C95.05 183.01 95.05 183.94 95.05 184.89 C95.05 189.51 95.05 194.14 95.05 198.77 C95.04 237.18 95.02 275.59 95 314 C94.67 314 94.34 314 94 314 C94 313.35 94 312.7 94 312.03 C93.94 273.48 93.87 234.94 93.77 196.39 C93.76 191.77 93.75 187.14 93.74 182.52 C93.74 181.6 93.73 180.68 93.73 179.73 C93.7 164.81 93.67 149.88 93.65 134.96 C93.63 119.66 93.59 104.35 93.55 89.05 C93.52 79.6 93.51 70.15 93.5 60.7 C93.5 54.23 93.48 47.76 93.45 41.29 C93.44 37.55 93.43 33.81 93.43 30.07 C93.44 26.02 93.42 21.98 93.4 17.93 C93.4 16.74 93.41 15.55 93.41 14.32 C93.4 13.24 93.39 12.17 93.38 11.06 C93.38 10.12 93.38 9.19 93.38 8.22 C93.19 7.12 93.19 7.12 93 6 C89.15 3.43 85.96 3.69 81.49 3.68 C80.62 3.67 79.75 3.66 78.86 3.65 C75.98 3.62 73.11 3.6 70.24 3.59 C68.25 3.57 66.26 3.55 64.26 3.53 C59.02 3.48 53.78 3.44 48.54 3.4 C43.19 3.36 37.84 3.31 32.49 3.26 C21.99 3.16 11.5 3.08 1 3 C0.67 2.01 0.34 1.02 0 0 Z " fill="#B2B2B2" transform="translate(482,136)"/>
<path d="M0 0 C0.84 -0 1.69 -0.01 2.55 -0.01 C3.94 -0.01 3.94 -0.01 5.36 -0 C6.33 -0 7.31 -0.01 8.31 -0.01 C11.54 -0.01 14.77 -0.01 18 -0.01 C20.24 -0.01 22.48 -0.01 24.72 -0.01 C29.41 -0.01 34.1 -0.01 38.79 -0 C44.82 0 50.85 -0 56.88 -0.01 C61.5 -0.01 66.12 -0.01 70.73 -0.01 C72.96 -0.01 75.18 -0.01 77.41 -0.01 C80.51 -0.01 83.61 -0.01 86.71 -0 C87.64 -0 88.57 -0.01 89.52 -0.01 C95.86 0.01 95.86 0.01 96.97 1.13 C97.07 2.47 97.1 3.82 97.1 5.17 C97.1 6.03 97.11 6.89 97.11 7.77 C97.11 9.17 97.11 9.17 97.1 10.6 C97.1 11.55 97.1 12.5 97.11 13.48 C97.11 15.49 97.1 17.5 97.1 19.52 C97.09 22.61 97.1 25.71 97.11 28.8 C97.11 30.75 97.1 32.71 97.1 34.66 C97.1 35.59 97.11 36.52 97.11 37.48 C97.1 38.77 97.1 38.77 97.1 40.08 C97.1 40.84 97.1 41.6 97.1 42.38 C96.97 44.13 96.97 44.13 95.97 45.13 C92.84 45.23 89.73 45.26 86.6 45.26 C85.13 45.26 85.13 45.26 83.62 45.26 C80.35 45.27 77.08 45.26 73.81 45.26 C71.55 45.26 69.29 45.26 67.03 45.26 C62.29 45.26 57.54 45.26 52.8 45.26 C46.7 45.25 40.6 45.25 34.51 45.26 C29.84 45.26 25.17 45.26 20.5 45.26 C18.25 45.26 16 45.26 13.75 45.26 C10.61 45.27 7.48 45.26 4.34 45.26 C3.4 45.26 2.46 45.26 1.49 45.26 C-4.92 45.24 -4.92 45.24 -6.03 44.13 C-6.12 42.78 -6.15 41.42 -6.14 40.07 C-6.14 39.21 -6.14 38.34 -6.14 37.46 C-6.14 36.52 -6.13 35.59 -6.13 34.62 C-6.13 33.67 -6.12 32.72 -6.12 31.74 C-6.12 28.68 -6.11 25.62 -6.09 22.56 C-6.09 20.5 -6.08 18.43 -6.08 16.36 C-6.07 11.28 -6.05 6.21 -6.03 1.13 C-3.76 -0.01 -2.52 0 0 0 Z M-4.03 2.13 C-4.03 15.66 -4.03 29.19 -4.03 43.13 C28.64 43.13 61.31 43.13 94.97 43.13 C94.97 29.6 94.97 16.07 94.97 2.13 C62.3 2.13 29.63 2.13 -4.03 2.13 Z " fill="#2DCEB1" transform="translate(240.03016662597656,208.87301635742188)"/>
<path d="M0 0 C10.62 -0.05 21.24 -0.08 31.87 -0.1 C36.8 -0.11 41.73 -0.13 46.66 -0.15 C51.42 -0.17 56.18 -0.18 60.94 -0.19 C62.76 -0.19 64.57 -0.2 66.39 -0.21 C68.93 -0.23 71.48 -0.23 74.02 -0.23 C74.77 -0.23 75.52 -0.24 76.3 -0.25 C80 -0.23 82.92 -0.19 86 2 C87.23 4.45 87.2 6.2 87.25 8.94 C87.28 9.81 87.3 10.69 87.33 11.59 C87 14 87 14 85.98 15.63 C82.89 17.77 79.66 17.39 76.04 17.34 C75.23 17.34 74.42 17.34 73.59 17.34 C70.91 17.34 68.23 17.32 65.55 17.29 C63.69 17.29 61.84 17.28 59.98 17.28 C55.09 17.27 50.21 17.24 45.32 17.21 C40.33 17.18 35.34 17.16 30.36 17.15 C20.57 17.11 10.79 17.06 1 17 C1.12 22.2 1.24 27.39 1.37 32.59 C1.42 34.36 1.46 36.12 1.5 37.89 C1.56 40.43 1.62 42.97 1.68 45.52 C1.7 46.3 1.72 47.09 1.73 47.91 C1.83 51.42 2.06 54.62 3 58 C1.68 57.34 0.36 56.68 -1 56 C-1.02 50.48 -1.04 44.96 -1.05 39.45 C-1.06 37.57 -1.07 35.69 -1.08 33.81 C-1.09 31.12 -1.09 28.42 -1.1 25.73 C-1.1 24.88 -1.11 24.04 -1.11 23.17 C-1.11 17.23 -1.11 17.23 0 15 C27.39 15 54.78 15 83 15 C84.47 11.1 84.47 11.1 84 3 C56.28 2.67 28.56 2.34 0 2 C0 1.34 0 0.68 0 0 Z " fill="#C7C7C7" transform="translate(170,397)"/>
<path d="M0 0 C0.9 0 1.79 0.01 2.71 0.01 C4.12 0.02 4.12 0.02 5.55 0.04 C6.5 0.04 7.44 0.04 8.42 0.05 C10.76 0.06 13.09 0.08 15.43 0.1 C18.43 5.72 18.43 5.72 18.43 9.1 C17.77 9.1 17.11 9.1 16.43 9.1 C15.77 6.79 15.11 4.48 14.43 2.1 C5.02 2.59 5.02 2.59 -4.57 3.1 C-5.73 6.58 -5.72 9.7 -5.72 13.32 C-5.72 14.06 -5.72 14.8 -5.73 15.56 C-5.74 18.05 -5.74 20.53 -5.74 23.02 C-5.75 24.8 -5.76 26.58 -5.76 28.36 C-5.78 32.2 -5.79 36.04 -5.8 39.87 C-5.82 45.94 -5.84 52 -5.87 58.06 C-5.94 75.3 -6 92.54 -6.05 109.78 C-6.08 119.3 -6.11 128.82 -6.15 138.34 C-6.18 144.37 -6.2 150.4 -6.21 156.43 C-6.22 160.18 -6.24 163.92 -6.26 167.67 C-6.26 169.41 -6.27 171.15 -6.27 172.89 C-6.27 175.27 -6.28 177.64 -6.3 180.01 C-6.3 180.7 -6.29 181.4 -6.29 182.12 C-6.34 186.87 -6.34 186.87 -8.57 189.1 C-8.62 165.32 -8.65 141.55 -8.67 117.78 C-8.68 106.74 -8.7 95.7 -8.72 84.66 C-8.74 75.04 -8.75 65.42 -8.76 55.8 C-8.76 50.71 -8.77 45.61 -8.78 40.52 C-8.8 35.72 -8.8 30.93 -8.8 26.13 C-8.8 24.37 -8.8 22.61 -8.81 20.85 C-8.82 18.45 -8.82 16.05 -8.81 13.65 C-8.82 12.95 -8.82 12.25 -8.83 11.53 C-8.8 7.63 -8.41 4.57 -6.57 1.1 C-4.17 -0.1 -2.68 -0.02 0 0 Z " fill="#1a1a1a" transform="translate(177.5703125,136.90234375)"/>
<path d="M0 0 C1.75 -0.01 1.75 -0.01 3.54 -0.02 C4.82 -0.01 6.11 -0.01 7.43 -0 C8.81 -0 10.19 -0.01 11.57 -0.01 C15.36 -0.02 19.14 -0.02 22.93 -0.01 C27.02 -0.01 31.1 -0.01 35.19 -0.02 C43.19 -0.03 51.2 -0.02 59.2 -0.02 C65.71 -0.01 72.21 -0.01 78.72 -0.02 C80.11 -0.02 80.11 -0.02 81.52 -0.02 C83.4 -0.02 85.28 -0.02 87.16 -0.02 C104.79 -0.02 122.42 -0.02 140.05 -0.01 C155.18 0 170.31 0 185.45 -0.01 C203.01 -0.02 220.58 -0.02 238.14 -0.02 C240.01 -0.02 241.89 -0.02 243.76 -0.02 C244.68 -0.02 245.6 -0.02 246.55 -0.02 C253.05 -0.01 259.55 -0.02 266.04 -0.02 C273.96 -0.03 281.88 -0.03 289.8 -0.01 C293.84 -0.01 297.88 -0.01 301.92 -0.01 C305.62 -0.02 309.32 -0.02 313.01 -0.01 C314.99 -0 316.96 -0.01 318.94 -0.02 C320.69 -0.01 320.69 -0.01 322.49 0 C323.5 0 324.51 0 325.55 0 C328.47 0.27 330.65 1.03 333.31 2.25 C333.31 2.91 333.31 3.57 333.31 4.25 C332.67 4.11 332.03 3.97 331.38 3.82 C323.78 2.27 316.49 1.97 308.75 1.99 C307.42 1.99 306.08 1.98 304.74 1.98 C301.09 1.97 297.44 1.97 293.79 1.98 C289.85 1.98 285.9 1.97 281.96 1.96 C274.24 1.95 266.53 1.95 258.81 1.95 C252.54 1.95 246.27 1.95 240 1.95 C239.11 1.94 238.21 1.94 237.29 1.94 C235.48 1.94 233.66 1.94 231.85 1.94 C214.85 1.93 197.85 1.93 180.85 1.94 C165.29 1.94 149.73 1.93 134.17 1.91 C118.19 1.89 102.21 1.88 86.23 1.89 C77.26 1.89 68.29 1.89 59.32 1.87 C51.69 1.86 44.06 1.86 36.43 1.87 C32.53 1.88 28.64 1.88 24.75 1.87 C20.53 1.85 16.31 1.86 12.1 1.88 C10.86 1.87 9.63 1.86 8.35 1.86 C6.66 1.87 6.66 1.87 4.93 1.88 C3.96 1.88 2.99 1.88 1.98 1.88 C-2.27 2.47 -4.89 4.45 -7.88 7.44 C-8.48 8.04 -9.08 8.64 -9.69 9.25 C-10.35 9.25 -11.01 9.25 -11.69 9.25 C-12.02 11.23 -12.35 13.21 -12.69 15.25 C-13.35 15.25 -14.01 15.25 -14.69 15.25 C-14.9 16.06 -15.11 16.86 -15.32 17.69 C-15.77 18.53 -16.23 19.38 -16.69 20.25 C-19.82 21.06 -19.82 21.06 -22.69 21.25 C-22.69 20.59 -22.69 19.93 -22.69 19.25 C-21.04 18.92 -19.39 18.59 -17.69 18.25 C-17.49 17.47 -17.28 16.68 -17.07 15.88 C-12.61 4.12 -12.61 4.12 -7.95 1.13 C-5.17 0.05 -2.98 0 0 0 Z " fill="#1a1a1a" transform="translate(247.69442653656006,121.74831771850586)"/>
<path d="M0 0 C1.32 0.33 2.64 0.66 4 1 C4 5.95 4 10.9 4 16 C8.89 15.96 8.89 15.96 13.78 15.91 C15.52 15.9 17.26 15.95 19 16 C20 17 20 17 20 22 C14.72 22 9.44 22 4 22 C4 26.95 4 31.9 4 37 C1.53 37.5 1.53 37.5 -1 38 C-3.23 33.54 -2.04 26.78 -2 22 C-6.95 22 -11.9 22 -17 22 C-17.33 20.68 -17.66 19.36 -18 18 C-16 16 -16 16 -12.74 15.8 C-11.47 15.83 -10.19 15.85 -8.88 15.88 C-6.95 15.9 -6.95 15.9 -4.99 15.93 C-3.51 15.96 -3.51 15.96 -2 16 C-2.02 15.01 -2.05 14.03 -2.07 13.01 C-2.09 11.73 -2.11 10.45 -2.12 9.12 C-2.15 7.85 -2.17 6.57 -2.2 5.26 C-2 2 -2 2 0 0 Z " fill="#00120F" transform="translate(1035,366)"/>
<path d="M0 0 C0.66 0 1.32 0 2 0 C1.86 0.57 1.72 1.14 1.57 1.72 C-0.06 8.93 -0.28 15.83 -0.24 23.2 C-0.24 24.5 -0.24 25.8 -0.25 27.14 C-0.25 30.72 -0.24 34.3 -0.23 37.88 C-0.22 41.75 -0.23 45.62 -0.23 49.49 C-0.23 56.18 -0.22 62.88 -0.21 69.58 C-0.2 79.26 -0.19 88.95 -0.19 98.63 C-0.18 114.34 -0.17 130.05 -0.15 145.76 C-0.13 161.02 -0.12 176.28 -0.11 191.54 C-0.11 192.48 -0.11 193.42 -0.11 194.39 C-0.11 199.11 -0.1 203.84 -0.1 208.56 C-0.08 247.71 -0.04 286.85 0 326 C-0.66 326 -1.32 326 -2 326 C-2.05 285.19 -2.08 244.38 -2.1 203.57 C-2.1 198.76 -2.11 193.94 -2.11 189.13 C-2.11 188.17 -2.11 187.21 -2.11 186.22 C-2.12 170.69 -2.14 155.16 -2.15 139.63 C-2.17 123.69 -2.18 107.76 -2.19 91.83 C-2.19 82 -2.2 72.16 -2.22 62.33 C-2.23 55.59 -2.23 48.85 -2.23 42.11 C-2.23 38.22 -2.23 34.32 -2.24 30.43 C-2.25 26.22 -2.25 22 -2.24 17.79 C-2.25 16.55 -2.25 15.32 -2.26 14.05 C-2.25 12.35 -2.25 12.35 -2.25 10.63 C-2.25 9.66 -2.25 8.68 -2.25 7.68 C-1.98 4.79 -1.2 2.62 0 0 Z " fill="#1a1a1a" transform="translate(157,131)"/>
<path d="M0 0 C0.33 0 0.66 0 1 0 C1.17 39.42 1.34 78.85 1.48 118.27 C1.5 122.92 1.52 127.58 1.54 132.23 C1.54 133.15 1.54 134.08 1.55 135.03 C1.6 150.04 1.67 165.04 1.74 180.05 C1.8 195.44 1.87 210.83 1.92 226.22 C1.95 235.72 1.99 245.23 2.04 254.73 C2.07 261.24 2.09 267.75 2.11 274.26 C2.12 278.02 2.14 281.78 2.16 285.54 C2.19 289.61 2.19 293.68 2.2 297.75 C2.21 298.94 2.22 300.14 2.23 301.37 C2.23 302.46 2.23 303.55 2.23 304.67 C2.23 305.61 2.24 306.55 2.24 307.52 C1.98 310.18 1.52 311.79 0 314 C-3.13 314.75 -3.13 314.75 -6 315 C-6.33 314.34 -6.66 313.68 -7 313 C-5.68 313 -4.36 313 -3 313 C-3 312.34 -3 311.68 -3 311 C-2.34 310.67 -1.68 310.34 -1 310 C-0.67 207.7 -0.34 105.4 0 0 Z " fill="#C4C4C4" transform="translate(575,142)"/>
<path d="M0 0 C14.52 0 29.04 0 44 0 C44 13.86 44 27.72 44 42 C43.67 42 43.34 42 43 42 C43 28.8 43 15.6 43 2 C29.47 2 15.94 2 2 2 C2.11 9.63 2.22 17.27 2.34 24.9 C2.39 28.46 2.45 32.01 2.5 35.57 C2.55 39.64 2.62 43.72 2.68 47.8 C2.71 49.71 2.71 49.71 2.73 51.66 C2.75 52.85 2.77 54.03 2.79 55.24 C2.82 56.81 2.82 56.81 2.84 58.4 C2.89 61.11 2.89 61.11 4 64 C5.32 64.7 6.65 65.37 8 66 C8.33 66.66 8.66 67.32 9 68 C5.2 67.46 3.5 65.84 1 63 C-0.35 60.3 -0.12 58.2 -0.11 55.17 C-0.11 53.34 -0.11 53.34 -0.11 51.47 C-0.11 50.14 -0.1 48.8 -0.1 47.46 C-0.1 46.1 -0.09 44.73 -0.09 43.37 C-0.09 39.77 -0.08 36.18 -0.07 32.59 C-0.06 28.92 -0.05 25.25 -0.05 21.59 C-0.04 14.39 -0.02 7.2 0 0 Z " fill="#929292" transform="translate(423,137)"/>
<path d="M0 0 C7.6 -0.13 15.2 -0.21 22.8 -0.27 C25.38 -0.3 27.97 -0.33 30.55 -0.38 C34.27 -0.44 37.98 -0.47 41.7 -0.49 C43.43 -0.53 43.43 -0.53 45.2 -0.57 C53.2 -0.57 53.2 -0.57 57.24 2.31 C59.54 5.83 59.6 7.87 59 12 C57.24 15.19 56.5 15.83 53 17 C51.27 17.09 49.53 17.12 47.79 17.11 C46.2 17.11 46.2 17.11 44.58 17.11 C43.44 17.11 42.29 17.1 41.11 17.1 C39.94 17.1 38.77 17.09 37.56 17.09 C33.81 17.09 30.06 17.08 26.31 17.06 C23.77 17.06 21.23 17.05 18.69 17.05 C12.46 17.04 6.23 17.02 0 17 C0 16.34 0 15.68 0 15 C27.22 14.5 27.22 14.5 55 14 C55.47 5.9 55.47 5.9 54 2 C36.18 2 18.36 2 0 2 C0 1.34 0 0.68 0 0 Z " fill="#B3B3B3" transform="translate(170,361)"/>
<path d="M0 0 C0.66 0 1.32 0 2 0 C3.32 2.64 4.64 5.28 6 8 C78.27 8.33 150.54 8.66 225 9 C225 9.33 225 9.66 225 10 C152.07 10 79.14 10 4 10 C4 9.01 4 8.02 4 7 C3.34 7 2.68 7 2 7 C0.54 4.35 0 3.11 0 0 Z " fill="#6F6F6F" transform="translate(244,446)"/>
<path d="M0 0 C10.62 -0.05 21.24 -0.08 31.87 -0.1 C36.8 -0.11 41.73 -0.13 46.66 -0.15 C51.42 -0.17 56.18 -0.18 60.94 -0.19 C62.76 -0.19 64.57 -0.2 66.39 -0.21 C68.93 -0.23 71.48 -0.23 74.02 -0.23 C74.77 -0.23 75.52 -0.24 76.3 -0.25 C80 -0.23 82.92 -0.19 86 2 C87.23 4.45 87.2 6.2 87.25 8.94 C87.28 9.81 87.3 10.69 87.33 11.59 C87 14 87 14 85.73 15.82 C84 17 84 17 80 17 C80 16.34 80 15.68 80 15 C80.99 15 81.98 15 83 15 C84.47 11.1 84.47 11.1 84 3 C56.28 2.67 28.56 2.34 0 2 C0 1.34 0 0.68 0 0 Z " fill="#A0A0A0" transform="translate(170,397)"/>
<path d="M0 0 C-1.79 3.57 -7.12 4.64 -10.75 6.12 C-14.78 9.48 -15.71 14.27 -16.25 19.34 C-16.38 24.23 -15.72 28.42 -14 33 C-13.34 33.33 -12.68 33.66 -12 34 C-12 35.32 -12 36.64 -12 38 C-11.16 38.19 -11.16 38.19 -10.31 38.38 C-8 39 -8 39 -5.76 40.03 C-2.53 41.16 0.03 41.23 3.44 41.19 C5.08 41.18 5.08 41.18 6.75 41.17 C9.9 41.01 12.9 40.59 16 40 C16 40.66 16 41.32 16 42 C12.23 44.47 8.41 44.3 4.06 44.25 C3.01 44.26 3.01 44.26 1.93 44.27 C-2.15 44.26 -5.33 43.81 -9 42 C-9 41.34 -9 40.68 -9 40 C-9.87 39.91 -9.87 39.91 -10.75 39.81 C-14.08 38.61 -15.15 36.99 -17 34 C-17.61 31.3 -17.81 28.78 -18 26 C-18.66 26 -19.32 26 -20 26 C-20 23.36 -20 20.72 -20 18 C-19.34 18 -18.68 18 -18 18 C-17.99 17.41 -17.97 16.82 -17.96 16.21 C-17.69 11.77 -17.42 9.54 -14.62 5.94 C-12 4 -12 4 -9 4 C-8.67 3.01 -8.34 2.02 -8 1 C-5.07 0.02 -3.04 -0.08 0 0 Z " fill="#AAAAAA" transform="translate(355,384)"/>
<path d="M0 0 C40.26 0 80.52 0 122 0 C124.13 4.26 124.34 6.34 124 11 C123.34 11.99 122.68 12.98 122 14 C121.34 14 120.68 14 120 14 C120.29 12.01 120.59 10.03 120.88 8.04 C121.14 5.8 121.14 5.8 120 3 C117.57 1.78 116 1.86 113.28 1.84 C112.28 1.83 111.29 1.82 110.26 1.81 C109.17 1.81 108.07 1.8 106.94 1.79 C105.21 1.78 105.21 1.78 103.45 1.76 C99.63 1.73 95.81 1.71 91.99 1.68 C89.35 1.66 86.71 1.64 84.06 1.62 C77.81 1.57 71.56 1.53 65.3 1.48 C58.18 1.43 51.06 1.38 43.94 1.32 C29.29 1.21 14.65 1.1 0 1 C0 0.67 0 0.34 0 0 Z " fill="#1a1a1a" transform="translate(170,326)"/>
<path d="M0 0 C3.83 3.6 4.69 6.78 5.04 11.85 C4.99 14.66 4.46 16.59 3 19 C-0.23 21.15 -1.28 21.2 -5 21 C-4.01 20.67 -3.02 20.34 -2 20 C-1.67 19.01 -1.34 18.02 -1 17 C-0.48 16.54 0.04 16.08 0.57 15.6 C2.22 14.08 2.22 14.08 2.14 11.77 C2.03 10.98 1.93 10.19 1.81 9.38 C1.72 8.58 1.62 7.78 1.52 6.96 C1.35 6.31 1.18 5.67 1 5 C0.34 4.67 -0.32 4.34 -1 4 C-1 3.34 -1 2.68 -1 2 C-4.63 2 -8.26 2 -12 2 C-12 2.66 -12 3.32 -12 4 C-12.99 4.5 -12.99 4.5 -14 5 C-15.21 10.58 -15.21 10.58 -14 16 C-13.01 16.66 -12.02 17.32 -11 18 C-11 18.66 -11 19.32 -11 20 C-10.01 20.33 -9.02 20.66 -8 21 C-9.65 21 -11.3 21 -13 21 C-13 20.01 -13 19.02 -13 18 C-13.64 17.84 -14.28 17.67 -14.94 17.5 C-17 16 -17 16 -17.94 12.25 C-18.25 8.09 -17.36 5.5 -15 2 C-11.02 -2.42 -5.32 -1.77 0 0 Z " fill="#AAAAAA" transform="translate(528,210)"/>
<path d="M0 0 C0.76 -0.01 1.51 -0.02 2.29 -0.04 C7.24 -0.05 11.37 0.13 15.21 3.62 C18.62 7.97 18.62 7.97 18.62 10.19 C19.29 10.19 19.94 10.19 20.62 10.19 C23.47 18.37 23.47 26.01 20.62 34.19 C19.97 34.19 19.31 34.19 18.62 34.19 C18.3 34.85 17.96 35.51 17.62 36.19 C17.77 35.63 17.91 35.07 18.06 34.49 C19.79 27.02 19.82 19.83 19.62 12.19 C18.96 12.19 18.31 12.19 17.62 12.19 C16.61 10.53 15.61 8.86 14.62 7.19 C13.96 6.86 13.31 6.53 12.62 6.19 C12.62 5.53 12.62 4.87 12.62 4.19 C3.71 1.92 -3.46 1.92 -12.38 4.19 C-12.05 3.2 -11.71 2.21 -11.38 1.19 C-7.57 -0.08 -3.97 0 0 0 Z " fill="#A5A5A5" transform="translate(300.375,383.8125)"/>
<path d="M0 0 C0.66 0 1.32 0 2 0 C1.92 2.87 1.45 4.54 -0.59 6.6 C-1.84 7.64 -3.12 8.67 -4.41 9.67 C-6.13 10.93 -6.13 10.93 -7 13 C-10.78 14.55 -13.92 15.24 -18 15 C-18 15.66 -18 16.32 -18 17 C-22.29 17 -26.58 17 -31 17 C-31 16.34 -31 15.68 -31 15 C-33.97 14.67 -36.94 14.34 -40 14 C-40.33 13.01 -40.66 12.02 -41 11 C-40.44 11.14 -39.88 11.29 -39.3 11.44 C-29.03 13.82 -18.12 14.26 -8 11 C-7.67 10.01 -7.34 9.02 -7 8 C-4.56 5.31 -4.56 5.31 -2 3 C-1.34 3 -0.68 3 0 3 C0 2.01 0 1.02 0 0 Z " fill="#BCBCBC" transform="translate(245,143)"/>
<path d="M0 0 C0.66 0 1.32 0 2 0 C1.62 1.94 1.62 1.94 1 4 C-1.3 5.15 -2.58 5.12 -5.13 5.1 C-5.94 5.09 -6.74 5.09 -7.57 5.09 C-8.42 5.08 -9.26 5.07 -10.12 5.06 C-10.97 5.06 -11.82 5.05 -12.7 5.05 C-14.8 5.04 -16.9 5.02 -19 5 C-19 8.96 -19 12.92 -19 17 C-17.88 16.99 -16.76 16.98 -15.61 16.96 C-14.13 16.96 -12.66 16.95 -11.19 16.94 C-10.45 16.93 -9.71 16.92 -8.95 16.91 C-5.7 16.9 -3.11 16.96 0 18 C0 18.66 0 19.32 0 20 C-3.31 19.86 -6.63 19.71 -9.94 19.56 C-10.88 19.52 -11.83 19.48 -12.8 19.44 C-13.7 19.4 -14.6 19.36 -15.53 19.32 C-16.36 19.28 -17.19 19.24 -18.05 19.21 C-20 19 -20 19 -21 18 C-21.13 15.86 -21.18 13.71 -21.19 11.56 C-21.2 10.39 -21.22 9.21 -21.23 8 C-21 5 -21 5 -19 3 C-17.12 2.68 -17.12 2.68 -14.87 2.59 C-14.06 2.55 -13.26 2.51 -12.43 2.47 C-11.58 2.44 -10.74 2.41 -9.88 2.38 C-8.6 2.32 -8.6 2.32 -7.3 2.26 C-5.2 2.16 -3.1 2.08 -1 2 C-0.67 1.34 -0.34 0.68 0 0 Z " fill="#1BDAB8" transform="translate(545,351)"/>
<path d="M0 0 C0 0.66 0 1.32 0 2 C0.66 2 1.32 2 2 2 C2.33 4.64 2.66 7.28 3 10 C2.34 10 1.68 10 1 10 C0.6 8.55 0.6 8.55 0.19 7.06 C-0.2 6.05 -0.6 5.04 -1 4 C-1.99 3.67 -2.98 3.34 -4 3 C-4 2.34 -4 1.68 -4 1 C-4.66 1 -5.32 1 -6 1 C-6 1.66 -6 2.32 -6 3 C-8 4.62 -8 4.62 -10 6 C-9.49 8.17 -9 10 -8 12 C-6.91 12 -5.81 12 -4.69 12 C-2.46 12 -0.23 12 2 12 C1 14 1 14 -1 16 C-3.75 16.37 -6.2 16.18 -9 16 C-9 15.34 -9 14.68 -9 14 C-9.99 13.67 -10.98 13.34 -12 13 C-13.47 5.78 -13.47 5.78 -11.25 2.06 C-7.4 -1.46 -4.87 -0.97 0 0 Z " fill="#A6A6A6" transform="translate(363,398)"/>
<path d="M0 0 C2.65 -0.03 5.29 -0.05 7.94 -0.06 C8.69 -0.07 9.45 -0.08 10.22 -0.09 C12.15 -0.1 14.08 -0.05 16 0 C17 1 17 1 17.13 3.91 C17.13 5.09 17.13 6.28 17.12 7.5 C17.13 9.28 17.13 9.28 17.13 11.09 C17 14 17 14 16 15 C13.3 15.07 10.63 15.09 7.94 15.06 C6.8 15.06 6.8 15.06 5.64 15.05 C3.76 15.04 1.88 15.02 0 15 C0 14.34 0 13.68 0 13 C4.95 13 9.9 13 15 13 C15 9.37 15 5.74 15 2 C10.05 2 5.1 2 0 2 C0 1.34 0 0.68 0 0 Z " fill="#2FDFC0" transform="translate(204,224)"/>
<path d="M0 0 C0.66 0 1.32 0 2 0 C1.98 0.8 1.95 1.59 1.93 2.41 C1.77 11.76 3.13 18.55 9 26 C10.92 27.54 12.89 28.72 15 30 C15 30.66 15 31.32 15 32 C16.32 32 17.64 32 19 32 C19 32.66 19 33.32 19 34 C12.12 33.02 8.51 29.74 4.14 24.62 C3 23 3 23 3 21 C2.34 21 1.68 21 1 21 C-1.07 13.77 -1.86 7.45 0 0 Z " fill="#B3B3B3" transform="translate(438,234)"/>
<path d="M0 0 C0.66 0 1.32 0 2 0 C2.04 1.65 2.04 1.65 2.08 3.33 C2.17 7.42 2.27 11.5 2.37 15.59 C2.42 17.36 2.46 19.12 2.5 20.89 C2.56 23.43 2.62 25.97 2.68 28.52 C2.7 29.3 2.72 30.09 2.73 30.91 C2.83 34.42 3.06 37.62 4 41 C2.68 40.34 1.36 39.68 0 39 C0 26.13 0 13.26 0 0 Z " fill="#1a1a1a" transform="translate(169,414)"/>
<path d="M0 0 C2.64 0.99 5.28 1.98 8 3 C8 3.66 8 4.32 8 5 C10.4 5.05 12.79 5.09 15.19 5.12 C15.86 5.14 16.53 5.16 17.23 5.18 C21.32 5.22 24.33 4.79 28 3 C28.67 2.72 29.33 2.44 30.02 2.15 C30.61 1.89 31.2 1.64 31.81 1.38 C32.86 0.92 33.92 0.47 35 0 C34.67 0.99 34.34 1.98 34 3 C31.94 3.69 31.94 3.69 30 4 C30 4.66 30 5.32 30 6 C25.5 7.73 21.75 8.27 16.94 8.25 C15.75 8.26 14.56 8.26 13.34 8.27 C10.13 8.01 7.89 7.38 5 6 C5 5.34 5 4.68 5 4 C4.36 3.9 3.72 3.79 3.06 3.69 C2.38 3.46 1.7 3.23 1 3 C0.67 2.01 0.34 1.02 0 0 Z " fill="#BCBCBC" transform="translate(283,420)"/>
<path d="M0 0 C1.32 0.33 2.64 0.66 4 1 C4 1.66 4 2.32 4 3 C4.99 3.33 5.98 3.66 7 4 C7.33 4.99 7.66 5.98 8 7 C8.99 7.66 9.98 8.32 11 9 C13.51 16.41 14.03 24.38 12 32 C11.34 31.67 10.68 31.34 10 31 C10.06 30.11 10.12 29.21 10.18 28.29 C10.51 19.24 9.67 12.34 3.55 5.35 C2.4 4.21 1.2 3.1 0 2 C0 1.34 0 0.68 0 0 Z " fill="#B9B9B9" transform="translate(535,198)"/>
<path d="M0 0 C0.66 0 1.32 0 2 0 C3.32 2.64 4.64 5.28 6 8 C24.81 8.33 43.62 8.66 63 9 C63 9.33 63 9.66 63 10 C43.53 10 24.06 10 4 10 C4 9.01 4 8.02 4 7 C3.34 7 2.68 7 2 7 C0.54 4.35 0 3.11 0 0 Z " fill="#8B8B8B" transform="translate(244,446)"/>
<path d="M0 0 C0.33 0 0.66 0 1 0 C1.02 1.16 1.02 1.16 1.03 2.34 C1.13 9.66 1.23 16.97 1.34 24.28 C1.39 28.04 1.45 31.8 1.5 35.56 C1.55 39.19 1.6 42.82 1.65 46.45 C1.67 47.83 1.69 49.21 1.71 50.59 C1.73 52.54 1.76 54.48 1.79 56.42 C1.81 57.53 1.83 58.63 1.84 59.77 C2.01 63.23 2.46 66.58 3 70 C2.01 69.67 1.02 69.34 0 69 C0 46.23 0 23.46 0 0 Z " fill="#BEBEBE" transform="translate(409,137)"/>
<path d="M0 0 C0 0.66 0 1.32 0 2 C-4.29 2.66 -8.58 3.32 -13 4 C-13.33 5.32 -13.66 6.64 -14 8 C-14.33 8.66 -14.66 9.32 -15 10 C-15.66 10 -16.32 10 -17 10 C-16.94 11.11 -16.94 11.11 -16.88 12.25 C-17.01 15.23 -17.2 16.63 -19 19 C-22.12 20.25 -22.12 20.25 -25 21 C-24.67 20.01 -24.34 19.02 -24 18 C-23.01 18 -22.02 18 -21 18 C-20.01 14.37 -19.02 10.74 -18 7 C-17.34 7 -16.68 7 -16 7 C-15.79 6.4 -15.59 5.8 -15.38 5.19 C-11.79 -0.51 -6.02 -0.31 0 0 Z " fill="#C0C0C0" transform="translate(224,449)"/>
<path d="M0 0 C-1.15 2.47 -2.05 4.05 -4 6 C-4.15 8.74 -4.19 11.38 -4.12 14.12 C-4.12 14.88 -4.11 15.63 -4.1 16.41 C-4.07 18.27 -4.04 20.14 -4 22 C-6.76 23.38 -9.05 23.1 -12.12 23.06 C-13.22 23.05 -14.32 23.04 -15.45 23.04 C-16.71 23.02 -16.71 23.02 -18 23 C-18 22.34 -18 21.68 -18 21 C-14.04 21 -10.08 21 -6 21 C-6.05 19.82 -6.09 18.64 -6.14 17.42 C-6.18 15.86 -6.21 14.31 -6.25 12.75 C-6.28 11.97 -6.32 11.2 -6.35 10.39 C-6.45 4.61 -6.45 4.61 -4.11 1.45 C-2 0 -2 0 0 0 Z " fill="#25CDAE" transform="translate(327,173)"/>
<path d="M0 0 C0.66 0 1.32 0 2 0 C2 1.32 2 2.64 2 4 C2.56 4.12 3.11 4.25 3.69 4.38 C6 5 6 5 8.24 6.03 C11.47 7.16 14.03 7.23 17.44 7.19 C19.08 7.18 19.08 7.18 20.75 7.17 C23.9 7.01 26.9 6.59 30 6 C30 6.66 30 7.32 30 8 C26.23 10.47 22.41 10.3 18.06 10.25 C17.01 10.26 17.01 10.26 15.93 10.27 C11.85 10.26 8.67 9.81 5 8 C5 7.34 5 6.68 5 6 C4.38 5.92 3.76 5.83 3.12 5.75 C1 5 1 5 -0.25 2.94 C-0.62 1.98 -0.62 1.98 -1 1 C-0.67 0.67 -0.34 0.34 0 0 Z " fill="#B0B0B0" transform="translate(341,418)"/>
<path d="M0 0 C0 0.66 0 1.32 0 2 C-1.98 2.33 -3.96 2.66 -6 3 C-6 3.66 -6 4.32 -6 5 C-6.66 5 -7.32 5 -8 5 C-8.25 5.58 -8.5 6.15 -8.75 6.75 C-10.18 9.33 -11.78 11.06 -14 13 C-14.66 13 -15.32 13 -16 13 C-16 13.66 -16 14.32 -16 15 C-16.66 15 -17.32 15 -18 15 C-18 15.99 -18 16.98 -18 18 C-18.66 18 -19.32 18 -20 18 C-19.3 11.84 -15.47 8.03 -11 4 C-10.01 3.67 -9.02 3.34 -8 3 C-7.67 2.34 -7.34 1.68 -7 1 C-4 0 -4 0 0 0 Z " fill="#BABABA" transform="translate(213,435)"/>
<path d="M0 0 C0.89 0.01 1.79 0.01 2.71 0.02 C4.1 0.04 4.1 0.04 5.52 0.07 C6.46 0.08 7.4 0.09 8.37 0.1 C10.69 0.12 13.01 0.15 15.33 0.2 C18.33 5.82 18.33 5.82 18.33 9.2 C17.67 9.2 17.01 9.2 16.33 9.2 C15.67 6.89 15.01 4.58 14.33 2.2 C11.21 2.28 8.08 2.39 4.96 2.51 C4.07 2.53 3.18 2.55 2.26 2.58 C1.41 2.61 0.56 2.65 -0.32 2.68 C-1.49 2.72 -1.49 2.72 -2.7 2.76 C-5.07 3.04 -5.07 3.04 -6.67 6.2 C-7 4.88 -7.33 3.56 -7.67 2.2 C-4.46 0.06 -3.67 -0.05 0 0 Z " fill="#9D9D9D" transform="translate(177.66796875,136.8046875)"/>
<path d="M0 0 C2.96 0.61 4.38 1.25 7 3 C7 3.66 7 4.32 7 5 C7.66 5 8.32 5 9 5 C9.67 6.62 10.34 8.25 11 9.88 C11.37 10.78 11.74 11.68 12.12 12.62 C13 15 13 15 13 17 C14.65 17.33 16.3 17.66 18 18 C18 18.66 18 19.32 18 20 C18.66 20 19.32 20 20 20 C20 20.66 20 21.32 20 22 C19.01 22 18.02 22 17 22 C17 21.34 17 20.68 17 20 C15.64 19.78 15.64 19.78 14.25 19.56 C10 17.52 9.51 15.44 7.88 11.19 C6.92 8.8 5.61 7.01 4 5 C4 4.34 4 3.68 4 3 C2.68 2.67 1.36 2.34 0 2 C0 1.34 0 0.68 0 0 Z " fill="#B9B9B9" transform="translate(225,450)"/>
<path d="M0 0 C7.25 2.87 7.25 2.87 10 6 C11.27 6.99 11.27 6.99 12.56 8 C15 10 15 10 17 13 C18.32 13.68 19.66 14.35 21 15 C22.75 16.5 22.75 16.5 24 18 C24 18.66 24 19.32 24 20 C22.35 19.34 20.7 18.68 19 18 C19 17.34 19 16.68 19 16 C18.24 15.73 17.47 15.46 16.69 15.19 C14.09 14.04 12.87 13.05 11 11 C10.34 10.67 9.68 10.34 9 10 C9 9.34 9 8.68 9 8 C7.68 7.34 6.36 6.68 5 6 C5 5.34 5 4.68 5 4 C2.52 3.01 2.52 3.01 0 2 C0 1.34 0 0.68 0 0 Z " fill="#ACACAC" transform="translate(416,212)"/>
<path d="M0 0 C4.06 -0.05 8.11 -0.09 12.17 -0.11 C13.55 -0.12 14.93 -0.13 16.31 -0.15 C18.29 -0.18 20.28 -0.19 22.27 -0.2 C24.06 -0.21 24.06 -0.21 25.88 -0.23 C29.99 0.07 32.02 1.22 35.19 3.75 C37.39 6.49 37.69 8.54 38 12 C37.34 12 36.68 12 36 12 C35.41 10.61 35.41 10.61 34.81 9.19 C32.58 5.27 30.42 3.75 26.14 2.43 C23.74 1.95 21.57 1.92 19.12 1.97 C18.2 1.98 17.28 2 16.33 2.01 C14.4 2.04 12.47 2.08 10.53 2.13 C9.15 2.14 9.15 2.14 7.75 2.16 C6.49 2.19 6.49 2.19 5.2 2.21 C3 2 3 2 0 0 Z " fill="#BABABA" transform="translate(169,122)"/>
<path d="M0 0 C0.99 0.33 1.98 0.66 3 1 C3 6.61 3 12.22 3 18 C6.96 18 10.92 18 15 18 C15 18.66 15 19.32 15 20 C12.85 20.03 10.71 20.05 8.56 20.06 C7.37 20.07 6.17 20.09 4.94 20.1 C2 20 2 20 1 19 C0.84 17.59 0.75 16.17 0.68 14.75 C0.64 13.89 0.6 13.04 0.56 12.16 C0.52 11.26 0.48 10.36 0.44 9.44 C0.39 8.54 0.35 7.63 0.31 6.71 C0.2 4.47 0.1 2.24 0 0 Z " fill="#2ED6B8" transform="translate(277,176)"/>
<path d="M0 0 C0.99 0 1.98 0 3 0 C6 5.75 6 5.75 6 8 C6.99 8.33 7.98 8.66 9 9 C9 9.66 9 10.32 9 11 C9.78 11.18 10.56 11.36 11.37 11.55 C12.38 11.8 13.39 12.05 14.44 12.31 C15.45 12.56 16.46 12.8 17.5 13.05 C18.32 13.36 19.15 13.68 20 14 C20.33 14.99 20.66 15.98 21 17 C19.68 17 18.36 17 17 17 C17 16.34 17 15.68 17 15 C16.07 14.86 15.14 14.71 14.19 14.56 C8.47 13.55 6.44 11.44 3 7 C2.4 6.28 1.8 5.56 1.19 4.81 C0 3 0 3 0 0 Z " fill="#939393" transform="translate(497,230)"/>
<path d="M0 0 C-1.62 1.71 -3.29 3.37 -5 5 C-5.66 5 -6.32 5 -7 5 C-7.33 6.98 -7.66 8.96 -8 11 C-8.66 11 -9.32 11 -10 11 C-10.21 11.8 -10.41 12.61 -10.62 13.44 C-11.08 14.28 -11.53 15.13 -12 16 C-15.12 16.81 -15.12 16.81 -18 17 C-18 16.34 -18 15.68 -18 15 C-16.35 14.67 -14.7 14.34 -13 14 C-12.77 13.18 -12.55 12.35 -12.31 11.5 C-10.76 7.35 -8.91 3.37 -6 0 C-3.38 -1.02 -2.55 -1.27 0 0 Z " fill="#1a1a1a" transform="translate(243,126)"/>
<path d="M0 0 C0.66 0 1.32 0 2 0 C2 5.61 2 11.22 2 17 C5.96 17 9.92 17 14 17 C14 17.66 14 18.32 14 19 C11.85 19.03 9.71 19.05 7.56 19.06 C6.37 19.07 5.17 19.09 3.94 19.1 C1 19 1 19 0 18 C-0.09 16.66 -0.11 15.31 -0.1 13.96 C-0.09 13.16 -0.09 12.35 -0.09 11.51 C-0.08 10.66 -0.07 9.81 -0.06 8.94 C-0.06 8.08 -0.05 7.23 -0.05 6.35 C-0.04 4.23 -0.02 2.12 0 0 Z " fill="#24DAB9" transform="translate(481,307)"/>
<path d="M0 0 C0.99 0 1.98 0 3 0 C3 0.66 3 1.32 3 2 C1.68 1.67 0.36 1.34 -1 1 C-0.67 0.67 -0.34 0.34 0 0 Z M-2 2 C0 4 0 4 0.14 5.88 C0.08 6.62 0.03 7.37 -0.02 8.13 C-0.07 8.94 -0.13 9.74 -0.18 10.57 C-0.24 11.42 -0.31 12.26 -0.38 13.12 C-0.43 13.97 -0.49 14.82 -0.55 15.7 C-0.69 17.8 -0.84 19.9 -1 22 C-6.62 24 -6.62 24 -10 24 C-10 23.34 -10 22.68 -10 22 C-6.53 21.5 -6.53 21.5 -3 21 C-3.01 19.8 -3.02 18.59 -3.04 17.35 C-3.04 15.78 -3.05 14.2 -3.06 12.62 C-3.07 11.83 -3.08 11.04 -3.09 10.22 C-3.11 4.23 -3.11 4.23 -2 2 Z " fill="#1ED8B6" transform="translate(237,173)"/>
<path d="M0 0 C0.66 0 1.32 0 2 0 C1.74 1.44 1.47 2.88 1.19 4.31 C1.04 5.11 0.89 5.91 0.73 6.74 C-0.09 9.29 -0.91 10.35 -3 12 C-7.47 13.49 -11.53 13.49 -16 12 C-18.25 9.62 -18.25 9.62 -20 7 C-19.67 6.01 -19.34 5.02 -19 4 C-17.62 5.29 -16.29 6.63 -15 8 C-15 8.66 -15 9.32 -15 10 C-11.04 10 -7.08 10 -3 10 C-2.01 6.7 -1.02 3.4 0 0 Z " fill="#ADADAD" transform="translate(473,241)"/>
<path d="M0 0 C0.66 0 1.32 0 2 0 C2.33 6.27 2.66 12.54 3 19 C5.64 19.66 8.28 20.32 11 21 C11 21.66 11 22.32 11 23 C9.02 23 7.04 23 5 23 C5 22.34 5 21.68 5 21 C4.01 21 3.02 21 2 21 C-0.71 17.02 -0.22 12.86 -0.12 8.25 C-0.12 7.46 -0.11 6.66 -0.1 5.85 C-0.07 3.9 -0.04 1.95 0 0 Z " fill="#23D6B6" transform="translate(437,399)"/>
<path d="M0 0 C2.97 0.5 2.97 0.5 6 1 C7.57 8.98 7.57 8.98 5.56 12.56 C1.87 14.63 -0.8 14.28 -5 14 C-5.66 12.68 -6.32 11.36 -7 10 C-6.01 10.33 -5.02 10.66 -4 11 C-0.42 11.17 -0.42 11.17 3 11 C4.36 9.87 4.36 9.87 4.06 6.94 C4.04 5.97 4.02 5 4 4 C2.68 3.34 1.36 2.68 0 2 C0 1.34 0 0.68 0 0 Z " fill="#A6A6A6" transform="translate(301,399)"/>
<path d="M0 0 C3.29 0.57 4.88 1.41 7 4 C8.13 8.04 8.29 11.88 7.25 15.94 C6 18 6 18 3 20 C0.31 20.12 0.31 20.12 -2 20 C-1.01 19.67 -0.02 19.34 1 19 C1.33 18.01 1.66 17.02 2 16 C2.78 15.31 2.78 15.31 3.57 14.6 C5.22 13.08 5.22 13.08 5.14 10.77 C4.98 9.59 4.98 9.59 4.81 8.38 C4.72 7.58 4.62 6.78 4.52 5.96 C4.35 5.31 4.18 4.67 4 4 C3.34 3.67 2.68 3.34 2 3 C2 2.34 2 1.68 2 1 C1.34 0.67 0.68 0.34 0 0 Z " fill="#A9A9A9" transform="translate(525,211)"/>
<path d="M0 0 C0.66 0 1.32 0 2 0 C1.92 2.87 1.45 4.54 -0.59 6.6 C-1.84 7.64 -3.12 8.67 -4.41 9.67 C-6.13 10.93 -6.13 10.93 -7 13 C-9.07 13.63 -9.07 13.63 -11.56 14.12 C-12.39 14.29 -13.22 14.46 -14.07 14.63 C-14.7 14.75 -15.34 14.88 -16 15 C-13.45 12.21 -11.78 11.51 -8 11 C-7.67 10.01 -7.34 9.02 -7 8 C-4.56 5.31 -4.56 5.31 -2 3 C-1.34 3 -0.68 3 0 3 C0 2.01 0 1.02 0 0 Z " fill="#A3A3A3" transform="translate(245,143)"/>
<path d="M0 0 C0.66 0 1.32 0 2 0 C2 5.61 2 11.22 2 17 C3.98 17.33 5.96 17.66 8 18 C8 18.66 8 19.32 8 20 C1.12 19.12 1.12 19.12 0 18 C-0.09 16.66 -0.11 15.31 -0.1 13.96 C-0.09 13.16 -0.09 12.35 -0.09 11.51 C-0.08 10.66 -0.07 9.81 -0.06 8.94 C-0.06 8.08 -0.05 7.23 -0.05 6.35 C-0.04 4.23 -0.02 2.12 0 0 Z " fill="#22D3B3" transform="translate(336,177)"/>
<path d="M0 0 C1.32 0.33 2.64 0.66 4 1 C3.67 7.6 3.34 14.2 3 21 C2.34 21.33 1.68 21.66 1 22 C1.01 21.44 1.01 20.88 1.02 20.3 C1.04 17.76 1.05 15.23 1.06 12.69 C1.07 11.81 1.08 10.93 1.09 10.02 C1.09 9.17 1.09 8.32 1.1 7.45 C1.1 6.67 1.11 5.89 1.11 5.08 C1.08 2.8 1.08 2.8 0 0 Z " fill="#1a1a1a" transform="translate(495,208)"/>
<path d="M0 0 C0.66 0.33 1.32 0.66 2 1 C2 1.99 2 2.98 2 4 C-1.28 5.64 -4.9 5.14 -8.5 5.12 C-9.29 5.13 -10.07 5.13 -10.88 5.14 C-16.75 5.13 -16.75 5.13 -19 4 C-19 3.34 -19 2.68 -19 2 C-12.73 2.33 -6.46 2.66 0 3 C0 2.01 0 1.02 0 0 Z " fill="#1a1a1a" transform="translate(192,453)"/>
<path d="M0 0 C0.66 0 1.32 0 2 0 C2.67 2.6 3.34 5.21 4 7.81 C4.19 8.55 4.38 9.29 4.58 10.05 C5.35 13.11 6 15.83 6 19 C5.34 19 4.68 19 4 19 C3.34 16.03 2.68 13.06 2 10 C1.34 10 0.68 10 0 10 C0 6.7 0 3.4 0 0 Z " fill="#A4A4A4" transform="translate(277,401)"/>
<path d="M0 0 C0.7 0.01 1.39 0.02 2.11 0.03 C3.83 0.05 5.54 0.09 7.25 0.12 C7.58 0.78 7.91 1.44 8.25 2.12 C-1.15 3.12 -1.15 3.12 -10.75 4.12 C-11.08 3.47 -11.41 2.81 -11.75 2.12 C-8.01 -0.32 -4.31 -0.11 0 0 Z " fill="#C3C3C3" transform="translate(463.75,215.875)"/>
<path d="M0 0 C0.66 0 1.32 0 2 0 C1.35 5.67 -1.43 8.58 -5.56 12.31 C-8 14 -8 14 -11 14 C-11 13.34 -11 12.68 -11 12 C-10.36 11.9 -9.72 11.79 -9.06 11.69 C-8.04 11.35 -8.04 11.35 -7 11 C-6.67 10.01 -6.34 9.02 -6 8 C-5.34 8 -4.68 8 -4 8 C-3.34 6.35 -2.68 4.7 -2 3 C-1.34 3 -0.68 3 0 3 C0 2.01 0 1.02 0 0 Z " fill="#989898" transform="translate(544,230)"/>
<path d="M0 0 C5.23 2.97 8.18 5.13 10 11 C10.12 13.81 10.12 13.81 10 16 C9.34 16 8.68 16 8 16 C7.57 14.95 7.13 13.9 6.69 12.81 C4.43 6.99 4.43 6.99 0 3 C0 2.01 0 1.02 0 0 Z " fill="#A3A3A3" transform="translate(479,221)"/>
<path d="M0 0 C0.66 0 1.32 0 2 0 C1.67 1.65 1.34 3.3 1 5 C-4.28 5 -9.56 5 -15 5 C-15 4.34 -15 3.68 -15 3 C-10.05 3 -5.1 3 0 3 C0 2.01 0 1.02 0 0 Z " fill="#2DD1B4" transform="translate(219,205)"/>
<path d="M0 0 C0.66 0 1.32 0 2 0 C3.42 2.84 3.13 5.28 3.12 8.44 C3.13 9.59 3.13 10.74 3.13 11.93 C3 15 3 15 2 18 C1.34 18 0.68 18 0 18 C0 12.06 0 6.12 0 0 Z " fill="#AAAAAA" transform="translate(378,397)"/>
<path d="M0 0 C0.66 0 1.32 0 2 0 C2.33 1.98 2.66 3.96 3 6 C3.66 6 4.32 6 5 6 C6.51 7.46 6.51 7.46 8.12 9.38 C8.93 10.31 8.93 10.31 9.76 11.27 C11 13 11 13 11 15 C10.01 14.67 9.02 14.34 8 14 C8 13.34 8 12.68 8 12 C7.36 11.73 6.72 11.46 6.06 11.19 C4 10 4 10 3 7 C2.34 7 1.68 7 1 7 C0.67 4.69 0.34 2.38 0 0 Z " fill="#AFAFAF" transform="translate(467,179)"/>
<path d="M0 0 C0.66 0 1.32 0 2 0 C2.1 0.57 2.21 1.13 2.31 1.71 C3.18 4.53 3.84 5.96 6 8 C11.36 9.05 16.55 9.1 22 9 C22 9.33 22 9.66 22 10 C16.06 10 10.12 10 4 10 C4 9.01 4 8.02 4 7 C3.34 7 2.68 7 2 7 C0.54 4.35 0 3.11 0 0 Z " fill="#A3A3A3" transform="translate(244,446)"/>
<path d="M0 0 C0.93 0.21 1.86 0.41 2.81 0.62 C2.81 1.29 2.81 1.94 2.81 2.62 C3.47 2.62 4.13 2.62 4.81 2.62 C5.14 5.26 5.47 7.9 5.81 10.62 C5.15 10.62 4.49 10.62 3.81 10.62 C3.41 9.17 3.41 9.17 3 7.69 C2.61 6.68 2.22 5.67 1.81 4.62 C0.82 4.3 -0.17 3.96 -1.19 3.62 C-1.19 2.96 -1.19 2.31 -1.19 1.62 C-2.84 1.62 -4.49 1.62 -6.19 1.62 C-3.19 -0.38 -3.19 -0.38 0 0 Z " fill="#B1B1B1" transform="translate(360.1875,397.375)"/>
<path d="M0 0 C0.99 0 1.98 0 3 0 C2.44 3.24 1.59 4.93 -1 7 C-1.66 7 -2.32 7 -3 7 C-3.33 8.32 -3.66 9.64 -4 11 C-4.66 11 -5.32 11 -6 11 C-5.34 8.69 -4.68 6.38 -4 4 C-3.34 4 -2.68 4 -2 4 C-1.34 2.68 -0.68 1.36 0 0 Z " fill="#BFBFBF" transform="translate(285,388)"/>
<path d="M0 0 C0.66 0 1.32 0 2 0 C2 4.29 2 8.58 2 13 C2.66 13 3.32 13 4 13 C4 13.99 4 14.98 4 16 C2.68 15.67 1.36 15.34 0 15 C0 10.05 0 5.1 0 0 Z " fill="#0FE7C0" transform="translate(510,311)"/>
<path d="M0 0 C5.28 0 10.56 0 16 0 C16.33 1.32 16.66 2.64 17 4 C16.34 4 15.68 4 15 4 C15 3.34 15 2.68 15 2 C10.05 2 5.1 2 0 2 C0 1.34 0 0.68 0 0 Z " fill="#32D6B8" transform="translate(204,253)"/>
<path d="M0 0 C0.66 0 1.32 0 2 0 C2 0.66 2 1.32 2 2 C2.66 2 3.32 2 4 2 C4.41 2.76 4.82 3.53 5.25 4.31 C7.39 7.59 9.45 8.5 13 10 C13 10.66 13 11.32 13 12 C7.96 11.19 5.69 10.12 2.56 6 C0 2.36 0 2.36 0 0 Z " fill="#B2B2B2" transform="translate(156,458)"/>
<path d="M0 0 C1.94 0.31 1.94 0.31 4 1 C5.18 4.53 5.2 7.29 5 11 C4.01 12.49 4.01 12.49 3 14 C2.34 14 1.68 14 1 14 C1.31 12.21 1.31 12.21 1.62 10.38 C2.14 6.44 1.57 3.69 0 0 Z " fill="#B0B0B0" transform="translate(289,326)"/>
<path d="M0 0 C1.27 0.01 2.54 0.02 3.86 0.03 C5.32 0.04 5.32 0.04 6.81 0.06 C7.14 0.72 7.47 1.38 7.81 2.06 C7.2 2.04 6.58 2.02 5.94 1.99 C-0.07 1.86 -5.39 2.49 -11.19 4.06 C-10.86 3.07 -10.53 2.08 -10.19 1.06 C-6.63 -0.12 -3.75 -0.03 0 0 Z " fill="#C1C1C1" transform="translate(299.1875,383.9375)"/>
<path d="M0 0 C0.66 0 1.32 0 2 0 C1.86 1.28 1.71 2.56 1.56 3.88 C1.48 4.59 1.4 5.31 1.32 6.05 C1 8 1 8 0 10 C-0.66 10 -1.32 10 -2 10 C-2 10.99 -2 11.98 -2 13 C-2.66 13 -3.32 13 -4 13 C-3.28 8.39 -1.69 4.33 0 0 Z " fill="#A9A9A9" transform="translate(487,247)"/>
<path d="M0 0 C2.96 0.61 4.38 1.25 7 3 C7 3.66 7 4.32 7 5 C7.66 5 8.32 5 9 5 C9 5.66 9 6.32 9 7 C9.99 7 10.98 7 12 7 C12 7.66 12 8.32 12 9 C7.14 8.58 5.24 6.5 2 3 C1.34 2.67 0.68 2.34 0 2 C0 1.34 0 0.68 0 0 Z " fill="#ACACAC" transform="translate(485,180)"/>
<path d="M0 0 C2.34 0.26 4.68 0.59 7 1 C7.33 1.66 7.66 2.32 8 3 C10.02 4.13 10.02 4.13 12 5 C12 5.66 12 6.32 12 7 C9.03 6.01 6.06 5.02 3 4 C3 3.34 3 2.68 3 2 C2.01 2 1.02 2 0 2 C0 1.34 0 0.68 0 0 Z " fill="#ADADAD" transform="translate(228,435)"/>
<path d="M0 0 C0.66 0 1.32 0 2 0 C1.74 1.44 1.47 2.88 1.19 4.31 C1.04 5.11 0.89 5.91 0.73 6.74 C-0.09 9.27 -0.94 10.35 -3 12 C-5.19 12.69 -5.19 12.69 -7 13 C-6.67 12.01 -6.34 11.02 -6 10 C-5.01 10 -4.02 10 -3 10 C-2.01 6.7 -1.02 3.4 0 0 Z " fill="#B7B7B7" transform="translate(473,241)"/>
<path d="M0 0 C1.14 2.79 1.07 3.83 -0.06 6.69 C-2 9 -2 9 -5.19 9.81 C-6.12 9.87 -7.04 9.94 -8 10 C-8 9.34 -8 8.68 -8 8 C-6.35 7.67 -4.7 7.34 -3 7 C-2.69 6.03 -2.38 5.06 -2.06 4.06 C-1 1 -1 1 0 0 Z " fill="#939393" transform="translate(233,133)"/>
<path d="M0 0 C1.89 0.03 1.89 0.03 3.81 0.06 C3.81 0.72 3.81 1.38 3.81 2.06 C-0.15 2.72 -4.11 3.38 -8.19 4.06 C-7.86 3.07 -7.53 2.08 -7.19 1.06 C-4.44 0.15 -2.83 -0.05 0 0 Z " fill="#9F9F9F" transform="translate(220.1875,448.9375)"/>
<path d="M0 0 C0.6 0.21 1.2 0.41 1.81 0.62 C-1.94 3.62 -1.94 3.62 -4.19 3.62 C-4.19 5.27 -4.19 6.93 -4.19 8.62 C-4.85 8.62 -5.51 8.62 -6.19 8.62 C-5.88 5.25 -5.88 5.25 -5.19 1.62 C-2.19 -0.38 -2.19 -0.38 0 0 Z " fill="#A0A0A0" transform="translate(298.1875,399.375)"/>
<path d="M0 0 C0 0.66 0 1.32 0 2 C-1.21 2.43 -1.21 2.43 -2.44 2.88 C-5.13 3.73 -5.13 3.73 -6 6 C-7.65 6 -9.3 6 -11 6 C-11 5.34 -11 4.68 -11 4 C-9.68 4 -8.36 4 -7 4 C-7 3.34 -7 2.68 -7 2 C-4.35 0.54 -3.11 0 0 0 Z " fill="#9C9C9C" transform="translate(481,262)"/>
<path d="M0 0 C1.02 0.03 1.02 0.03 2.06 0.05 C3.08 0.06 3.08 0.06 4.12 0.06 C6.06 0.36 6.06 0.36 9.06 2.36 C4.44 2.69 -0.18 3.02 -4.94 3.36 C-1.94 0.36 -1.94 0.36 0 0 Z " fill="#BEBEBE" transform="translate(518.9375,208.63671875)"/>
<path d="M0 0 C3.45 1.15 4.72 2.19 7 5 C7.75 8.25 7.75 8.25 8 11 C7.34 11 6.68 11 6 11 C5.57 10.07 5.13 9.14 4.69 8.19 C3.26 5.48 2.15 4.05 0 2 C0 1.34 0 0.68 0 0 Z " fill="#AFAFAF" transform="translate(199,123)"/>
<path d="M0 0 C0 0.66 0 1.32 0 2 C-0.66 2 -1.32 2 -2 2 C-2 2.66 -2 3.32 -2 4 C-4.64 5.78 -6.97 6.99 -10 8 C-8.71 5.12 -7.43 3.04 -5 1 C-2 0 -2 0 0 0 Z " fill="#A7A7A7" transform="translate(169,123)"/>
<path d="M0 0 C0 0.99 0 1.98 0 3 C-1.32 3.33 -2.64 3.66 -4 4 C-4 4.66 -4 5.32 -4 6 C-5.65 6.33 -7.3 6.66 -9 7 C-9 6.34 -9 5.68 -9 5 C-6.04 2.83 -3.49 1.16 0 0 Z " fill="#A4A4A4" transform="translate(317,420)"/>
<path d="M0 0 C4.4 1.2 7.1 2.43 10 6 C10 6.66 10 7.32 10 8 C7.52 7.01 7.52 7.01 5 6 C5 5.34 5 4.68 5 4 C2.52 3.01 2.52 3.01 0 2 C0 1.34 0 0.68 0 0 Z " fill="#A7A7A7" transform="translate(430,224)"/>
<path d="M0 0 C4.88 2.75 4.88 2.75 6 5 C8.02 5.65 8.02 5.65 10 6 C10 6.66 10 7.32 10 8 C6.06 7.73 4.44 7.45 1.62 4.56 C0 2 0 2 0 0 Z " fill="#AEAEAE" transform="translate(442,213)"/>
<path d="M0 0 C4.88 2.75 4.88 2.75 6 5 C6.99 5.33 7.98 5.66 9 6 C9 6.66 9 7.32 9 8 C5.81 7.65 4.21 7.17 1.69 5.12 C0 3 0 3 0 0 Z " fill="#9C9C9C" transform="translate(433,205)"/>
<path d="M0 0 C1.98 0.99 1.98 0.99 4 2 C4 2.66 4 3.32 4 4 C5.65 4 7.3 4 9 4 C8.67 4.99 8.34 5.98 8 7 C5.69 6.88 5.69 6.88 3 6 C1.19 2.94 1.19 2.94 0 0 Z " fill="#A8A8A8" transform="translate(502,193)"/>
<path d="M0 0 C0 0.66 0 1.32 0 2 C-3.83 3.28 -7.23 2.86 -11.19 2.56 C-11.94 2.51 -12.69 2.46 -13.46 2.4 C-15.31 2.27 -17.15 2.14 -19 2 C-19 1.67 -19 1.34 -19 1 C-16.4 0.83 -13.79 0.67 -11.19 0.5 C-10.08 0.43 -10.08 0.43 -8.95 0.36 C-5.96 0.17 -3 0 0 0 Z " fill="#0DF2C9" transform="translate(371,222)"/>
<path d="M0 0 C3.92 1.31 6.33 2.83 9 6 C9 6.66 9 7.32 9 8 C5.92 6.97 5.12 6.3 3 4 C2.44 3.46 1.89 2.93 1.31 2.38 C0 1 0 1 0 0 Z " fill="#9F9F9F" transform="translate(478,194)"/>
<path d="M0 0 C0.99 0.33 1.98 0.66 3 1 C3.33 1.99 3.66 2.98 4 4 C6 5.21 6 5.21 8 6 C8 6.66 8 7.32 8 8 C5.12 7.38 5.12 7.38 2 6 C0.62 2.88 0.62 2.88 0 0 Z " fill="#A3A3A3" transform="translate(207,135)"/>
<path d="M0 0 C1.32 0.33 2.64 0.66 4 1 C4 1.66 4 2.32 4 3 C4.66 3 5.32 3 6 3 C6.99 4.49 6.99 4.49 8 6 C7.67 6.99 7.34 7.98 7 9 C7 8.34 7 7.68 7 7 C6.34 7 5.68 7 5 7 C5 6.34 5 5.68 5 5 C4.36 4.73 3.72 4.46 3.06 4.19 C1 3 1 3 0 0 Z " fill="#B1B1B1" transform="translate(581,126)"/>
<path d="M0 0 C3.79 0.54 5.55 2.12 8 5 C8 5.66 8 6.32 8 7 C6.68 6.34 5.36 5.68 4 5 C4 4.34 4 3.68 4 3 C2.68 2.67 1.36 2.34 0 2 C0 1.34 0 0.68 0 0 Z " fill="#999999" transform="translate(225,450)"/>
<path d="M0 0 C1.98 0.66 3.96 1.32 6 2 C6 2.66 6 3.32 6 4 C7.32 4 8.64 4 10 4 C10 4.66 10 5.32 10 6 C6.06 5.44 3.25 4.32 0 2 C0 1.34 0 0.68 0 0 Z " fill="#A2A2A2" transform="translate(447,262)"/>
<path d="M0 0 C2.31 0.66 4.62 1.32 7 2 C7 2.66 7 3.32 7 4 C7.66 4 8.32 4 9 4 C9 4.66 9 5.32 9 6 C8.01 6 7.02 6 6 6 C6 5.34 6 4.68 6 4 C4.02 3.34 2.04 2.68 0 2 C0 1.34 0 0.68 0 0 Z " fill="#959595" transform="translate(236,466)"/>
<path d="M0 0 C0 3 0 3 -1 6 C-4.06 7.19 -4.06 7.19 -7 8 C-6.67 7.01 -6.34 6.02 -6 5 C-5.01 5 -4.02 5 -3 5 C-2.81 4.04 -2.81 4.04 -2.62 3.06 C-2.42 2.38 -2.21 1.7 -2 1 C-1.34 0.67 -0.68 0.34 0 0 Z " fill="#A0A0A0" transform="translate(206,462)"/>
<path d="M0 0 C2.64 0.99 5.28 1.98 8 3 C8 3.99 8 4.98 8 6 C7.01 6 6.02 6 5 6 C5 5.34 5 4.68 5 4 C4.36 3.9 3.72 3.79 3.06 3.69 C2.38 3.46 1.7 3.23 1 3 C0.67 2.01 0.34 1.02 0 0 Z " fill="#AEAEAE" transform="translate(283,420)"/>
<path d="M0 0 C0.99 0 1.98 0 3 0 C3 0.66 3 1.32 3 2 C2.34 2 1.68 2 1 2 C0.6 3.21 0.6 3.21 0.19 4.44 C-0.2 5.28 -0.6 6.13 -1 7 C-1.99 7.33 -2.98 7.66 -4 8 C-4 7.01 -4 6.02 -4 5 C-3.34 4.67 -2.68 4.34 -2 4 C-0.87 1.98 -0.87 1.98 0 0 Z " fill="#A3A3A3" transform="translate(376,416)"/>
<path d="M0 0 C0.66 0 1.32 0 2 0 C1.43 2.87 1.14 3.86 -1 6 C-2.32 6 -3.64 6 -5 6 C-5 5.34 -5 4.68 -5 4 C-4.01 4 -3.02 4 -2 4 C-1.34 2.68 -0.68 1.36 0 0 Z " fill="#B2B2B2" transform="translate(255,408)"/>
<path d="M0 0 C0.99 0 1.98 0 3 0 C3.99 2.31 4.98 4.62 6 7 C5.01 7 4.02 7 3 7 C0.64 4.47 0 3.53 0 0 Z " fill="#B9B9B9" transform="translate(497,230)"/>
<path d="M0 0 C0.99 0.33 1.98 0.66 3 1 C3.33 1.99 3.66 2.98 4 4 C6 5.21 6 5.21 8 6 C8 6.66 8 7.32 8 8 C4.11 6.74 2.11 5.55 0 2 C0 1.34 0 0.68 0 0 Z " fill="#A1A1A1" transform="translate(196,146)"/>
<path d="M0 0 C0 0.66 0 1.32 0 2 C-2.97 2.66 -5.94 3.32 -9 4 C-9 3.34 -9 2.68 -9 2 C-5.87 0.14 -3.63 -0.2 0 0 Z " fill="#A4A4A4" transform="translate(247,122)"/>
<path d="M0 0 C0 0.66 0 1.32 0 2 C-0.66 2 -1.32 2 -2 2 C-2.66 3.98 -3.32 5.96 -4 8 C-4.66 8 -5.32 8 -6 8 C-5.62 5.22 -5.33 3.41 -3.56 1.19 C-2 0 -2 0 0 0 Z " fill="#A7A7A7" transform="translate(591,457)"/>
<path d="M0 0 C3.32 1.17 5.83 2.15 8 5 C8 5.99 8 6.98 8 8 C7.34 8 6.68 8 6 8 C4.65 6.35 3.31 4.68 2 3 C1.34 2.67 0.68 2.34 0 2 C0 1.34 0 0.68 0 0 Z " fill="#A0A0A0" transform="translate(371,388)"/>
<path d="M0 0 C2.64 0.99 5.28 1.98 8 3 C8 3.66 8 4.32 8 5 C6.68 5 5.36 5 4 5 C4 4.34 4 3.68 4 3 C2.68 3 1.36 3 0 3 C0 2.01 0 1.02 0 0 Z " fill="#B8B8B8" transform="translate(510,242)"/>
<path d="M0 0 C-1.49 3.8 -3.76 5.61 -7 8 C-7 5 -7 5 -4.62 2.31 C-2 0 -2 0 0 0 Z " fill="#9B9B9B" transform="translate(204,439)"/>
<path d="M0 0 C0 0.66 0 1.32 0 2 C0.66 2.33 1.32 2.66 2 3 C-0.64 3.33 -3.28 3.66 -6 4 C-6.33 3.34 -6.66 2.68 -7 2 C-4.35 0.54 -3.11 0 0 0 Z " fill="#B6B6B6" transform="translate(459,216)"/>
<path d="M0 0 C-1.2 2.49 -2.45 4.68 -4 7 C-4.66 7 -5.32 7 -6 7 C-5.69 4.62 -5.69 4.62 -5 2 C-2 0 -2 0 0 0 Z " fill="#16E1BD" transform="translate(327,173)"/>
<path d="M0 0 C0.33 1.32 0.66 2.64 1 4 C-0.98 4.33 -2.96 4.66 -5 5 C-5.33 4.34 -5.66 3.68 -6 3 C-4.68 3 -3.36 3 -2 3 C-2 2.34 -2 1.68 -2 1 C-1.34 0.67 -0.68 0.34 0 0 Z " fill="#9F9F9F" transform="translate(574,452)"/>
<path d="M0 0 C0.99 0 1.98 0 3 0 C3.66 2.31 4.32 4.62 5 7 C4.01 6.67 3.02 6.34 2 6 C2 5.01 2 4.02 2 3 C1.34 3 0.68 3 0 3 C0 2.01 0 1.02 0 0 Z " fill="#1DD5B4" transform="translate(423,388)"/>
<path d="M0 0 C3.26 0.35 4.02 1.02 6.25 3.56 C6.83 4.37 7.41 5.17 8 6 C6.06 5.69 6.06 5.69 4 5 C3.67 4.01 3.34 3.02 3 2 C2.01 2 1.02 2 0 2 C0 1.34 0 0.68 0 0 Z " fill="#A9A9A9" transform="translate(221,361)"/>
<path d="M0 0 C2 0 2 0 4.12 1.81 C6 4 6 4 6 7 C5.01 6.67 4.02 6.34 3 6 C3 5.34 3 4.68 3 4 C2.01 3.67 1.02 3.34 0 3 C0 2.01 0 1.02 0 0 Z " fill="#24CEAF" transform="translate(448,303)"/>
<path d="M0 0 C0.66 0 1.32 0 2 0 C1.25 4.75 1.25 4.75 -1 7 C-1.99 6.67 -2.98 6.34 -4 6 C-3.34 5.01 -2.68 4.02 -2 3 C-1.34 3 -0.68 3 0 3 C0 2.01 0 1.02 0 0 Z " fill="#A8A8A8" transform="translate(544,230)"/>
<path d="M0 0 C0.99 0.33 1.98 0.66 3 1 C3.33 3.31 3.66 5.62 4 8 C3.34 8 2.68 8 2 8 C1.34 5.36 0.68 2.72 0 0 Z " fill="#9C9C9C" transform="translate(543,206)"/>
<path d="M0 0 C2.76 0.52 5.33 1.11 8 2 C8 2.66 8 3.32 8 4 C5.69 3.67 3.38 3.34 1 3 C0.67 2.01 0.34 1.02 0 0 Z " fill="#A4A4A4" transform="translate(204,154)"/>
<path d="M0 0 C0.66 0 1.32 0 2 0 C1.44 3.34 0.65 6.03 -1 9 C-2.03 6.21 -2.05 5.13 -1.06 2.25 C-0.71 1.51 -0.36 0.76 0 0 Z " fill="#A7A7A7" transform="translate(157,131)"/>
<path d="M0 0 C0.66 0 1.32 0 2 0 C2 1.98 2 3.96 2 6 C1.01 6.33 0.02 6.66 -1 7 C-0.67 4.69 -0.34 2.38 0 0 Z " fill="#1a1a1a" transform="translate(589,451)"/>
<path d="M0 0 C2.97 0.33 5.94 0.66 9 1 C9 1.66 9 2.32 9 3 C7.02 3 5.04 3 3 3 C3 2.34 3 1.68 3 1 C2.01 0.67 1.02 0.34 0 0 Z " fill="#2ACFB1" transform="translate(468,419)"/>
<path d="M0 0 C2.64 0.66 5.28 1.32 8 2 C8 2.66 8 3.32 8 4 C6.02 4 4.04 4 2 4 C1.34 2.68 0.68 1.36 0 0 Z " fill="#898989" transform="translate(294,409)"/>
<path d="M0 0 C5.75 0.88 5.75 0.88 8 2 C8 2.66 8 3.32 8 4 C5.36 3.34 2.72 2.68 0 2 C0 1.34 0 0.68 0 0 Z " fill="#BBBBBB" transform="translate(363,384)"/>
<path d="M0 0 C0.66 0 1.32 0 2 0 C0.95 2.62 0.35 3.79 -2.12 5.25 C-2.74 5.5 -3.36 5.75 -4 6 C-3.67 4.68 -3.34 3.36 -3 2 C-2.01 2 -1.02 2 0 2 C0 1.34 0 0.68 0 0 Z " fill="#16E6C1" transform="translate(500,303)"/>
<path d="M0 0 C3 1 4.03 1.65 6 4 C6 4.66 6 5.32 6 6 C4.02 5.34 2.04 4.68 0 4 C0 2.68 0 1.36 0 0 Z " fill="#C5C5C5" transform="translate(425,218)"/>
<path d="M0 0 C1.32 0.33 2.64 0.66 4 1 C3.39 3.96 2.75 5.38 1 8 C1.02 7.24 1.04 6.47 1.06 5.69 C1.13 2.9 1.13 2.9 0 0 Z " fill="#ABABAB" transform="translate(495,208)"/>
</svg>
