<?xml version="1.0" encoding="UTF-8"?>
<!-- Generator: visioncortex VTracer 0.6.4 -->
<svg version="1.1" xmlns="http://www.w3.org/2000/svg" width="1142" height="1045">
<path d="M0 0 C1.31 -0.01 1.31 -0.01 2.65 -0.02 C3.6 -0.02 4.55 -0.02 5.53 -0.02 C6.99 -0.03 6.99 -0.03 8.47 -0.03 C10.53 -0.04 12.59 -0.04 14.64 -0.04 C17.8 -0.04 20.96 -0.06 24.11 -0.08 C26.11 -0.08 28.1 -0.08 30.09 -0.09 C31.04 -0.09 31.99 -0.1 32.97 -0.11 C33.85 -0.1 34.72 -0.1 35.63 -0.1 C36.4 -0.1 37.18 -0.1 37.97 -0.1 C39.88 0.15 39.88 0.15 41.88 2.15 C42.12 5.01 42.25 7.78 42.29 10.65 C42.32 11.91 42.32 11.91 42.35 13.2 C42.41 15.89 42.46 18.58 42.5 21.27 C42.54 23.09 42.58 24.91 42.62 26.74 C42.72 31.21 42.8 35.68 42.88 40.15 C43.54 40.48 44.2 40.81 44.88 41.15 C44.88 41.81 44.88 42.47 44.88 43.15 C45.87 43.48 46.86 43.81 47.88 44.15 C47.88 44.81 47.88 45.47 47.88 46.15 C48.87 46.48 49.86 46.81 50.88 47.15 C52.38 48.84 53.81 50.6 55.19 52.4 C58.77 56.94 58.77 56.94 63 60.83 C65.88 63.15 65.88 63.15 66.96 65.09 C68.67 67.93 70.06 69.35 72.88 71.15 C79.66 72.67 86.85 72.17 93.75 72.08 C96.62 72.08 99.49 72.09 102.36 72.1 C104.14 72.11 105.91 72.1 107.69 72.08 C109.76 72.07 111.82 72.1 113.88 72.15 C114.88 73.15 114.88 73.15 114.91 76.42 C114.88 77.88 114.84 79.34 114.81 80.8 C114.8 82.4 114.79 83.99 114.79 85.59 C114.78 88.11 114.75 90.62 114.68 93.14 C114.17 103.23 114.17 103.23 118.16 112.1 C120.95 114.39 123.79 116.28 126.88 118.15 C128.18 119.19 129.47 120.26 130.73 121.36 C131.27 121.82 131.81 122.28 132.37 122.75 C133.15 123.41 133.15 123.41 133.94 124.08 C134.5 124.55 135.05 125.02 135.62 125.5 C137.78 127.32 139.88 129.15 141.88 131.15 C143.77 131.47 143.77 131.47 145.95 131.45 C147.2 131.47 147.2 131.47 148.48 131.5 C149.39 131.51 150.29 131.52 151.23 131.52 C152.62 131.55 152.62 131.55 154.04 131.58 C157 131.63 159.97 131.67 162.94 131.71 C165.91 131.75 168.89 131.8 171.86 131.85 C173.71 131.88 175.56 131.91 177.41 131.93 C183.77 132.03 183.77 132.03 184.88 133.15 C184.98 134.52 185.01 135.9 185.01 137.28 C185.01 138.16 185.01 139.04 185.02 139.94 C185.02 141.37 185.02 141.37 185.01 142.83 C185.01 144.29 185.01 144.29 185.01 145.78 C185.02 147.84 185.01 149.9 185.01 151.96 C185 155.13 185.01 158.3 185.02 161.47 C185.02 163.46 185.01 165.46 185.01 167.46 C185.01 168.41 185.02 169.37 185.02 170.35 C185.01 171.23 185.01 172.1 185.01 173.01 C185.01 174.17 185.01 174.17 185.01 175.36 C184.88 177.15 184.88 177.15 183.88 178.15 C182.5 178.24 181.11 178.26 179.73 178.26 C178.85 178.26 177.96 178.26 177.06 178.26 C176.1 178.25 175.14 178.25 174.16 178.24 C173.18 178.24 172.21 178.24 171.2 178.24 C168.07 178.23 164.94 178.22 161.82 178.21 C159.7 178.2 157.59 178.2 155.47 178.19 C150.27 178.18 145.08 178.17 139.88 178.15 C139.55 177.49 139.22 176.83 138.88 176.15 C137.27 177.11 135.66 178.08 134.05 179.04 C132.68 179.87 131.31 180.69 129.93 181.51 C126.92 183.32 123.91 185.13 120.9 186.94 C118.56 188.35 116.22 189.75 113.88 191.15 C113.19 191.56 112.5 191.97 111.79 192.4 C107.12 195.15 107.12 195.15 104.88 195.15 C104.88 204.39 104.88 213.63 104.88 223.15 C101.36 223.17 101.36 223.17 97.77 223.19 C95.49 223.22 93.22 223.26 90.94 223.3 C89.36 223.32 87.78 223.34 86.2 223.34 C83.93 223.35 81.66 223.39 79.39 223.44 C78.68 223.43 77.98 223.43 77.25 223.43 C75 223.44 75 223.44 71.88 224.15 C69.97 226.53 69.97 226.53 68.88 229.15 C68.22 229.48 67.56 229.81 66.88 230.15 C66.45 230.89 66.01 231.63 65.57 232.4 C63.69 235.45 61.41 237.62 58.88 240.15 C58.55 241.14 58.22 242.13 57.88 243.15 C57.22 243.48 56.56 243.81 55.88 244.15 C55.55 245.14 55.22 246.13 54.88 247.15 C54.22 247.48 53.56 247.81 52.88 248.15 C52.55 249.14 52.22 250.13 51.88 251.15 C50.89 251.81 49.9 252.47 48.88 253.15 C48.55 254.14 48.22 255.13 47.88 256.15 C47.22 256.15 46.56 256.15 45.88 256.15 C43.78 262.45 44.45 269.78 44.36 276.39 C44.33 278.3 44.29 280.21 44.22 282.11 C43.34 294.81 43.34 294.81 48.79 305.7 C49.5 306.3 50.22 306.9 50.95 307.52 C53.02 309.26 53.74 310.73 54.88 313.15 C55.54 313.48 56.2 313.81 56.88 314.15 C57.21 315.14 57.54 316.13 57.88 317.15 C59.52 318.84 61.19 320.5 62.88 322.15 C63.2 322.73 63.51 323.31 63.84 323.91 C65.29 326.36 66.47 327.59 68.88 329.15 C74.85 330.19 80.7 330.12 86.75 330.08 C92.41 330.1 98.06 330.12 103.88 330.15 C103.88 345.33 103.88 360.51 103.88 376.15 C92.56 376.21 92.56 376.21 81 376.27 C78.62 376.29 76.24 376.31 73.78 376.33 C71.9 376.33 70.02 376.34 68.14 376.34 C67.15 376.35 66.17 376.36 65.16 376.37 C64.22 376.37 63.29 376.37 62.33 376.37 C61.52 376.38 60.7 376.38 59.87 376.39 C57.88 376.15 57.88 376.15 55.88 374.15 C54.82 374.79 53.76 375.44 52.67 376.11 C51.28 376.96 49.89 377.8 48.5 378.65 C47.46 379.29 47.46 379.29 46.39 379.95 C41.11 383.15 41.11 383.15 38.88 383.15 C38.55 384.14 38.22 385.13 37.88 386.15 C35.61 387.47 35.61 387.47 32.63 388.83 C26.61 391.7 21.1 395.02 15.5 398.61 C12.88 400.15 12.88 400.15 10.88 400.15 C10.88 409.39 10.88 418.63 10.88 428.15 C-4.3 428.15 -19.48 428.15 -35.12 428.15 C-34.87 405.83 -34.87 405.83 -34.7 398.92 C-34.62 384.54 -37.96 375.67 -46.6 364.26 C-53.12 355.17 -53.12 355.17 -53.12 351.15 C-62.69 351.15 -72.26 351.15 -82.12 351.15 C-82.45 335.64 -82.78 320.13 -83.12 304.15 C-81.14 304.15 -79.16 304.15 -77.12 304.15 C-79.41 296.02 -82.32 288.23 -85.42 280.39 C-85.77 279.49 -86.12 278.6 -86.48 277.68 C-86.79 276.88 -87.11 276.08 -87.43 275.25 C-88.12 273.15 -88.12 273.15 -88.12 270.15 C-89.16 270.15 -89.16 270.15 -90.22 270.16 C-93.33 270.18 -96.44 270.19 -99.56 270.21 C-100.65 270.22 -101.74 270.22 -102.86 270.23 C-103.89 270.24 -104.93 270.24 -105.99 270.24 C-106.95 270.25 -107.91 270.25 -108.9 270.26 C-111.12 270.15 -111.12 270.15 -112.12 269.15 C-112.21 267.44 -112.23 265.73 -112.22 264.02 C-112.21 262.46 -112.21 262.46 -112.21 260.88 C-112.2 259.25 -112.2 259.25 -112.18 257.58 C-112.18 256.49 -112.17 255.4 -112.17 254.27 C-112.16 251.56 -112.14 248.85 -112.12 246.15 C-112.79 245.97 -113.45 245.8 -114.14 245.62 C-120.9 243.81 -127.55 241.76 -134.18 239.52 C-135.59 239.05 -135.59 239.05 -137.02 238.57 C-143.84 236.29 -143.84 236.29 -146.12 235.15 C-146.62 239.11 -146.62 239.11 -147.12 243.15 C-153.49 243.2 -159.86 243.23 -166.24 243.26 C-168.41 243.27 -170.57 243.28 -172.74 243.3 C-175.86 243.32 -178.97 243.33 -182.08 243.34 C-183.06 243.35 -184.03 243.36 -185.03 243.37 C-185.93 243.37 -186.83 243.37 -187.76 243.37 C-188.96 243.38 -188.96 243.38 -190.17 243.39 C-192.12 243.15 -192.12 243.15 -194.12 241.15 C-194.46 239.31 -194.46 239.31 -194.57 237.12 C-194.61 236.33 -194.66 235.53 -194.7 234.72 C-194.74 233.89 -194.77 233.06 -194.81 232.21 C-194.86 231.38 -194.9 230.56 -194.95 229.71 C-195.26 223.55 -195.26 223.55 -194.12 220.15 C-194.07 218.39 -194.08 216.64 -194.13 214.89 C-194.15 213.87 -194.16 212.85 -194.18 211.8 C-194.22 209.65 -194.28 207.5 -194.34 205.35 C-194.35 204.33 -194.36 203.31 -194.38 202.27 C-194.4 201.33 -194.42 200.4 -194.45 199.44 C-194.34 198.68 -194.23 197.92 -194.12 197.15 C-190.59 194.79 -189.09 194.93 -184.93 195.02 C-183.85 195.04 -182.76 195.06 -181.64 195.07 C-180.81 195.1 -179.98 195.12 -179.12 195.15 C-175.44 178.43 -172.39 161.64 -169.53 144.77 C-169.39 143.92 -169.24 143.08 -169.09 142.2 C-168.82 140.61 -168.55 139.02 -168.29 137.42 C-167.51 132.89 -166.42 128.57 -165.12 124.15 C-164.69 122.16 -164.28 120.16 -163.9 118.16 C-163.69 117.06 -163.48 115.96 -163.27 114.82 C-163.05 113.69 -162.84 112.56 -162.62 111.4 C-162.41 110.28 -162.2 109.16 -161.98 108.01 C-160.66 101.06 -159.38 94.11 -158.12 87.15 C-159.24 87.16 -159.24 87.16 -160.39 87.17 C-161.25 87.19 -162.11 87.2 -163 87.21 C-164.35 87.23 -164.35 87.23 -165.74 87.24 C-168.12 87.15 -168.12 87.15 -170.12 86.15 C-171.63 76.7 -171.23 67.06 -171.18 57.52 C-171.18 55.83 -171.17 54.14 -171.17 52.45 C-171.16 48.35 -171.14 44.25 -171.12 40.15 C-168.8 38.98 -167.46 39.02 -164.87 39.02 C-163.99 39.01 -163.12 39.01 -162.21 39.01 C-160.79 39.01 -160.79 39.01 -159.34 39.01 C-158.36 39.01 -157.39 39.01 -156.39 39.01 C-154.34 39.01 -152.28 39.01 -150.23 39.01 C-147.07 39.02 -143.91 39.01 -140.75 39.01 C-138.76 39.01 -136.77 39.01 -134.77 39.01 C-133.82 39.01 -132.87 39.01 -131.89 39.01 C-131.02 39.01 -130.14 39.01 -129.24 39.02 C-128.47 39.02 -127.69 39.02 -126.9 39.02 C-125.12 39.15 -125.12 39.15 -124.12 40.15 C-123.89 41.99 -123.71 43.85 -123.56 45.71 C-123.47 46.72 -123.39 47.73 -123.3 48.77 C-123.24 49.56 -123.18 50.34 -123.12 51.15 C-121.98 50.82 -120.85 50.49 -119.68 50.15 C-79.97 38.74 -79.97 38.74 -63.12 34.29 C-58.59 33.09 -54.06 31.87 -49.56 30.59 C-48.75 30.36 -47.95 30.13 -47.12 29.89 C-44.93 29.23 -44.93 29.23 -43.12 27.15 C-42.46 27.48 -41.8 27.81 -41.12 28.15 C-40.79 27.49 -40.46 26.83 -40.12 26.15 C-38.24 25.62 -38.24 25.62 -35.77 25.22 C-28.96 23.98 -22.37 22.07 -15.72 20.18 C-14.78 19.92 -13.84 19.66 -12.87 19.39 C-12.03 19.15 -11.19 18.91 -10.32 18.66 C-8.12 18.15 -8.12 18.15 -5.12 18.15 C-5.13 16.93 -5.14 15.71 -5.16 14.46 C-5.17 12.88 -5.17 11.29 -5.18 9.71 C-5.19 8.91 -5.2 8.1 -5.21 7.28 C-5.22 5.23 -5.17 3.19 -5.12 1.15 C-3.58 -0.4 -2.15 0.01 0 0 Z M-6.12 31.15 C-7.05 31.44 -7.98 31.74 -8.94 32.05 C-18.87 35.22 -28.88 38.05 -38.94 40.77 C-51.74 44.23 -64.51 47.75 -77.18 51.65 C-78.21 51.96 -79.24 52.27 -80.29 52.6 C-84.22 53.82 -88.07 55.06 -91.83 56.74 C-95.4 58.27 -98.97 59.22 -102.75 60.08 C-109.98 61.81 -117.04 63.87 -124.12 66.15 C-124.5 69.46 -124.25 70.93 -122.5 73.82 C-110.4 88.89 -110.4 88.89 -93.15 96.07 C-83.28 96.98 -71.8 96.77 -63.85 90.26 C-61.81 88.2 -60.02 86.03 -58.31 83.69 C-56.53 81.38 -54.4 79.59 -52.18 77.71 C-48.02 73.98 -43.91 70.2 -39.81 66.4 C-39.22 65.85 -38.63 65.31 -38.03 64.75 C-35.51 62.41 -33.02 60.05 -30.59 57.61 C-27.77 54.8 -24.87 52.09 -21.93 49.4 C-21.37 48.88 -20.81 48.36 -20.23 47.83 C-15.23 43.23 -10.19 38.67 -5.12 34.15 C-5.62 32.66 -5.62 32.66 -6.12 31.15 Z M-11.12 56.71 C-13.56 59.69 -16.36 61.63 -19.51 63.81 C-20.04 64.25 -20.57 64.69 -21.12 65.15 C-21.12 65.81 -21.12 66.47 -21.12 67.15 C-22.11 67.48 -23.1 67.81 -24.12 68.15 C-24.12 68.81 -24.12 69.47 -24.12 70.15 C-24.71 70.41 -25.31 70.67 -25.92 70.95 C-28.2 72.19 -29.6 73.45 -31.37 75.33 C-34.39 78.44 -37.54 81.3 -40.82 84.13 C-45.14 87.92 -49.39 91.82 -53.55 95.79 C-55.12 97.15 -55.12 97.15 -57.01 98.26 C-59.29 99.73 -60.61 100.88 -62.12 103.15 C-63.1 107.71 -63.25 112.14 -63.2 116.78 C-63.18 118.95 -63.26 121.1 -63.34 123.27 C-63.42 128.78 -63.41 133.39 -60.02 138 C-57.5 140.28 -54.94 142.23 -52.12 144.15 C-51.04 145.02 -49.97 145.91 -48.91 146.82 C-48.05 147.5 -47.19 148.19 -46.31 148.9 C-41.68 152.59 -37.56 156.53 -33.62 160.96 C-29.08 164.8 -22.67 163.45 -17.12 163.15 C-13.3 151.58 -10.29 139.96 -7.62 128.08 C-7.22 126.34 -6.83 124.59 -6.43 122.85 C-4.04 112.34 -1.71 101.82 0.55 91.28 C2.2 83.62 3.89 75.97 5.58 68.33 C5.94 66.67 6.31 65.02 6.67 63.36 C7.18 61.04 7.69 58.73 8.21 56.41 C8.36 55.7 8.52 55 8.67 54.27 C9.77 49.37 9.77 49.37 10.88 47.15 C0.11 46.01 -4.57 48.31 -11.12 56.71 Z M22.88 48.15 C22.72 48.85 22.57 49.55 22.41 50.27 C20.84 57.35 19.27 64.42 17.69 71.49 C16.95 74.83 16.21 78.18 15.47 81.52 C15.05 83.44 14.62 85.35 14.19 87.27 C14 88.14 13.81 89.01 13.62 89.9 C12.74 93.79 11.78 97.55 10.45 101.31 C8.2 107.83 6.93 114.6 5.5 121.33 C4.89 124.18 4.28 127.04 3.66 129.89 C3.51 130.59 3.36 131.3 3.21 132.02 C1.65 139.26 -0.01 146.48 -1.7 153.68 C-1.98 154.91 -1.98 154.91 -2.27 156.16 C-2.52 157.22 -2.52 157.22 -2.77 158.29 C-3.21 160.32 -3.21 160.32 -3.12 163.15 C1.83 163.48 6.78 163.81 11.88 164.15 C12.67 167.32 12.99 169.22 12.9 172.36 C12.88 173.18 12.86 174 12.84 174.85 C12.81 175.73 12.79 176.6 12.76 177.5 C12.72 178.86 12.72 178.86 12.69 180.25 C12.61 183.13 12.53 186.01 12.44 188.9 C12.39 190.85 12.34 192.81 12.28 194.77 C12.15 199.56 12.02 204.35 11.88 209.15 C6.82 209.92 2.78 210.19 -2.3 209.29 C-16.4 207.53 -16.4 207.53 -29.11 212.76 C-37.71 219.73 -45.51 228.28 -52.12 237.15 C-52.12 237.81 -52.12 238.47 -52.12 239.15 C-52.78 239.15 -53.44 239.15 -54.12 239.15 C-56.52 241.78 -56.52 241.78 -57.12 245.15 C-57.96 245.49 -57.96 245.49 -58.81 245.83 C-61.97 247.63 -63.84 249.27 -66.12 252.15 C-66.72 255.28 -66.6 258.29 -66.43 261.46 C-66.41 262.29 -66.39 263.13 -66.36 263.99 C-66.31 266.04 -66.22 268.09 -66.12 270.15 C-69.09 270.15 -72.06 270.15 -75.12 270.15 C-69.37 287.45 -69.37 287.45 -62.12 304.15 C-43.23 305.88 -30.96 304.73 -16.04 292.61 C-13.53 290.69 -11.01 289.41 -8.12 288.15 C-8.12 287.49 -8.12 286.83 -8.12 286.15 C-7.13 286.15 -6.14 286.15 -5.12 286.15 C-5.12 285.49 -5.12 284.83 -5.12 284.15 C-4.46 284.15 -3.8 284.15 -3.12 284.15 C-2.79 274.91 -2.46 265.67 -2.12 256.15 C0.2 256.14 2.53 256.14 4.92 256.14 C7.18 256.11 9.44 256.08 11.7 256.05 C13.27 256.03 14.84 256.02 16.4 256.03 C18.66 256.03 20.91 255.99 23.17 255.95 C24.22 255.96 24.22 255.96 25.28 255.98 C28.09 255.89 30.25 255.7 32.4 253.79 C33.62 252.29 34.76 250.72 35.88 249.15 C36.54 248.82 37.2 248.49 37.88 248.15 C38.21 247.16 38.54 246.17 38.88 245.15 C39.87 244.49 40.86 243.83 41.88 243.15 C41.88 242.16 41.88 241.17 41.88 240.15 C42.87 239.82 43.86 239.49 44.88 239.15 C44.88 238.16 44.88 237.17 44.88 236.15 C45.87 235.82 46.86 235.49 47.88 235.15 C48.83 233.51 49.78 231.86 50.64 230.17 C51.88 228.15 51.88 228.15 53.6 226.53 C59.65 220.63 59.68 214.55 59.83 206.57 C59.85 203.74 59.83 200.91 59.82 198.08 C59.83 196.15 59.85 194.21 59.87 192.28 C59.91 187.57 59.89 182.86 59.88 178.15 C65.82 177.82 71.76 177.49 77.88 177.15 C78.01 174.9 78.14 172.65 78.28 170.34 C78.91 160.06 79.78 149.79 80.65 139.53 C80.86 137.11 81.06 134.68 81.26 132.26 C81.32 131.53 81.38 130.81 81.45 130.06 C81.78 126.05 81.88 122.18 81.88 118.15 C77.59 118.15 73.3 118.15 68.88 118.15 C68.94 117.14 68.99 116.14 69.05 115.11 C69.25 111.34 69.38 107.57 69.48 103.8 C69.54 102.17 69.61 100.55 69.71 98.93 C70.51 88.75 70.51 88.75 66.56 79.73 C63.91 76.9 60.93 74.54 57.88 72.15 C56.19 70.5 54.52 68.84 52.88 67.15 C52.01 66.28 51.13 65.42 50.23 64.53 C48.88 63.2 48.88 63.2 47.5 61.83 C47.02 61.36 46.53 60.89 46.04 60.4 C43.19 57.58 40.78 54.69 38.44 51.46 C36.27 48.87 35.33 48.19 31.91 47.82 C30.83 47.86 29.76 47.9 28.66 47.94 C27.03 47.98 27.03 47.98 25.38 48.03 C24.55 48.07 23.73 48.11 22.88 48.15 Z M-145.12 86.15 C-149.46 108.21 -149.46 108.21 -153.44 130.35 C-155.15 140.37 -156.92 150.38 -158.7 160.39 C-159.06 162.42 -159.42 164.45 -159.78 166.47 C-160.29 169.36 -160.8 172.25 -161.32 175.13 C-161.47 175.99 -161.62 176.85 -161.78 177.74 C-162.81 183.56 -163.94 189.35 -165.12 195.15 C-161.92 195.89 -161.92 195.89 -158.12 195.15 C-155.3 192.54 -153.29 189.46 -151.18 186.27 C-150.59 185.43 -150.01 184.59 -149.4 183.72 C-146.31 179.77 -146.31 179.77 -145.12 175.15 C-143.64 174.65 -143.64 174.65 -142.12 174.15 C-140.56 172.45 -140.56 172.45 -139.08 170.31 C-138.51 169.52 -137.93 168.73 -137.33 167.91 C-136.73 167.06 -136.12 166.21 -135.5 165.33 C-134.24 163.6 -132.99 161.86 -131.73 160.13 C-131.12 159.28 -130.5 158.43 -129.87 157.55 C-126.86 153.41 -123.73 149.36 -120.6 145.3 C-118.93 143.31 -118.93 143.31 -119.12 141.15 C-118.53 140.89 -117.93 140.64 -117.32 140.38 C-113.18 138.06 -111.07 134.38 -109.12 130.15 C-108.14 125.69 -107.98 121.39 -108 116.83 C-107.99 115.64 -107.99 114.44 -107.99 113.21 C-108.23 106.66 -108.84 101.92 -113.33 96.97 C-117.64 92.78 -117.64 92.78 -123.12 91.15 C-123.62 89.66 -123.62 89.66 -124.12 88.15 C-126.41 87 -127.92 86.95 -130.47 86.83 C-131.75 86.77 -131.75 86.77 -133.05 86.7 C-133.94 86.66 -134.83 86.62 -135.75 86.58 C-136.64 86.54 -137.54 86.5 -138.46 86.45 C-140.68 86.35 -142.9 86.24 -145.12 86.15 Z M93.88 118.15 C93.83 118.72 93.78 119.3 93.73 119.89 C93.23 125.95 92.73 132 92.23 138.05 C92.04 140.3 91.85 142.55 91.66 144.81 C91.39 148.06 91.12 151.32 90.85 154.57 C90.77 155.56 90.69 156.56 90.6 157.58 C90.06 164.11 89.48 170.63 88.88 177.15 C94.16 177.15 99.44 177.15 104.88 177.15 C104.88 178.8 104.88 180.45 104.88 182.15 C113.36 177.33 121.8 172.45 130.19 167.47 C130.87 167.07 131.56 166.66 132.26 166.25 C132.86 165.89 133.47 165.53 134.09 165.16 C135.99 164.08 137.92 163.11 139.88 162.15 C141.22 151.74 141.22 151.74 137.93 142.22 C135.36 139.94 132.76 138.02 129.88 136.15 C128.44 135.07 127 133.99 125.57 132.9 C124.92 132.42 124.28 131.95 123.61 131.47 C120.51 129.1 117.82 126.27 115.32 123.28 C112.08 119.81 110.01 118.24 105.15 117.83 C103.79 117.85 102.44 117.89 101.09 117.95 C100.4 117.96 99.7 117.97 98.99 117.99 C97.28 118.03 95.58 118.08 93.88 118.15 Z M-104.71 143.64 C-105.52 144.75 -106.3 145.88 -107.06 147.02 C-107.92 148.23 -108.78 149.43 -109.64 150.63 C-110.06 151.23 -110.48 151.83 -110.91 152.45 C-112.57 154.78 -114.37 156.99 -116.18 159.21 C-122.74 167.36 -128.98 175.77 -134.99 184.34 C-137.12 187.15 -137.12 187.15 -139.84 189.99 C-146.27 196.85 -147.94 201.96 -147.75 211.46 C-147.62 214.7 -147.42 217.92 -147.12 221.15 C-143.64 222.28 -140.16 223.4 -136.68 224.52 C-135.22 225 -135.22 225 -133.73 225.48 C-128.55 227.15 -123.43 228.63 -118.07 229.64 C-116.12 230.15 -116.12 230.15 -112.12 232.15 C-112.12 229.18 -112.12 226.21 -112.12 223.15 C-106.84 223.15 -101.56 223.15 -96.12 223.15 C-95.79 196.09 -95.46 169.03 -95.12 141.15 C-101.88 140.34 -101.88 140.34 -104.71 143.64 Z M-82.12 141.15 C-82.12 168.21 -82.12 195.27 -82.12 223.15 C-76.84 223.15 -71.56 223.15 -66.12 223.15 C-66.12 226.12 -66.12 229.09 -66.12 232.15 C-62.88 232.49 -62.88 232.49 -60.55 229.65 C-59.55 228.53 -58.55 227.4 -57.56 226.27 C-56.48 225.07 -55.41 223.88 -54.33 222.68 C-53.79 222.09 -53.26 221.49 -52.7 220.87 C-48.99 216.82 -45.04 213 -41.12 209.15 C-39.45 207.48 -37.79 205.81 -36.12 204.15 C-35.46 203.49 -34.8 202.83 -34.12 202.15 C-33.69 199.46 -33.37 196.85 -33.12 194.15 C-33.04 193.42 -32.95 192.7 -32.87 191.95 C-31.69 182.06 -31.69 182.06 -35.29 173.22 C-38.13 170.95 -41.03 169.05 -44.12 167.15 C-45.67 165.82 -47.19 164.47 -48.68 163.08 C-51.03 160.69 -51.03 160.69 -54.12 160.15 C-54.52 159.25 -54.52 159.25 -54.93 158.33 C-56.16 156.08 -57.29 154.87 -59.24 153.24 C-59.85 152.72 -60.45 152.21 -61.08 151.67 C-61.71 151.15 -62.34 150.62 -63 150.08 C-63.93 149.29 -63.93 149.29 -64.89 148.48 C-66.1 147.46 -67.32 146.45 -68.54 145.45 C-69.76 144.44 -70.93 143.37 -72.07 142.27 C-74.9 140.5 -74.9 140.5 -82.12 141.15 Z M-4.12 299.15 C-4.93 299.67 -5.75 300.19 -6.59 300.73 C-7.13 301.07 -7.68 301.42 -8.24 301.78 C-9.47 302.58 -10.7 303.4 -11.92 304.22 C-15.46 306.59 -18.83 308.5 -22.8 310.07 C-27.85 312.28 -32.18 314.3 -35.12 319.15 C-37.54 329.55 -36.8 340.56 -36.12 351.15 C-37.11 351.64 -37.11 351.64 -38.12 352.15 C-36.47 355.45 -34.82 358.75 -33.12 362.15 C-32.46 362.15 -31.8 362.15 -31.12 362.15 C-31.04 362.83 -30.95 363.52 -30.87 364.23 C-29.94 367.85 -28.18 370.67 -26.18 373.77 C-25.64 374.63 -25.64 374.63 -25.09 375.5 C-23.47 378.08 -21.81 380.62 -20.12 383.15 C-16.66 382.65 -16.66 382.65 -13.12 382.15 C-10.21 373.99 -8.16 365.65 -6.11 357.24 C-5.73 355.71 -5.36 354.18 -4.98 352.65 C-4.19 349.47 -3.41 346.28 -2.63 343.1 C-1.63 339.01 -0.62 334.92 0.39 330.83 C1.16 327.68 1.94 324.53 2.71 321.39 C3.08 319.88 3.45 318.37 3.82 316.86 C4.34 314.76 4.85 312.66 5.37 310.56 C5.66 309.37 5.95 308.18 6.25 306.94 C6.95 304.3 6.95 304.3 6.88 302.15 C6.25 302.1 5.63 302.05 4.98 302 C4.16 301.92 3.35 301.85 2.5 301.77 C1.29 301.67 1.29 301.67 0.04 301.56 C-2.12 301.15 -2.12 301.15 -4.12 299.15 Z M20.88 302.15 C18.38 309.22 16.56 316.33 14.88 323.65 C12.12 335.65 12.12 335.65 10.49 340.31 C8.18 346.96 6.51 353.8 4.75 360.61 C4.12 363.04 3.48 365.46 2.84 367.88 C2.44 369.42 2.04 370.97 1.64 372.51 C1.45 373.23 1.26 373.96 1.06 374.7 C-0.01 378.92 -0.01 378.92 0.88 383.15 C4.18 383.15 7.48 383.15 10.88 383.15 C10.88 383.81 10.88 384.47 10.88 385.15 C14.27 383.87 17.3 382.4 20.39 380.5 C21.65 379.73 21.65 379.73 22.94 378.95 C24.67 377.88 26.4 376.82 28.14 375.75 C33.91 372.23 39.78 369.07 45.88 366.15 C45.88 365.49 45.88 364.83 45.88 364.15 C48.35 363.65 48.35 363.65 50.88 363.15 C50.88 362.49 50.88 361.83 50.88 361.15 C51.5 361 52.12 360.86 52.75 360.71 C54.91 360.21 54.91 360.21 56.88 359.15 C57.16 355.42 57.4 351.69 57.63 347.96 C57.71 346.9 57.79 345.85 57.88 344.76 C58.29 338.56 58.29 338.56 56.02 332.91 C54.08 330.93 54.08 330.93 51.88 331.15 C51.77 330.56 51.66 329.97 51.54 329.37 C50.81 326.93 49.89 325.58 48.3 323.61 C47.78 322.97 47.26 322.32 46.72 321.66 C46.18 320.99 45.63 320.33 45.07 319.65 C44.53 318.98 44 318.32 43.45 317.63 C40.73 314.29 37.94 311.18 34.88 308.15 C34.22 307.16 33.56 306.17 32.88 305.15 C32.22 305.15 31.56 305.15 30.88 305.15 C30.88 304.16 30.88 303.17 30.88 302.15 C27.58 302.15 24.28 302.15 20.88 302.15 Z " fill="#FDFDFD" transform="translate(914.120849609375,447.854736328125)"/>
<path d="M0 0 C0.58 17.58 0.18 29.91 -10.39 44.6 C-12.19 46.8 -12.19 46.8 -12 49 C-10.05 50.32 -10.05 50.32 -7.56 51.62 C6.82 60.1 17.06 73.99 21.89 89.95 C28.14 114.48 22.55 136.17 10.4 157.68 C8.69 160.51 6.83 163.25 5 166 C32.06 165.67 59.12 165.34 87 165 C84.69 161.37 82.38 157.74 80 154 C69.23 134.12 64.51 111.56 71.04 89.49 C72.23 86.25 73.54 83.13 75 80 C75.44 79.04 75.89 78.09 76.34 77.1 C84.48 60.97 97.71 51.61 114 45 C118.35 43.59 122.39 42.71 126.94 42.38 C127.9 42.3 128.85 42.23 129.84 42.15 C130.55 42.1 131.27 42.05 132 42 C126.89 32.87 120.57 26.12 113 19 C114.44 15.76 116.26 13.38 118.62 10.75 C119.26 10.04 119.89 9.34 120.54 8.61 C121.02 8.08 121.5 7.55 122 7 C130.23 10.63 135.79 18.97 141 26 C141.74 24.93 141.74 24.93 142.5 23.84 C149.32 14.24 154.98 7.55 166 3 C166.74 2.69 167.47 2.38 168.23 2.06 C176.41 -0.87 185.39 -0.96 194 -1 C196.71 1.71 196.14 8.48 196.25 12.12 C196.06 26.13 190.68 37.57 183 49 C183.99 48.99 184.99 48.99 186.01 48.98 C189.69 48.97 193.37 48.95 197.04 48.95 C198.64 48.94 200.23 48.93 201.83 48.92 C204.11 48.91 206.4 48.91 208.68 48.9 C209.4 48.9 210.12 48.89 210.86 48.89 C212.57 48.89 214.29 48.94 216 49 C217.55 50.55 217.15 52.01 217.19 54.17 C217.21 55.05 217.22 55.93 217.24 56.85 C217.26 58.29 217.26 58.29 217.28 59.77 C217.3 60.75 217.32 61.74 217.34 62.75 C217.4 65.92 217.45 69.08 217.5 72.25 C217.57 76.4 217.64 80.55 217.72 84.7 C217.74 86.14 217.74 86.14 217.76 87.6 C217.78 88.5 217.79 89.39 217.81 90.32 C217.83 91.5 217.83 91.5 217.85 92.7 C218.01 95.2 218.48 97.55 219 100 C219.21 103.37 219.19 106.75 219.19 110.12 C219.19 111.09 219.19 112.05 219.19 113.04 C219.12 122.44 218.21 131.68 217 141 C216.01 141.33 215.02 141.66 214 142 C212.59 144.51 211.33 146.96 210.12 149.56 C207.42 155.3 204.47 160.69 201 166 C202.23 165.98 203.46 165.95 204.73 165.93 C223.81 165.67 238.14 168.06 253 181 C253.61 181.5 254.23 182 254.86 182.51 C264.1 190.66 269.26 204.55 270.31 216.56 C270.6 225.39 269.25 232.8 266 241 C265.65 241.88 265.3 242.77 264.94 243.68 C258.86 257.22 247.6 265.31 234.36 271.18 C226.04 274.08 218.39 274.29 209.62 274.27 C208.16 274.28 206.69 274.28 205.23 274.29 C201.22 274.3 197.21 274.31 193.19 274.31 C188.86 274.31 184.53 274.32 180.2 274.33 C170.73 274.35 161.26 274.36 151.8 274.37 C145.88 274.37 139.96 274.38 134.05 274.38 C117.66 274.4 101.26 274.42 84.87 274.42 C83.3 274.42 83.3 274.42 81.69 274.42 C79.57 274.42 77.44 274.42 75.32 274.42 C74.26 274.43 73.21 274.43 72.12 274.43 C70.54 274.43 70.54 274.43 68.92 274.43 C51.81 274.43 34.71 274.46 17.6 274.49 C0.02 274.53 -17.56 274.55 -35.14 274.55 C-45 274.55 -54.87 274.56 -64.73 274.59 C-73.13 274.61 -81.53 274.62 -89.93 274.61 C-94.21 274.6 -98.49 274.6 -102.77 274.62 C-106.7 274.64 -110.63 274.64 -114.56 274.62 C-115.97 274.62 -117.38 274.62 -118.8 274.64 C-135.9 274.8 -149.99 269.16 -163 258 C-175.32 243.81 -178.09 229.14 -177 211 C-176.42 207.1 -175.46 203.65 -174 200 C-173.67 199.16 -173.34 198.33 -173 197.47 C-167.99 186.23 -158.95 177.07 -147.44 172.62 C-146.63 172.42 -145.83 172.21 -145 172 C-145 171.34 -145 170.68 -145 170 C-143.67 169.51 -142.34 169.03 -141 168.56 C-140.26 168.3 -139.51 168.03 -138.75 167.75 C-132 165.9 -124.95 165.76 -118 165.44 C-117.13 165.39 -116.26 165.35 -115.36 165.31 C-113.24 165.2 -111.12 165.1 -109 165 C-109.58 164.16 -110.16 163.33 -110.76 162.46 C-124.13 142.73 -130.21 120.26 -126.34 96.44 C-122.97 79.1 -114.43 64.88 -100.31 54.19 C-91.29 48.28 -80.14 42.81 -69.25 42.94 C-68.27 42.95 -67.28 42.96 -66.27 42.96 C-65.14 42.98 -65.14 42.98 -64 43 C-67.63 34.64 -73.09 27.54 -79.85 21.42 C-82 19 -82 19 -82.02 16.95 C-80.79 14.6 -79.38 12.75 -77.62 10.75 C-77.02 10.04 -76.41 9.34 -75.79 8.61 C-74 7 -74 7 -71 7 C-69.49 8.36 -69.49 8.36 -67.88 10.31 C-67.27 11.03 -66.67 11.75 -66.05 12.49 C-65.04 13.73 -65.04 13.73 -64 15 C-62.78 16.48 -62.78 16.48 -61.54 17.98 C-59.35 20.65 -57.17 23.32 -55 26 C-53.53 24.05 -52.07 22.11 -50.68 20.11 C-43.02 9.33 -33.24 2.6 -20.01 0.18 C-4.13 -2.06 -4.13 -2.06 0 0 Z M-34.98 23.95 C-40.13 29.19 -42.53 35.76 -43 43 C-34.33 43.82 -34.33 43.82 -26.56 40.5 C-20.88 35.48 -17.49 29.44 -16 22 C-15.93 19.67 -15.9 17.33 -16 15 C-23.07 15 -29.66 19.61 -34.98 23.95 Z M160.76 24.02 C155.67 29.76 153.42 35.39 153 43 C158.43 43.76 163.06 44.16 167.88 41.28 C174.04 35.92 177.43 30.72 180 23 C180.07 21.61 180.09 20.21 180.06 18.81 C180.04 17.55 180.02 16.3 180 15 C172.63 15 165.98 19.07 160.76 24.02 Z M-97.93 71.96 C-107.31 83.17 -112.41 96.23 -112.31 110.75 C-112.31 111.63 -112.3 112.51 -112.3 113.42 C-112.07 125.4 -108.68 134.53 -103 145 C-102.63 145.77 -102.27 146.54 -101.89 147.33 C-98.43 154.31 -93.52 161.55 -87 166 C-81.53 167.65 -76.32 167.6 -70.68 167.45 C-69.12 167.45 -67.56 167.45 -66 167.46 C-62.76 167.46 -59.52 167.42 -56.28 167.34 C-52.13 167.25 -48 167.25 -43.86 167.28 C-40.65 167.29 -37.44 167.27 -34.24 167.23 C-32.71 167.21 -31.18 167.21 -29.66 167.21 C-19.54 167.3 -19.54 167.3 -11.17 162.14 C-9.44 160.09 -9.44 160.09 -8 158 C-7.55 157.42 -7.11 156.85 -6.65 156.25 C5.1 140.47 11.13 120.58 8.35 100.98 C6.54 90.82 2.65 81.93 -4 74 C-4.5 73.37 -5 72.73 -5.51 72.08 C-11.34 65.43 -22.15 59.48 -31.11 58.85 C-32.24 58.84 -32.24 58.84 -33.39 58.82 C-34.26 58.81 -35.12 58.8 -36.01 58.78 C-36.93 58.78 -37.86 58.77 -38.81 58.76 C-40.26 58.75 -40.26 58.75 -41.74 58.74 C-43.78 58.72 -45.82 58.71 -47.87 58.7 C-49.94 58.69 -52.02 58.67 -54.09 58.64 C-71.08 58.4 -85.28 59.1 -97.93 71.96 Z M101.4 68.54 C99.65 70.02 99.65 70.02 100 73 C99.1 73.39 99.1 73.39 98.18 73.79 C90.47 78.06 87.46 88.11 85 96 C80.95 114.46 85.42 132.58 94 149 C94.66 149 95.32 149 96 149 C96.24 149.72 96.48 150.44 96.73 151.18 C98.19 154.41 99.98 156.52 102.38 159.12 C103.15 159.97 103.92 160.82 104.71 161.7 C109.02 166.03 111.26 167.37 117.51 167.42 C118.15 167.43 118.8 167.44 119.46 167.45 C121.59 167.47 123.71 167.47 125.84 167.47 C127.32 167.48 128.8 167.48 130.28 167.49 C133.39 167.51 136.49 167.51 139.6 167.5 C143.57 167.5 147.54 167.53 151.51 167.57 C154.57 167.59 157.63 167.59 160.69 167.59 C162.15 167.59 163.62 167.6 165.08 167.62 C173.96 168.08 173.96 168.08 181.8 164.64 C182.52 163.77 183.25 162.9 184 162 C184.79 161.08 185.57 160.15 186.38 159.2 C187.1 158.23 187.82 157.25 188.56 156.25 C189.29 155.29 190.01 154.32 190.75 153.33 C193.42 149.38 195.69 145.17 198 141 C176.88 141 155.76 141 134 141 C134 113.61 134 86.22 134 58 C121.83 58 111.08 61.32 101.4 68.54 Z M150 65 C150 85.13 150 105.26 150 126 C167.16 126 184.32 126 202 126 C202.08 120.58 202.17 115.15 202.25 109.56 C202.3 107.02 202.3 107.02 202.36 104.43 C202.46 96.6 202.36 89.8 198 83 C197.39 82 196.77 80.99 196.14 79.96 C189.37 70.16 189.37 70.16 179.45 64.33 C174.59 63.87 169.76 63.86 164.88 63.88 C163.89 63.87 162.9 63.87 161.88 63.86 C160.93 63.86 159.97 63.87 158.99 63.87 C158.13 63.87 157.27 63.87 156.38 63.87 C153.7 63.94 153.7 63.94 150 65 Z M-153.31 195.38 C-160.29 203.69 -163.51 212.57 -162.88 223.5 C-161.49 234.54 -156.37 243.72 -147.76 250.86 C-136.22 258.93 -124.8 259.15 -111.09 259.13 C-109.68 259.14 -108.26 259.14 -106.85 259.14 C-102.98 259.15 -99.11 259.15 -95.23 259.15 C-91.05 259.15 -86.87 259.15 -82.69 259.16 C-74.51 259.16 -66.32 259.17 -58.14 259.17 C-51.48 259.17 -44.83 259.17 -38.17 259.17 C-19.29 259.18 -0.42 259.19 18.46 259.19 C19.48 259.19 20.5 259.19 21.54 259.19 C23.07 259.19 23.07 259.19 24.63 259.19 C41.13 259.18 57.64 259.19 74.14 259.21 C91.1 259.22 108.06 259.23 125.01 259.23 C134.53 259.23 144.04 259.23 153.56 259.24 C161.66 259.25 169.76 259.25 177.86 259.25 C181.99 259.24 186.13 259.24 190.26 259.25 C194.04 259.26 197.83 259.26 201.62 259.25 C203.62 259.25 205.63 259.25 207.64 259.26 C221.87 259.21 233.68 257.24 244.38 247.19 C251.94 239.03 255.58 229.58 255.25 218.45 C254.05 206.53 249.62 197.23 240.34 189.57 C229.21 182.1 218.03 181.85 205.11 181.86 C203.69 181.86 202.26 181.85 200.84 181.85 C196.93 181.84 193.03 181.84 189.13 181.84 C184.91 181.84 180.7 181.83 176.48 181.82 C167.27 181.81 158.06 181.8 148.85 181.8 C143.1 181.8 137.34 181.79 131.59 181.79 C115.64 181.78 99.7 181.77 83.76 181.76 C82.74 181.76 81.72 181.76 80.67 181.76 C79.65 181.76 78.63 181.76 77.57 181.76 C75.5 181.76 73.43 181.76 71.36 181.76 C70.33 181.76 69.3 181.76 68.25 181.76 C51.6 181.76 34.96 181.74 18.32 181.71 C1.22 181.69 -15.88 181.68 -32.98 181.68 C-42.57 181.68 -52.17 181.67 -61.76 181.65 C-69.93 181.64 -78.1 181.63 -86.28 181.64 C-90.44 181.64 -94.61 181.64 -98.77 181.63 C-102.59 181.62 -106.41 181.62 -110.24 181.63 C-112.26 181.63 -114.28 181.62 -116.3 181.61 C-131.26 181.69 -142.9 184.27 -153.31 195.38 Z " fill="#FEFEFE" transform="translate(224,610)"/>
<path d="M0 0 C7.26 0 14.52 0 22 0 C33.55 11.55 23 32.66 23 49 C79.43 49 135.86 49 194 49 C194 67.48 194 85.96 194 105 C213.8 105.5 213.8 105.5 234 106 C234 135.04 234 164.08 234 194 C220.8 194 207.6 194 194 194 C194 220.73 194 247.46 194 275 C73.88 275 -46.24 275 -170 275 C-170 248.27 -170 221.54 -170 194 C-183.86 194 -197.72 194 -212 194 C-212 164.96 -212 135.92 -212 106 C-198.14 106 -184.28 106 -170 106 C-170 87.19 -170 68.38 -170 49 C-113.9 49 -57.8 49 0 49 C0 32.83 0 16.66 0 0 Z M-148 71 C-148 131.06 -148 191.12 -148 253 C-42.73 253 62.54 253 171 253 C171 192.94 171 132.88 171 71 C65.73 71 -39.54 71 -148 71 Z M-191 128 C-191 142.52 -191 157.04 -191 172 C-184.73 171.67 -178.46 171.34 -172 171 C-171.67 156.81 -171.34 142.62 -171 128 C-177.6 128 -184.2 128 -191 128 Z M193 128 C193.33 142.19 193.66 156.38 194 171 C199.94 171 205.88 171 212 171 C212.33 156.81 212.66 142.62 213 128 C206.4 128 199.8 128 193 128 Z " fill="#FBFBFB" transform="translate(533,36)"/>
<path d="M0 0 C0.77 -0.01 1.54 -0.01 2.33 -0.02 C4.86 -0.04 7.39 -0.04 9.92 -0.05 C11.69 -0.05 13.46 -0.06 15.22 -0.07 C18.93 -0.08 22.63 -0.08 26.33 -0.08 C31.06 -0.08 35.79 -0.11 40.53 -0.14 C44.18 -0.16 47.83 -0.17 51.48 -0.17 C53.22 -0.17 54.96 -0.18 56.71 -0.19 C59.15 -0.21 61.6 -0.21 64.04 -0.2 C65.11 -0.21 65.11 -0.21 66.2 -0.23 C72.46 -0.15 77.5 2 82.24 6 C82.69 6.55 83.13 7.1 83.59 7.67 C84.28 8.48 84.28 8.48 84.99 9.31 C87.95 14.08 88.46 18.7 88.41 24.22 C88.4 25.51 88.4 26.8 88.39 28.13 C88.37 29.47 88.36 30.82 88.34 32.17 C88.33 33.54 88.32 34.91 88.31 36.27 C88.29 39.61 88.26 42.95 88.22 46.29 C89.8 46.62 89.8 46.62 91.41 46.95 C108.46 50.65 126.21 55.99 138.22 69.29 C139.02 70.08 139.82 70.86 140.64 71.67 C170.93 102.47 172.3 152.19 177.24 192.57 C177.82 197.32 178.47 202.05 179.25 206.77 C180.65 215.47 181.29 224.25 182.1 233.01 C183.83 251.48 185.95 269.83 188.78 288.17 C188.92 289.09 189.06 290.02 189.21 290.98 C193.02 316.45 193.02 316.45 199.84 341.23 C200.18 342.22 200.52 343.21 200.87 344.24 C212.19 376.47 231.37 402.31 258.22 423.29 C259.35 424.18 260.49 425.08 261.63 425.97 C262.82 426.91 264.02 427.85 265.22 428.79 C266.99 430.18 268.76 431.58 270.53 432.97 C272.11 434.21 273.69 435.44 275.27 436.67 C288.85 447.47 298.51 460.74 301.22 478.29 C301.3 480.96 301.26 483.61 301.22 486.29 C301.78 486.27 302.34 486.26 302.92 486.24 C305.52 486.18 308.12 486.14 310.72 486.1 C312.05 486.07 312.05 486.07 313.4 486.03 C320.64 485.95 326.37 486.82 332.03 491.73 C336.93 497.47 338.33 500.73 338.39 508.4 C338.4 509.13 338.41 509.85 338.41 510.59 C338.43 512.97 338.44 515.36 338.45 517.74 C338.46 518.56 338.46 519.38 338.47 520.22 C338.49 524.54 338.5 528.86 338.51 533.18 C338.52 537.63 338.56 542.08 338.6 546.53 C338.62 549.97 338.63 553.4 338.63 556.83 C338.64 558.47 338.65 560.11 338.67 561.75 C338.69 564.05 338.69 566.36 338.69 568.66 C338.69 570.62 338.69 570.62 338.7 572.62 C337.99 577.99 335.64 582.68 331.28 586.1 C325.79 590.02 321.34 590.58 314.7 590.56 C313.84 590.56 312.98 590.57 312.1 590.57 C309.23 590.58 306.37 590.58 303.5 590.58 C301.44 590.59 299.38 590.59 297.33 590.6 C291.74 590.62 286.15 590.62 280.57 590.63 C275.9 590.63 271.24 590.63 266.57 590.64 C255.57 590.66 244.56 590.66 233.56 590.66 C222.21 590.66 210.85 590.68 199.5 590.71 C189.76 590.74 180.01 590.75 170.26 590.75 C164.44 590.75 158.62 590.75 152.8 590.77 C147.32 590.79 141.85 590.79 136.37 590.78 C134.37 590.78 132.36 590.78 130.35 590.79 C127.61 590.81 124.86 590.8 122.12 590.79 C121.33 590.8 120.54 590.81 119.72 590.82 C113.27 590.74 108.1 588.78 103.19 584.54 C102.75 583.99 102.3 583.43 101.84 582.85 C101.38 582.3 100.92 581.74 100.44 581.17 C97.47 576.62 96.96 572.7 96.94 567.32 C96.94 566.63 96.93 565.95 96.93 565.25 C96.91 563.01 96.91 560.76 96.91 558.52 C96.91 556.95 96.91 555.38 96.9 553.81 C96.89 550.53 96.89 547.25 96.9 543.96 C96.91 539.77 96.89 535.57 96.87 531.38 C96.85 528.14 96.85 524.9 96.85 521.66 C96.85 520.12 96.85 518.57 96.84 517.03 C96.82 514.86 96.83 512.69 96.84 510.52 C96.84 509.29 96.84 508.06 96.84 506.79 C97.53 500.37 100.29 494.6 105.22 490.29 C112.99 484.97 122.04 485.75 131.03 485.84 C132.72 485.84 134.42 485.84 136.11 485.83 C140.7 485.83 145.28 485.86 149.86 485.88 C154.66 485.91 159.45 485.91 164.25 485.92 C173.32 485.93 182.4 485.96 191.47 486 C201.8 486.05 212.14 486.07 222.47 486.09 C243.72 486.13 264.97 486.2 286.22 486.29 C285.6 483.73 284.97 481.18 284.35 478.63 C284.18 477.91 284 477.19 283.82 476.45 C280.06 461.16 270.59 452.46 258.22 443.29 C251.05 437.9 244.09 432.46 237.49 426.38 C235.39 424.45 233.25 422.58 231.09 420.73 C213.72 405.48 199.99 385.67 191.22 364.29 C190.93 363.61 190.65 362.94 190.36 362.24 C184.75 348.64 181.31 334.55 177.97 320.24 C177.25 317.26 177.25 317.26 176.19 314.33 C175.16 311.11 174.58 308.02 174.07 304.68 C173.87 303.39 173.67 302.1 173.47 300.76 C173.26 299.36 173.05 297.95 172.84 296.54 C172.73 295.81 172.62 295.09 172.51 294.34 C168.72 268.84 166.09 243.22 163.46 217.58 C161.98 203.2 160.38 188.83 158.59 174.48 C158.49 173.68 158.39 172.89 158.29 172.07 C157.21 163.39 156.02 154.74 154.69 146.09 C154.58 145.31 154.46 144.54 154.34 143.74 C153.61 139.13 152.58 134.76 151.22 130.29 C150.94 129.32 150.66 128.35 150.38 127.35 C141.85 97.1 141.85 97.1 120.4 74.98 C118.69 74.05 116.96 73.16 115.22 72.29 C114.22 71.78 113.22 71.27 112.19 70.74 C104.4 66.93 96.57 64.58 88.22 62.29 C88.25 63.72 88.25 63.72 88.28 65.18 C88.35 68.75 88.4 72.32 88.44 75.9 C88.46 77.43 88.48 78.97 88.52 80.51 C88.92 98.82 88.92 98.82 82.39 106.41 C77.42 109.92 73.24 111.35 67.22 112.29 C67.22 116.58 67.22 120.87 67.22 125.29 C57.98 125.31 48.74 125.33 39.5 125.34 C35.21 125.35 30.92 125.35 26.63 125.37 C22.49 125.38 18.35 125.38 14.22 125.39 C12.63 125.39 11.05 125.39 9.47 125.4 C7.26 125.4 5.05 125.4 2.85 125.4 C0.96 125.41 0.96 125.41 -0.97 125.41 C-3.78 125.29 -3.78 125.29 -4.78 124.29 C-5.02 122.27 -5.2 120.25 -5.35 118.23 C-5.43 117.12 -5.51 116.02 -5.6 114.88 C-5.66 114.03 -5.72 113.17 -5.78 112.29 C-6.96 111.94 -8.14 111.59 -9.35 111.23 C-14.22 109.38 -17.79 106.57 -20.78 102.29 C-23.12 96.88 -24.23 92.38 -24.19 86.46 C-24.2 85.72 -24.2 84.98 -24.21 84.22 C-24.23 81.81 -24.22 79.4 -24.22 76.98 C-24.22 75.29 -24.23 73.6 -24.23 71.9 C-24.24 68.36 -24.24 64.82 -24.23 61.28 C-24.22 56.77 -24.24 52.25 -24.27 47.73 C-24.29 44.24 -24.29 40.75 -24.28 37.25 C-24.28 35.59 -24.29 33.92 -24.3 32.26 C-24.42 13.22 -24.42 13.22 -18.03 6.43 C-12.55 1.3 -7.44 -0.01 0 0 Z M-6.71 17.37 C-8.39 20.36 -8.15 22.98 -8.14 26.39 C-8.14 27.11 -8.14 27.83 -8.15 28.57 C-8.15 30.95 -8.13 33.32 -8.11 35.7 C-8.11 37.35 -8.11 39 -8.11 40.65 C-8.1 44.11 -8.09 47.57 -8.07 51.02 C-8.04 55.46 -8.03 59.9 -8.02 64.34 C-8.02 67.74 -8.01 71.15 -8 74.56 C-7.99 76.19 -7.99 77.83 -7.98 79.47 C-7.97 81.75 -7.96 84.03 -7.95 86.32 C-7.94 87.62 -7.93 88.92 -7.92 90.26 C-7.99 93.21 -7.99 93.21 -6.78 95.29 C-3.25 96.62 0.39 96.44 4.12 96.47 C4.81 96.47 5.5 96.48 6.2 96.49 C8.47 96.51 10.73 96.52 13 96.53 C14.16 96.53 14.16 96.53 15.34 96.54 C19.44 96.56 23.54 96.58 27.63 96.59 C31.86 96.6 36.09 96.63 40.32 96.67 C43.58 96.7 46.83 96.71 50.09 96.71 C51.65 96.71 53.21 96.73 54.77 96.74 C56.95 96.77 59.13 96.77 61.31 96.76 C62.55 96.77 63.79 96.77 65.07 96.78 C68.25 96.51 68.25 96.51 70.62 94.71 C72.8 91.41 72.72 89.13 72.72 85.18 C72.72 84.48 72.73 83.77 72.73 83.04 C72.75 80.7 72.73 78.37 72.71 76.04 C72.71 74.41 72.71 72.79 72.72 71.17 C72.72 67.76 72.7 64.36 72.68 60.96 C72.65 56.6 72.66 52.24 72.67 47.88 C72.68 44.53 72.67 41.18 72.66 37.83 C72.65 36.22 72.65 34.61 72.66 33 C72.66 30.76 72.64 28.51 72.62 26.27 C72.61 24.35 72.61 24.35 72.6 22.4 C72.43 19.38 72.43 19.38 71.13 17.38 C68.15 15.69 65.54 15.91 62.13 15.9 C61.41 15.9 60.69 15.89 59.96 15.89 C57.58 15.87 55.21 15.88 52.84 15.89 C51.19 15.89 49.55 15.89 47.9 15.88 C44.44 15.88 40.99 15.89 37.54 15.9 C33.11 15.92 28.68 15.91 24.25 15.89 C20.85 15.88 17.45 15.88 14.04 15.89 C12.41 15.89 10.78 15.89 9.15 15.88 C6.86 15.87 4.58 15.89 2.3 15.9 C1 15.9 -0.3 15.91 -1.63 15.91 C-4.69 16.08 -4.69 16.08 -6.71 17.37 Z M114.22 504.29 C113.12 507.56 113.08 510 113.05 513.44 C113.04 514.71 113.04 515.98 113.03 517.29 C113.02 518.67 113.02 520.06 113.01 521.44 C113.01 522.86 113 524.28 113 525.71 C112.98 528.68 112.98 531.66 112.98 534.64 C112.97 538.46 112.95 542.27 112.92 546.08 C112.9 549.02 112.89 551.95 112.89 554.89 C112.89 556.29 112.88 557.7 112.87 559.11 C112.85 561.07 112.85 563.04 112.86 565.01 C112.86 566.13 112.85 567.25 112.85 568.4 C113.28 571.82 113.7 572.94 116.22 575.29 C119.04 575.69 121.48 575.83 124.3 575.8 C125.13 575.8 125.97 575.81 126.83 575.82 C129.63 575.83 132.43 575.82 135.24 575.81 C137.24 575.81 139.25 575.82 141.25 575.83 C146.71 575.85 152.16 575.84 157.61 575.83 C163.31 575.82 169.01 575.83 174.71 575.83 C184.29 575.84 193.86 575.83 203.44 575.81 C214.51 575.79 225.59 575.8 236.67 575.82 C246.17 575.84 255.67 575.84 265.17 575.83 C270.85 575.82 276.53 575.82 282.21 575.84 C287.55 575.85 292.89 575.84 298.23 575.82 C300.19 575.81 302.15 575.81 304.11 575.82 C306.79 575.83 309.46 575.82 312.13 575.8 C313.3 575.81 313.3 575.81 314.5 575.83 C318.77 575.77 318.77 575.77 322.2 573.44 C323.58 570.53 323.59 568.24 323.59 565.02 C323.59 563.76 323.6 562.49 323.61 561.18 C323.6 559.8 323.59 558.42 323.58 557.04 C323.58 555.62 323.58 554.2 323.58 552.78 C323.58 549.81 323.57 546.84 323.55 543.86 C323.53 540.06 323.53 536.25 323.54 532.45 C323.54 529.51 323.53 526.58 323.52 523.65 C323.52 522.25 323.52 520.85 323.52 519.44 C323.52 517.48 323.5 515.52 323.49 513.56 C323.49 512.44 323.48 511.32 323.48 510.17 C323.22 507.31 322.86 505.64 321.22 503.29 C317.53 502.06 314.13 502.15 310.29 502.16 C309.47 502.15 308.66 502.15 307.81 502.15 C305.07 502.14 302.32 502.14 299.58 502.15 C297.61 502.14 295.65 502.14 293.69 502.14 C288.34 502.13 283 502.12 277.66 502.12 C273.2 502.12 268.75 502.12 264.29 502.12 C253.78 502.11 243.27 502.1 232.76 502.11 C221.91 502.11 211.06 502.1 200.2 502.08 C190.89 502.07 181.59 502.06 172.28 502.06 C166.71 502.06 161.15 502.06 155.59 502.05 C150.36 502.04 145.12 502.04 139.89 502.05 C137.97 502.05 136.05 502.04 134.13 502.04 C131.51 502.03 128.89 502.04 126.27 502.04 C125.5 502.04 124.74 502.03 123.95 502.03 C118.75 502.04 118.75 502.04 114.22 504.29 Z " fill="#FDFDFD" transform="translate(342.784423828125,409.70947265625)"/>
<path d="M0 0 C1.24 -0.01 2.49 -0.01 3.77 -0.02 C5.14 -0.02 6.51 -0.01 7.88 -0.01 C9.35 -0.01 10.81 -0.02 12.28 -0.02 C16.29 -0.04 20.31 -0.04 24.33 -0.03 C28.67 -0.03 33 -0.04 37.34 -0.05 C45.83 -0.07 54.32 -0.08 62.81 -0.08 C69.72 -0.08 76.62 -0.08 83.52 -0.09 C103.09 -0.11 122.66 -0.12 142.23 -0.11 C143.81 -0.11 143.81 -0.11 145.43 -0.11 C147.01 -0.11 147.01 -0.11 148.63 -0.11 C165.75 -0.11 182.87 -0.13 199.99 -0.16 C217.57 -0.19 235.15 -0.2 252.72 -0.2 C262.59 -0.2 272.46 -0.21 282.33 -0.23 C290.74 -0.24 299.14 -0.25 307.54 -0.24 C311.83 -0.23 316.11 -0.23 320.4 -0.25 C324.32 -0.26 328.25 -0.26 332.18 -0.24 C333.59 -0.24 335.01 -0.24 336.43 -0.25 C345.53 -0.32 351.52 0.32 358.91 5.9 C364.64 11.74 368.8 18.46 369.05 26.82 C368.95 34.83 365.97 41.87 360.51 47.72 C353.94 53.41 347.28 55.38 338.71 55.39 C337.5 55.39 336.28 55.4 335.03 55.4 C333.68 55.4 332.33 55.4 330.99 55.4 C329.55 55.4 328.12 55.4 326.69 55.41 C322.75 55.41 318.81 55.42 314.87 55.42 C310.62 55.42 306.37 55.43 302.13 55.43 C292.84 55.45 283.55 55.45 274.26 55.46 C268.46 55.46 262.66 55.46 256.86 55.47 C240.8 55.48 224.74 55.49 208.67 55.49 C207.13 55.5 207.13 55.5 205.56 55.5 C204.53 55.5 203.5 55.5 202.44 55.5 C200.35 55.5 198.26 55.5 196.18 55.5 C195.14 55.5 194.1 55.5 193.04 55.5 C176.26 55.5 159.48 55.52 142.7 55.54 C125.47 55.57 108.24 55.58 91.01 55.58 C81.33 55.58 71.66 55.59 61.99 55.61 C53.75 55.62 45.51 55.63 37.28 55.62 C33.08 55.61 28.87 55.61 24.67 55.63 C20.82 55.64 16.97 55.64 13.12 55.63 C11.74 55.63 10.35 55.63 8.96 55.64 C-2.64 55.71 -11.58 54.35 -20.26 46.26 C-26.35 38.56 -27.11 30.78 -26.26 21.26 C-24.56 12.69 -19.35 7.14 -12.26 2.26 C-8.04 0.59 -4.52 0.01 0 0 Z M-8.26 18.26 C-10.84 21.69 -12.24 25.09 -12.32 29.38 C-10.78 33.55 -8.35 37.21 -4.26 39.26 C-0.47 39.79 3.2 40.11 6.63 38.21 C9.44 35.9 11.53 33.99 11.98 30.3 C12.16 24.75 11.48 21.65 7.74 17.26 C5.29 16.03 3.6 16.09 0.86 16.07 C0 16.06 -0.86 16.04 -1.75 16.03 C-4.47 16.28 -6 16.74 -8.26 18.26 Z M25.74 16.26 C26.07 18.24 26.4 20.22 26.74 22.26 C26.85 23.9 26.91 25.55 26.93 27.19 C26.94 27.99 26.96 28.78 26.97 29.6 C26.74 32.26 26.74 32.26 24.74 39.26 C65 39.26 105.26 39.26 146.74 39.26 C146.24 37.77 146.24 37.77 145.74 36.26 C145.74 29.66 145.74 23.06 145.74 16.26 C106.14 16.26 66.54 16.26 25.74 16.26 Z M160.74 20.26 C158.49 23.95 158.48 27.16 159.12 31.32 C160.14 34.51 162.19 36.21 164.74 38.26 C168.23 40 171.94 39.84 175.74 39.26 C179.32 37.34 181.44 35.16 182.74 31.26 C183.35 26.13 183.35 26.13 181.69 21.44 C179.25 18.47 177.42 16.44 173.53 16.02 C168.02 15.86 164.57 15.82 160.74 20.26 Z M195.74 16.26 C196.4 18.24 197.06 20.22 197.74 22.26 C198.01 24.78 198.01 24.78 197.99 27.19 C198 27.99 198 28.78 198.01 29.6 C197.74 32.26 197.74 32.26 195.74 39.26 C235.67 39.26 275.6 39.26 316.74 39.26 C315.75 34.31 315.75 34.31 314.74 29.26 C314.73 26.2 314.73 26.2 315.05 23.82 C315.2 22.62 315.2 22.62 315.35 21.39 C315.74 19.26 315.74 19.26 316.74 16.26 C276.81 16.26 236.88 16.26 195.74 16.26 Z M330.74 21.26 C329.29 25.75 329.36 29.19 330.93 33.63 C333.28 37.1 333.28 37.1 336.74 39.26 C341.45 39.99 344.84 39.68 349.18 37.63 C352.18 34.85 353.03 33.28 353.74 29.26 C353.55 23.94 352.44 21.07 348.74 17.26 C342.15 13.96 335.14 15.73 330.74 21.26 Z " fill="#FFFFFF" transform="translate(99.26010704040527,802.7427310943604)"/>
<path d="M0 0 C1.27 -0.01 1.27 -0.01 2.57 -0.02 C5.38 -0.03 8.2 -0.02 11.01 -0 C13.04 -0 15.07 -0.01 17.09 -0.02 C22.58 -0.03 28.07 -0.02 33.56 -0 C39.31 0.01 45.07 0 50.82 0 C60.48 -0 70.13 0.01 79.79 0.03 C90.95 0.06 102.11 0.06 113.27 0.05 C124.01 0.04 134.76 0.05 145.5 0.06 C150.07 0.07 154.64 0.07 159.21 0.06 C164.59 0.06 169.97 0.07 175.35 0.09 C177.32 0.09 179.29 0.09 181.26 0.09 C183.96 0.08 186.66 0.1 189.35 0.11 C190.13 0.11 190.9 0.1 191.7 0.1 C198.3 0.17 203.81 1.51 208.93 5.94 C213.83 11.68 215.23 14.94 215.29 22.62 C215.3 23.34 215.3 24.06 215.31 24.8 C215.33 27.18 215.34 29.57 215.35 31.95 C215.36 32.77 215.36 33.59 215.36 34.43 C215.38 38.75 215.4 43.07 215.41 47.39 C215.42 51.84 215.45 56.29 215.49 60.75 C215.52 64.18 215.53 67.61 215.53 71.04 C215.54 72.68 215.55 74.32 215.57 75.96 C215.59 78.27 215.59 80.57 215.58 82.87 C215.59 84.18 215.59 85.48 215.6 86.83 C214.89 92.2 212.54 96.9 208.18 100.31 C202.69 104.23 198.23 104.79 191.59 104.77 C190.74 104.77 189.88 104.78 189 104.78 C186.13 104.8 183.26 104.79 180.4 104.79 C178.34 104.8 176.28 104.8 174.22 104.81 C168.64 104.83 163.05 104.83 157.46 104.84 C152.8 104.84 148.14 104.84 143.47 104.85 C132.47 104.87 121.46 104.87 110.45 104.87 C99.1 104.87 87.75 104.89 76.4 104.92 C66.65 104.95 56.91 104.96 47.16 104.96 C41.34 104.96 35.52 104.96 29.7 104.99 C24.22 105 18.75 105 13.27 104.99 C11.26 104.99 9.26 104.99 7.25 105 C4.5 105.02 1.76 105.01 -0.99 105 C-1.78 105.01 -2.57 105.02 -3.38 105.03 C-9.84 104.95 -15 102.99 -19.91 98.76 C-20.36 98.2 -20.8 97.64 -21.26 97.06 C-21.72 96.51 -22.18 95.95 -22.66 95.38 C-25.63 90.83 -26.14 86.91 -26.16 81.53 C-26.17 80.85 -26.17 80.16 -26.18 79.46 C-26.19 77.22 -26.19 74.97 -26.19 72.73 C-26.19 71.16 -26.2 69.59 -26.2 68.02 C-26.21 64.74 -26.21 61.46 -26.2 58.17 C-26.2 53.98 -26.21 49.78 -26.24 45.59 C-26.25 42.35 -26.25 39.11 -26.25 35.88 C-26.25 34.33 -26.26 32.78 -26.27 31.24 C-26.28 29.07 -26.27 26.9 -26.26 24.73 C-26.26 23.5 -26.26 22.27 -26.26 21 C-25.58 14.62 -22.84 8.75 -17.89 4.5 C-12.01 1.07 -6.73 -0.08 0 0 Z M-8.89 18.5 C-9.98 21.77 -10.03 24.21 -10.05 27.65 C-10.06 28.92 -10.07 30.19 -10.08 31.5 C-10.08 32.88 -10.09 34.27 -10.09 35.65 C-10.1 37.07 -10.1 38.5 -10.11 39.92 C-10.12 42.89 -10.12 45.87 -10.13 48.85 C-10.13 52.67 -10.16 56.48 -10.19 60.29 C-10.2 63.23 -10.21 66.16 -10.21 69.1 C-10.21 70.51 -10.22 71.91 -10.23 73.32 C-10.25 75.28 -10.25 77.25 -10.24 79.22 C-10.25 80.34 -10.25 81.46 -10.25 82.61 C-9.82 86.03 -9.4 87.15 -6.89 89.5 C-4.06 89.9 -1.63 90.04 1.2 90.01 C2.03 90.02 2.87 90.02 3.72 90.03 C6.53 90.04 9.33 90.03 12.13 90.02 C14.14 90.02 16.14 90.03 18.15 90.04 C23.6 90.06 29.06 90.05 34.51 90.04 C40.21 90.03 45.91 90.04 51.61 90.04 C61.19 90.05 70.76 90.04 80.33 90.02 C91.41 90 102.49 90.01 113.57 90.03 C123.07 90.05 132.57 90.05 142.07 90.04 C147.75 90.03 153.43 90.03 159.11 90.05 C164.45 90.06 169.78 90.05 175.12 90.03 C177.09 90.02 179.05 90.02 181.01 90.03 C183.68 90.04 186.36 90.03 189.03 90.01 C190.2 90.02 190.2 90.02 191.4 90.04 C195.67 89.98 195.67 89.98 199.09 87.65 C200.47 84.74 200.49 82.45 200.49 79.24 C200.49 77.97 200.5 76.7 200.5 75.39 C200.5 74.01 200.49 72.63 200.48 71.25 C200.48 69.83 200.48 68.41 200.48 66.99 C200.48 64.02 200.47 61.05 200.45 58.08 C200.43 54.27 200.43 50.46 200.43 46.66 C200.44 43.73 200.43 40.8 200.42 37.86 C200.42 36.46 200.41 35.06 200.42 33.65 C200.42 31.69 200.4 29.73 200.39 27.77 C200.38 26.65 200.38 25.53 200.37 24.38 C200.11 21.52 199.76 19.85 198.11 17.5 C194.43 16.27 191.03 16.36 187.19 16.37 C186.37 16.37 185.55 16.36 184.71 16.36 C181.97 16.35 179.22 16.36 176.48 16.36 C174.51 16.35 172.55 16.35 170.58 16.35 C165.24 16.34 159.9 16.33 154.55 16.33 C150.1 16.33 145.64 16.33 141.19 16.33 C130.68 16.32 120.17 16.32 109.66 16.32 C98.8 16.32 87.95 16.31 77.1 16.29 C67.79 16.28 58.48 16.27 49.17 16.27 C43.61 16.27 38.05 16.27 32.48 16.26 C27.25 16.25 22.02 16.25 16.79 16.26 C14.87 16.26 12.95 16.26 11.02 16.25 C8.41 16.24 5.79 16.25 3.17 16.25 C2.4 16.25 1.64 16.24 0.85 16.24 C-4.35 16.25 -4.35 16.25 -8.89 18.5 Z " fill="#04FDCF" transform="translate(465.88697814941406,895.4987945556641)"/>
<path d="M0 0 C4.08 3.3 5.79 5.46 6.5 10.62 C6.46 15.47 4.15 17.82 0.88 21.17 C-0.05 22.08 -0.05 22.08 -1 23 C-1.49 23.52 -1.97 24.04 -2.47 24.58 C-4.63 26.88 -5.95 27.98 -9 29 C-9.5 30.49 -9.5 30.49 -10 32 C-10.66 32 -11.32 32 -12 32 C-12.37 32.93 -12.37 32.93 -12.75 33.88 C-14.21 36.35 -15.38 36.95 -18 38 C-18 38.66 -18 39.32 -18 40 C-23.48 45 -23.48 45 -26 45 C-26.23 45.55 -26.45 46.1 -26.69 46.67 C-28.39 49.69 -30.54 51.78 -33 54.23 C-33.51 54.74 -34.02 55.24 -34.54 55.77 C-36.21 57.44 -37.89 59.1 -39.57 60.77 C-40.73 61.93 -41.9 63.09 -43.06 64.25 C-46.12 67.3 -49.18 70.34 -52.24 73.38 C-55.37 76.49 -58.49 79.6 -61.61 82.71 C-67.74 88.81 -73.87 94.91 -80 101 C-78.04 100.96 -76.08 100.92 -74.11 100.88 C-72.45 100.84 -70.79 100.81 -69.13 100.78 C-65.71 100.71 -62.28 100.63 -58.86 100.53 C-41.97 100.04 -41.97 100.04 -36.19 105.41 C-34.26 107.99 -33.87 109.8 -34 113 C-34.7 116.58 -35.31 118.39 -38.06 120.81 C-45.56 123.84 -54.41 123.16 -62.38 123.17 C-63.54 123.17 -64.7 123.17 -65.9 123.18 C-68.35 123.18 -70.81 123.19 -73.26 123.19 C-76.99 123.19 -80.72 123.21 -84.45 123.22 C-86.84 123.23 -89.23 123.23 -91.62 123.23 C-92.73 123.24 -93.84 123.24 -94.98 123.25 C-110.27 123.21 -110.27 123.21 -115.54 118.95 C-117.58 114.82 -117.48 111.37 -117.36 106.83 C-117.35 105.96 -117.34 105.08 -117.33 104.18 C-117.3 101.39 -117.25 98.6 -117.19 95.81 C-117.15 93.01 -117.11 90.21 -117.08 87.42 C-117.05 85.68 -117.03 83.94 -116.99 82.2 C-116.79 77.97 -116.79 77.97 -118 74 C-117.85 73.17 -117.7 72.35 -117.55 71.5 C-117.09 68.59 -116.97 66.17 -117.04 63.25 C-117.07 61.97 -117.07 61.97 -117.11 60.66 C-117.16 58.89 -117.23 57.11 -117.3 55.34 C-117.42 49.74 -116.97 46.33 -113 42 C-110.09 40.5 -107.26 40.08 -104 40 C-99.69 41.59 -97.99 43.95 -96 48 C-95.68 51.3 -95.68 51.3 -95.74 55.02 C-95.75 55.69 -95.76 56.35 -95.76 57.04 C-95.79 59.15 -95.83 61.26 -95.88 63.38 C-95.91 65.48 -95.94 67.59 -95.97 69.69 C-95.99 71.61 -96.03 73.52 -96.07 75.44 C-96 79.04 -95.58 82.45 -95 86 C-94.57 85.57 -94.14 85.14 -93.7 84.7 C-80 71 -80 71 -77.73 68.74 C-74.93 65.93 -72.12 63.11 -69.32 60.29 C-63.82 54.75 -58.3 49.22 -52.79 43.68 C-49.46 40.34 -46.13 37 -42.8 33.65 C-39.58 30.41 -36.35 27.16 -33.12 23.93 C-31.89 22.69 -30.66 21.46 -29.43 20.22 C-27.72 18.49 -26.01 16.78 -24.29 15.06 C-23.78 14.55 -23.27 14.03 -22.75 13.5 C-19.23 10 -19.23 10 -17 10 C-16.73 9.41 -16.47 8.81 -16.2 8.2 C-12.56 1.51 -7.43 -1.32 0 0 Z " fill="#FA052F" transform="translate(789,756)"/>
<path d="M0 0 C1.07 -0.01 2.14 -0.01 3.24 -0.02 C4.21 -0.02 5.19 -0.02 6.19 -0.02 C7.04 -0.02 7.9 -0.03 8.78 -0.03 C10.71 0.09 10.71 0.09 11.71 1.09 C11.82 3.73 11.85 6.34 11.85 8.98 C11.85 10.22 11.85 10.22 11.85 11.49 C11.85 14.26 11.85 17.02 11.84 19.78 C11.84 21.19 11.84 21.19 11.84 22.63 C11.81 45.13 11.29 67.61 10.71 90.09 C4.77 90.09 -1.17 90.09 -7.29 90.09 C-7.29 90.75 -7.29 91.41 -7.29 92.09 C-28.41 92.09 -49.53 92.09 -71.29 92.09 C-71.33 71.41 -71.33 71.41 -71.33 62.58 C-71.34 56.55 -71.35 50.53 -71.36 44.51 C-71.37 39.65 -71.38 34.8 -71.38 29.94 C-71.38 28.09 -71.39 26.24 -71.39 24.39 C-71.4 21.79 -71.4 19.2 -71.4 16.6 C-71.4 15.84 -71.41 15.08 -71.41 14.3 C-71.4 9.79 -71.02 5.54 -70.29 1.09 C-62.77 0.95 -55.25 0.81 -47.73 0.67 C-45.19 0.62 -42.64 0.57 -40.1 0.52 C-26.73 0.26 -13.37 0.04 0 0 Z M-55.29 16.09 C-55.29 36.22 -55.29 56.35 -55.29 77.09 C-38.13 77.09 -20.97 77.09 -3.29 77.09 C-3.2 71.67 -3.12 66.25 -3.04 60.66 C-2.98 58.12 -2.98 58.12 -2.92 55.53 C-2.83 47.69 -2.93 40.89 -7.29 34.09 C-7.9 33.09 -8.51 32.09 -9.14 31.05 C-15.91 21.26 -15.91 21.26 -25.83 15.42 C-30.7 14.96 -35.53 14.95 -40.41 14.97 C-41.4 14.96 -42.39 14.96 -43.41 14.96 C-44.36 14.96 -45.31 14.96 -46.29 14.96 C-47.16 14.96 -48.02 14.96 -48.91 14.96 C-51.59 15.03 -51.59 15.03 -55.29 16.09 Z " fill="#09F8D2" transform="translate(429.28515625,658.90625)"/>
<path d="M0 0 C1.26 -0 2.52 -0.01 3.82 -0.01 C5.24 -0.01 6.65 -0 8.06 -0 C9.54 -0 11.01 -0.01 12.49 -0.01 C16.51 -0.01 20.53 -0.01 24.55 -0.01 C28.75 -0 32.95 -0.01 37.14 -0.01 C44.2 -0.01 51.25 -0.01 58.3 -0 C66.46 0 74.63 0 82.79 -0.01 C89.79 -0.01 96.79 -0.01 103.78 -0.01 C107.97 -0.01 112.15 -0.01 116.34 -0.01 C120.27 -0.01 124.2 -0.01 128.14 -0 C129.58 -0 131.03 -0 132.48 -0.01 C134.45 -0.01 136.42 -0 138.38 0 C139.49 0 140.59 0 141.73 0 C144.19 0.13 144.19 0.13 145.19 1.13 C145.19 8.39 145.19 15.65 145.19 23.13 C95.03 23.13 44.87 23.13 -6.81 23.13 C-6.81 0 -6.81 0 0 0 Z " fill="#01FED1" transform="translate(489.80810546875,951.8730163574219)"/>
<path d="M0 0 C0.82 -0 1.63 -0 2.47 -0.01 C5.18 -0.01 7.88 -0.01 10.58 -0 C12.45 -0 14.33 -0.01 16.2 -0.01 C20.13 -0.01 24.06 -0.01 27.99 -0 C33.03 0 38.07 0 43.11 -0 C46.98 -0.01 50.85 -0.01 54.72 -0 C56.58 -0 58.44 -0 60.3 -0.01 C62.9 -0.01 65.49 -0.01 68.09 0 C69.25 -0 69.25 -0 70.43 -0.01 C75.75 0.02 75.75 0.02 77.98 1.13 C78.66 8.8 76.52 15.59 72.03 21.85 C63.97 31.21 54.18 38.16 41.58 39.36 C26.87 40.23 13.68 38.92 1.98 29.13 C-6.65 21.11 -10.27 12.78 -11.02 1.13 C-7.31 -0.11 -3.87 -0.01 0 0 Z " fill="#EFEFEF" transform="translate(511.019775390625,222.87060546875)"/>
<path d="M0 0 C14.19 0 28.38 0 43 0 C44.69 3.38 44.14 7.2 44.13 10.91 C44.13 11.79 44.13 12.68 44.14 13.58 C44.14 15.45 44.13 17.32 44.13 19.19 C44.13 22.05 44.13 24.92 44.14 27.79 C44.14 29.6 44.13 31.41 44.13 33.22 C44.13 34.09 44.14 34.95 44.14 35.84 C44.11 41.89 44.11 41.89 43 43 C41.65 43.09 40.29 43.12 38.94 43.11 C38.07 43.11 37.19 43.11 36.29 43.11 C34.91 43.11 34.91 43.11 33.5 43.1 C32.65 43.1 31.81 43.1 30.94 43.09 C27.77 43.09 24.6 43.08 21.44 43.06 C14.36 43.04 7.29 43.02 0 43 C0 28.81 0 14.62 0 0 Z " fill="#01FED0" transform="translate(604,144)"/>
<path d="M0 0 C1.77 0.04 3.54 0.09 5.32 0.14 C6.14 0.16 6.97 0.18 7.82 0.21 C10.91 0.28 14 0.37 17.09 0.46 C24 0.64 30.91 0.83 38.03 1.02 C38.03 15.21 38.03 29.4 38.03 44.02 C23.84 44.02 9.65 44.02 -4.97 44.02 C-4.99 36.95 -5.01 29.87 -5.03 22.58 C-5.04 20.35 -5.05 18.11 -5.06 15.81 C-5.06 14.05 -5.06 12.29 -5.07 10.53 C-5.07 9.14 -5.07 9.14 -5.08 7.73 C-5.08 6.85 -5.08 5.98 -5.08 5.08 C-5.08 4.32 -5.09 3.56 -5.09 2.77 C-4.85 -0.74 -3.66 0.02 0 0 Z " fill="#00FED0" transform="translate(443.968994140625,142.978271484375)"/>
<path d="M0 0 C1.27 -0.01 1.27 -0.01 2.57 -0.02 C5.38 -0.03 8.2 -0.02 11.01 -0 C13.04 -0 15.07 -0.01 17.09 -0.02 C22.58 -0.03 28.07 -0.02 33.56 -0 C39.31 0.01 45.07 0 50.82 0 C60.48 -0 70.13 0.01 79.79 0.03 C90.95 0.06 102.11 0.06 113.27 0.05 C124.01 0.04 134.76 0.05 145.5 0.06 C150.07 0.07 154.64 0.07 159.21 0.06 C164.59 0.06 169.97 0.07 175.35 0.09 C177.32 0.09 179.29 0.09 181.26 0.09 C183.96 0.08 186.66 0.1 189.35 0.11 C190.13 0.11 190.9 0.1 191.7 0.1 C198.3 0.17 203.81 1.51 208.93 5.94 C213.83 11.68 215.23 14.94 215.29 22.62 C215.3 23.34 215.3 24.06 215.31 24.8 C215.33 27.18 215.34 29.57 215.35 31.95 C215.36 32.77 215.36 33.59 215.36 34.43 C215.38 38.75 215.4 43.07 215.41 47.39 C215.42 51.84 215.45 56.29 215.49 60.75 C215.52 64.18 215.53 67.61 215.53 71.04 C215.54 72.68 215.55 74.32 215.57 75.96 C215.59 78.27 215.59 80.57 215.58 82.87 C215.59 84.18 215.59 85.48 215.6 86.83 C214.85 92.46 212.66 96.13 208.36 99.94 C207.25 100.71 207.25 100.71 206.11 101.5 C207.9 97.78 210 94.28 212.19 90.78 C213.47 87.62 213.37 84.91 213.37 81.5 C213.38 80.8 213.38 80.11 213.38 79.39 C213.39 77.09 213.39 74.8 213.38 72.5 C213.38 70.9 213.38 69.3 213.38 67.7 C213.39 64.36 213.38 61.01 213.37 57.66 C213.36 53.37 213.37 49.08 213.38 44.79 C213.39 41.48 213.39 38.18 213.38 34.88 C213.38 33.3 213.38 31.72 213.39 30.14 C213.39 27.92 213.38 25.71 213.37 23.5 C213.37 22.24 213.37 20.98 213.37 19.69 C213.13 16.67 212.84 14.96 211.11 12.5 C209.47 11.78 207.8 11.11 206.11 10.5 C205.78 9.84 205.45 9.18 205.11 8.5 C202.79 7.47 200.46 6.47 198.11 5.5 C197.78 5.17 197.45 4.84 197.11 4.5 C194.6 4.4 192.12 4.36 189.61 4.37 C188.42 4.36 188.42 4.36 187.21 4.36 C184.52 4.35 181.84 4.36 179.15 4.36 C177.24 4.35 175.32 4.35 173.4 4.35 C168.18 4.34 162.95 4.33 157.73 4.33 C153.36 4.33 148.99 4.33 144.63 4.33 C134.32 4.32 124.01 4.32 113.69 4.32 C103.08 4.32 92.46 4.31 81.85 4.29 C72.73 4.28 63.6 4.27 54.48 4.27 C49.04 4.27 43.6 4.27 38.15 4.26 C33.02 4.25 27.89 4.25 22.75 4.26 C20.88 4.26 19 4.26 17.13 4.25 C8.63 4.22 0.15 4.28 -8.31 5.2 C-9.47 5.33 -10.62 5.45 -11.81 5.58 C-16.2 6.89 -18.71 9.51 -21.02 13.41 C-23.52 20.78 -23.34 28.28 -23.32 35.97 C-23.33 37.47 -23.33 38.96 -23.34 40.45 C-23.35 43.57 -23.34 46.68 -23.33 49.79 C-23.32 53.77 -23.34 57.74 -23.37 61.71 C-23.39 64.79 -23.39 67.87 -23.38 70.94 C-23.38 72.41 -23.39 73.87 -23.4 75.34 C-23.46 84 -23.5 91.26 -17.48 98.1 C-12.31 102.65 -5.56 102.94 0.97 102.9 C2.26 102.91 2.26 102.91 3.57 102.92 C6.42 102.94 9.27 102.94 12.11 102.93 C14.17 102.94 16.22 102.95 18.27 102.96 C23.82 102.99 29.37 103 34.93 103.01 C40.73 103.02 46.54 103.04 52.35 103.07 C63.34 103.11 74.34 103.14 85.33 103.16 C97.85 103.19 110.36 103.23 122.88 103.28 C148.63 103.37 174.37 103.44 200.11 103.5 C200.11 103.83 200.11 104.16 200.11 104.5 C172.87 104.59 145.63 104.67 118.39 104.71 C105.74 104.73 93.09 104.76 80.44 104.8 C69.41 104.84 58.39 104.87 47.36 104.88 C41.53 104.88 35.69 104.9 29.85 104.92 C24.35 104.95 18.86 104.96 13.36 104.95 C11.35 104.95 9.33 104.96 7.32 104.98 C4.56 105 1.8 104.99 -0.95 104.98 C-1.75 104.99 -2.54 105.01 -3.36 105.02 C-9.83 104.95 -14.99 103 -19.91 98.76 C-20.36 98.2 -20.8 97.64 -21.26 97.06 C-21.72 96.51 -22.18 95.95 -22.66 95.38 C-25.63 90.83 -26.14 86.91 -26.16 81.53 C-26.17 80.85 -26.17 80.16 -26.18 79.46 C-26.19 77.22 -26.19 74.97 -26.19 72.73 C-26.19 71.16 -26.2 69.59 -26.2 68.02 C-26.21 64.74 -26.21 61.46 -26.2 58.17 C-26.2 53.98 -26.21 49.78 -26.24 45.59 C-26.25 42.35 -26.25 39.11 -26.25 35.88 C-26.25 34.33 -26.26 32.78 -26.27 31.24 C-26.28 29.07 -26.27 26.9 -26.26 24.73 C-26.26 23.5 -26.26 22.27 -26.26 21 C-25.58 14.62 -22.84 8.75 -17.89 4.5 C-12.01 1.07 -6.73 -0.08 0 0 Z " fill="#30F4CB" transform="translate(465.88697814941406,895.4987945556641)"/>
<path d="M0 0 C7.26 0 14.52 0 22 0 C23 1 23 1 23.12 2.98 C23.12 4.28 23.12 4.28 23.11 5.61 C23.11 6.59 23.11 7.57 23.11 8.58 C23.11 9.65 23.1 10.72 23.1 11.82 C23.1 12.9 23.09 13.99 23.09 15.11 C23.09 18.59 23.08 22.08 23.06 25.56 C23.06 27.92 23.05 30.27 23.05 32.63 C23.04 38.42 23.02 44.21 23 50 C15.41 50 7.82 50 0 50 C0 33.5 0 17 0 0 Z " fill="#01FED1" transform="translate(533,36)"/>
<path d="M0 0 C1.26 -0 2.52 -0.01 3.82 -0.01 C5.24 -0.01 6.65 -0 8.06 -0 C9.54 -0 11.01 -0.01 12.49 -0.01 C16.51 -0.01 20.53 -0.01 24.55 -0.01 C28.75 -0 32.95 -0.01 37.14 -0.01 C44.2 -0.01 51.25 -0.01 58.3 -0 C66.46 0 74.63 0 82.79 -0.01 C89.79 -0.01 96.79 -0.01 103.78 -0.01 C107.97 -0.01 112.15 -0.01 116.34 -0.01 C120.27 -0.01 124.2 -0.01 128.14 -0 C129.58 -0 131.03 -0 132.48 -0.01 C134.45 -0.01 136.42 -0 138.38 0 C139.49 0 140.59 0 141.73 0 C144.19 0.13 144.19 0.13 145.19 1.13 C145.19 8.39 145.19 15.65 145.19 23.13 C95.03 23.13 44.87 23.13 -6.81 23.13 C-6.81 0 -6.81 0 0 0 Z M-5.81 4.13 C-5.98 6.85 -6.04 9.47 -6 12.19 C-5.99 12.94 -5.99 13.68 -5.99 14.45 C-6.3 18.09 -6.3 18.09 -4.81 21.13 C-2.91 21.23 -1.01 21.25 0.89 21.25 C2.12 21.26 3.36 21.26 4.63 21.26 C6.02 21.26 7.4 21.26 8.78 21.26 C10.23 21.26 11.68 21.26 13.12 21.26 C17.06 21.27 21 21.26 24.94 21.26 C29.06 21.26 33.17 21.26 37.29 21.26 C44.2 21.26 51.11 21.26 58.02 21.26 C66.02 21.25 74.02 21.25 82.02 21.26 C88.88 21.26 95.73 21.26 102.59 21.26 C106.69 21.26 110.79 21.26 114.89 21.26 C118.75 21.27 122.6 21.26 126.46 21.26 C127.87 21.26 129.29 21.26 130.71 21.26 C132.64 21.26 134.57 21.26 136.5 21.25 C138.12 21.25 138.12 21.25 139.78 21.25 C142.14 21.4 142.14 21.4 143.19 20.13 C143.27 17.26 143.28 14.43 143.25 11.56 C143.25 10.36 143.25 10.36 143.24 9.12 C143.23 7.12 143.21 5.13 143.19 3.13 C124.06 2.95 104.93 2.78 85.8 2.63 C76.91 2.56 68.03 2.49 59.15 2.4 C51.41 2.33 43.67 2.26 35.93 2.21 C31.83 2.18 27.73 2.14 23.63 2.1 C19.77 2.06 15.92 2.03 12.06 2.01 C10.64 2 9.22 1.98 7.8 1.97 C5.87 1.94 3.94 1.93 2.01 1.92 C0.93 1.92 -0.15 1.91 -1.27 1.9 C-3.98 1.87 -3.98 1.87 -5.81 4.13 Z " fill="#1EF1C8" transform="translate(489.80810546875,951.8730163574219)"/>
<path d="M0 0 C0 3 0 3 -2 6 C-4.7 6.29 -7.17 6.39 -9.87 6.36 C-10.69 6.36 -11.52 6.37 -12.36 6.37 C-15.14 6.37 -17.91 6.36 -20.68 6.34 C-22.66 6.34 -24.64 6.34 -26.62 6.34 C-32.01 6.34 -37.4 6.33 -42.79 6.3 C-48.42 6.29 -54.05 6.28 -59.67 6.28 C-70.34 6.27 -81 6.25 -91.67 6.22 C-103.8 6.18 -115.94 6.17 -128.08 6.15 C-153.05 6.12 -178.03 6.07 -203 6 C-203.66 4.68 -204.32 3.36 -205 2 C-203.95 2 -202.9 1.99 -201.82 1.99 C-176.3 1.88 -150.78 1.78 -125.26 1.66 C-112.92 1.61 -100.57 1.55 -88.23 1.5 C-77.48 1.46 -66.73 1.41 -55.98 1.36 C-50.28 1.34 -44.58 1.31 -38.89 1.29 C-33.53 1.27 -28.17 1.25 -22.82 1.22 C-20.85 1.21 -18.88 1.2 -16.9 1.2 C-14.22 1.19 -11.54 1.17 -8.86 1.16 C-8.07 1.16 -7.28 1.16 -6.47 1.16 C-2.94 1.45 -2.94 1.45 0 0 Z " fill="#4FF2DB" transform="translate(664,983)"/>
<path d="M0 0 C0.74 0 1.49 0.01 2.25 0.01 C3.43 0.01 3.43 0.01 4.63 0.01 C7.28 0 9.93 0.01 12.58 0.02 C14.48 0.02 16.37 0.02 18.26 0.02 C23.41 0.01 28.56 0.02 33.72 0.03 C39.1 0.03 44.47 0.03 49.85 0.04 C60.05 0.04 70.24 0.05 80.43 0.06 C92.03 0.07 103.63 0.07 115.23 0.08 C139.1 0.09 162.97 0.11 186.85 0.13 C186.85 1.12 186.85 2.11 186.85 3.13 C121.84 3.13 56.83 3.13 -10.15 3.13 C-8.83 2.47 -7.51 1.81 -6.15 1.13 C-4.44 -0.58 -2.28 0.01 0 0 Z " fill="#20F1CA" transform="translate(473.1543193459511,908.8709186911583)"/>
<path d="M0 0 C3.64 2.44 5.6 5.18 6.54 9.48 C6.79 13.78 6.48 17.02 3.81 20.5 C-0.33 24.19 -2.36 25.03 -7.94 24.94 C-12.49 24.23 -14.78 22.22 -18 19 C-19.87 15.27 -19.55 11.06 -19 7 C-17.34 3.62 -14.92 1.59 -11.75 -0.44 C-7.61 -1.29 -4.05 -1.31 0 0 Z " fill="#05FDD1" transform="translate(510,919)"/>
<path d="M0 0 C3.44 2.12 5.81 4.1 7 8 C7.46 12.74 7.48 15.03 5.38 19.31 C2.66 22.38 0.89 23.73 -3 25 C-7.83 25 -10.67 24.61 -14.44 21.56 C-17.66 18.34 -18.21 16.75 -18.44 12.31 C-18.41 7.27 -17.02 4.87 -13.61 1.28 C-9.51 -1.98 -4.78 -1.09 0 0 Z " fill="#03FED1" transform="translate(479,919)"/>
<path d="M0 0 C26.85 -0.07 53.7 -0.12 80.55 -0.16 C93.02 -0.17 105.49 -0.19 117.96 -0.23 C128.82 -0.26 139.69 -0.28 150.56 -0.28 C156.31 -0.29 162.06 -0.3 167.82 -0.32 C173.24 -0.34 178.65 -0.34 184.07 -0.34 C186.06 -0.34 188.04 -0.35 190.03 -0.36 C192.75 -0.37 195.46 -0.37 198.18 -0.36 C198.96 -0.37 199.74 -0.38 200.55 -0.39 C207.17 -0.33 212.68 0.99 217.81 5.44 C222.71 11.18 224.12 14.44 224.18 22.11 C224.18 22.83 224.19 23.56 224.2 24.3 C224.22 26.68 224.23 29.07 224.24 31.45 C224.24 32.27 224.25 33.09 224.25 33.93 C224.27 38.25 224.29 42.57 224.3 46.89 C224.31 51.34 224.34 55.79 224.38 60.24 C224.41 63.68 224.41 67.11 224.42 70.54 C224.42 72.18 224.43 73.82 224.45 75.46 C224.48 77.76 224.48 80.07 224.47 82.37 C224.48 83.68 224.48 84.98 224.49 86.33 C223.74 91.96 221.55 95.63 217.25 99.44 C216.14 100.21 216.14 100.21 215 101 C216.79 97.28 218.89 93.78 221.07 90.28 C222.35 87.15 222.29 84.45 222.32 81.08 C222.33 80.39 222.34 79.7 222.35 78.99 C222.38 76.72 222.4 74.45 222.41 72.18 C222.42 70.59 222.43 69 222.44 67.41 C222.46 64.09 222.47 60.76 222.48 57.43 C222.49 53.18 222.54 48.94 222.6 44.69 C222.63 41.41 222.64 38.14 222.65 34.86 C222.65 33.29 222.67 31.73 222.7 30.16 C222.82 21.98 222.84 15.33 217.55 8.58 C212.44 3.35 207.18 2.89 200.17 2.69 C199.49 2.67 198.81 2.65 198.11 2.63 C195.84 2.57 193.57 2.51 191.31 2.46 C190.52 2.44 189.72 2.42 188.91 2.39 C170.21 1.91 151.52 1.78 132.82 1.7 C128.12 1.67 123.43 1.65 118.73 1.62 C109.9 1.57 101.07 1.53 92.25 1.48 C82.17 1.43 72.09 1.38 62.01 1.32 C41.34 1.21 20.67 1.1 0 1 C0 0.67 0 0.34 0 0 Z " fill="#8AFEF1" transform="translate(457,896)"/>
<path d="M0 0 C0.99 0.33 1.98 0.66 3 1 C3 7.6 3 14.2 3 21 C-47.16 21 -97.32 21 -149 21 C-149 14.73 -149 8.46 -149 2 C-148.67 2 -148.34 2 -148 2 C-147.67 7.28 -147.34 12.56 -147 18 C-98.49 18 -49.98 18 0 18 C0 12.06 0 6.12 0 0 Z " fill="#22FED3" transform="translate(632,954)"/>
<path d="M0 0 C13.86 0.33 27.72 0.66 42 1 C42 15.19 42 29.38 42 44 C27.81 44 13.62 44 -1 44 C-1 43.01 -1 42.02 -1 41 C12.53 41 26.06 41 40 41 C40 28.79 40 16.58 40 4 C28.75 3.71 28.75 3.71 17.5 3.43 C16.08 3.39 14.66 3.36 13.24 3.32 C12.52 3.3 11.79 3.28 11.05 3.27 C6.95 3.15 3.03 2.78 -1 2 C-0.67 1.34 -0.34 0.68 0 0 Z " fill="#17F3CC" transform="translate(440,143)"/>
<path d="M0 0 C0.7 1.74 1.39 3.5 2.06 5.25 C2.45 6.22 2.83 7.2 3.22 8.2 C4.39 12.41 4.39 12.41 3 15 C0.6 16.27 0.6 16.27 -2.38 17.25 C-3.35 17.59 -4.33 17.92 -5.34 18.27 C-8 19 -8 19 -11 19 C-11.67 17.25 -12.34 15.5 -13 13.75 C-13.37 12.78 -13.74 11.8 -14.12 10.8 C-15 8 -15 8 -15 4 C-13.25 3.33 -11.5 2.66 -9.75 2 C-8.78 1.63 -7.8 1.26 -6.8 0.88 C-4 0 -4 0 0 0 Z " fill="#FFFFFF" transform="translate(478,695)"/>
<path d="M0 0 C10.99 2.3 10.99 2.3 15 4 C16.28 7.85 15.41 9.4 14.06 13.19 C13.68 14.27 13.3 15.36 12.91 16.48 C12.61 17.31 12.31 18.14 12 19 C6.76 18.45 2.03 17.57 -3 16 C-2.52 10.43 -1.7 5.33 0 0 Z " fill="#FFFFFF" transform="translate(286,645)"/>
<path d="M0 0 C0.68 1.56 1.34 3.12 2 4.69 C2.37 5.56 2.74 6.43 3.12 7.32 C4.02 10.06 4.16 12.15 4 15 C2.07 15.7 0.13 16.38 -1.81 17.06 C-2.89 17.45 -3.97 17.83 -5.08 18.22 C-8 19 -8 19 -11 18 C-12.2 15.64 -12.2 15.64 -13.25 12.69 C-13.78 11.24 -13.78 11.24 -14.33 9.76 C-15.34 5.59 -15.34 5.59 -14 3 C-11.86 1.95 -11.86 1.95 -9.19 1.25 C-7.88 0.89 -7.88 0.89 -6.54 0.52 C-4 0 -4 0 0 0 Z " fill="#FFFFFF" transform="translate(452,621)"/>
<path d="M0 0 C1.58 0.45 3.17 0.91 4.75 1.38 C5.63 1.63 6.51 1.89 7.42 2.15 C9.76 2.92 11.83 3.84 14 5 C13.49 9.97 12.77 14.29 11 19 C5.13 18.48 0.45 17.24 -5 15 C-4.55 13.25 -4.09 11.5 -3.62 9.75 C-3.37 8.78 -3.11 7.8 -2.85 6.8 C-2.1 4.34 -1.23 2.24 0 0 Z " fill="#FFFFFF" transform="translate(313,571)"/>
<path d="M0 0 C0.87 1.93 1.72 3.87 2.56 5.81 C3.04 6.89 3.51 7.97 4 9.08 C5 12 5 12 4 15 C1.64 16.2 1.64 16.2 -1.31 17.25 C-2.76 17.78 -2.76 17.78 -4.24 18.33 C-7.07 19.02 -8.4 19.3 -11 18 C-12.05 16.11 -12.05 16.11 -12.75 13.75 C-12.99 12.98 -13.23 12.21 -13.48 11.42 C-14.03 8.88 -14.09 6.59 -14 4 C-12.23 3.33 -10.46 2.66 -8.69 2 C-7.7 1.63 -6.72 1.26 -5.7 0.88 C-3 0 -3 0 0 0 Z " fill="#FEFEFE" transform="translate(469,670)"/>
<path d="M0 0 C0.84 1.75 1.67 3.5 2.5 5.25 C2.96 6.22 3.43 7.2 3.91 8.2 C5 11 5 11 5 15 C3.06 15.67 1.13 16.34 -0.81 17 C-1.89 17.37 -2.97 17.74 -4.08 18.12 C-7 19 -7 19 -10 19 C-10.67 17.25 -11.34 15.5 -12 13.75 C-12.37 12.78 -12.74 11.8 -13.12 10.8 C-14 8 -14 8 -14 4 C-12.23 3.33 -10.46 2.66 -8.69 2 C-7.7 1.63 -6.72 1.26 -5.7 0.88 C-3 0 -3 0 0 0 Z " fill="#FFFFFF" transform="translate(443,596)"/>
<path d="M0 0 C7.26 0 14.52 0 22 0 C22 9.24 22 18.48 22 28 C20 25 20 25 18.44 21.5 C14.24 13.02 7.94 6.07 0 1 C0 0.67 0 0.34 0 0 Z " fill="#F6FCFC" transform="translate(404,674)"/>
<path d="M0 0 C5.96 0.39 10.63 1.37 16 4 C15.55 5.58 15.09 7.17 14.62 8.75 C14.24 10.07 14.24 10.07 13.85 11.42 C13.08 13.76 12.16 15.83 11 18 C6.13 17.4 1.67 16.43 -3 15 C-2.55 9.73 -1.92 4.98 0 0 Z " fill="#FFFFFF" transform="translate(260,720)"/>
<path d="M0 0 C0.51 1.39 1.01 2.79 1.5 4.19 C1.78 4.96 2.06 5.74 2.34 6.54 C3.04 9.13 3.11 11.33 3 14 C1.07 14.7 -0.87 15.38 -2.81 16.06 C-3.89 16.45 -4.97 16.83 -6.08 17.22 C-9 18 -9 18 -12 17 C-12.95 14.89 -12.95 14.89 -13.69 12.25 C-13.94 11.39 -14.19 10.53 -14.45 9.64 C-15 7.01 -15.1 4.68 -15 2 C-13.44 1.46 -11.88 0.95 -10.31 0.44 C-9.44 0.15 -8.57 -0.14 -7.68 -0.44 C-4.75 -1.05 -2.86 -0.78 0 0 Z " fill="#FFFFFF" transform="translate(427,548)"/>
<path d="M0 0 C5.45 0.57 9.91 1.95 15 4 C13.93 9.11 12.77 14.07 11 19 C5.55 17.97 0.88 16.75 -4 14 C-3.22 9.15 -1.6 4.62 0 0 Z " fill="#FFFFFF" transform="translate(321,547)"/>
<path d="M0 0 C5.45 0.57 9.91 1.95 15 4 C13.93 9.11 12.77 14.07 11 19 C7.68 18.47 4.47 17.63 1.25 16.69 C0.08 16.35 0.08 16.35 -1.11 16.01 C-3 15 -3 15 -3.89 13.25 C-4.04 10.21 -3.17 8.08 -2.06 5.25 C-1.68 4.27 -1.3 3.28 -0.91 2.27 C-0.61 1.52 -0.31 0.77 0 0 Z " fill="#FFFFFF" transform="translate(295,621)"/>
<path d="M0 0 C5.45 1.03 10.12 2.25 15 5 C14.8 5.68 14.59 6.35 14.38 7.05 C14.11 7.94 13.84 8.83 13.56 9.75 C13.3 10.63 13.03 11.51 12.75 12.42 C12.12 14.61 11.53 16.79 11 19 C5.55 18.43 1.09 17.05 -4 15 C-2.93 9.89 -1.77 4.93 0 0 Z " fill="#FFFFFF" transform="translate(278,670)"/>
<path d="M0 0 C5.45 1.03 10.12 2.25 15 5 C14.8 5.68 14.59 6.35 14.38 7.05 C14.11 7.94 13.84 8.83 13.56 9.75 C13.3 10.63 13.03 11.51 12.75 12.42 C12.12 14.61 11.53 16.79 11 19 C0.44 17.07 0.44 17.07 -4 15 C-2.93 9.89 -1.77 4.93 0 0 Z " fill="#FFFFFF" transform="translate(304,596)"/>
<path d="M0 0 C5.28 0 10.56 0 16 0 C16.1 10.84 16.1 10.84 16 14 C15 15 15 15 11.62 15.1 C10.23 15.09 8.83 15.08 7.44 15.06 C4.98 15.04 2.53 15.02 0 15 C0 10.05 0 5.1 0 0 Z " fill="#FEFEFE" transform="translate(387,685)"/>
<path d="M0 0 C0.85 2.11 0.85 2.11 1.62 4.75 C2.02 6.04 2.02 6.04 2.41 7.36 C3 10 3.11 12.31 3 15 C1.42 15.51 -0.17 16.01 -1.75 16.5 C-2.63 16.78 -3.51 17.06 -4.42 17.34 C-7 18 -7 18 -11 18 C-11.67 16.25 -12.34 14.5 -13 12.75 C-13.37 11.78 -13.74 10.8 -14.12 9.8 C-15 7 -15 7 -15 3 C-12.88 2.3 -10.75 1.62 -8.62 0.94 C-6.85 0.36 -6.85 0.36 -5.04 -0.22 C-2 -1 -2 -1 0 0 Z " fill="#FFFFFF" transform="translate(487,720)"/>
<path d="M0 0 C4.84 0.99 9.48 1.96 14 4 C13.35 7.52 12.49 10.89 11.44 14.31 C11.17 15.2 10.9 16.08 10.62 16.99 C10.42 17.65 10.21 18.32 10 19 C6.34 18.37 3.12 17.36 -0.31 15.94 C-1.64 15.39 -1.64 15.39 -2.99 14.84 C-3.65 14.56 -4.32 14.29 -5 14 C-4.47 8.65 -2.53 4.64 0 0 Z " fill="#FFFFFF" transform="translate(270,695)"/>
<path d="M0 0 C0.99 0 1.98 0 3 0 C3 20.13 3 40.26 3 61 C20.16 61 37.32 61 55 61 C55 61.33 55 61.66 55 62 C54.35 62.01 53.71 62.02 53.04 62.03 C46.32 62.14 39.61 62.25 32.89 62.37 C30.38 62.42 27.88 62.46 25.37 62.5 C21.77 62.55 18.17 62.62 14.57 62.68 C12.88 62.71 12.88 62.71 11.15 62.73 C9.59 62.76 9.59 62.76 8 62.79 C7.08 62.81 6.16 62.83 5.21 62.84 C2.96 62.86 2.96 62.86 1 64 C0.14 60.27 -0.12 56.84 -0.11 53.02 C-0.11 51.84 -0.11 50.65 -0.11 49.44 C-0.11 48.17 -0.1 46.91 -0.1 45.61 C-0.1 44.3 -0.09 43 -0.09 41.66 C-0.09 38.21 -0.08 34.76 -0.07 31.31 C-0.06 27.78 -0.05 24.25 -0.05 20.73 C-0.04 13.82 -0.02 6.91 0 0 Z " fill="#1AC6A9" transform="translate(371,675)"/>
<path d="M0 0 C3.44 10.37 3.44 10.37 3 16 C1.42 16.51 -0.17 17.01 -1.75 17.5 C-2.63 17.78 -3.51 18.06 -4.42 18.34 C-7 19 -7 19 -11 19 C-11.7 17.07 -12.38 15.13 -13.06 13.19 C-13.45 12.11 -13.83 11.03 -14.22 9.92 C-15 7 -15 7 -14 4 C-11.6 2.83 -11.6 2.83 -8.62 1.81 C-7.16 1.3 -7.16 1.3 -5.66 0.77 C-3 0 -3 0 0 0 Z " fill="#FFFFFF" transform="translate(461,645)"/>
<path d="M0 0 C0.7 1.91 1.38 3.83 2.06 5.75 C2.45 6.82 2.83 7.88 3.22 8.98 C4.37 13.44 4.37 13.44 3 16 C0.86 17.05 0.86 17.05 -1.81 17.75 C-2.69 17.99 -3.56 18.23 -4.46 18.48 C-7 19 -7 19 -11 19 C-11.7 16.88 -12.38 14.75 -13.06 12.62 C-13.45 11.44 -13.83 10.26 -14.22 9.04 C-15 6 -15 6 -14 4 C-11.6 2.93 -11.6 2.93 -8.62 1.88 C-7.65 1.52 -6.67 1.17 -5.66 0.8 C-3 0 -3 0 0 0 Z " fill="#FFFFFF" transform="translate(435,571)"/>
<path d="M0 0 C0.66 0.33 1.32 0.66 2 1 C0 4 0 4 -2.88 5.25 C-7.11 7.62 -7.96 9.62 -10 14 C-11.01 17.92 -11.14 21.64 -11.18 25.68 C-11.18 26.33 -11.19 26.99 -11.2 27.66 C-11.22 29.8 -11.23 31.94 -11.24 34.08 C-11.24 34.82 -11.25 35.55 -11.25 36.31 C-11.27 40.2 -11.29 44.1 -11.3 47.99 C-11.31 52 -11.34 56 -11.38 60 C-11.41 63.1 -11.41 66.19 -11.42 69.29 C-11.42 70.76 -11.43 72.24 -11.45 73.71 C-11.67 86.22 -11.67 86.22 -5.36 96.7 C-4.69 97.34 -4.69 97.34 -4 98 C-4.5 98.99 -4.5 98.99 -5 100 C-6.13 98.78 -7.26 97.55 -8.38 96.31 C-9 95.63 -9.63 94.94 -10.27 94.24 C-13.78 89.69 -14.25 85.69 -14.27 80.03 C-14.28 79.34 -14.28 78.66 -14.29 77.96 C-14.3 75.71 -14.3 73.47 -14.3 71.23 C-14.3 69.66 -14.31 68.09 -14.31 66.52 C-14.32 63.24 -14.32 59.96 -14.32 56.67 C-14.31 52.48 -14.33 48.28 -14.35 44.09 C-14.36 40.85 -14.37 37.61 -14.36 34.37 C-14.36 32.83 -14.37 31.28 -14.38 29.74 C-14.39 27.57 -14.38 25.4 -14.37 23.23 C-14.37 22 -14.37 20.77 -14.37 19.5 C-13.65 12.75 -10.7 7.8 -6 3 C-2.81 1.06 -2.81 1.06 0 0 Z " fill="#7BFEEF" transform="translate(454,897)"/>
<path d="M0 0 C14.19 0 28.38 0 43 0 C44.69 3.38 44.14 7.2 44.13 10.91 C44.13 11.79 44.13 12.68 44.14 13.58 C44.14 15.45 44.13 17.32 44.13 19.19 C44.13 22.05 44.13 24.92 44.14 27.79 C44.14 29.6 44.13 31.41 44.13 33.22 C44.13 34.09 44.14 34.95 44.14 35.84 C44.11 41.89 44.11 41.89 43 43 C41.65 43.09 40.29 43.12 38.94 43.11 C38.07 43.11 37.19 43.11 36.29 43.11 C34.91 43.11 34.91 43.11 33.5 43.1 C32.65 43.1 31.81 43.1 30.94 43.09 C27.77 43.09 24.6 43.08 21.44 43.06 C14.36 43.04 7.29 43.02 0 43 C0 28.81 0 14.62 0 0 Z M1 4 C0.73 6.84 0.65 9.45 0.71 12.29 C0.71 13.11 0.72 13.93 0.72 14.77 C0.74 17.39 0.77 20.01 0.81 22.62 C0.83 24.4 0.84 26.17 0.85 27.95 C0.89 32.3 0.94 36.65 1 41 C4.85 42.25 8.69 42.14 12.69 42.13 C13.43 42.13 14.17 42.13 14.93 42.14 C16.49 42.14 18.05 42.13 19.61 42.13 C21.99 42.13 24.37 42.13 26.76 42.14 C28.28 42.14 29.79 42.13 31.31 42.13 C32.38 42.14 32.38 42.14 33.47 42.14 C36.89 42.12 39.64 41.84 43 41 C43 28.13 43 15.26 43 2 C36.63 1.96 30.25 1.92 23.69 1.88 C21.68 1.86 19.67 1.84 17.6 1.82 C16.01 1.81 14.42 1.81 12.82 1.8 C12 1.79 11.17 1.78 10.32 1.77 C5.36 1.76 5.36 1.76 1 4 Z " fill="#25EDC9" transform="translate(604,144)"/>
<path d="M0 0 C4.62 0 9.24 0 14 0 C14 4.95 14 9.9 14 15 C9.38 15 4.76 15 0 15 C0 10.05 0 5.1 0 0 Z " fill="#FFFFFF" transform="translate(401,711)"/>
<path d="M0 0 C0.99 0.33 1.98 0.66 3 1 C1.58 1.37 1.58 1.37 0.12 1.75 C-3.06 2.66 -3.06 2.66 -4.19 4.94 C-4.46 5.62 -4.72 6.3 -5 7 C-5.5 7.43 -5.99 7.87 -6.5 8.31 C-10.47 12.78 -10.3 19.47 -10.32 25.14 C-10.33 25.92 -10.34 26.7 -10.35 27.51 C-10.38 30.07 -10.4 32.62 -10.41 35.18 C-10.43 36.97 -10.45 38.75 -10.47 40.53 C-10.52 45.21 -10.56 49.89 -10.6 54.57 C-10.64 59.35 -10.69 64.12 -10.74 68.9 C-10.84 78.27 -10.92 87.63 -11 97 C-13.33 93.34 -13.3 89.82 -13.29 85.62 C-13.3 84.88 -13.3 84.15 -13.31 83.39 C-13.33 80.95 -13.33 78.52 -13.34 76.08 C-13.34 74.38 -13.35 72.68 -13.36 70.98 C-13.37 67.42 -13.37 63.86 -13.37 60.29 C-13.37 55.75 -13.4 51.2 -13.43 46.65 C-13.45 43.14 -13.46 39.63 -13.46 36.12 C-13.46 34.44 -13.47 32.76 -13.48 31.09 C-13.64 12.4 -13.64 12.4 -7.15 4.84 C-6.56 4.4 -5.98 3.96 -5.38 3.5 C-4.78 3.04 -4.19 2.57 -3.59 2.09 C-2 1 -2 1 0 0 Z " fill="#E9E9E9" transform="translate(332,411)"/>
<path d="M0 0 C0.79 0.08 1.57 0.16 2.38 0.24 C4.44 0.69 4.44 0.69 6.44 2.69 C5.7 2.63 4.97 2.57 4.21 2.51 C-2 2.22 -2 2.22 -7.69 4.44 C-10.49 9.3 -10.47 14.16 -10.56 19.69 C-9.23 20.02 -7.9 20.35 -6.56 20.69 C-5.23 21.02 -3.9 21.35 -2.56 21.69 C-2.56 22.35 -2.56 23.01 -2.56 23.69 C-0.58 23.36 1.4 23.03 3.44 22.69 C3.44 22.03 3.44 21.37 3.44 20.69 C4.09 20.3 4.75 19.91 5.42 19.51 C7.8 17.76 7.8 17.76 7.83 14.33 C7.78 13.07 7.74 11.8 7.69 10.5 C7.63 8.59 7.63 8.59 7.58 6.64 C7.53 5.67 7.49 4.69 7.44 3.69 C10.56 6.67 11.38 7.97 11.75 12.44 C11.68 16.86 10.41 19.33 7.44 22.69 C3.42 25.52 0.3 26.18 -4.6 25.34 C-8.03 24.2 -10.02 22.23 -12.56 19.69 C-14.44 15.93 -14.22 11.77 -13.56 7.69 C-10.31 1.94 -6.7 -0.74 0 0 Z " fill="#1FF7D0" transform="translate(474.5625,918.3125)"/>
<path d="M0 0 C10.34 -0.05 20.69 -0.08 31.03 -0.1 C35.84 -0.11 40.64 -0.13 45.44 -0.15 C50.08 -0.17 54.72 -0.18 59.35 -0.19 C61.12 -0.19 62.89 -0.2 64.66 -0.21 C67.13 -0.23 69.61 -0.23 72.09 -0.23 C73.18 -0.24 73.18 -0.24 74.3 -0.25 C78.31 -0.23 81.39 0.22 85 2 C85 2.66 85 3.32 85 4 C83.84 3.84 82.69 3.68 81.49 3.51 C77.37 3 73.27 2.83 69.12 2.79 C68.37 2.78 67.63 2.77 66.87 2.76 C64.44 2.73 62.02 2.71 59.59 2.68 C57.9 2.66 56.21 2.64 54.52 2.62 C50.08 2.57 45.65 2.52 41.22 2.47 C36.69 2.42 32.16 2.36 27.62 2.31 C18.75 2.2 9.88 2.1 1 2 C0.67 1.34 0.34 0.68 0 0 Z " fill="#DFDFDF" transform="translate(335,410)"/>
<path d="M0 0 C0.66 0 1.32 0 2 0 C2 3.63 2 7.26 2 11 C24.77 11 47.54 11 71 11 C71 9.35 71 7.7 71 6 C71.33 6 71.66 6 72 6 C72 8.31 72 10.62 72 13 C62.76 13.02 53.52 13.04 44.28 13.05 C39.99 13.06 35.7 13.06 31.41 13.08 C27.27 13.09 23.14 13.09 19 13.09 C17.42 13.1 15.84 13.1 14.25 13.11 C12.05 13.11 9.84 13.11 7.63 13.11 C5.74 13.12 5.74 13.12 3.82 13.12 C1 13 1 13 0 12 C-0.07 9.98 -0.08 7.96 -0.06 5.94 C-0.05 4.83 -0.04 3.73 -0.04 2.59 C-0.02 1.74 -0.01 0.88 0 0 Z " fill="#DADADA" transform="translate(338,522)"/>
<path d="M0 0 C3.65 -0.03 7.29 -0.05 10.94 -0.06 C12.5 -0.08 12.5 -0.08 14.09 -0.09 C15.58 -0.09 15.58 -0.09 17.09 -0.1 C18.46 -0.11 18.46 -0.11 19.87 -0.11 C22 0 22 0 23 1 C23.09 2.53 23.12 4.07 23.11 5.61 C23.11 6.59 23.11 7.57 23.11 8.58 C23.11 9.65 23.1 10.72 23.1 11.82 C23.1 12.9 23.09 13.99 23.09 15.11 C23.09 18.59 23.08 22.08 23.06 25.56 C23.06 27.92 23.05 30.27 23.05 32.63 C23.04 38.42 23.02 44.21 23 50 C15.41 50 7.82 50 0 50 C0 49.34 0 48.68 0 48 C6.6 48 13.2 48 20 48 C20.33 32.82 20.66 17.64 21 2 C14.07 2 7.14 2 0 2 C0 1.34 0 0.68 0 0 Z " fill="#28EAC7" transform="translate(533,36)"/>
<path d="M0 0 C3.83 -0.15 7.67 -0.23 11.5 -0.31 C12.58 -0.35 13.66 -0.4 14.77 -0.44 C21.79 -0.55 26.66 0.22 32 5 C36.26 10.46 37.13 14.29 37.18 21.11 C37.19 22.2 37.19 22.2 37.2 23.3 C37.22 25.68 37.23 28.07 37.24 30.45 C37.24 31.27 37.25 32.09 37.25 32.93 C37.27 37.25 37.29 41.57 37.3 45.89 C37.31 50.34 37.34 54.79 37.38 59.24 C37.41 62.68 37.41 66.11 37.42 69.54 C37.42 71.18 37.43 72.82 37.45 74.46 C37.48 76.76 37.48 79.07 37.47 81.37 C37.48 82.68 37.48 83.98 37.49 85.33 C36.74 90.96 34.55 94.63 30.25 98.44 C29.51 98.95 28.76 99.47 28 100 C29.79 96.28 31.89 92.78 34.07 89.28 C35.35 86.15 35.29 83.45 35.32 80.08 C35.33 79.39 35.34 78.7 35.35 77.99 C35.38 75.72 35.4 73.45 35.41 71.18 C35.42 69.59 35.43 68 35.44 66.41 C35.46 63.09 35.47 59.76 35.48 56.43 C35.49 52.18 35.54 47.94 35.6 43.69 C35.63 40.41 35.64 37.14 35.65 33.86 C35.65 32.29 35.67 30.73 35.7 29.16 C35.82 20.98 35.84 14.33 30.55 7.58 C26.09 3.01 21.4 1.96 15.23 1.68 C14.34 1.64 13.46 1.6 12.54 1.56 C11.62 1.52 10.7 1.48 9.75 1.44 C8.81 1.39 7.88 1.35 6.91 1.31 C4.61 1.2 2.3 1.1 0 1 C0 0.67 0 0.34 0 0 Z " fill="#47FADA" transform="translate(644,897)"/>
<path d="M0 0 C0.99 1.49 0.99 1.49 2 3 C1.32 2.86 0.65 2.71 -0.05 2.56 C-0.94 2.38 -1.83 2.19 -2.75 2 C-3.63 1.81 -4.51 1.63 -5.42 1.44 C-8.22 0.89 -8.22 0.89 -12 1 C-12.33 2.32 -12.66 3.64 -13 5 C-13.66 5 -14.32 5 -15 5 C-15 28.1 -15 51.2 -15 75 C-15.66 74.67 -16.32 74.34 -17 74 C-16.99 72.8 -16.99 71.6 -16.98 70.36 C-16.97 65.91 -16.95 61.47 -16.95 57.02 C-16.94 55.09 -16.93 53.17 -16.92 51.24 C-16.91 48.48 -16.91 45.71 -16.9 42.95 C-16.9 42.08 -16.89 41.22 -16.89 40.33 C-16.76 36.03 -16.76 36.03 -18 32 C-17.85 31.17 -17.7 30.35 -17.55 29.5 C-17.09 26.59 -16.97 24.17 -17.04 21.25 C-17.06 20.39 -17.09 19.54 -17.11 18.66 C-17.16 16.89 -17.23 15.11 -17.3 13.34 C-17.42 7.73 -16.94 4.36 -13 0 C-8.7 -2.4 -4.24 -2.62 0 0 Z " fill="#E9526D" transform="translate(689,798)"/>
<path d="M0 0 C0.5 1.98 0.5 1.98 1 4 C-0.83 6.3 -2.38 7.72 -5.06 8.94 C-7.73 10.4 -8.5 12.38 -10 15 C-12.06 17.31 -12.06 17.31 -14 19 C-14.66 19 -15.32 19 -16 19 C-16.33 19.99 -16.66 20.98 -17 22 C-17.66 22 -18.32 22 -19 22 C-19.26 22.58 -19.53 23.16 -19.8 23.76 C-22.97 29.69 -29.08 36.7 -35 40 C-36.32 39.67 -37.64 39.34 -39 39 C-26.13 26.13 -13.26 13.26 0 0 Z " fill="#E31E3F" transform="translate(751,785)"/>
<path d="M0 0 C5.68 -0.02 11.36 -0.04 17.03 -0.05 C18.97 -0.06 20.9 -0.07 22.83 -0.08 C25.61 -0.09 28.38 -0.09 31.15 -0.1 C32.46 -0.11 32.46 -0.11 33.79 -0.11 C35.86 -0.11 37.93 -0.06 40 0 C41 1 41 1 41.11 4.33 C41.11 5.8 41.11 7.28 41.1 8.75 C41.1 9.53 41.09 10.3 41.09 11.1 C41.09 13.59 41.08 16.08 41.06 18.56 C41.06 20.24 41.05 21.93 41.05 23.61 C41.04 27.74 41.02 31.87 41 36 C40.34 36 39.68 36 39 36 C39 24.78 39 13.56 39 2 C36.35 2.02 33.7 2.05 30.98 2.07 C28.42 2.09 25.86 2.1 23.3 2.11 C21.52 2.12 19.74 2.13 17.96 2.15 C15.4 2.18 12.85 2.19 10.29 2.2 C9.49 2.21 8.69 2.22 7.87 2.23 C5.91 2.23 3.95 2.12 2 2 C1.34 1.34 0.68 0.68 0 0 Z " fill="#ECECEC" transform="translate(988,520)"/>
<path d="M0 0 C1.56 1.06 1.56 1.06 3 3 C2.74 6.57 2.13 9.6 1 13 C-5.88 18.59 -16.97 17.16 -25.38 17.17 C-26.54 17.17 -27.7 17.17 -28.9 17.18 C-31.35 17.18 -33.81 17.19 -36.26 17.19 C-39.99 17.19 -43.72 17.21 -47.45 17.22 C-49.84 17.23 -52.23 17.23 -54.62 17.23 C-55.73 17.24 -56.84 17.24 -57.98 17.25 C-64.3 17.23 -69.88 16.62 -76 15 C-72.45 13.89 -69.2 13.91 -65.49 13.98 C-64.84 13.99 -64.2 14 -63.53 14.01 C-61.41 14.04 -59.29 14.08 -57.17 14.12 C-55.7 14.15 -54.22 14.17 -52.75 14.19 C-48.88 14.26 -45 14.32 -41.13 14.39 C-37.18 14.47 -33.22 14.53 -29.27 14.6 C-21.51 14.72 -13.76 14.86 -6 15 C-6 14.01 -6 13.02 -6 12 C-4.35 12 -2.7 12 -1 12 C-0.83 10.38 -0.67 8.75 -0.5 7.12 C-0.41 6.22 -0.31 5.32 -0.22 4.38 C0.03 2.07 0.03 2.07 0 0 Z " fill="#A36D79" transform="translate(752,862)"/>
<path d="M0 0 C3.83 3.83 3.15 9.16 3.19 14.3 C3.19 15.23 3.19 16.16 3.19 17.12 C3.19 18.09 3.19 19.05 3.19 20.04 C3.12 29.47 2.15 38.64 1 48 C-5.27 48 -11.54 48 -18 48 C-18 47.34 -18 46.68 -18 46 C-12.06 46 -6.12 46 0 46 C0 30.82 0 15.64 0 0 Z " fill="#8EF1E5" transform="translate(440,703)"/>
<path d="M0 0 C0.56 1.94 0.56 1.94 1 4 C0.67 4.33 0.34 4.66 0 5 C0 7.06 0 9.13 0.06 11.19 C0.01 13.53 -0.2 15.71 -0.5 18.03 C-1.07 23.12 -1.14 28.15 -1.13 33.27 C-1.13 34.22 -1.13 35.18 -1.14 36.16 C-1.14 38.17 -1.13 40.18 -1.13 42.19 C-1.13 45.23 -1.13 48.26 -1.14 51.3 C-1.14 61.25 -1.04 71.1 0 81 C-3.19 77.56 -3.38 75.07 -3.39 70.45 C-3.39 69.8 -3.4 69.15 -3.4 68.48 C-3.42 66.34 -3.41 64.19 -3.4 62.05 C-3.4 60.55 -3.4 59.06 -3.41 57.56 C-3.41 54.42 -3.41 51.28 -3.39 48.14 C-3.37 44.14 -3.38 40.13 -3.4 36.13 C-3.41 33.04 -3.41 29.94 -3.4 26.85 C-3.4 25.37 -3.4 23.9 -3.41 22.42 C-3.44 14.42 -3.13 7.47 0 0 Z " fill="#1EF2C8" transform="translate(445,907)"/>
<path d="M0 0 C1.58 0.01 3.16 0.02 4.75 0.04 C5.55 0.04 6.36 0.04 7.19 0.05 C9.19 0.06 11.19 0.08 13.18 0.1 C12.85 0.76 12.52 1.42 12.18 2.1 C7.23 2.1 2.28 2.1 -2.82 2.1 C-2.82 14.97 -2.82 27.84 -2.82 41.1 C-3.48 41.1 -4.14 41.1 -4.82 41.1 C-4.84 35.42 -4.86 29.74 -4.87 24.06 C-4.88 22.13 -4.88 20.2 -4.89 18.26 C-4.9 15.49 -4.91 12.72 -4.91 9.95 C-4.92 9.08 -4.92 8.21 -4.93 7.31 C-4.93 5.24 -4.88 3.17 -4.82 1.1 C-3.82 0.1 -3.82 0.1 0 0 Z " fill="#E6E6E6" transform="translate(977.81640625,624.90234375)"/>
<path d="M0 0 C11.22 0 22.44 0 34 0 C34 12.87 34 25.74 34 39 C32.68 38.67 31.36 38.34 30 38 C30.33 37.67 30.66 37.34 31 37 C31.15 34.77 31.23 32.53 31.28 30.3 C31.3 29.62 31.32 28.95 31.34 28.25 C31.4 26.08 31.45 23.92 31.5 21.75 C31.55 19.6 31.6 17.44 31.66 15.29 C31.72 13.33 31.76 11.36 31.81 9.4 C32 6 32 6 33 1 C22.11 1 11.22 1 0 1 C0 0.67 0 0.34 0 0 Z " fill="#10F8CA" transform="translate(613,146)"/>
<path d="M0 0 C7.26 -0.08 14.52 -0.13 21.78 -0.16 C24.24 -0.18 26.71 -0.2 29.18 -0.23 C32.73 -0.26 36.29 -0.28 39.84 -0.29 C41.49 -0.32 41.49 -0.32 43.17 -0.34 C50.54 -0.34 56.73 0.13 62.5 5.19 C63 5.79 63.49 6.38 64 7 C63.67 7.66 63.34 8.32 63 9 C62.01 8.67 61.02 8.34 60 8 C59.5 7.01 59.5 7.01 59 6 C56.68 4.97 54.35 3.96 52 3 C51.5 2.5 51.5 2.5 51 2 C48.51 1.92 46.05 1.91 43.55 1.94 C42.79 1.94 42.03 1.95 41.25 1.95 C37.98 1.97 34.72 1.99 31.46 2.02 C20.92 2.1 10.51 1.88 0 1 C0 0.67 0 0.34 0 0 Z " fill="#14EFC9" transform="translate(612,898)"/>
<path d="M0 0 C14.19 0 28.38 0 43 0 C43 0.66 43 1.32 43 2 C41.26 2.02 41.26 2.02 39.48 2.04 C35.17 2.1 30.87 2.18 26.56 2.26 C24.69 2.3 22.83 2.32 20.96 2.35 C18.28 2.38 15.6 2.43 12.92 2.49 C12.09 2.49 11.26 2.5 10.4 2.51 C6.04 2.62 3.22 2.72 0 6 C0 4.02 0 2.04 0 0 Z " fill="#31E8BF" transform="translate(604,144)"/>
<path d="M0 0 C0.99 0.33 1.98 0.66 3 1 C2.38 1.6 1.76 2.2 1.12 2.81 C-1.14 5.01 -1.14 5.01 -3 8 C-2.84 11.61 -2.84 11.61 -2 15 C-1.34 15.33 -0.68 15.66 0 16 C0 16.66 0 17.32 0 18 C0.66 18 1.32 18 2 18 C2 18.66 2 19.32 2 20 C9.03 21.04 9.03 21.04 16 20 C14.11 22.55 12.88 23.03 9.75 23.88 C4.22 24.06 0.75 22.48 -3.44 18.94 C-5.73 14.64 -5.92 10.77 -5 6 C-3.57 3.5 -2.12 2.01 0 0 Z " fill="#1AF7CC" transform="translate(496,920)"/>
<path d="M0 0 C13.86 0.33 27.72 0.66 42 1 C42 1.99 42 2.98 42 4 C36.84 3.88 31.68 3.76 26.52 3.63 C24.77 3.58 23.01 3.54 21.26 3.5 C18.73 3.44 16.21 3.38 13.68 3.32 C12.9 3.3 12.12 3.28 11.32 3.27 C7.12 3.15 3.13 2.81 -1 2 C-0.67 1.34 -0.34 0.68 0 0 Z " fill="#2FE7BD" transform="translate(440,143)"/>
<path d="M0 0 C2.8 2.67 3.96 3.98 4.12 7.97 C4.12 9.89 4.12 9.89 4.11 11.84 C4.11 12.54 4.11 13.24 4.11 13.97 C4.11 16.29 4.11 18.62 4.1 20.95 C4.1 22.56 4.09 24.17 4.09 25.78 C4.09 30.02 4.08 34.27 4.07 38.51 C4.06 42.84 4.05 47.17 4.05 51.5 C4.04 60 4.02 68.5 4 77 C3.67 77 3.34 77 3 77 C2.99 76.13 2.98 75.26 2.98 74.36 C2.9 66.17 2.81 57.97 2.71 49.77 C2.66 45.56 2.62 41.35 2.58 37.13 C2.54 33.07 2.49 29 2.44 24.94 C2.42 23.39 2.41 21.83 2.4 20.28 C2.38 18.11 2.35 15.94 2.32 13.77 C2.31 12.53 2.29 11.29 2.28 10.02 C2.23 6.82 2.23 6.82 0 4 C0 2.68 0 1.36 0 0 Z " fill="#21F3CE" transform="translate(676,907)"/>
<path d="M0 0 C0.33 0 0.66 0 1 0 C1 13.53 1 27.06 1 41 C-0.49 41.5 -0.49 41.5 -2 42 C-1.88 36.18 -1.76 30.36 -1.63 24.54 C-1.58 22.56 -1.54 20.57 -1.5 18.59 C-1.45 15.75 -1.38 12.91 -1.32 10.07 C-1.3 9.17 -1.28 8.28 -1.27 7.36 C-1.11 1.11 -1.11 1.11 0 0 Z " fill="#F0F0F0" transform="translate(926,616)"/>
<path d="M0 0 C0.33 0 0.66 0 1 0 C1.01 0.86 1.01 1.71 1.02 2.59 C1.08 10.66 1.15 18.72 1.24 26.78 C1.28 30.93 1.32 35.07 1.35 39.22 C1.37 43.22 1.41 47.22 1.46 51.22 C1.48 52.75 1.49 54.27 1.5 55.8 C1.51 57.94 1.54 60.07 1.57 62.21 C1.58 63.43 1.59 64.65 1.6 65.9 C2.03 69.21 2.75 70.59 5 73 C3.35 72.67 1.7 72.34 0 72 C0 48.24 0 24.48 0 0 Z " fill="#E80D35" transform="translate(674,803)"/>
<path d="M0 0 C0.99 1.49 0.99 1.49 2 3 C1.32 2.86 0.65 2.71 -0.05 2.56 C-0.94 2.38 -1.83 2.19 -2.75 2 C-3.63 1.81 -4.51 1.63 -5.42 1.44 C-8.22 0.89 -8.22 0.89 -12 1 C-12.33 2.32 -12.66 3.64 -13 5 C-13.66 5 -14.32 5 -15 5 C-15 11.93 -15 18.86 -15 26 C-17.11 21.77 -17.37 18.71 -17.38 14.12 C-17.4 13.43 -17.42 12.74 -17.45 12.02 C-17.48 6.86 -16.35 3.9 -13 0 C-8.7 -2.4 -4.24 -2.62 0 0 Z " fill="#DC566F" transform="translate(689,798)"/>
<path d="M0 0 C0.33 0.66 0.66 1.32 1 2 C-2.3 2 -5.6 2 -9 2 C-9.33 2.99 -9.66 3.98 -10 5 C-10.66 5 -11.32 5 -12 5 C-12.08 5.58 -12.16 6.15 -12.25 6.75 C-13.23 9.68 -14.64 11.05 -17 13 C-17.99 13 -18.98 13 -20 13 C-20.33 14.32 -20.66 15.64 -21 17 C-22.65 17.33 -24.3 17.66 -26 18 C-25.07 16.85 -24.13 15.7 -23.19 14.56 C-22.67 13.92 -22.14 13.29 -21.61 12.63 C-20 11 -20 11 -17 10 C-16.3 8.68 -15.63 7.35 -15 6 C-10.43 0.62 -6.96 -0.73 0 0 Z " fill="#E43B59" transform="translate(789,756)"/>
<path d="M0 0 C0 3 0 3 -1.36 4.65 C-1.96 5.22 -2.56 5.79 -3.19 6.38 C-3.83 6.99 -4.46 7.6 -5.12 8.23 C-5.74 8.81 -6.36 9.4 -7 10 C-7.91 10.91 -8.82 11.82 -9.75 12.75 C-10.49 13.49 -11.24 14.24 -12 15 C-12.52 15.62 -13.03 16.24 -13.56 16.88 C-14.27 17.43 -14.27 17.43 -15 18 C-17.09 17.57 -17.09 17.57 -19 17 C-16.59 14.53 -14.17 12.08 -11.75 9.62 C-11.07 8.93 -10.39 8.23 -9.68 7.51 C-9.02 6.84 -8.36 6.17 -7.67 5.48 C-7.06 4.86 -6.46 4.24 -5.83 3.6 C-3.98 1.98 -2.24 0.99 0 0 Z " fill="#E9193C" transform="translate(731,807)"/>
<path d="M0 0 C3.83 -0.15 7.67 -0.23 11.5 -0.31 C12.58 -0.35 13.66 -0.4 14.77 -0.44 C21.82 -0.55 26.61 0.25 32 5 C35.56 9.2 36.56 12.54 37 18 C35.86 16.3 34.74 14.58 33.67 12.84 C30.5 7.83 28.07 4.19 22.15 2.46 C19.82 1.96 17.62 1.79 15.23 1.68 C14.34 1.64 13.46 1.6 12.54 1.56 C11.62 1.52 10.7 1.48 9.75 1.44 C8.81 1.39 7.88 1.35 6.91 1.31 C4.61 1.2 2.3 1.1 0 1 C0 0.67 0 0.34 0 0 Z " fill="#62FEE8" transform="translate(644,897)"/>
<path d="M0 0 C0.66 0.33 1.32 0.66 2 1 C0 4 0 4 -2.88 5.25 C-7.01 7.57 -7.94 9.79 -10 14 C-10.66 14 -11.32 14 -12 14 C-12.33 14.66 -12.66 15.32 -13 16 C-12.71 10.11 -10.21 6.86 -6 3 C-2.75 1 -2.75 1 0 0 Z " fill="#92FEF6" transform="translate(454,897)"/>
<path d="M0 0 C0.66 0.33 1.32 0.66 2 1 C-4.27 7.27 -10.54 13.54 -17 20 C-17 17 -17 17 -15.12 15 C-14.42 14.34 -13.72 13.68 -13 13 C-12.34 12.01 -11.68 11.02 -11 10 C-9.23 8.43 -7.4 6.97 -5.56 5.5 C-3.73 3.98 -3.73 3.98 -3 1 C-2.01 0.67 -1.02 0.34 0 0 Z " fill="#E8203F" transform="translate(736,827)"/>
<path d="M0 0 C14.19 0 28.38 0 43 0 C43 0.33 43 0.66 43 1 C28.81 1 14.62 1 0 1 C0 0.67 0 0.34 0 0 Z " fill="#EEEEEE" transform="translate(746,485)"/>
<path d="M0 0 C13.2 0 26.4 0 40 0 C40 0.33 40 0.66 40 1 C26.8 1 13.6 1 0 1 C0 0.67 0 0.34 0 0 Z " fill="#717171" transform="translate(1057,578)"/>
<path d="M0 0 C1.56 1.06 1.56 1.06 3 3 C2.74 6.57 2.13 9.6 1 13 C-2 15 -2 15 -6 15 C-6 14.01 -6 13.02 -6 12 C-4.35 12 -2.7 12 -1 12 C-0.83 10.38 -0.67 8.75 -0.5 7.12 C-0.41 6.22 -0.31 5.32 -0.22 4.38 C0.03 2.07 0.03 2.07 0 0 Z " fill="#C64E60" transform="translate(752,862)"/>
<path d="M0 0 C3.09 2.32 4.77 3.6 5.4 7.49 C5.44 10.06 5.43 12.46 5 15 C4.34 15.66 3.68 16.32 3 17 C3 13.04 3 9.08 3 5 C2.34 5 1.68 5 1 5 C0.67 3.35 0.34 1.7 0 0 Z " fill="#25F4CC" transform="translate(511,921)"/>
<path d="M0 0 C0.66 0 1.32 0 2 0 C0.46 3.46 -1.4 6.25 -4 9 C-6.75 9.81 -6.75 9.81 -9 10 C-9 9.34 -9 8.68 -9 8 C-8.36 7.9 -7.72 7.79 -7.06 7.69 C-6.38 7.46 -5.7 7.23 -5 7 C-4.67 6.01 -4.34 5.02 -4 4 C-3.34 4 -2.68 4 -2 4 C-1.34 2.68 -0.68 1.36 0 0 Z " fill="#1BF9CF" transform="translate(675,989)"/>
<path d="M0 0 C0.99 0 1.98 0 3 0 C3 0.66 3 1.32 3 2 C-2.48 7 -2.48 7 -5 7 C-5.25 7.6 -5.5 8.2 -5.75 8.81 C-7.16 11.29 -8.65 12.43 -11 14 C-9.44 10.16 -6.94 7.87 -4 5 C-3.3 4.07 -2.6 3.14 -1.88 2.19 C-1.26 1.47 -0.64 0.74 0 0 Z " fill="#E42A49" transform="translate(768,794)"/>
<path d="M0 0 C0.66 0.33 1.32 0.66 2 1 C-1.96 4.96 -5.92 8.92 -10 13 C-10.33 12.01 -10.66 11.02 -11 10 C-10.2 9.38 -9.39 8.76 -8.56 8.12 C-5.96 6.26 -5.96 6.26 -5 4 C-4.34 4 -3.68 4 -3 4 C-3 3.34 -3 2.68 -3 2 C-2.01 1.34 -1.02 0.68 0 0 Z " fill="#EA1A39" transform="translate(749,814)"/>
<path d="M0 0 C0.33 1.32 0.66 2.64 1 4 C0.16 4.62 0.16 4.62 -0.69 5.25 C-3.16 7.12 -5.58 9.05 -8 11 C-8.66 10.67 -9.32 10.34 -10 10 C-6.7 6.7 -3.4 3.4 0 0 Z " fill="#E0314C" transform="translate(762,774)"/>
<path d="M0 0 C4.43 1.21 6.98 2.52 10 6 C9.67 6.66 9.34 7.32 9 8 C8.01 7.67 7.02 7.34 6 7 C5.67 6.34 5.34 5.68 5 5 C4.15 4.5 3.31 4.01 2.44 3.5 C1.63 3 0.83 2.51 0 2 C0 1.34 0 0.68 0 0 Z " fill="#25F3CE" transform="translate(666,899)"/>
<path d="M0 0 C0.66 0 1.32 0 2 0 C2.05 2.29 2.09 4.58 2.12 6.88 C2.15 8.15 2.17 9.43 2.2 10.74 C2 14 2 14 0 16 C0.03 13.98 0.07 11.96 0.1 9.95 C0.13 7.92 0.13 7.92 -1 6 C-0.72 3.99 -0.39 1.99 0 0 Z " fill="#E9657D" transform="translate(672,824)"/>
<path d="M0 0 C0.66 0 1.32 0 2 0 C2.25 0.54 2.51 1.09 2.77 1.64 C3.11 2.36 3.46 3.08 3.81 3.81 C4.15 4.52 4.49 5.23 4.83 5.96 C6.01 8.01 7.26 9.42 9 11 C8.67 11.66 8.34 12.32 8 13 C6.84 11.78 5.7 10.55 4.56 9.31 C3.92 8.63 3.29 7.94 2.63 7.24 C0.84 4.78 0.37 2.99 0 0 Z " fill="#77FFEF" transform="translate(441,984)"/>
<path d="M0 0 C0.99 0.33 1.98 0.66 3 1 C0.16 3.84 -3.13 3.9 -7 4 C-7.99 3.67 -8.98 3.34 -10 3 C-10 2.34 -10 1.68 -10 1 C-7.98 1.03 -5.96 1.07 -3.95 1.1 C-1.92 1.13 -1.92 1.13 0 0 Z " fill="#27FAD9" transform="translate(478,940)"/>
<path d="M0 0 C8.91 0 17.82 0 27 0 C27 0.33 27 0.66 27 1 C18.09 1 9.18 1 0 1 C0 0.67 0 0.34 0 0 Z " fill="#FCFEFE" transform="translate(833,800)"/>
<path d="M0 0 C0.33 0 0.66 0 1 0 C1.06 1.12 1.12 2.24 1.18 3.39 C1.27 4.87 1.35 6.34 1.44 7.81 C1.48 8.55 1.52 9.29 1.56 10.05 C1.74 13.23 1.99 15.96 3 19 C2.01 19 1.02 19 0 19 C0 12.73 0 6.46 0 0 Z " fill="#2AFED7" transform="translate(483,956)"/>
<path d="M0 0 C2.31 1.31 2.31 1.31 4.31 4.31 C2.69 4 1.06 3.69 -0.56 3.38 C-1.47 3.2 -2.37 3.03 -3.3 2.85 C-5.69 2.31 -5.69 2.31 -7.69 1.31 C-4.72 -0.22 -3.29 -0.84 0 0 Z " fill="#CE4058" transform="translate(686.6875,796.6875)"/>
<path d="M0 0 C0.66 0.33 1.32 0.66 2 1 C2 1.66 2 2.32 2 3 C1.01 3 0.02 3 -1 3 C-1.33 4.32 -1.66 5.64 -2 7 C-3.65 7.33 -5.3 7.66 -7 8 C-6.02 6.85 -5.04 5.71 -4.06 4.56 C-3.52 3.92 -2.97 3.29 -2.41 2.63 C-1.63 1.73 -0.84 0.84 0 0 Z " fill="#D8475F" transform="translate(770,766)"/>
<path d="M0 0 C0 3.22 -0.16 4.41 -2 7 C-5.12 8.25 -5.12 8.25 -8 9 C-7.04 7.87 -6.08 6.75 -5.12 5.62 C-4.59 5 -4.06 4.37 -3.51 3.73 C-2.39 2.44 -1.21 1.21 0 0 Z " fill="#E02B49" transform="translate(736,800)"/>
<path d="M0 0 C0.66 0 1.32 0 2 0 C2 2.31 2 4.62 2 7 C1.01 7.5 1.01 7.5 0 8 C-1.12 2.25 -1.12 2.25 0 0 Z " fill="#DDF7F7" transform="translate(357,660)"/>
<path d="M0 0 C3.96 0 7.92 0 12 0 C12 0.33 12 0.66 12 1 C8.04 1 4.08 1 0 1 C0 0.67 0 0.34 0 0 Z " fill="#F5F5F5" transform="translate(805,668)"/>
<path d="M0 0 C2.97 0 5.94 0 9 0 C9 0.33 9 0.66 9 1 C6.03 1 3.06 1 0 1 C0 0.67 0 0.34 0 0 Z " fill="#F4F4F4" transform="translate(723,641)"/>
<path d="M0 0 C2.64 0 5.28 0 8 0 C8 0.33 8 0.66 8 1 C5.36 1 2.72 1 0 1 C0 0.67 0 0.34 0 0 Z " fill="#FDFDFD" transform="translate(936,751)"/>
<path d="M0 0 C2.31 0 4.62 0 7 0 C7 0.33 7 0.66 7 1 C4.69 1 2.38 1 0 1 C0 0.67 0 0.34 0 0 Z " fill="#FCFBFC" transform="translate(913,751)"/>
<path d="M0 0 C2.31 0 4.62 0 7 0 C7 0.33 7 0.66 7 1 C4.69 1 2.38 1 0 1 C0 0.67 0 0.34 0 0 Z " fill="#F2F2F2" transform="translate(912,609)"/>
<path d="M0 0 C1.98 0 3.96 0 6 0 C6 0.33 6 0.66 6 1 C4.02 1 2.04 1 0 1 C0 0.67 0 0.34 0 0 Z " fill="#F5F5F5" transform="translate(833,668)"/>
<path d="M0 0 C4 1 4 1 4 1 Z " fill="#F6F6F6" transform="translate(892,609)"/>
<path d="M0 0 C3 1 3 1 3 1 Z " fill="#F8F8F8" transform="translate(751,641)"/>
<path d="M0 0 C2 1 2 1 2 1 Z " fill="#F6F6F6" transform="translate(833,485)"/>
<path d="" fill="#ADFCEF" transform="translate(0,0)"/>
<path d="" fill="#ABFFF2" transform="translate(0,0)"/>
<path d="" fill="#FFFFFF" transform="translate(0,0)"/>
<path d="" fill="#E6EAEB" transform="translate(0,0)"/>
<path d="" fill="#ECECEE" transform="translate(0,0)"/>
<path d="" fill="#EEE4EA" transform="translate(0,0)"/>
<path d="" fill="#F7DCE7" transform="translate(0,0)"/>
<path d="" fill="#9B9B9B" transform="translate(0,0)"/>
<path d="" fill="#A1A1A1" transform="translate(0,0)"/>
<path d="" fill="#979797" transform="translate(0,0)"/>
<path d="" fill="#C8EDEE" transform="translate(0,0)"/>
<path d="" fill="#FDFFFD" transform="translate(0,0)"/>
<path d="" fill="#F5CDD2" transform="translate(0,0)"/>
<path d="" fill="#AEF7E8" transform="translate(0,0)"/>
<path d="" fill="#D9FFF8" transform="translate(0,0)"/>
<path d="" fill="#C0EDEE" transform="translate(0,0)"/>
<path d="" fill="#9E9E9E" transform="translate(0,0)"/>
<path d="" fill="#727272" transform="translate(0,0)"/>
<path d="" fill="#959595" transform="translate(0,0)"/>
<path d="" fill="#F6F6F6" transform="translate(0,0)"/>
<path d="" fill="#F9F9F9" transform="translate(0,0)"/>
<path d="" fill="#F3F3F3" transform="translate(0,0)"/>
<path d="" fill="#F8F8F8" transform="translate(0,0)"/>
<path d="" fill="#FEFEFE" transform="translate(0,0)"/>
<path d="" fill="#FDFDFD" transform="translate(0,0)"/>
<path d="" fill="#FAFAFA" transform="translate(0,0)"/>
<path d="" fill="#FCFBFC" transform="translate(0,0)"/>
<path d="" fill="#F7F7F7" transform="translate(0,0)"/>
<path d="" fill="#FAFAFA" transform="translate(0,0)"/>
<path d="" fill="#FDFDFD" transform="translate(0,0)"/>
<path d="" fill="#FCFBFC" transform="translate(0,0)"/>
<path d="" fill="#EFEFEF" transform="translate(0,0)"/>
<path d="" fill="#F8F8F8" transform="translate(0,0)"/>
<path d="" fill="#FAFAFA" transform="translate(0,0)"/>
<path d="" fill="#FAFAFA" transform="translate(0,0)"/>
<path d="" fill="#FCFBFC" transform="translate(0,0)"/>
</svg>
