<?xml version="1.0" encoding="UTF-8"?>
<!-- Generator: visioncortex VTracer 0.6.4 -->
<svg version="1.1" xmlns="http://www.w3.org/2000/svg" width="1142" height="1045">
<path d="M0 0 C1.28 -0.01 2.56 -0.02 3.89 -0.02 C5.31 -0.02 6.73 -0.02 8.15 -0.02 C9.66 -0.02 11.17 -0.03 12.68 -0.04 C16.83 -0.05 20.99 -0.06 25.14 -0.06 C29.62 -0.06 34.1 -0.08 38.58 -0.09 C48.38 -0.12 58.17 -0.13 67.97 -0.14 C74.08 -0.14 80.2 -0.15 86.32 -0.16 C103.25 -0.18 120.19 -0.21 137.13 -0.21 C138.75 -0.21 138.75 -0.21 140.41 -0.21 C141.5 -0.21 142.58 -0.21 143.7 -0.21 C145.9 -0.22 148.11 -0.22 150.31 -0.22 C151.4 -0.22 152.49 -0.22 153.62 -0.22 C171.31 -0.23 189.01 -0.26 206.7 -0.31 C224.87 -0.36 243.04 -0.38 261.21 -0.38 C271.41 -0.38 281.61 -0.4 291.81 -0.43 C300.5 -0.46 309.18 -0.47 317.87 -0.46 C322.3 -0.45 326.73 -0.45 331.16 -0.48 C335.22 -0.5 339.28 -0.5 343.34 -0.48 C344.8 -0.47 346.27 -0.48 347.73 -0.5 C356.84 -0.6 363.56 0.26 370.68 6.26 C374.77 10.74 376.83 14.87 376.74 20.95 C376.73 21.76 376.73 22.57 376.72 23.4 C376.7 24.32 376.7 24.32 376.68 25.26 C377.31 25.22 377.94 25.17 378.59 25.12 C384.91 24.86 389.53 25.44 394.68 29.26 C401.48 35.68 403.75 41.12 404.68 50.26 C405.24 50.22 405.79 50.17 406.37 50.12 C412.4 49.84 416.75 50.67 421.68 54.26 C426.91 59.19 430.69 63.87 430.94 71.28 C430.95 72.89 430.95 74.51 430.95 76.12 C430.95 77.02 430.96 77.91 430.96 78.83 C430.97 81.82 430.97 84.81 430.97 87.81 C430.98 89.95 430.98 92.1 430.99 94.24 C431.01 100.07 431.01 105.9 431.02 111.73 C431.02 116.59 431.02 121.46 431.03 126.33 C431.05 137.81 431.05 149.29 431.05 160.77 C431.05 172.61 431.07 184.45 431.1 196.29 C431.13 206.46 431.14 216.63 431.14 226.8 C431.14 232.87 431.14 238.94 431.17 245.01 C431.18 250.72 431.18 256.44 431.17 262.15 C431.17 264.24 431.17 266.34 431.18 268.43 C431.2 271.29 431.19 274.16 431.18 277.02 C431.19 277.85 431.2 278.67 431.21 279.52 C431.12 286.56 428.87 291.59 424.43 297.01 C416.26 303.7 409.18 303.84 398.95 303.77 C397.45 303.78 395.95 303.78 394.45 303.79 C390.33 303.81 386.21 303.8 382.1 303.79 C377.65 303.78 373.21 303.79 368.76 303.8 C360.06 303.82 351.36 303.82 342.66 303.8 C335.58 303.79 328.51 303.79 321.44 303.8 C320.43 303.8 319.43 303.8 318.39 303.8 C316.34 303.8 314.3 303.8 312.25 303.8 C293.07 303.82 273.9 303.8 254.72 303.78 C238.27 303.76 221.82 303.77 205.36 303.78 C186.25 303.81 167.15 303.81 148.04 303.8 C146 303.8 143.96 303.8 141.92 303.8 C140.92 303.8 139.92 303.8 138.88 303.8 C131.82 303.79 124.76 303.8 117.69 303.81 C109.08 303.82 100.48 303.82 91.87 303.79 C87.48 303.78 83.08 303.78 78.69 303.79 C74.67 303.81 70.65 303.8 66.63 303.78 C65.17 303.77 63.72 303.78 62.27 303.79 C52.68 303.84 46.51 303.21 38.93 297.01 C33.74 290.67 32 285.46 32.68 277.26 C31.98 277.31 31.28 277.36 30.56 277.4 C24.62 277.63 20.49 277.28 15.34 274.24 C13.53 273.1 13.53 273.1 10.68 272.26 C6.28 266.17 3.83 260.77 4.68 253.26 C4 253.26 3.33 253.26 2.63 253.26 C-4.99 252.94 -10.36 251.08 -16.32 246.26 C-21.68 240.43 -22.47 235.27 -22.47 227.6 C-22.47 226.71 -22.47 225.81 -22.48 224.89 C-22.49 221.88 -22.49 218.87 -22.5 215.85 C-22.5 213.7 -22.51 211.54 -22.52 209.39 C-22.53 203.53 -22.54 197.66 -22.55 191.8 C-22.56 188.14 -22.56 184.47 -22.57 180.81 C-22.59 169.35 -22.6 157.9 -22.61 146.44 C-22.62 133.21 -22.65 119.98 -22.69 106.75 C-22.72 96.53 -22.73 86.3 -22.74 76.08 C-22.74 69.97 -22.75 63.87 -22.77 57.76 C-22.8 52.01 -22.8 46.27 -22.79 40.52 C-22.79 38.41 -22.8 36.31 -22.81 34.2 C-22.83 31.32 -22.82 28.44 -22.81 25.56 C-22.82 24.31 -22.82 24.31 -22.84 23.04 C-22.77 16.45 -20.91 11.26 -16.57 6.24 C-16.01 5.79 -15.46 5.35 -14.88 4.89 C-14.33 4.43 -13.77 3.96 -13.2 3.49 C-8.87 0.66 -5.12 0.01 0 0 Z M-5.32 18.26 C-6.49 21.76 -6.45 24.89 -6.44 28.53 C-6.44 29.28 -6.44 30.02 -6.44 30.79 C-6.44 33.3 -6.44 35.8 -6.43 38.31 C-6.43 40.1 -6.43 41.9 -6.43 43.69 C-6.43 48.57 -6.43 53.44 -6.42 58.32 C-6.41 63.41 -6.41 68.5 -6.41 73.6 C-6.41 83.24 -6.4 92.89 -6.39 102.54 C-6.38 113.52 -6.37 124.5 -6.37 135.48 C-6.36 158.08 -6.34 180.67 -6.32 203.26 C2.92 202.93 12.16 202.6 21.68 202.26 C18.22 196.82 18.22 196.82 14.68 191.26 C6.38 176.62 2.37 163.49 2.24 146.58 C2.23 144.88 2.23 144.88 2.21 143.16 C2.4 125.33 8.91 108.47 21.69 95.89 C26.62 91.57 31.86 88.29 37.68 85.26 C38.47 84.84 39.25 84.42 40.06 83.99 C48.32 80.16 57.75 79.47 66.68 78.26 C62.77 70.81 57.93 64.96 52.17 58.93 C50.16 56.78 48.38 54.66 46.68 52.26 C47.94 50.78 49.22 49.3 50.49 47.83 C51.56 46.59 51.56 46.59 52.64 45.33 C54.68 43.26 54.68 43.26 57.68 42.26 C57.91 42.82 58.13 43.38 58.37 43.95 C59.69 46.27 61.2 47.87 63.11 49.7 C65.85 52.43 68.36 55.37 70.91 58.27 C72.13 59.64 73.39 60.97 74.68 62.26 C75.08 61.56 75.48 60.86 75.9 60.14 C82.72 48.75 91.18 40.76 104.23 37.33 C112.01 35.67 119.74 34.74 127.68 34.26 C127.74 37.74 127.77 41.22 127.81 44.7 C127.82 45.67 127.84 46.65 127.86 47.65 C127.95 61.84 123.36 73.03 114.68 84.26 C115.26 84.5 115.85 84.73 116.45 84.97 C132 91.89 142.14 105.15 148.39 120.63 C156.07 142.28 153.29 163.75 143.68 184.26 C140.36 190.52 136.61 196.37 132.68 202.26 C161.06 202.26 189.44 202.26 218.68 202.26 C216.37 198.63 214.06 195 211.68 191.26 C210.22 188.67 208.82 186.11 207.49 183.45 C207.16 182.78 206.82 182.11 206.48 181.42 C197.9 163.66 195.8 143.17 201.68 124.26 C205.15 114.38 209.48 105.98 216.68 98.26 C217.27 97.61 217.86 96.95 218.46 96.28 C230.26 83.73 246.27 80.53 262.68 78.26 C259.09 68.22 251.32 60.43 243.68 53.26 C249.65 44.63 249.65 44.63 254.68 42.26 C254.92 42.83 255.16 43.4 255.41 43.99 C256.93 46.7 258.74 48.44 260.99 50.58 C264.76 54.24 267.79 57.88 270.68 62.26 C272.15 60.32 273.61 58.37 275.01 56.37 C283.75 44.07 294.16 38.47 308.9 35.82 C314.15 35.05 319.38 34.55 324.68 34.26 C325.03 54.28 323.18 67.31 311.68 84.26 C323.97 87.34 337.01 85.26 349.68 85.26 C349.68 115.95 349.68 146.64 349.68 178.26 C347.7 178.26 345.72 178.26 343.68 178.26 C343.17 179.24 342.67 180.22 342.14 181.23 C341.45 182.55 340.75 183.88 340.06 185.2 C339.72 185.84 339.39 186.48 339.05 187.14 C336.23 192.5 333.09 197.15 329.68 202.26 C339.91 202.59 350.14 202.92 360.68 203.26 C360.75 179.62 360.8 155.98 360.84 132.33 C360.85 121.35 360.87 110.38 360.91 99.4 C360.94 89.83 360.96 80.26 360.96 70.7 C360.97 65.63 360.98 60.56 361 55.5 C361.02 50.73 361.02 45.96 361.02 41.19 C361.02 39.44 361.03 37.69 361.04 35.94 C361.05 33.55 361.05 31.16 361.04 28.77 C361.05 28.08 361.06 27.39 361.07 26.67 C361.03 22.39 360.36 19.64 357.68 16.26 C354.47 15.19 352.16 15.14 348.78 15.13 C347.54 15.13 346.3 15.12 345.03 15.12 C343.64 15.12 342.26 15.12 340.88 15.12 C339.41 15.12 337.95 15.12 336.49 15.11 C332.46 15.11 328.42 15.1 324.39 15.1 C320.05 15.1 315.71 15.09 311.36 15.09 C301.86 15.07 292.36 15.07 282.86 15.06 C276.93 15.06 271 15.06 265.07 15.05 C248.66 15.04 232.25 15.03 215.84 15.03 C214.78 15.03 213.73 15.02 212.65 15.02 C211.6 15.02 210.54 15.02 209.46 15.02 C207.33 15.02 205.19 15.02 203.06 15.02 C202 15.02 200.94 15.02 199.85 15.02 C182.69 15.02 165.53 15 148.36 14.98 C130.75 14.95 113.15 14.94 95.54 14.94 C85.65 14.94 75.75 14.93 65.86 14.92 C57.44 14.9 49.02 14.89 40.6 14.9 C36.3 14.91 32 14.91 27.71 14.89 C23.77 14.88 19.84 14.88 15.91 14.89 C14.48 14.89 13.06 14.89 11.63 14.88 C9.7 14.87 7.77 14.88 5.83 14.89 C4.76 14.89 3.68 14.89 2.57 14.89 C-0.77 15.32 -2.65 16.22 -5.32 18.26 Z M376.68 41.26 C376.68 42.76 376.68 42.76 376.67 44.29 C376.62 68.6 376.54 92.91 376.45 117.23 C376.4 128.98 376.36 140.74 376.33 152.5 C376.31 162.74 376.28 172.99 376.23 183.24 C376.21 188.66 376.19 194.09 376.18 199.52 C376.18 204.62 376.16 209.73 376.13 214.84 C376.12 216.71 376.11 218.58 376.12 220.46 C376.12 223.02 376.1 225.58 376.08 228.14 C376.09 229.25 376.09 229.25 376.09 230.38 C376.01 236.44 374.34 240.33 370.43 244.89 C362.69 251.57 356.98 251.84 346.93 251.78 C345.52 251.79 344.11 251.8 342.71 251.8 C338.85 251.82 334.98 251.82 331.12 251.81 C326.96 251.81 322.79 251.82 318.62 251.84 C311.41 251.86 304.19 251.87 296.97 251.87 C286.54 251.87 276.11 251.89 265.67 251.92 C248.75 251.96 231.82 251.98 214.89 251.99 C198.45 252 182 252.02 165.56 252.06 C164.04 252.06 164.04 252.06 162.49 252.06 C157.4 252.07 152.32 252.08 147.23 252.09 C105.05 252.17 62.86 252.23 20.68 252.26 C20.89 257.07 20.89 257.07 23.35 260.97 C26.33 262.62 28.35 262.64 31.75 262.64 C33.63 262.66 33.63 262.66 35.55 262.67 C36.94 262.66 38.33 262.66 39.73 262.65 C41.2 262.65 42.68 262.66 44.16 262.67 C48.22 262.68 52.29 262.68 56.35 262.67 C60.73 262.66 65.12 262.68 69.5 262.69 C78.08 262.7 86.67 262.71 95.26 262.7 C102.23 262.7 109.21 262.7 116.19 262.7 C117.18 262.7 118.17 262.7 119.19 262.71 C121.21 262.71 123.22 262.71 125.24 262.71 C144.14 262.72 163.05 262.72 181.95 262.71 C199.26 262.7 216.57 262.71 233.88 262.73 C251.63 262.76 269.39 262.77 287.15 262.76 C297.13 262.76 307.1 262.76 317.08 262.78 C325.57 262.79 334.06 262.79 342.55 262.78 C346.89 262.77 351.22 262.76 355.56 262.78 C359.52 262.79 363.49 262.79 367.45 262.77 C368.89 262.77 370.33 262.77 371.76 262.78 C373.71 262.79 375.66 262.78 377.61 262.76 C379.23 262.76 379.23 262.76 380.89 262.76 C384.39 262.14 385.57 261.08 387.68 258.26 C388.07 255.29 388.22 252.69 388.19 249.72 C388.2 248.85 388.2 247.98 388.21 247.08 C388.22 244.16 388.21 241.24 388.2 238.32 C388.2 236.23 388.21 234.13 388.22 232.04 C388.24 226.35 388.23 220.67 388.22 214.98 C388.21 209.03 388.22 203.09 388.22 197.14 C388.23 187.15 388.22 177.16 388.2 167.18 C388.18 155.62 388.19 144.07 388.21 132.52 C388.23 122.6 388.23 112.69 388.22 102.78 C388.21 96.86 388.21 90.93 388.23 85.01 C388.24 79.44 388.23 73.87 388.21 68.31 C388.2 66.26 388.2 64.21 388.21 62.17 C388.22 59.38 388.21 56.59 388.19 53.8 C388.2 52.99 388.21 52.17 388.22 51.34 C388.17 47.92 387.92 45.65 386.09 42.73 C382.85 40.76 380.4 40.98 376.68 41.26 Z M94.28 58.43 C89.03 64.43 85.98 70.27 85.68 78.26 C93.17 79.9 93.17 79.9 100.31 77.83 C107.55 71.55 111.98 64.67 113.68 55.26 C113.85 52.43 113.85 52.43 113.68 50.26 C106.38 50.26 99.6 53.45 94.28 58.43 Z M290.54 59.07 C285.94 64.5 282.8 71.24 281.68 78.26 C289.75 79.94 289.75 79.94 297.41 77.76 C303.63 72.28 307.98 66.48 309.68 58.26 C309.82 55.57 309.78 52.96 309.68 50.26 C302.19 50.26 295.96 54.06 290.54 59.07 Z M403.68 66.26 C403.68 67.76 403.68 67.76 403.68 69.29 C403.64 93.56 403.58 117.84 403.5 142.12 C403.46 153.86 403.43 165.61 403.41 177.35 C403.4 187.58 403.37 197.81 403.33 208.05 C403.3 213.47 403.29 218.89 403.29 224.3 C403.29 229.41 403.27 234.51 403.24 239.61 C403.23 241.48 403.23 243.35 403.24 245.22 C403.24 247.78 403.22 250.34 403.2 252.9 C403.21 254 403.21 254 403.22 255.13 C403.12 261.23 401.24 266.62 396.94 271.07 C396.1 271.6 396.1 271.6 395.24 272.14 C394.69 272.51 394.13 272.88 393.56 273.26 C389.21 275.59 385.72 276.51 380.77 276.52 C379.58 276.53 378.39 276.54 377.16 276.55 C375.86 276.55 374.55 276.54 373.21 276.54 C371.81 276.55 370.4 276.55 369 276.56 C365.15 276.57 361.29 276.58 357.44 276.58 C353.28 276.58 349.13 276.6 344.97 276.61 C337.77 276.63 330.57 276.65 323.37 276.66 C312.96 276.67 302.55 276.7 292.14 276.73 C275.25 276.77 258.36 276.81 241.47 276.84 C225.06 276.87 208.65 276.91 192.24 276.95 C190.73 276.95 190.73 276.95 189.18 276.95 C184.11 276.97 179.03 276.98 173.96 276.99 C131.87 277.09 89.77 277.18 47.68 277.26 C47.89 282.07 47.89 282.07 50.35 285.97 C53.32 287.62 55.35 287.64 58.75 287.65 C60 287.66 61.25 287.66 62.54 287.67 C63.94 287.67 65.33 287.66 66.72 287.66 C68.2 287.66 69.67 287.67 71.15 287.68 C75.21 287.69 79.28 287.69 83.34 287.68 C87.72 287.68 92.1 287.7 96.48 287.71 C105.06 287.73 113.64 287.73 122.23 287.73 C129.2 287.73 136.17 287.73 143.15 287.74 C145.15 287.74 147.16 287.75 149.17 287.75 C150.67 287.75 150.67 287.75 152.19 287.75 C171.1 287.77 190 287.77 208.9 287.76 C226.2 287.76 243.5 287.78 260.8 287.81 C278.55 287.84 296.31 287.86 314.06 287.86 C324.03 287.85 334 287.86 343.97 287.88 C352.46 287.9 360.95 287.91 369.44 287.89 C373.77 287.88 378.11 287.88 382.44 287.9 C386.4 287.92 390.37 287.91 394.33 287.89 C395.77 287.89 397.2 287.89 398.64 287.9 C400.59 287.92 402.54 287.9 404.49 287.89 C405.57 287.89 406.65 287.89 407.77 287.89 C411.7 287.04 413.21 285.37 415.68 282.26 C416.17 279.22 416.36 276.73 416.32 273.68 C416.33 272.39 416.33 272.39 416.34 271.07 C416.36 268.18 416.34 265.29 416.33 262.41 C416.33 260.33 416.34 258.26 416.35 256.19 C416.38 250.57 416.37 244.94 416.35 239.31 C416.34 233.43 416.35 227.54 416.36 221.66 C416.37 211.78 416.36 201.89 416.33 192.01 C416.31 180.58 416.31 169.15 416.34 157.72 C416.36 147.91 416.37 138.1 416.35 128.3 C416.35 122.44 416.35 116.58 416.36 110.72 C416.38 105.21 416.37 99.7 416.34 94.19 C416.33 92.16 416.33 90.14 416.34 88.12 C416.36 85.36 416.34 82.6 416.32 79.84 C416.33 78.64 416.33 78.64 416.35 77.41 C416.28 73.53 415.8 71.44 413.58 68.23 C410.02 65.82 407.89 65.85 403.68 66.26 Z M28.68 109.26 C17.05 124.52 14.67 141.86 17.11 160.52 C17.78 163.22 18.65 165.69 19.68 168.26 C20.13 169.49 20.59 170.72 21.05 171.98 C25.48 183.39 32.3 195.29 42.68 202.26 C45.95 202.89 45.95 202.89 49.55 202.84 C50.22 202.86 50.89 202.87 51.58 202.88 C53.79 202.92 55.99 202.93 58.2 202.93 C59.74 202.95 61.29 202.96 62.83 202.98 C66.06 203 69.29 203.01 72.53 203 C76.65 203 80.78 203.06 84.9 203.13 C88.09 203.17 91.28 203.18 94.46 203.18 C95.98 203.18 97.5 203.2 99.02 203.23 C107.57 203.54 107.57 203.54 115.35 200.54 C117.38 198.55 119.05 196.58 120.68 194.26 C121.34 193.41 121.34 193.41 122.02 192.53 C134.63 175.53 139.36 157.2 137.68 136.26 C136.83 131.66 135.52 127.56 133.68 123.26 C133.33 122.39 132.98 121.51 132.62 120.61 C127.55 109.2 118.75 100.93 107.22 96.27 C100.64 93.98 94.5 93.1 87.52 93.06 C86.74 93.05 85.95 93.05 85.14 93.04 C83.48 93.03 81.82 93.03 80.15 93.02 C77.65 93.01 75.15 92.98 72.64 92.95 C55.44 92.84 40.81 96.12 28.68 109.26 Z M227.7 107.07 C216.43 118.68 213.28 133.41 213.39 148.98 C213.7 166.04 220.7 182.15 231.68 195.26 C232.07 195.83 232.45 196.4 232.85 196.99 C235.55 200.43 237.62 202.06 241.98 202.91 C246.17 203.14 250.31 203.16 254.5 203.09 C256.05 203.08 257.6 203.08 259.14 203.09 C262.38 203.08 265.61 203.06 268.84 203.01 C272.98 202.95 277.11 202.95 281.25 202.95 C284.44 202.96 287.64 202.94 290.83 202.91 C292.35 202.9 293.88 202.9 295.4 202.9 C297.54 202.9 299.67 202.87 301.8 202.83 C303.62 202.81 303.62 202.81 305.47 202.79 C313.03 201.55 317.38 194.05 321.68 188.26 C325.23 183.64 325.23 183.64 326.68 178.26 C296.49 177.77 296.49 177.77 265.68 177.26 C265.35 149.54 265.02 121.82 264.68 93.26 C249.3 93.26 239.07 96.72 227.7 107.07 Z M280.68 100.26 C280.68 120.72 280.68 141.18 280.68 162.26 C297.84 162.59 315 162.92 332.68 163.26 C334.41 157.22 335.04 153.13 334.99 147.08 C334.99 146.24 334.98 145.4 334.98 144.54 C334.69 129.36 329.31 116.21 318.68 105.26 C308.91 97.26 308.91 97.26 280.68 100.26 Z M-6.32 218.26 C-6.37 220.35 -6.41 222.43 -6.44 224.51 C-6.47 225.67 -6.49 226.83 -6.51 228.03 C-6.33 231.11 -6.04 232.74 -4.32 235.26 C-1.61 236.62 0.49 236.39 3.53 236.39 C5.4 236.4 5.4 236.4 7.32 236.41 C8.72 236.41 10.13 236.4 11.53 236.4 C13.01 236.41 14.49 236.41 15.97 236.41 C20.05 236.42 24.14 236.42 28.22 236.42 C32.62 236.42 37.02 236.43 41.41 236.44 C51.03 236.45 60.66 236.46 70.28 236.46 C76.28 236.47 82.28 236.47 88.29 236.47 C104.9 236.49 121.5 236.5 138.11 236.5 C139.71 236.5 139.71 236.5 141.34 236.5 C142.4 236.5 143.47 236.5 144.57 236.5 C146.73 236.5 148.89 236.5 151.05 236.5 C152.12 236.5 153.19 236.5 154.3 236.5 C171.67 236.51 189.05 236.53 206.43 236.55 C224.25 236.57 242.07 236.58 259.9 236.59 C269.91 236.59 279.93 236.59 289.94 236.61 C298.46 236.63 306.99 236.63 315.51 236.62 C319.87 236.62 324.22 236.62 328.57 236.63 C332.55 236.65 336.53 236.65 340.51 236.63 C341.96 236.63 343.4 236.63 344.85 236.64 C346.8 236.65 348.76 236.65 350.71 236.63 C351.8 236.64 352.89 236.64 354.01 236.64 C356.7 236.48 356.7 236.48 358.49 234.86 C361.13 231.31 360.78 228.5 360.74 224.14 C360.73 222.22 360.73 222.22 360.72 220.26 C360.7 219.27 360.69 218.28 360.68 217.26 C314.36 217.24 268.04 217.22 221.72 217.21 C216.26 217.21 210.79 217.21 205.33 217.21 C204.24 217.21 203.15 217.21 202.03 217.21 C184.4 217.2 166.77 217.19 149.14 217.19 C131.05 217.18 112.97 217.17 94.89 217.17 C83.73 217.17 72.56 217.16 61.4 217.15 C53.75 217.15 46.1 217.15 38.46 217.15 C34.04 217.15 29.62 217.15 25.2 217.14 C21.16 217.14 17.12 217.14 13.08 217.14 C11.62 217.14 10.15 217.14 8.69 217.14 C6.7 217.13 4.72 217.14 2.73 217.14 C1.63 217.14 0.53 217.14 -0.61 217.14 C-3.42 217.14 -3.42 217.14 -6.32 218.26 Z " fill="#1a1a1a" transform="translate(128.31888103485107,40.737144470214844)"/>
<path d="M0 0 C0.87 0.01 1.75 0.02 2.65 0.03 C4.79 0.05 6.93 0.09 9.06 0.12 C11.13 16.11 9.57 31.53 0.06 45.12 C-1.24 46.49 -2.56 47.83 -3.94 49.12 C-3.27 49.51 -2.6 49.9 -1.92 50.3 C15.56 60.91 27.7 75.3 32.62 95.39 C37.69 118.65 32.56 141.19 20.06 161.12 C18.08 163.76 16.1 166.4 14.06 169.12 C42.11 169.12 70.16 169.12 99.06 169.12 C96.09 164.5 93.12 159.88 90.06 155.12 C88.64 152.36 87.35 149.78 86.19 146.94 C85.91 146.27 85.63 145.61 85.34 144.92 C77.25 125.36 76.6 104.74 84.31 84.94 C92.46 66.79 104.81 54.72 123.06 47.12 C130.4 44.5 137.3 43.66 145.06 44.12 C136.76 30.33 136.76 30.33 125.06 20.12 C125.65 16.46 127.15 14.58 129.62 11.88 C130.27 11.17 130.91 10.46 131.57 9.73 C132.06 9.2 132.55 8.67 133.06 8.12 C141.17 9.3 147.24 19.36 151.85 25.47 C152.25 26.02 152.65 26.56 153.06 27.12 C153.81 26.06 153.81 26.06 154.57 24.96 C163.67 12.14 173.17 3.61 189.06 0.12 C192.38 -0.09 195.68 -0.07 199 0 C199.87 0.01 200.75 0.02 201.65 0.03 C203.79 0.05 205.93 0.09 208.06 0.12 C210.13 16.11 208.57 31.53 199.06 45.12 C197.76 46.49 196.44 47.83 195.06 49.12 C197.04 51.1 200.89 50.38 203.6 50.44 C204.35 50.46 205.1 50.48 205.88 50.5 C208.3 50.57 210.71 50.63 213.12 50.69 C214.76 50.73 216.39 50.77 218.03 50.82 C222.04 50.93 226.05 51.03 230.06 51.12 C230.09 52.36 230.11 53.59 230.14 54.85 C230.23 59.45 230.33 64.04 230.43 68.63 C230.48 70.61 230.52 72.59 230.56 74.58 C230.62 77.44 230.68 80.3 230.75 83.16 C230.77 84.47 230.77 84.47 230.8 85.82 C230.92 90.99 231.39 95.99 232.06 101.12 C232.26 105.08 232.25 109.04 232.25 113 C232.25 114.09 232.25 115.18 232.25 116.31 C232.19 125.69 231.39 134.85 230.06 144.12 C229.07 144.12 228.08 144.12 227.06 144.12 C226.81 144.97 226.56 145.81 226.3 146.68 C224.95 150.43 223.18 153.76 221.19 157.19 C220.85 157.79 220.51 158.39 220.16 159 C218.06 162.64 215.77 165.92 213.06 169.12 C214.1 169.14 214.1 169.14 215.15 169.15 C235.07 169.49 252.89 170.86 268.22 185.16 C279.48 197.21 284.82 211.7 284.38 228.02 C284.04 234.08 282.31 239.52 280.06 245.12 C279.72 246 279.38 246.87 279.04 247.77 C273.22 260.92 262.39 269.74 249.31 274.94 C243.34 277.17 238.2 278.25 231.81 278.26 C230.55 278.26 229.28 278.27 227.98 278.27 C226.57 278.27 225.17 278.27 223.77 278.27 C222.28 278.28 220.78 278.28 219.29 278.28 C215.19 278.29 211.09 278.3 206.98 278.3 C202.56 278.3 198.14 278.31 193.71 278.32 C183.03 278.34 172.34 278.35 161.65 278.36 C156.62 278.37 151.59 278.37 146.55 278.38 C129.81 278.39 113.08 278.41 96.34 278.41 C91.99 278.42 87.65 278.42 83.31 278.42 C82.23 278.42 81.15 278.42 80.04 278.42 C62.56 278.43 45.08 278.46 27.6 278.49 C9.65 278.52 -8.31 278.54 -26.26 278.54 C-36.34 278.54 -46.41 278.55 -56.49 278.58 C-65.07 278.6 -73.66 278.61 -82.24 278.6 C-86.62 278.59 -90.99 278.6 -95.37 278.62 C-99.38 278.63 -103.39 278.63 -107.41 278.62 C-108.85 278.61 -110.3 278.62 -111.74 278.63 C-126.4 278.74 -137.82 275.14 -149.94 267.12 C-150.85 266.53 -150.85 266.53 -151.77 265.91 C-161.19 258.89 -167.91 245.49 -169.94 234.12 C-171.7 215.75 -168.08 201.5 -156.25 187.07 C-147.76 177.91 -134.76 170.86 -122.19 169.92 C-121.16 169.88 -120.14 169.85 -119.08 169.81 C-117.41 169.75 -117.41 169.75 -115.7 169.68 C-114.54 169.64 -113.38 169.6 -112.19 169.56 C-111.01 169.52 -109.84 169.48 -108.63 169.43 C-105.73 169.33 -102.83 169.22 -99.94 169.12 C-100.92 167.76 -100.92 167.76 -101.91 166.37 C-116.37 145.78 -122.26 122.52 -118.28 97.39 C-115.58 83.35 -109.08 72.18 -98.94 62.12 C-98.29 61.43 -97.63 60.73 -96.96 60.01 C-92.33 55.41 -87.28 52.53 -81.44 49.75 C-80.74 49.42 -80.04 49.08 -79.32 48.74 C-71.44 45.18 -63.49 43.94 -54.94 43.12 C-62.54 29.88 -62.54 29.88 -73.94 20.12 C-73.35 16.46 -71.85 14.58 -69.38 11.88 C-68.73 11.17 -68.09 10.46 -67.43 9.73 C-66.94 9.2 -66.45 8.67 -65.94 8.12 C-61.66 8.59 -59.34 11.3 -56.5 14.25 C-56.01 14.74 -55.53 15.24 -55.03 15.75 C-51.57 19.32 -48.63 22.95 -45.94 27.12 C-45.44 26.41 -44.94 25.7 -44.43 24.96 C-33.26 9.21 -20.09 -0.4 0 0 Z M-24.94 24.12 C-29.64 29.08 -34.94 37.02 -34.94 44.12 C-26.44 45.03 -26.44 45.03 -18.4 42.85 C-11.98 37.39 -7.62 30.38 -5.94 22.12 C-5.77 18.83 -5.77 18.83 -5.94 16.12 C-12.93 16.12 -19.53 19.8 -24.94 24.12 Z M172.89 24.93 C168.02 30.78 165.03 37.61 164.06 45.12 C174.98 45.25 174.98 45.25 184.06 40.12 C190.03 32.51 192.26 25.66 193.06 16.12 C185.3 16.12 178.49 19.67 172.89 24.93 Z M-92.94 77.12 C-97.51 83.59 -101.02 90.43 -102.94 98.12 C-103.12 98.82 -103.3 99.52 -103.49 100.25 C-105.24 111.53 -105.15 124.46 -100.94 135.12 C-100.59 136.09 -100.23 137.06 -99.87 138.06 C-97.05 145.36 -93.49 151.78 -88.94 158.12 C-87.84 159.67 -87.84 159.67 -86.72 161.24 C-83.14 165.88 -80.04 169.5 -74.29 171.21 C-70.07 171.59 -66 171.61 -61.76 171.47 C-60.22 171.46 -58.68 171.46 -57.14 171.46 C-53.94 171.44 -50.74 171.39 -47.53 171.3 C-43.43 171.2 -39.34 171.16 -35.24 171.16 C-32.07 171.15 -28.9 171.11 -25.73 171.07 C-24.22 171.05 -22.71 171.03 -21.2 171.02 C-12.11 171.29 -12.11 171.29 -4.11 167.73 C-3.04 166.44 -3.04 166.44 -1.94 165.12 C-1.18 164.26 -0.41 163.4 0.37 162.5 C12.7 146.19 20.83 127.1 18.79 106.34 C16.62 90.77 10.36 79.08 -1.55 68.91 C-10.61 62.13 -20.24 59.8 -31.37 59.86 C-32.69 59.86 -32.69 59.86 -34.03 59.85 C-35.87 59.85 -37.72 59.86 -39.56 59.86 C-42.36 59.87 -45.16 59.86 -47.96 59.85 C-49.77 59.85 -51.57 59.86 -53.37 59.86 C-54.2 59.86 -55.02 59.85 -55.87 59.85 C-70.78 59.97 -82.94 65.99 -92.94 77.12 Z M109.2 73.73 C96.94 87.47 94.08 103.23 95.06 121.12 C97.57 138.74 105.69 157.11 119.37 168.99 C124.54 172.46 131.32 171.65 137.27 171.44 C138.82 171.43 140.36 171.42 141.9 171.41 C145.11 171.4 148.32 171.34 151.52 171.25 C155.63 171.14 159.73 171.09 163.84 171.08 C167.78 171.05 171.71 171 175.65 170.94 C176.77 170.93 176.77 170.93 177.91 170.91 C180.02 170.89 182.13 170.83 184.24 170.77 C185.44 170.74 186.64 170.71 187.88 170.69 C195.4 169.36 199.82 161.94 204.06 156.12 C208.22 150.54 208.22 150.54 210.06 144.12 C188.94 144.12 167.82 144.12 146.06 144.12 C146.06 116.4 146.06 88.68 146.06 60.12 C131.01 60.12 120.3 63.3 109.2 73.73 Z M161.06 66.12 C161.04 74.19 161.02 82.26 161.01 90.32 C161.01 94.07 161 97.82 160.99 101.56 C160.98 105.17 160.97 108.78 160.97 112.39 C160.97 113.78 160.96 115.16 160.96 116.54 C160.95 118.46 160.95 120.39 160.95 122.32 C160.95 123.42 160.94 124.52 160.94 125.65 C160.78 128.07 160.78 128.07 162.06 129.12 C163.68 129.22 165.31 129.25 166.93 129.25 C168.49 129.26 168.49 129.26 170.08 129.26 C171.21 129.26 172.34 129.26 173.5 129.26 C175.23 129.26 175.23 129.26 176.99 129.26 C179.42 129.26 181.86 129.26 184.3 129.26 C188.05 129.25 191.79 129.26 195.54 129.26 C197.9 129.26 200.26 129.26 202.62 129.26 C204.32 129.26 204.32 129.26 206.05 129.26 C207.08 129.26 208.12 129.26 209.19 129.25 C210.11 129.25 211.03 129.25 211.97 129.25 C214.05 129.36 214.05 129.36 215.06 128.12 C215.2 125.72 215.28 123.35 215.3 120.94 C215.31 120.21 215.32 119.48 215.33 118.73 C215.34 117.18 215.35 115.63 215.36 114.07 C215.37 111.73 215.42 109.39 215.46 107.04 C215.6 93.98 213.03 84.86 204.06 75.12 C197.88 69.14 194.56 65.96 185.87 66.03 C185.16 66.03 184.45 66.03 183.72 66.03 C181.46 66.04 179.2 66.05 176.94 66.06 C175.4 66.07 173.87 66.07 172.34 66.08 C168.58 66.09 164.82 66.1 161.06 66.12 Z M-146.79 199.18 C-153.94 208.24 -155.6 217.83 -154.94 229.12 C-153.7 239.45 -149.11 248.63 -140.94 255.12 C-130.05 263.06 -119.44 263.42 -106.28 263.38 C-104.81 263.38 -103.34 263.38 -101.87 263.39 C-97.85 263.4 -93.83 263.39 -89.81 263.39 C-85.47 263.38 -81.13 263.39 -76.78 263.39 C-68.28 263.4 -59.79 263.4 -51.29 263.4 C-44.38 263.39 -37.47 263.39 -30.56 263.39 C-29.09 263.39 -29.09 263.39 -27.58 263.39 C-25.58 263.39 -23.58 263.39 -21.58 263.4 C-2.85 263.4 15.89 263.39 34.62 263.38 C50.69 263.37 66.76 263.38 82.83 263.39 C101.5 263.4 120.18 263.4 138.85 263.39 C140.84 263.39 142.83 263.39 144.82 263.39 C145.8 263.39 146.78 263.39 147.79 263.39 C154.69 263.39 161.59 263.39 168.49 263.4 C176.9 263.4 185.3 263.4 193.71 263.39 C198 263.39 202.29 263.38 206.58 263.39 C210.51 263.4 214.44 263.39 218.36 263.38 C219.78 263.38 221.2 263.38 222.62 263.39 C236.38 263.43 247.87 261.58 258.36 252.04 C266.76 242.59 269.39 232.53 269.06 220.19 C268.19 210.71 263.98 201.74 257.06 195.12 C249.28 189.43 242.38 185.88 232.54 185.87 C231.27 185.86 229.99 185.86 228.68 185.85 C227.28 185.86 225.87 185.86 224.47 185.86 C222.97 185.86 221.47 185.86 219.97 185.85 C215.85 185.84 211.74 185.84 207.62 185.85 C203.18 185.85 198.74 185.84 194.3 185.83 C185.6 185.82 176.9 185.82 168.21 185.82 C161.13 185.82 154.06 185.82 146.99 185.82 C145.99 185.82 144.98 185.82 143.94 185.82 C141.9 185.82 139.85 185.81 137.81 185.81 C118.64 185.8 99.46 185.8 80.29 185.81 C62.75 185.82 45.21 185.8 27.68 185.79 C9.67 185.77 -8.34 185.76 -26.35 185.76 C-36.46 185.76 -46.57 185.76 -56.68 185.75 C-65.29 185.73 -73.9 185.73 -82.5 185.75 C-86.89 185.75 -91.28 185.75 -95.68 185.74 C-99.7 185.73 -103.72 185.73 -107.74 185.75 C-109.19 185.75 -110.65 185.75 -112.1 185.74 C-126.75 185.66 -136.73 188.04 -146.79 199.18 Z " fill="#1a1a1a" transform="translate(206.9375,617.875)"/>
<path d="M0 0 C6.93 0 13.86 0 21 0 C21 15.18 21 30.36 21 46 C73.8 46 126.6 46 181 46 C181 63.49 181 80.98 181 99 C193.54 99 206.08 99 219 99 C219 126.06 219 153.12 219 181 C206.46 181 193.92 181 181 181 C181 206.08 181 231.16 181 257 C68.8 257 -43.4 257 -159 257 C-159 231.92 -159 206.84 -159 181 C-172.2 181 -185.4 181 -199 181 C-199 153.94 -199 126.88 -199 99 C-185.8 99 -172.6 99 -159 99 C-159 81.51 -159 64.02 -159 46 C-106.53 46 -54.06 46 0 46 C0 30.82 0 15.64 0 0 Z M-139 66 C-138.67 122.1 -138.34 178.2 -138 236 C-39.66 236 58.68 236 160 236 C160 179.9 160 123.8 160 66 C61.33 66 -37.34 66 -139 66 Z M-178 120 C-178 133.2 -178 146.4 -178 160 C-172.39 160 -166.78 160 -161 160 C-161 146.8 -161 133.6 -161 120 C-166.61 120 -172.22 120 -178 120 Z M181 120 C181 133.2 181 146.4 181 160 C186.94 160 192.88 160 199 160 C199 146.8 199 133.6 199 120 C193.06 120 187.12 120 181 120 Z " fill="#1a1a1a" transform="translate(883,378)"/>
<path d="M0 0 C0.79 -0.01 1.58 -0.01 2.39 -0.02 C4.98 -0.03 7.58 -0.03 10.18 -0.03 C11.99 -0.03 13.8 -0.03 15.61 -0.04 C19.41 -0.05 23.21 -0.05 27 -0.04 C31.86 -0.04 36.71 -0.05 41.56 -0.08 C45.3 -0.09 49.05 -0.09 52.79 -0.09 C54.58 -0.09 56.36 -0.09 58.15 -0.1 C60.66 -0.12 63.17 -0.11 65.68 -0.1 C66.77 -0.11 66.77 -0.11 67.89 -0.12 C74.31 -0.06 79.68 1.45 84.84 5.46 C90.99 13.36 90.56 22.23 90.72 31.77 C90.75 33.18 90.79 34.59 90.82 36 C90.91 39.43 90.97 42.85 91.03 46.27 C92.31 46.57 93.59 46.86 94.91 47.16 C110.35 50.77 123.53 55.1 136.03 65.27 C136.8 65.87 137.57 66.46 138.36 67.07 C154.12 79.97 162.93 100.05 168.03 119.27 C168.27 120.16 168.51 121.04 168.76 121.95 C176.8 151.94 179.16 182.93 182.39 213.72 C186.72 255.66 186.72 255.66 192.66 297.4 C192.79 298.23 192.93 299.06 193.06 299.92 C195.69 316 198.93 332.27 204.22 347.71 C204.51 348.56 204.79 349.4 205.09 350.27 C210.27 365.06 216.5 379.75 226.03 392.27 C226.62 393.07 227.21 393.87 227.81 394.68 C239.63 410.08 253.53 422.75 269.03 434.27 C286.79 447.49 301.41 460.52 306.03 483.27 C306.1 485.19 306.12 487.11 306.09 489.02 C306.09 490.01 306.08 490.99 306.07 492.01 C306.06 492.76 306.04 493.5 306.03 494.27 C307.11 494.23 307.11 494.23 308.2 494.18 C311.48 494.05 314.75 493.98 318.03 493.9 C319.16 493.85 320.28 493.8 321.44 493.75 C328.19 493.63 332.32 494.18 337.5 498.66 C342.65 504.08 344.15 508.83 344.21 516.28 C344.22 516.99 344.22 517.7 344.23 518.43 C344.25 520.78 344.26 523.13 344.27 525.47 C344.27 526.28 344.28 527.08 344.28 527.91 C344.3 532.17 344.32 536.42 344.33 540.68 C344.34 545.06 344.37 549.44 344.41 553.83 C344.44 557.21 344.45 560.59 344.45 563.97 C344.46 565.59 344.47 567.2 344.49 568.82 C344.67 586.02 344.67 586.02 338.22 593.33 C337.64 593.79 337.06 594.24 336.47 594.71 C335.89 595.19 335.31 595.66 334.72 596.15 C330.64 598.88 326.24 598.43 321.53 598.44 C320.65 598.44 319.78 598.45 318.87 598.45 C315.92 598.47 312.96 598.47 310.01 598.48 C307.89 598.49 305.78 598.5 303.66 598.51 C296.71 598.54 289.76 598.56 282.81 598.58 C281.62 598.59 280.44 598.59 279.22 598.59 C268.07 598.62 256.92 598.65 245.76 598.67 C231.5 598.69 217.23 598.73 202.96 598.8 C192.93 598.85 182.9 598.87 172.87 598.88 C166.88 598.88 160.89 598.9 154.89 598.94 C149.26 598.98 143.62 598.98 137.98 598.97 C135.91 598.97 133.84 598.98 131.78 599 C112.91 599.19 112.91 599.19 106.51 593.87 C101.38 588.34 99.91 583.71 99.87 576.14 C99.87 575.42 99.86 574.7 99.86 573.96 C99.84 571.57 99.83 569.18 99.83 566.79 C99.82 565.12 99.82 563.46 99.81 561.8 C99.8 558.31 99.8 554.82 99.79 551.33 C99.79 546.87 99.76 542.41 99.73 537.95 C99.72 534.51 99.71 531.08 99.71 527.64 C99.71 526 99.7 524.35 99.68 522.71 C99.67 520.4 99.67 518.1 99.68 515.79 C99.67 513.83 99.67 513.83 99.66 511.82 C100.14 507.21 101.57 503.86 104.72 500.45 C105.29 499.98 105.87 499.51 106.47 499.02 C107.05 498.55 107.62 498.07 108.22 497.57 C112.63 494.42 115.77 494.03 121.23 494.03 C121.96 494.03 122.69 494.03 123.43 494.03 C125.87 494.03 128.3 494.04 130.73 494.05 C132.48 494.05 134.22 494.05 135.97 494.05 C140.7 494.05 145.44 494.06 150.18 494.07 C155.13 494.08 160.08 494.09 165.03 494.09 C174.4 494.09 183.78 494.11 193.15 494.13 C203.82 494.15 214.5 494.16 225.17 494.17 C247.12 494.19 269.08 494.23 291.03 494.27 C290.73 492.03 290.43 489.78 290.12 487.53 C289.87 485.65 289.87 485.65 289.61 483.74 C287.07 468.48 275.73 459.06 264.03 450.27 C234.72 427.76 210.17 403.65 195.03 369.27 C194.72 368.57 194.41 367.87 194.09 367.15 C182.72 340.75 178.03 312.86 174.66 284.53 C173.98 278.8 173.24 273.07 172.5 267.34 C168.13 233.39 168.13 233.39 166.66 216.34 C165.43 202.48 163.58 188.7 161.68 174.92 C161.34 172.4 161 169.89 160.66 167.37 C154.1 117.36 154.1 117.36 126.03 77.27 C114.88 69.57 102.98 65.97 90.03 62.27 C90.06 63.76 90.06 63.76 90.1 65.27 C90.17 68.97 90.21 72.66 90.25 76.36 C90.27 77.96 90.3 79.55 90.33 81.14 C90.71 98.84 90.71 98.84 84.1 106.52 C78.89 110.89 75.04 113.27 68.03 113.27 C68.53 119.71 68.53 119.71 69.03 126.27 C59.66 126.3 50.29 126.32 40.92 126.33 C36.57 126.33 32.22 126.34 27.87 126.35 C23.67 126.36 19.48 126.37 15.28 126.37 C13.68 126.37 12.08 126.38 10.47 126.38 C8.23 126.39 5.99 126.39 3.75 126.39 C2.48 126.39 1.2 126.39 -0.11 126.39 C-2.97 126.27 -2.97 126.27 -3.97 125.27 C-4.04 123.26 -4.05 121.23 -4.03 119.21 C-4.02 118.11 -4.01 117 -4 115.86 C-3.99 115.01 -3.98 114.16 -3.97 113.27 C-5.16 113.05 -6.36 112.82 -7.59 112.59 C-12.15 111.46 -14.66 109.58 -17.97 106.27 C-17.97 105.61 -17.97 104.95 -17.97 104.27 C-18.63 104.27 -19.29 104.27 -19.97 104.27 C-22.29 98.76 -23.41 94.18 -23.37 88.17 C-23.38 87.4 -23.39 86.63 -23.39 85.84 C-23.41 83.33 -23.41 80.82 -23.4 78.31 C-23.41 76.55 -23.41 74.79 -23.42 73.03 C-23.43 69.35 -23.42 65.67 -23.41 61.99 C-23.4 57.29 -23.42 52.59 -23.45 47.89 C-23.47 44.26 -23.47 40.62 -23.46 36.99 C-23.46 35.26 -23.47 33.53 -23.48 31.8 C-23.6 12.4 -23.6 12.4 -17.56 5.71 C-12.15 0.84 -7.04 -0.02 0 0 Z M-7.97 20.27 C-8.71 23.69 -8.71 23.69 -8.58 27.5 C-8.59 28.2 -8.59 28.91 -8.6 29.64 C-8.61 31.97 -8.59 34.3 -8.56 36.63 C-8.56 38.25 -8.56 39.87 -8.56 41.49 C-8.56 44.89 -8.54 48.28 -8.51 51.68 C-8.47 56.03 -8.47 60.38 -8.47 64.73 C-8.48 68.08 -8.46 71.43 -8.45 74.78 C-8.44 76.38 -8.44 77.99 -8.44 79.59 C-8.44 81.83 -8.41 84.07 -8.39 86.31 C-8.38 87.59 -8.37 88.86 -8.36 90.18 C-8.22 93.23 -8.22 93.23 -6.63 95.15 C-2.96 97.64 0.53 97.41 4.83 97.42 C5.86 97.42 5.86 97.42 6.91 97.43 C9.18 97.44 11.45 97.44 13.72 97.44 C15.29 97.45 16.87 97.45 18.45 97.45 C21.76 97.46 25.07 97.46 28.37 97.46 C32.61 97.46 36.85 97.47 41.09 97.49 C44.35 97.5 47.61 97.5 50.86 97.5 C52.43 97.5 53.99 97.51 55.55 97.52 C57.74 97.53 59.92 97.52 62.11 97.52 C63.35 97.52 64.59 97.52 65.88 97.52 C68.88 97.29 70.56 96.96 73.03 95.27 C74.52 92.31 74.18 89.63 74.19 86.32 C74.2 85.6 74.2 84.89 74.21 84.15 C74.22 81.78 74.23 79.4 74.24 77.03 C74.24 75.39 74.25 73.74 74.25 72.09 C74.26 68.64 74.27 65.18 74.27 61.73 C74.28 57.3 74.3 52.87 74.33 48.44 C74.35 45.04 74.35 41.64 74.36 38.24 C74.36 36.61 74.37 34.97 74.38 33.34 C74.4 31.06 74.39 28.77 74.39 26.49 C74.39 25.19 74.4 23.89 74.4 22.55 C74 19 73.79 17.55 71.03 15.27 C67.78 14.66 67.78 14.66 63.98 14.74 C63.26 14.73 62.55 14.72 61.81 14.72 C59.45 14.69 57.09 14.7 54.73 14.71 C53.08 14.7 51.44 14.7 49.8 14.69 C46.35 14.68 42.91 14.68 39.46 14.7 C35.05 14.72 30.64 14.69 26.23 14.66 C22.84 14.63 19.44 14.64 16.05 14.64 C14.43 14.65 12.8 14.64 11.17 14.62 C8.9 14.61 6.62 14.62 4.34 14.64 C2.4 14.64 2.4 14.64 0.42 14.65 C-3.95 15.46 -5.4 16.68 -7.97 20.27 Z M116.55 510.12 C114.45 513.1 114.52 515.19 114.51 518.82 C114.51 519.46 114.5 520.11 114.49 520.78 C114.48 522.91 114.49 525.05 114.5 527.18 C114.5 528.67 114.49 530.15 114.49 531.64 C114.48 534.76 114.49 537.87 114.51 540.98 C114.53 544.97 114.52 548.96 114.5 552.95 C114.48 556.02 114.49 559.09 114.5 562.15 C114.5 563.63 114.5 565.1 114.49 566.57 C114.48 568.62 114.49 570.68 114.51 572.73 C114.52 573.9 114.52 575.07 114.52 576.28 C115.17 580.06 115.96 581 119.03 583.27 C121.92 583.66 124.42 583.81 127.31 583.77 C128.57 583.78 128.57 583.78 129.86 583.78 C132.68 583.8 135.51 583.78 138.33 583.76 C140.36 583.76 142.38 583.77 144.4 583.77 C149.9 583.78 155.4 583.77 160.9 583.75 C166.65 583.73 172.4 583.73 178.15 583.73 C187.81 583.73 197.47 583.71 207.13 583.69 C218.3 583.65 229.47 583.64 240.64 583.65 C251.38 583.65 262.12 583.64 272.86 583.62 C277.43 583.61 282.01 583.61 286.58 583.61 C291.97 583.61 297.35 583.59 302.73 583.57 C304.71 583.57 306.69 583.57 308.67 583.57 C311.37 583.57 314.06 583.56 316.76 583.54 C317.94 583.55 317.94 583.55 319.14 583.55 C322.92 583.52 325.83 583.4 329.03 581.27 C329.12 572.2 329.2 563.12 329.24 554.05 C329.26 549.84 329.29 545.62 329.33 541.41 C329.38 537.34 329.4 533.28 329.41 529.21 C329.42 527.66 329.43 526.11 329.45 524.56 C329.48 522.38 329.49 520.21 329.49 518.04 C329.49 516.8 329.5 515.57 329.51 514.29 C329.32 511.28 329.32 511.28 327.52 509.61 C323.99 507.72 320.66 507.86 316.76 507.89 C315.92 507.88 315.07 507.88 314.21 507.87 C311.38 507.86 308.56 507.86 305.73 507.87 C303.71 507.86 301.68 507.86 299.66 507.85 C294.16 507.83 288.66 507.83 283.16 507.84 C278.57 507.84 273.99 507.84 269.4 507.83 C258.58 507.82 247.76 507.82 236.94 507.83 C225.77 507.84 214.59 507.83 203.42 507.8 C193.84 507.78 184.25 507.77 174.67 507.78 C168.94 507.78 163.21 507.78 157.48 507.76 C152.1 507.74 146.71 507.75 141.33 507.77 C139.35 507.77 137.37 507.77 135.39 507.76 C132.7 507.74 130 507.76 127.31 507.77 C126.13 507.76 126.13 507.76 124.92 507.74 C121.41 507.79 119.41 508 116.55 510.12 Z " fill="#1a1a1a" transform="translate(336.968017578125,415.725341796875)"/>
<path d="M0 0 C1.44 -0 2.87 -0 4.31 -0.01 C8.24 -0.01 12.17 -0.01 16.1 -0.01 C20.34 -0.01 24.58 -0.02 28.83 -0.02 C37.14 -0.03 45.45 -0.03 53.76 -0.03 C60.51 -0.03 67.27 -0.04 74.02 -0.04 C93.18 -0.05 112.34 -0.05 131.5 -0.05 C132.53 -0.05 133.57 -0.05 134.63 -0.05 C135.66 -0.05 136.7 -0.05 137.76 -0.05 C154.52 -0.05 171.27 -0.06 188.02 -0.07 C205.23 -0.09 222.44 -0.1 239.65 -0.1 C249.31 -0.09 258.97 -0.1 268.63 -0.11 C276.86 -0.12 285.08 -0.12 293.3 -0.11 C297.5 -0.11 301.69 -0.11 305.88 -0.12 C309.73 -0.13 313.57 -0.12 317.41 -0.12 C319.45 -0.11 321.49 -0.12 323.53 -0.13 C336.06 -0.08 344.45 0.93 353.62 9.8 C358.62 15.18 360.97 20.66 361.33 28.01 C360.96 37.34 357.11 43.57 350.7 50.13 C342.11 56.27 333.51 56.71 323.23 56.63 C321.76 56.64 320.29 56.64 318.82 56.65 C314.79 56.67 310.77 56.66 306.75 56.64 C302.41 56.63 298.06 56.64 293.72 56.65 C285.22 56.67 276.71 56.66 268.21 56.64 C258.31 56.63 248.4 56.63 238.5 56.63 C220.82 56.64 203.15 56.62 185.48 56.6 C168.34 56.58 151.19 56.57 134.05 56.58 C115.37 56.59 96.69 56.59 78.02 56.58 C76.02 56.58 74.03 56.58 72.04 56.57 C70.57 56.57 70.57 56.57 69.07 56.57 C62.17 56.57 55.27 56.57 48.36 56.57 C39.95 56.58 31.54 56.57 23.13 56.55 C18.84 56.54 14.55 56.54 10.26 56.55 C6.33 56.55 2.4 56.55 -1.53 56.53 C-2.95 56.52 -4.37 56.52 -5.79 56.53 C-17.25 56.58 -25.46 55.06 -34.11 47.13 C-40.01 40.49 -41.59 33.98 -41.42 25.16 C-40.64 17.61 -36.73 11.15 -31.11 6.13 C-21.52 -0.73 -11.37 -0.01 0 0 Z M-23.92 20.88 C-25.59 24.05 -25.98 26.56 -26.11 30.13 C-24.71 33.76 -23.18 36.7 -20.11 39.13 C-15.59 40.64 -11.75 40.88 -7.36 38.88 C-3.76 36.09 -2.39 34.22 -1.23 29.76 C-1.06 24.8 -2.44 21.93 -5.79 18.32 C-12.57 14.84 -18.44 15.6 -23.92 20.88 Z M10.89 16.13 C11.55 18.11 12.21 20.09 12.89 22.13 C13.16 25.13 13.16 25.13 13.14 28.13 C13.15 29.12 13.15 30.11 13.16 31.13 C12.89 34.13 12.89 34.13 10.89 40.13 C51.81 40.13 92.73 40.13 134.89 40.13 C134.56 38.48 134.23 36.83 133.89 35.13 C133.8 32.8 133.76 30.47 133.77 28.13 C133.76 26.34 133.76 26.34 133.76 24.51 C133.89 21.13 133.89 21.13 134.89 16.13 C93.97 16.13 53.05 16.13 10.89 16.13 Z M149.08 20.88 C147.41 24.05 147.02 26.56 146.89 30.13 C148.29 33.76 149.82 36.7 152.89 39.13 C157.63 40.71 161.45 40.66 166.14 38.95 C169.3 36.87 170.49 35.64 171.89 32.13 C172.47 28.17 172.26 25.05 170.77 21.32 C167.69 17.73 164.55 16.34 159.89 15.76 C155.48 16.31 152.29 17.78 149.08 20.88 Z M183.89 16.13 C184.55 18.11 185.21 20.09 185.89 22.13 C186.16 25.13 186.16 25.13 186.14 28.13 C186.15 29.12 186.15 30.11 186.16 31.13 C185.89 34.13 185.89 34.13 183.89 40.13 C224.81 40.13 265.73 40.13 307.89 40.13 C307.4 38.15 307.4 38.15 306.89 36.13 C306.8 33.46 306.75 30.81 306.77 28.13 C306.76 27.42 306.76 26.71 306.76 25.98 C306.76 22.45 307.03 19.58 307.89 16.13 C266.97 16.13 226.05 16.13 183.89 16.13 Z M323.89 19.13 C321.29 22.66 320.66 25.41 320.89 29.7 C321.57 34.18 323.25 36.36 326.89 39.13 C330.51 40.34 333.09 40.46 336.89 40.13 C339.95 38.52 342.13 37.1 344.27 34.38 C345.71 29.2 345.57 25.49 343.21 20.76 C339.99 17.11 337.72 16.33 332.96 15.82 C329.22 16.2 327.02 17.05 323.89 19.13 Z " fill="#1a1a1a" transform="translate(104.10617065429688,813.8662872314453)"/>
<path d="M0 0 C1.08 0.11 2.16 0.21 3.27 0.32 C5.52 0.55 7.78 0.77 10.04 1 C13.49 1.35 16.94 1.69 20.38 2.02 C22.59 2.24 24.79 2.47 27 2.69 C28.53 2.84 28.53 2.84 30.1 2.99 C43.83 4.41 43.83 4.41 47.18 8.15 C48.54 11.79 48.38 14.4 48.06 18.27 C48.01 19 47.95 19.73 47.89 20.49 C47.69 22.98 47.46 25.48 47.23 27.98 C47.07 29.88 46.91 31.78 46.75 33.69 C46.31 38.82 45.81 43.94 45.3 49.06 C45.09 51.19 44.89 53.32 44.69 55.45 C44.41 58.57 44.1 61.69 43.78 64.8 C43.7 65.75 43.62 66.7 43.54 67.68 C43.05 72.18 42.66 74.44 39.8 78.08 C36.93 80.2 35.63 80.61 32.11 80.48 C31.26 80.47 30.41 80.46 29.54 80.45 C26.8 79.89 25.91 79.18 24.23 76.98 C21.95 70.13 23.39 62.46 24.23 55.41 C24.93 49.56 25.34 43.88 25.23 37.98 C22.36 40.69 22.36 40.69 20.23 43.98 C19.36 44.4 18.49 44.81 17.59 45.25 C13.68 47.26 10.75 49.76 7.48 52.66 C1.5 57.98 1.5 57.98 -0.77 57.98 C-0.77 58.64 -0.77 59.3 -0.77 59.98 C-3.58 62.47 -6.33 64.45 -9.77 65.98 C-9.77 66.64 -9.77 67.3 -9.77 67.98 C-11.25 68.47 -11.25 68.47 -12.77 68.98 C-13.43 69.82 -14.09 70.67 -14.77 71.54 C-15.43 72.34 -16.09 73.15 -16.77 73.98 C-17.76 73.98 -18.75 73.98 -19.77 73.98 C-20.26 75.46 -20.26 75.46 -20.77 76.98 C-22.41 78.02 -24.08 79.01 -25.77 79.98 C-28.09 81.68 -30.33 83.49 -32.58 85.29 C-37.13 88.9 -41.69 92.46 -46.41 95.86 C-47.92 96.95 -47.92 96.95 -48.77 98.98 C-50.25 99.97 -50.25 99.97 -51.77 100.98 C-55.22 103.72 -55.22 103.72 -58.58 106.58 C-61.32 108.33 -63.09 108.38 -66.33 108.35 C-67.28 108.36 -68.23 108.37 -69.21 108.38 C-71.77 107.98 -71.77 107.98 -73.53 106.71 C-75.94 103.33 -76.4 100.05 -75.77 95.98 C-72.75 90.77 -69.3 86.48 -63.77 83.98 C-62.78 82.99 -62.78 82.99 -61.77 81.98 C-60.67 81.13 -59.57 80.3 -58.45 79.48 C-54.6 76.61 -50.77 73.71 -46.95 70.79 C-46.39 70.36 -45.83 69.93 -45.25 69.49 C-42.59 67.45 -40.06 65.43 -37.77 62.98 C-35.77 60.98 -35.77 60.98 -32.77 59.98 C-32.27 58.99 -32.27 58.99 -31.77 57.98 C-29.04 54.95 -26.26 53.03 -22.77 50.98 C-21.76 49.98 -20.76 48.98 -19.77 47.98 C-18.61 47.08 -17.45 46.21 -16.27 45.35 C-11.85 42.09 -7.62 38.62 -3.38 35.12 C-1.63 33.69 0.13 32.27 1.9 30.88 C4.38 28.93 4.38 28.93 6.92 26.23 C9.23 23.98 9.23 23.98 11.23 23.98 C11.23 23.32 11.23 22.66 11.23 21.98 C4.93 21.01 -1.35 20.06 -7.71 19.57 C-8.97 19.47 -8.97 19.47 -10.25 19.36 C-11.9 19.23 -13.54 19.12 -15.19 19.03 C-20.93 18.55 -23.84 17.26 -27.77 12.98 C-28.81 9.85 -28.5 7.17 -27.77 3.98 C-22.58 -4.79 -8.72 -0.89 0 0 Z " fill="#FB0430" transform="translate(647.765625,591.0234375)"/>
<path d="M0 0 C0 0.66 0 1.32 0 2 C0.58 2.1 1.15 2.21 1.75 2.31 C4.36 3.11 5.97 4.19 8 6 C8 6.66 8 7.32 8 8 C8.99 8 9.98 8 11 8 C11 8.66 11 9.32 11 10 C11.56 10.26 12.11 10.51 12.69 10.78 C15.32 12.17 17.6 13.8 20 15.56 C20.96 16.27 21.92 16.97 22.9 17.69 C25.05 19.29 27.19 20.9 29.32 22.53 C29.86 22.94 30.4 23.35 30.96 23.78 C32.5 24.95 34.03 26.13 35.57 27.31 C37.78 29.19 37.78 29.19 40 29 C40.66 29.66 41.32 30.32 42 31 C43.55 31.99 43.55 31.99 45.12 33 C46.07 33.66 47.02 34.32 48 35 C48 35.66 48 36.32 48 37 C48.9 37.19 48.9 37.19 49.81 37.38 C52 38 52 38 55 40 C55 40.66 55 41.32 55 42 C55.59 42.11 56.19 42.21 56.8 42.32 C59.31 43.1 60.32 43.99 62.19 45.81 C66.47 49.71 71.09 53.04 75.81 56.38 C76.57 56.91 77.32 57.45 78.1 58 C78.81 58.5 79.53 59.01 80.27 59.52 C80.92 59.98 81.56 60.43 82.23 60.9 C84.12 62.17 84.12 62.17 87 63 C88.69 64.56 88.69 64.56 90 66 C89.85 65.2 89.7 64.41 89.54 63.59 C88.85 59.94 88.18 56.28 87.5 52.62 C87.14 50.75 87.14 50.75 86.78 48.83 C83.56 31.27 83.56 31.27 86.38 24.88 C89.84 22.4 92.39 22.44 96.56 22.43 C99.92 23.21 100.98 24.2 103 27 C103.82 29.91 104.4 32.6 104.88 35.56 C105.03 36.45 105.18 37.33 105.34 38.24 C105.7 40.29 106.05 42.34 106.39 44.39 C106.96 47.77 107.56 51.15 108.17 54.53 C108.73 57.66 109.28 60.78 109.84 63.91 C110.11 65.46 110.39 67.01 110.66 68.56 C114.58 90.49 114.58 90.49 111 96 C107.94 97.86 105.05 98.48 101.53 99.05 C100.44 99.23 99.34 99.41 98.21 99.6 C97.03 99.79 95.86 99.97 94.64 100.16 C93.42 100.36 92.2 100.56 90.95 100.76 C87.71 101.28 84.47 101.8 81.23 102.31 C77.96 102.83 74.69 103.37 71.41 103.9 C68.91 104.3 66.4 104.7 63.89 105.1 C62.72 105.29 61.55 105.48 60.34 105.68 C45.27 108.04 45.27 108.04 40 105.62 C37.36 102.16 37.44 99.69 37.43 95.44 C38.19 92.18 39.37 91.03 42 89 C44.57 88.06 44.57 88.06 47.56 87.44 C49.26 87.08 49.26 87.08 50.99 86.72 C56.55 85.69 62.14 84.82 67.73 84 C71.99 83.45 71.99 83.45 76 82 C76 81.34 76 80.68 76 80 C75.01 80 74.02 80 73 80 C72.34 79.34 71.68 78.68 71 78 C69.81 77.07 68.6 76.16 67.39 75.27 C64.54 73.15 61.71 71.02 58.89 68.86 C57.88 68.09 57.88 68.09 56.85 67.3 C55.48 66.26 54.11 65.2 52.74 64.15 C49.25 61.51 46.17 59.44 42 58 C40.44 56.56 40.44 56.56 39 55 C36.86 53.29 34.73 51.84 32.38 50.44 C30.01 49.01 28.42 47.46 26.56 45.44 C24.95 43.76 24.95 43.76 22 43 C21.42 42.4 20.85 41.8 20.25 41.19 C17.98 38.98 15.71 37.63 12.88 36.22 C11 35 11 35 8.85 32.78 C4.47 28.51 -0.57 25.21 -5.58 21.73 C-6.36 21.18 -7.14 20.63 -7.95 20.06 C-8.65 19.57 -9.36 19.07 -10.09 18.57 C-13.69 15.61 -14.9 13.75 -15.5 9.06 C-15.34 5.85 -14.92 4.87 -13.12 2 C-8.75 -0.8 -5.06 -0.44 0 0 Z " fill="#FB0430" transform="translate(584,348)"/>
<path d="M0 0 C0 30.69 0 61.38 0 93 C-13.84 93.02 -27.68 93.04 -41.94 93.06 C-48.5 93.08 -48.5 93.08 -55.2 93.09 C-60.53 93.09 -60.53 93.09 -63.02 93.1 C-64.76 93.1 -66.51 93.1 -68.26 93.11 C-70.9 93.11 -73.54 93.11 -76.18 93.11 C-76.96 93.12 -77.74 93.12 -78.55 93.12 C-83.89 93.11 -83.89 93.11 -85 92 C-85.1 89.14 -85.13 86.3 -85.11 83.44 C-85.11 82.54 -85.11 81.65 -85.11 80.72 C-85.11 77.74 -85.11 74.76 -85.1 71.78 C-85.1 69.72 -85.09 67.65 -85.09 65.59 C-85.09 60.16 -85.08 54.72 -85.07 49.28 C-85.06 43.74 -85.05 38.2 -85.05 32.65 C-85.04 21.77 -85.02 10.88 -85 0 C-83.56 -0.04 -82.12 -0.07 -80.68 -0.11 C-79.77 -0.14 -78.85 -0.16 -77.91 -0.18 C-75.9 -0.24 -73.9 -0.29 -71.9 -0.34 C-67.81 -0.44 -63.73 -0.55 -59.65 -0.67 C-39.7 -1.23 -20.01 -0.54 0 0 Z M-69 15 C-69 35.46 -69 55.92 -69 77 C-51.84 77.33 -34.68 77.66 -17 78 C-15.27 71.96 -14.65 67.87 -14.69 61.81 C-14.69 60.98 -14.7 60.14 -14.7 59.28 C-14.99 44.1 -20.37 30.95 -31 20 C-40.77 12 -40.77 12 -69 15 Z " fill="#02FDD0" transform="translate(478,126)"/>
<path d="M0 0 C0.77 0 1.55 0.01 2.34 0.01 C3.56 0.01 3.56 0.01 4.79 0.01 C7.48 0.01 10.17 0.02 12.86 0.03 C14.72 0.03 16.58 0.03 18.44 0.03 C23.34 0.03 28.25 0.04 33.15 0.06 C38.15 0.07 43.15 0.07 48.15 0.08 C57.97 0.09 67.79 0.1 77.61 0.12 C77.66 2.36 77.7 4.59 77.75 6.83 C77.79 8.72 77.83 10.61 77.87 12.5 C77.96 16.4 78.04 20.3 78.12 24.2 C78.17 26.85 78.23 29.5 78.29 32.16 C78.32 33.45 78.32 33.45 78.34 34.78 C78.46 39.97 78.93 44.98 79.61 50.12 C79.81 54.08 79.79 58.04 79.8 62 C79.81 63 79.82 64.01 79.83 65.05 C79.85 74.65 78.69 83.39 77.61 93.12 C49.89 93.12 22.17 93.12 -6.39 93.12 C-6.43 70.2 -6.43 70.2 -6.44 60.47 C-6.45 53.82 -6.45 47.16 -6.47 40.51 C-6.48 35.14 -6.48 29.78 -6.49 24.42 C-6.49 22.37 -6.49 20.32 -6.5 18.27 C-6.5 15.41 -6.51 12.54 -6.51 9.68 C-6.51 8.83 -6.51 7.97 -6.52 7.09 C-6.5 0.01 -6.5 0.01 0 0 Z M8.61 15.12 C8.59 23.19 8.57 31.26 8.56 39.32 C8.55 43.07 8.54 46.81 8.53 50.56 C8.52 54.17 8.52 57.78 8.51 61.39 C8.51 62.78 8.51 64.16 8.5 65.54 C8.5 67.46 8.49 69.39 8.49 71.32 C8.49 72.42 8.49 73.52 8.49 74.65 C8.33 77.07 8.33 77.07 9.61 78.12 C11.23 78.22 12.86 78.25 14.48 78.25 C16.04 78.26 16.04 78.26 17.62 78.26 C18.75 78.26 19.88 78.26 21.05 78.26 C22.77 78.26 22.77 78.26 24.53 78.26 C26.97 78.26 29.41 78.26 31.85 78.25 C35.59 78.25 39.34 78.25 43.08 78.26 C45.45 78.26 47.81 78.26 50.17 78.26 C51.86 78.26 51.86 78.26 53.59 78.26 C54.63 78.26 55.67 78.26 56.74 78.25 C57.66 78.25 58.57 78.25 59.52 78.25 C61.6 78.36 61.6 78.36 62.61 77.12 C62.75 74.72 62.82 72.35 62.85 69.94 C62.85 69.21 62.86 68.48 62.87 67.73 C62.88 66.18 62.9 64.62 62.9 63.07 C62.92 60.73 62.96 58.38 63.01 56.04 C63.15 42.98 60.58 33.86 51.61 24.12 C45.42 18.14 42.11 14.96 33.41 15.03 C32.71 15.03 32 15.03 31.27 15.03 C29.01 15.04 26.75 15.05 24.48 15.06 C22.95 15.07 21.42 15.07 19.89 15.08 C16.13 15.09 12.37 15.1 8.61 15.12 Z " fill="#04FCCF" transform="translate(359.39170837402344,668.8755798339844)"/>
<path d="M0 0 C50.82 0 101.64 0 154 0 C154 7.26 154 14.52 154 22 C103.18 22 52.36 22 0 22 C0 14.74 0 7.48 0 0 Z " fill="#1a1a1a" transform="translate(480,967)"/>
<path d="M0 0 C27.72 0 55.44 0 84 0 C82.87 11.25 80.64 17.39 72.49 25.08 C61.44 33.6 49.1 36.97 35.27 35.53 C23.95 33.69 13.79 29.16 6.56 20 C2 13.29 0.92 8.3 0 0 Z " fill="#1a1a1a" transform="translate(852,554)"/>
<path d="M0 0 C1.69 0 3.37 0.01 5.06 0.02 C6.24 0.02 6.24 0.02 7.44 0.02 C10.39 0.02 13.33 0.04 16.28 0.05 C22.86 0.07 29.44 0.09 36.21 0.11 C36.21 13.31 36.21 26.51 36.21 40.11 C22.68 40.11 9.15 40.11 -4.79 40.11 C-4.81 33.7 -4.83 27.28 -4.85 20.68 C-4.86 18.65 -4.87 16.62 -4.88 14.53 C-4.88 12.94 -4.88 11.34 -4.88 9.74 C-4.89 8.91 -4.89 8.07 -4.9 7.21 C-4.9 5.17 -4.85 3.14 -4.79 1.11 C-3.79 0.11 -3.79 0.11 0 0 Z " fill="#01FED0" transform="translate(953.785400390625,478.886474609375)"/>
<path d="M0 0 C1.65 0.04 3.29 0.09 4.94 0.14 C5.7 0.16 6.47 0.18 7.26 0.21 C10.13 0.28 13 0.37 15.87 0.46 C22.28 0.64 28.7 0.83 35.31 1.02 C35.31 14.22 35.31 27.42 35.31 41.02 C22.11 41.02 8.91 41.02 -4.69 41.02 C-4.71 34.44 -4.73 27.86 -4.76 21.08 C-4.77 17.97 -4.77 17.97 -4.78 14.78 C-4.79 13.15 -4.79 11.51 -4.79 9.87 C-4.8 9.01 -4.8 8.15 -4.81 7.27 C-4.81 5.19 -4.76 3.1 -4.69 1.02 C-3.69 0.02 -3.69 0.02 0 0 Z " fill="#01FED0" transform="translate(799.693603515625,477.978271484375)"/>
<path d="M0 0 C6.93 0 13.86 0 21 0 C21 15.18 21 30.36 21 46 C73.8 46 126.6 46 181 46 C181 63.49 181 80.98 181 99 C180.67 99 180.34 99 180 99 C180 81.84 180 64.68 180 47 C120.6 47 61.2 47 0 47 C0 31.49 0 15.98 0 0 Z " fill="#1FF1CC" transform="translate(883,378)"/>
<path d="M0 0 C0.77 0 1.55 0.01 2.34 0.01 C3.56 0.01 3.56 0.01 4.79 0.01 C7.48 0.01 10.17 0.02 12.86 0.03 C14.72 0.03 16.58 0.03 18.44 0.03 C23.34 0.03 28.25 0.04 33.15 0.06 C38.15 0.07 43.15 0.07 48.15 0.08 C57.97 0.09 67.79 0.1 77.61 0.12 C77.66 2.36 77.7 4.59 77.75 6.83 C77.79 8.72 77.83 10.61 77.87 12.5 C77.96 16.4 78.04 20.3 78.12 24.2 C78.17 26.85 78.23 29.5 78.29 32.16 C78.32 33.45 78.32 33.45 78.34 34.78 C78.46 39.97 78.93 44.98 79.61 50.12 C79.81 54.08 79.8 58.04 79.8 62 C79.8 63.09 79.8 64.18 79.8 65.31 C79.74 74.68 78.94 83.85 77.61 93.12 C75.63 92.63 75.63 92.63 73.61 92.12 C74.6 92.12 75.59 92.12 76.61 92.12 C76.45 90.86 76.28 89.59 76.11 88.28 C75.3 80.09 75.48 71.87 75.51 63.65 C75.51 62.07 75.51 60.49 75.51 58.91 C75.52 53.11 75.53 47.3 75.55 41.5 C75.57 28.51 75.59 15.51 75.61 2.12 C49.21 2.12 22.81 2.12 -4.39 2.12 C-4.06 7.73 -3.73 13.34 -3.39 19.12 C-3.32 22 -3.27 24.88 -3.28 27.76 C-3.28 28.47 -3.28 29.18 -3.28 29.92 C-3.28 32.2 -3.29 34.48 -3.29 36.75 C-3.3 38.37 -3.3 39.98 -3.3 41.59 C-3.3 45.77 -3.31 49.95 -3.32 54.13 C-3.33 58.42 -3.34 62.71 -3.34 67.01 C-3.35 75.38 -3.37 83.75 -3.39 92.12 C4.67 92.02 12.74 91.9 20.81 91.79 C24.55 91.73 28.3 91.68 32.04 91.63 C35.66 91.58 39.27 91.53 42.88 91.47 C44.26 91.45 45.64 91.43 47.02 91.42 C48.95 91.39 50.88 91.36 52.8 91.33 C54.45 91.31 54.45 91.31 56.13 91.28 C58.55 91.4 58.55 91.4 59.61 90.12 C61.79 90.05 63.98 90.04 66.17 90.06 C67.97 90.08 67.97 90.08 69.8 90.09 C71.19 90.11 71.19 90.11 72.61 90.12 C72.61 90.78 72.61 91.44 72.61 92.12 C63.03 93.02 53.52 93.26 43.9 93.22 C42.44 93.22 40.98 93.22 39.52 93.22 C35.72 93.21 31.92 93.2 28.12 93.19 C24.23 93.18 20.33 93.18 16.43 93.17 C8.83 93.16 1.22 93.15 -6.39 93.12 C-6.41 81.15 -6.43 69.17 -6.44 57.19 C-6.45 51.63 -6.46 46.07 -6.47 40.51 C-6.48 35.14 -6.48 29.78 -6.49 24.42 C-6.49 22.37 -6.49 20.32 -6.5 18.27 C-6.5 15.41 -6.51 12.54 -6.51 9.68 C-6.51 8.83 -6.51 7.97 -6.52 7.09 C-6.5 0.01 -6.5 0.01 0 0 Z " fill="#20EBBE" transform="translate(359.39170837402344,668.8755798339844)"/>
<path d="M0 0 C2.92 2.85 4.65 4.74 4.87 8.87 C4.33 13.9 3.64 17.12 -0.25 20.69 C-3.94 22.73 -7.07 23.2 -11.25 22.69 C-16.27 19.93 -19.41 17.38 -21.12 11.88 C-21.29 7.7 -20.27 5.33 -18.25 1.69 C-12.41 -4 -6.83 -4.86 0 0 Z " fill="#1a1a1a" transform="translate(509.25,934.3125)"/>
<path d="M0 0 C4.05 2.8 6.95 5.08 8 10 C7.8 15.42 6.48 18.84 3 23 C-0.58 25.29 -3.82 25.27 -8 24.62 C-11.48 23.54 -13.44 21.56 -16 19 C-17.74 15.52 -17.45 11.8 -17 8 C-15.08 3.85 -13.59 2.34 -9.62 0.06 C-5.68 -1.09 -3.87 -1.32 0 0 Z " fill="#1a1a1a" transform="translate(475,932)"/>
<path d="M0 0 C1.43 0 2.86 0.01 4.28 0.03 C5.41 0.04 5.41 0.04 6.56 0.04 C8.97 0.05 11.37 0.08 13.78 0.1 C15.41 0.11 17.03 0.12 18.66 0.13 C22.66 0.15 26.66 0.19 30.65 0.23 C30.68 1.46 30.7 2.69 30.73 3.96 C30.82 8.55 30.92 13.14 31.02 17.73 C31.07 19.71 31.11 21.7 31.15 23.68 C31.21 26.54 31.27 29.4 31.34 32.26 C31.35 33.14 31.37 34.01 31.39 34.92 C31.51 40.09 31.98 45.09 32.65 50.23 C32.85 54.19 32.84 58.14 32.84 62.1 C32.84 63.19 32.84 64.29 32.84 65.41 C32.78 74.79 31.98 83.95 30.65 93.23 C29.33 92.9 28.01 92.57 26.65 92.23 C27.64 92.23 28.63 92.23 29.65 92.23 C29.49 90.96 29.33 89.69 29.16 88.38 C28.34 80.19 28.53 71.97 28.55 63.75 C28.56 61.97 28.56 60.19 28.56 58.41 C28.56 53.76 28.57 49.11 28.58 44.46 C28.59 39.7 28.6 34.94 28.6 30.18 C28.61 20.86 28.63 11.54 28.65 2.23 C17.43 2.23 6.21 2.23 -5.35 2.23 C-3.35 0.23 -3.35 0.23 0 0 Z " fill="#12ECC5" transform="translate(406.34814453125,668.77294921875)"/>
<path d="M0 0 C3.65 -0.03 7.29 -0.05 10.94 -0.06 C12.5 -0.08 12.5 -0.08 14.09 -0.09 C15.58 -0.09 15.58 -0.09 17.09 -0.1 C18.46 -0.11 18.46 -0.11 19.87 -0.11 C22 0 22 0 23 1 C23.09 3.67 23.12 6.31 23.1 8.97 C23.1 9.77 23.09 10.57 23.09 11.39 C23.09 13.95 23.08 16.5 23.06 19.06 C23.06 20.79 23.05 22.52 23.05 24.25 C23.04 28.5 23.02 32.75 23 37 C22.67 37 22.34 37 22 37 C21.84 36.25 21.68 35.5 21.52 34.73 C18.74 22.52 13.44 9.6 2.5 2.44 C1.68 1.96 0.85 1.49 0 1 C0 0.67 0 0.34 0 0 Z " fill="#1a1a1a" transform="translate(440,141)"/>
<path d="M0 0 C3.77 -0.06 7.54 -0.09 11.31 -0.12 C12.38 -0.14 13.46 -0.16 14.56 -0.18 C15.59 -0.18 16.62 -0.19 17.68 -0.2 C18.62 -0.21 19.57 -0.22 20.55 -0.23 C23 0 23 0 26 2 C26.36 4.63 26.36 4.63 26.34 8.01 C26.34 9.9 26.34 9.9 26.34 11.83 C26.32 13.21 26.31 14.6 26.29 15.98 C26.29 17.39 26.28 18.8 26.28 20.21 C26.27 23.92 26.24 27.63 26.21 31.34 C26.18 35.13 26.16 38.92 26.15 42.7 C26.11 50.14 26.06 57.57 26 65 C23 66 21.02 66.12 17.89 66.11 C16.85 66.11 15.8 66.11 14.73 66.11 C13.61 66.11 12.49 66.1 11.33 66.1 C9.61 66.1 9.61 66.1 7.85 66.09 C4.17 66.09 0.49 66.08 -3.19 66.06 C-5.68 66.06 -8.17 66.05 -10.66 66.05 C-16.77 66.04 -22.89 66.02 -29 66 C-29.33 65.34 -29.66 64.68 -30 64 C-12.84 64 4.32 64 22 64 C22.7 59.82 23.14 56.33 23.21 52.18 C23.23 51.06 23.25 49.94 23.27 48.78 C23.29 46.99 23.29 46.99 23.32 45.16 C23.34 43.93 23.36 42.7 23.38 41.42 C23.44 37.49 23.5 33.56 23.56 29.62 C23.61 26.95 23.65 24.28 23.69 21.61 C23.8 15.08 23.9 8.54 24 2 C15.75 2 7.5 2 -1 2 C-0.67 1.34 -0.34 0.68 0 0 Z " fill="#5FAFA3" transform="translate(439,139)"/>
<path d="M0 0 C0 30.69 0 61.38 0 93 C-0.33 93 -0.66 93 -1 93 C-1.97 63 -2.48 33.01 -3 3 C-42.6 2.01 -42.6 2.01 -83 1 C-83.33 3.31 -83.66 5.62 -84 8 C-84.33 8 -84.66 8 -85 8 C-85 5.36 -85 2.72 -85 0 C-78.84 -0.17 -72.68 -0.33 -66.52 -0.48 C-64.45 -0.53 -62.37 -0.59 -60.3 -0.65 C-40.13 -1.22 -20.23 -0.55 0 0 Z " fill="#3BDEC2" transform="translate(478,126)"/>
<path d="M0 0 C5.45 0.57 9.91 1.95 15 4 C13.93 9.11 12.77 14.07 11 19 C0.44 15.92 0.44 15.92 -4 14 C-3.01 9.16 -2.04 4.52 0 0 Z " fill="#1a1a1a" transform="translate(289,630)"/>
<path d="M0 0 C7.26 0 14.52 0 22 0 C22 9.24 22 18.48 22 28 C20.31 25.46 19.17 23.2 17.94 20.44 C13.9 12.28 7.83 5.62 0 1 C0 0.67 0 0.34 0 0 Z " fill="#1a1a1a" transform="translate(400,684)"/>
<path d="M0 0 C1.65 4.29 3.3 8.58 5 13 C1.51 15.09 -0.97 16.51 -4.69 17.75 C-5.45 18.01 -6.22 18.28 -7.01 18.55 C-9 19 -9 19 -11 18 C-11.85 15.89 -11.85 15.89 -12.62 13.25 C-13.02 11.96 -13.02 11.96 -13.41 10.64 C-14 8 -14.11 5.69 -14 3 C-12.42 2.49 -10.83 1.99 -9.25 1.5 C-7.93 1.08 -7.93 1.08 -6.58 0.66 C-4 0 -4 0 0 0 Z " fill="#1a1a1a" transform="translate(422,555)"/>
<path d="M0 0 C13.2 0 26.4 0 40 0 C40 13.2 40 26.4 40 40 C26.47 40 12.94 40 -1 40 C-1 39.34 -1 38.68 -1 38 C2.17 36.42 5.56 36.9 9.04 36.94 C10.23 36.94 10.23 36.94 11.44 36.95 C13.98 36.96 16.52 36.98 19.06 37 C22.41 37.03 25.75 37.05 29.1 37.06 C30.26 37.07 30.26 37.07 31.45 37.09 C33.3 37.1 35.15 37.05 37 37 C38.98 35.02 38.26 31.18 38.32 28.46 C38.34 27.71 38.36 26.96 38.38 26.18 C38.44 23.77 38.5 21.35 38.56 18.94 C38.61 17.3 38.65 15.67 38.69 14.04 C38.8 10.02 38.9 6.01 39 2 C38.29 2.16 37.58 2.32 36.85 2.49 C33.97 3.01 31.32 3.13 28.39 3.13 C27.33 3.13 26.26 3.14 25.16 3.14 C23.5 3.13 23.5 3.13 21.81 3.12 C20.73 3.13 19.64 3.13 18.52 3.14 C11.95 3.13 5.52 2.8 -1 2 C-0.67 1.34 -0.34 0.68 0 0 Z " fill="#1AF2C8" transform="translate(950,479)"/>
<path d="M0 0 C0.67 1.96 1.34 3.92 2 5.88 C2.56 7.51 2.56 7.51 3.12 9.18 C4 12 4 12 4 14 C1.88 14.84 -0.25 15.67 -2.38 16.5 C-3.56 16.96 -4.74 17.43 -5.96 17.91 C-9 19 -9 19 -11 19 C-11.67 17.06 -12.34 15.13 -13 13.19 C-13.37 12.11 -13.74 11.03 -14.12 9.92 C-15 7 -15 7 -15 4 C-13.44 3.32 -11.88 2.66 -10.31 2 C-9.44 1.63 -8.57 1.26 -7.68 0.88 C-4.94 -0.02 -2.85 -0.16 0 0 Z " fill="#1a1a1a" transform="translate(475,705)"/>
<path d="M0 0 C0.68 1.58 1.34 3.16 2 4.75 C2.37 5.63 2.74 6.51 3.12 7.42 C4 10 4 10 4 14 C2.25 14.67 0.5 15.34 -1.25 16 C-2.71 16.56 -2.71 16.56 -4.2 17.12 C-7 18 -7 18 -11 18 C-11.7 16.07 -12.38 14.13 -13.06 12.19 C-13.45 11.11 -13.83 10.03 -14.22 8.92 C-15 6 -15 6 -14 3 C-11.86 2.05 -11.86 2.05 -9.19 1.31 C-8.31 1.06 -7.44 0.81 -6.54 0.55 C-4 0 -4 0 0 0 Z " fill="#1a1a1a" transform="translate(457,655)"/>
<path d="M0 0 C0.84 1.96 1.67 3.92 2.5 5.88 C2.96 6.97 3.43 8.06 3.91 9.18 C5 12 5 12 5 14 C2.88 14.84 0.75 15.67 -1.38 16.5 C-2.56 16.96 -3.74 17.43 -4.96 17.91 C-8 19 -8 19 -10 19 C-10.67 17.09 -11.34 15.17 -12 13.25 C-12.37 12.18 -12.74 11.12 -13.12 10.02 C-14 7 -14 7 -14 3 C-12.42 2.49 -10.83 1.99 -9.25 1.5 C-7.93 1.08 -7.93 1.08 -6.58 0.66 C-4 0 -4 0 0 0 Z " fill="#1a1a1a" transform="translate(448,630)"/>
<path d="M0 0 C2.15 0.56 4.3 1.15 6.44 1.75 C7.63 2.07 8.83 2.4 10.06 2.73 C13 4 13 4 14.03 5.78 C13.99 8.75 13.15 10.99 12.06 13.75 C11.68 14.73 11.3 15.72 10.91 16.73 C10.61 17.48 10.31 18.23 10 19 C4.55 18.43 0.09 17.05 -5 15 C-4.74 13.62 -4.47 12.25 -4.19 10.88 C-4.04 10.11 -3.89 9.34 -3.73 8.55 C-2.85 5.48 -1.49 2.82 0 0 Z " fill="#1a1a1a" transform="translate(308,579)"/>
<path d="M0 0 C0.67 1.75 1.34 3.5 2 5.25 C2.56 6.71 2.56 6.71 3.12 8.2 C4 11 4 11 4 15 C2.25 15.67 0.5 16.34 -1.25 17 C-2.71 17.56 -2.71 17.56 -4.2 18.12 C-7 19 -7 19 -11 19 C-11.7 16.88 -12.38 14.75 -13.06 12.62 C-13.45 11.44 -13.83 10.26 -14.22 9.04 C-15 6 -15 6 -14 4 C-11.6 2.93 -11.6 2.93 -8.62 1.88 C-7.65 1.52 -6.67 1.17 -5.66 0.8 C-3 0 -3 0 0 0 Z " fill="#1a1a1a" transform="translate(431,579)"/>
<path d="M0 0 C5.66 0.5 9.88 1.55 15 4 C14.52 5.77 14.04 7.54 13.56 9.31 C13.3 10.3 13.03 11.28 12.75 12.3 C12.22 14.22 11.63 16.11 11 18 C5.55 17.43 1.09 16.05 -4 14 C-3.37 8.95 -1.87 4.7 0 0 Z " fill="#1a1a1a" transform="translate(254,730)"/>
<path d="M0 0 C5.45 0.57 9.91 1.95 15 4 C14.55 5.75 14.09 7.5 13.62 9.25 C13.24 10.71 13.24 10.71 12.85 12.2 C12.1 14.66 11.23 16.76 10 19 C8.42 18.55 6.83 18.09 5.25 17.62 C3.93 17.24 3.93 17.24 2.58 16.85 C0.24 16.08 -1.83 15.16 -4 14 C-3.37 8.95 -1.87 4.7 0 0 Z " fill="#1a1a1a" transform="translate(263,705)"/>
<path d="M0 0 C0.54 1.56 1.05 3.12 1.56 4.69 C1.85 5.56 2.14 6.43 2.44 7.32 C3.05 10.25 2.78 12.14 2 15 C0.59 15.51 -0.83 16.01 -2.25 16.5 C-3.04 16.78 -3.83 17.06 -4.64 17.34 C-7 18 -7 18 -11 18 C-11.7 16.44 -12.39 14.88 -13.06 13.31 C-13.45 12.44 -13.83 11.57 -14.22 10.68 C-15.09 7.68 -14.85 5.97 -14 3 C-12.61 2.49 -11.21 1.99 -9.81 1.5 C-9.04 1.22 -8.26 0.94 -7.46 0.66 C-4.87 -0.04 -2.67 -0.11 0 0 Z " fill="#1a1a1a" transform="translate(484,730)"/>
<path d="M0 0 C0.68 1.58 1.34 3.16 2 4.75 C2.37 5.63 2.74 6.51 3.12 7.42 C4 10 4 10 4 14 C2.25 14.67 0.5 15.34 -1.25 16 C-2.71 16.56 -2.71 16.56 -4.2 17.12 C-7 18 -7 18 -11 18 C-11.67 16.23 -12.34 14.46 -13 12.69 C-13.37 11.7 -13.74 10.72 -14.12 9.7 C-15 7 -15 7 -15 4 C-13.25 3.33 -11.5 2.66 -9.75 2 C-8.78 1.63 -7.8 1.26 -6.8 0.88 C-4 0 -4 0 0 0 Z " fill="#1a1a1a" transform="translate(466,680)"/>
<path d="M0 0 C5.45 0.57 9.91 1.95 15 4 C14.01 8.84 13.04 13.48 11 18 C5.55 17.43 1.09 16.05 -4 14 C-3.01 9.16 -2.04 4.52 0 0 Z " fill="#1a1a1a" transform="translate(298,605)"/>
<path d="M0 0 C4.87 0.6 9.33 1.57 14 3 C13.49 8.97 11.61 13.64 9 19 C7.01 18.44 5.04 17.85 3.06 17.25 C1.96 16.93 0.86 16.6 -0.28 16.27 C-3 15 -3 15 -4 13.22 C-4 10.24 -3.15 8.02 -2.06 5.25 C-1.68 4.27 -1.3 3.28 -0.91 2.27 C-0.61 1.52 -0.31 0.77 0 0 Z " fill="#1a1a1a" transform="translate(316,555)"/>
<path d="M0 0 C5.41 0.47 9.21 1.24 14 4 C13.01 8.84 12.04 13.48 10 18 C4.95 17.37 0.7 15.87 -4 14 C-3.46 8.72 -2.23 4.74 0 0 Z " fill="#1a1a1a" transform="translate(281,655)"/>
<path d="M0 0 C4.84 0.99 9.48 1.96 14 4 C13.69 5.58 13.38 7.17 13.06 8.75 C12.89 9.63 12.71 10.51 12.54 11.42 C12.08 13.63 11.57 15.82 11 18 C5.34 17.5 1.12 16.45 -4 14 C-3.46 8.72 -2.23 4.74 0 0 Z " fill="#1a1a1a" transform="translate(272,680)"/>
<path d="M0 0 C1.36 2.43 1.36 2.43 2.31 5.44 C2.8 6.92 2.8 6.92 3.3 8.43 C4 11 4 11 4 13 C2.06 13.67 0.13 14.34 -1.81 15 C-2.89 15.37 -3.97 15.74 -5.08 16.12 C-8 17 -8 17 -11 17 C-11.67 15.04 -12.34 13.08 -13 11.12 C-13.37 10.03 -13.74 8.94 -14.12 7.82 C-15 5 -15 5 -15 3 C-13.44 2.3 -11.88 1.61 -10.31 0.94 C-9.44 0.55 -8.57 0.17 -7.68 -0.22 C-4.56 -1.13 -3.01 -1.25 0 0 Z " fill="#1a1a1a" transform="translate(440,606)"/>
<path d="M0 0 C4.95 0 9.9 0 15 0 C15 4.95 15 9.9 15 15 C10.05 15 5.1 15 0 15 C0 10.05 0 5.1 0 0 Z " fill="#1a1a1a" transform="translate(396,721)"/>
<path d="M0 0 C4.95 0 9.9 0 15 0 C15 4.95 15 9.9 15 15 C10.05 15 5.1 15 0 15 C0 10.05 0 5.1 0 0 Z " fill="#1a1a1a" transform="translate(383,694)"/>
<path d="M0 0 C4.95 0 9.9 0 15 0 C15 4.95 15 9.9 15 15 C10.05 15 5.1 15 0 15 C0 10.05 0 5.1 0 0 Z " fill="#1a1a1a" transform="translate(435,177)"/>
<path d="M0 0 C4.95 0 9.9 0 15 0 C15.1 10.84 15.1 10.84 15 14 C14 15 14 15 10.84 15.1 C7.23 15.07 3.61 15.03 0 15 C0 10.05 0 5.1 0 0 Z " fill="#1a1a1a" transform="translate(422,151)"/>
<path d="M0 0 C0.33 0 0.66 0 1 0 C1 20.46 1 40.92 1 62 C0.01 62 -0.98 62 -2 62 C-2 42.86 -2 23.72 -2 4 C-1.34 4 -0.68 4 0 4 C0 2.68 0 1.36 0 0 Z " fill="#20E9B3" transform="translate(367,684)"/>
<path d="M0 0 C0.33 0 0.66 0 1 0 C2 6.65 2.19 13.16 2.19 19.88 C2.19 20.97 2.19 22.06 2.19 23.18 C2.13 32.56 1.33 41.72 0 51 C-1.32 50.67 -2.64 50.34 -4 50 C-3.01 50 -2.02 50 -1 50 C-1.16 48.72 -1.32 47.43 -1.49 46.11 C-2.2 38.94 -2.19 31.77 -2.19 24.57 C-2.19 22.18 -2.21 19.78 -2.22 17.39 C-2.23 15.86 -2.23 14.33 -2.23 12.79 C-2.24 12.08 -2.24 11.38 -2.25 10.65 C-2.23 6.65 -1.76 3.6 0 0 Z " fill="#1a1a1a" transform="translate(437,711)"/>
<path d="M0 0 C6.93 0 13.86 0 21 0 C21 15.51 21 31.02 21 47 C14.07 47 7.14 47 0 47 C0 46.34 0 45.68 0 45 C6.27 44.67 12.54 44.34 19 44 C19.33 30.14 19.66 16.28 20 2 C9.65 1.01 9.65 1.01 0 3 C0 2.01 0 1.02 0 0 Z " fill="#1BF1C4" transform="translate(883,378)"/>
<path d="M0 0 C0.87 0 1.74 0 2.63 0.01 C3.61 0.01 4.59 0.01 5.6 0.01 C6.67 0.01 7.74 0.02 8.84 0.02 C9.92 0.02 11.01 0.03 12.13 0.03 C15.61 0.03 19.1 0.05 22.58 0.06 C24.94 0.06 27.29 0.07 29.65 0.07 C35.44 0.08 41.23 0.1 47.02 0.12 C45.02 2.12 45.02 2.12 43.03 2.36 C41.81 2.35 41.81 2.35 40.57 2.35 C39.65 2.35 38.73 2.35 37.78 2.35 C36.78 2.34 35.79 2.33 34.76 2.32 C33.74 2.31 32.73 2.31 31.68 2.31 C28.42 2.3 25.16 2.27 21.89 2.25 C19.69 2.24 17.48 2.23 15.27 2.22 C9.86 2.2 4.44 2.16 -0.98 2.12 C-0.98 4.1 -0.98 6.08 -0.98 8.12 C-1.97 8.62 -1.97 8.62 -2.98 9.12 C-3.08 2.97 -3.08 2.97 -2.98 1.12 C-1.98 0.12 -1.98 0.12 0 0 Z " fill="#4BE7CB" transform="translate(355.98048400878906,668.8797454833984)"/>
<path d="M0 0 C12.21 0 24.42 0 37 0 C37 0.66 37 1.32 37 2 C32.5 4.25 26.35 3.23 21.34 3.24 C19.07 3.25 16.81 3.28 14.54 3.31 C13.1 3.32 11.66 3.32 10.22 3.33 C8.91 3.34 7.6 3.35 6.25 3.36 C3 3 3 3 0 0 Z " fill="#17F4C8" transform="translate(798,479)"/>
<path d="M0 0 C0.66 0 1.32 0 2 0 C2.1 4.7 2.17 9.39 2.22 14.09 C2.24 15.68 2.27 17.28 2.3 18.87 C2.65 35.36 2.65 35.36 -2 42 C-4.25 44 -4.25 44 -6 45 C-4.93 42.08 -4.22 40.22 -2 38 C-0.6 34.21 -0.78 30.16 -0.68 26.17 C-0.66 25.42 -0.64 24.67 -0.62 23.9 C-0.56 21.52 -0.5 19.13 -0.44 16.75 C-0.39 15.13 -0.35 13.51 -0.31 11.89 C-0.2 7.93 -0.1 3.96 0 0 Z " fill="#1a1a1a" transform="translate(425,478)"/>
<path d="M0 0 C0.33 0.66 0.66 1.32 1 2 C1.75 1.84 2.5 1.69 3.27 1.53 C4.74 1.24 4.74 1.24 6.25 0.94 C7.71 0.64 7.71 0.64 9.2 0.34 C11.87 0.02 13.49 0.14 16 1 C16 1.66 16 2.32 16 3 C16.76 2.93 17.52 2.86 18.31 2.78 C23.24 2.34 28.11 1.93 33.06 2 C36.9 2.21 36.9 2.21 40 1 C40 1.99 40 2.98 40 4 C26.8 4 13.6 4 0 4 C0 2.68 0 1.36 0 0 Z " fill="#19F5C0" transform="translate(795,515)"/>
<path d="M0 0 C2.52 2.55 2.99 3.8 3.14 7.44 C3.05 8.82 2.94 10.19 2.81 11.56 C2.76 12.29 2.7 13.03 2.64 13.78 C1.95 22.54 0.99 31.27 0 40 C-0.33 40 -0.66 40 -1 40 C-1.02 34.79 -1.04 29.57 -1.05 24.36 C-1.06 22.58 -1.07 20.81 -1.08 19.03 C-1.09 16.49 -1.09 13.94 -1.1 11.39 C-1.1 10.59 -1.11 9.8 -1.11 8.98 C-1.11 5.72 -1.04 3.11 0 0 Z " fill="#E31444" transform="translate(693,598)"/>
<path d="M0 0 C0.33 0 0.66 0 1 0 C1 10.56 1 21.12 1 32 C-0.32 31.67 -1.64 31.34 -3 31 C-2.85 30.24 -2.69 29.48 -2.53 28.7 C-1.68 22.76 -1.6 16.78 -1.39 10.79 C-1.36 9.84 -1.32 8.88 -1.28 7.89 C-1.25 7.03 -1.22 6.16 -1.19 5.26 C-1 3 -1 3 0 0 Z " fill="#30EDCD" transform="translate(464,172)"/>
<path d="M0 0 C4.32 1.57 8.12 3.54 12 6 C12.33 6.99 12.66 7.98 13 9 C15.97 9.5 15.97 9.5 19 10 C19 10.99 19 11.98 19 13 C19.66 13.33 20.32 13.66 21 14 C21.33 14.66 21.66 15.32 22 16 C21.01 16 20.02 16 19 16 C18.34 15.34 17.68 14.68 17 14 C15.82 13.09 14.63 12.2 13.44 11.31 C10.28 8.96 7.13 6.59 4 4.19 C3.24 3.6 2.47 3.02 1.69 2.42 C1.13 1.95 0.57 1.48 0 1 C0 0.67 0 0.34 0 0 Z " fill="#E5193F" transform="translate(638,412)"/>
<path d="M0 0 C1.15 0.02 2.3 0.04 3.49 0.05 C4.36 0.08 5.23 0.1 6.12 0.12 C6.12 0.45 6.12 0.79 6.12 1.12 C2.06 1.8 -2 2.46 -6.06 3.12 C-7.21 3.32 -8.36 3.51 -9.55 3.7 C-11.22 3.97 -11.22 3.97 -12.92 4.25 C-14.45 4.5 -14.45 4.5 -16.01 4.76 C-18.67 5.1 -21.2 5.19 -23.88 5.12 C-20.3 1.7 -17.67 2.04 -12.88 2.12 C-11.95 1.8 -11.03 1.47 -10.08 1.14 C-6.54 0.02 -3.7 -0.08 0 0 Z " fill="#DF183B" transform="translate(665.875,447.875)"/>
<path d="M0 0 C0.99 0 1.98 0 3 0 C3 0.66 3 1.32 3 2 C-0.38 3.96 -3.52 4.56 -7.38 5.12 C-8.48 5.29 -9.58 5.46 -10.71 5.63 C-13.84 5.98 -16.85 6.07 -20 6 C-20 5.34 -20 4.68 -20 4 C-13.26 2.74 -6.87 1.74 0 2 C0 1.34 0 0.68 0 0 Z " fill="#E01A41" transform="translate(692,442)"/>
<path d="M0 0 C0.33 0 0.66 0 1 0 C1.19 2.44 1.38 4.87 1.56 7.31 C1.62 8 1.67 8.69 1.73 9.4 C1.97 12.63 2.03 14.9 1 18 C0.67 18.33 0.34 18.66 0 19 C-0.23 20.51 -0.41 22.04 -0.56 23.56 C-0.65 24.39 -0.73 25.22 -0.82 26.07 C-0.88 26.7 -0.94 27.34 -1 28 C-1.66 28 -2.32 28 -3 28 C-2.01 18.76 -1.02 9.52 0 0 Z " fill="#DC244E" transform="translate(674,630)"/>
<path d="M0 0 C0.33 1.32 0.66 2.64 1 4 C-5.93 4 -12.86 4 -20 4 C-20 3.34 -20 2.68 -20 2 C-19.43 1.97 -18.86 1.95 -18.27 1.92 C-15.7 1.81 -13.13 1.69 -10.56 1.56 C-9.66 1.52 -8.77 1.48 -7.84 1.44 C-6.99 1.4 -6.13 1.36 -5.25 1.32 C-4.46 1.28 -3.67 1.24 -2.86 1.21 C-0.99 1.19 -0.99 1.19 0 0 Z " fill="#2CE4C7" transform="translate(903,421)"/>
<path d="M0 0 C0 0.33 0 0.66 0 1 C-5.94 1.5 -5.94 1.5 -12 2 C-12.1 3.42 -12.21 4.85 -12.31 6.31 C-12.52 9.21 -12.63 10.57 -14.54 12.79 C-15.02 13.19 -15.5 13.59 -16 14 C-16.46 9.33 -16.62 6.06 -14.19 1.94 C-9.54 -0.89 -5.31 -0.42 0 0 Z " fill="#D01D3C" transform="translate(636,590)"/>
<path d="M0 0 C0 3 0 3 -1 5 C-1.42 11.32 -1.42 11.32 1 17 C-2.88 15.12 -2.88 15.12 -4 14 C-4.97 5.27 -4.97 5.27 -2 1.38 C-1.34 0.92 -0.68 0.47 0 0 Z " fill="#D6193C" transform="translate(626,437)"/>
<path d="M0 0 C0.33 0 0.66 0 1 0 C1.51 2.87 2.01 5.75 2.5 8.62 C2.64 9.43 2.79 10.24 2.93 11.07 C3.68 15.44 4.17 19.55 4 24 C3.69 23.36 3.38 22.72 3.06 22.06 C2.17 20.06 2.17 20.06 1 19 C-0.26 12.69 -0.09 6.41 0 0 Z " fill="#DA1D41" transform="translate(691,402)"/>
<path d="M0 0 C0.66 0 1.32 0 2 0 C2 1.65 2 3.3 2 5 C2.66 5 3.32 5 4 5 C4.33 9.95 4.66 14.9 5 20 C4.34 20 3.68 20 3 20 C2.01 13.4 1.02 6.8 0 0 Z " fill="#D33755" transform="translate(669,384)"/>
<path d="M0 0 C0 0.66 0 1.32 0 2 C-1.98 2 -3.96 2 -6 2 C-6 2.66 -6 3.32 -6 4 C-10.62 4 -15.24 4 -20 4 C-20 3.67 -20 3.34 -20 3 C-17.04 2.5 -14.08 2 -11.12 1.5 C-10.28 1.36 -9.44 1.21 -8.57 1.07 C-7.37 0.86 -7.37 0.86 -6.13 0.66 C-5.02 0.47 -5.02 0.47 -3.88 0.28 C-2 0 -2 0 0 0 Z " fill="#D72C49" transform="translate(648,433)"/>
<path d="M0 0 C0.66 0.66 1.32 1.32 2 2 C1.5 2.47 1.01 2.95 0.5 3.44 C-1.7 7.2 -1.25 10.73 -1 15 C-1.66 14.67 -2.32 14.34 -3 14 C-3.87 11.02 -4.15 8.1 -4 5 C-2.06 1.94 -2.06 1.94 0 0 Z " fill="#E1143B" transform="translate(576,682)"/>
<path d="M0 0 C0.66 0.33 1.32 0.66 2 1 C0.75 3.5 0.75 3.5 -1 6 C-2.32 6 -3.64 6 -5 6 C-5.33 6.99 -5.66 7.98 -6 9 C-7.32 8.67 -8.64 8.34 -10 8 C-6.7 5.36 -3.4 2.72 0 0 Z " fill="#E5163B" transform="translate(642,628)"/>
<path d="M0 0 C0.33 0.66 0.66 1.32 1 2 C1.75 1.84 2.5 1.69 3.27 1.53 C4.74 1.24 4.74 1.24 6.25 0.94 C7.71 0.64 7.71 0.64 9.2 0.34 C11.87 0.02 13.49 0.14 16 1 C16 1.66 16 2.32 16 3 C10.72 3 5.44 3 0 3 C0 2.01 0 1.02 0 0 Z " fill="#0FF9C3" transform="translate(795,515)"/>
<path d="M0 0 C0 0.99 0 1.98 0 3 C-1.86 4.82 -1.86 4.82 -4.31 6.69 C-5.11 7.31 -5.91 7.93 -6.74 8.57 C-9 10 -9 10 -12 10 C-9.72 5.44 -4.19 2.73 0 0 Z " fill="#E02345" transform="translate(592,669)"/>
<path d="M0 0 C-0.33 0.99 -0.66 1.98 -1 3 C-4.96 3 -8.92 3 -13 3 C-13.33 2.34 -13.66 1.68 -14 1 C-12.04 0.83 -10.08 0.67 -8.12 0.5 C-6.49 0.36 -6.49 0.36 -4.82 0.22 C-3.22 0.09 -1.61 0 0 0 Z " fill="#E72245" transform="translate(589,696)"/>
<path d="M0 0 C1.46 2.91 0.64 4.96 0.06 8.12 C-0.13 9.22 -0.33 10.32 -0.53 11.45 C-0.68 12.29 -0.84 13.13 -1 14 C-3 12 -3 12 -3.31 8.12 C-3.24 4.54 -2.6 2.6 0 0 Z " fill="#E8103F" transform="translate(572,349)"/>
<path d="M0 0 C0.66 0 1.32 0 2 0 C2.66 2.31 3.32 4.62 4 7 C0.25 8.12 0.25 8.12 -2 7 C-1.67 6.34 -1.34 5.68 -1 5 C-0.34 5.33 0.32 5.66 1 6 C0.67 4.02 0.34 2.04 0 0 Z " fill="#D22D49" transform="translate(673,408)"/>
<path d="M0 0 C2.97 1.98 5.94 3.96 9 6 C8.01 6.33 7.02 6.66 6 7 C2.81 5.25 2.81 5.25 0 3 C0 2.01 0 1.02 0 0 Z " fill="#E10F34" transform="translate(612,370)"/>
<path d="M0 0 C2.31 -0.36 2.31 -0.36 5 -0.31 C5.89 -0.31 6.77 -0.3 7.69 -0.3 C10 0 10 0 12 2 C11.32 1.99 10.65 1.98 9.95 1.96 C9.06 1.96 8.17 1.95 7.25 1.94 C6.37 1.93 5.49 1.91 4.58 1.9 C2.22 1.99 0.26 2.33 -2 3 C-1.34 2.01 -0.68 1.02 0 0 Z " fill="#E61842" transform="translate(673,371)"/>
<path d="M0 0 C0.66 0.33 1.32 0.66 2 1 C1.67 1.99 1.34 2.98 1 4 C-0.98 4.33 -2.96 4.66 -5 5 C-3.35 3.35 -1.7 1.7 0 0 Z " fill="#E31639" transform="translate(598,664)"/>
<path d="M0 0 C1.98 0.66 3.96 1.32 6 2 C6 2.99 6 3.98 6 5 C3.56 4.19 3.56 4.19 1 3 C0.67 2.01 0.34 1.02 0 0 Z " fill="#F2375E" transform="translate(625,403)"/>
<path d="M0 0 C1.32 0.33 2.64 0.66 4 1 C4 1.66 4 2.32 4 3 C5.32 3.33 6.64 3.66 8 4 C7.34 4.66 6.68 5.32 6 6 C3.96 4.73 1.96 3.39 0 2 C0 1.34 0 0.68 0 0 Z " fill="#E93C5E" transform="translate(635,387)"/>
<path d="" fill="#1a1a1a" transform="translate(0,0)"/>
<path d="" fill="#1a1a1a" transform="translate(0,0)"/>
<path d="" fill="#1a1a1a" transform="translate(0,0)"/>
<path d="" fill="#1a1a1a" transform="translate(0,0)"/>
<path d="" fill="#1a1a1a" transform="translate(0,0)"/>
<path d="" fill="#1a1a1a" transform="translate(0,0)"/>
<path d="" fill="#1a1a1a" transform="translate(0,0)"/>
<path d="" fill="#1a1a1a" transform="translate(0,0)"/>
<path d="" fill="#1a1a1a" transform="translate(0,0)"/>
<path d="" fill="#1a1a1a" transform="translate(0,0)"/>
<path d="" fill="#1a1a1a" transform="translate(0,0)"/>
<path d="" fill="#1a1a1a" transform="translate(0,0)"/>
<path d="" fill="#1a1a1a" transform="translate(0,0)"/>
<path d="" fill="#1a1a1a" transform="translate(0,0)"/>
<path d="" fill="#1a1a1a" transform="translate(0,0)"/>
<path d="" fill="#1a1a1a" transform="translate(0,0)"/>
<path d="" fill="#1a1a1a" transform="translate(0,0)"/>
<path d="" fill="#1a1a1a" transform="translate(0,0)"/>
<path d="" fill="#1a1a1a" transform="translate(0,0)"/>
<path d="" fill="#1a1a1a" transform="translate(0,0)"/>
<path d="" fill="#1a1a1a" transform="translate(0,0)"/>
<path d="" fill="#1a1a1a" transform="translate(0,0)"/>
<path d="" fill="#1a1a1a" transform="translate(0,0)"/>
<path d="" fill="#1a1a1a" transform="translate(0,0)"/>
<path d="" fill="#1a1a1a" transform="translate(0,0)"/>
<path d="" fill="#1a1a1a" transform="translate(0,0)"/>
<path d="" fill="#1a1a1a" transform="translate(0,0)"/>
<path d="" fill="#1a1a1a" transform="translate(0,0)"/>
<path d="" fill="#1a1a1a" transform="translate(0,0)"/>
<path d="" fill="#1a1a1a" transform="translate(0,0)"/>
<path d="" fill="#1a1a1a" transform="translate(0,0)"/>
<path d="" fill="#1a1a1a" transform="translate(0,0)"/>
<path d="" fill="#1a1a1a" transform="translate(0,0)"/>
<path d="" fill="#1a1a1a" transform="translate(0,0)"/>
<path d="" fill="#1a1a1a" transform="translate(0,0)"/>
<path d="" fill="#1a1a1a" transform="translate(0,0)"/>
<path d="" fill="#1a1a1a" transform="translate(0,0)"/>
<path d="" fill="#1a1a1a" transform="translate(0,0)"/>
<path d="" fill="#1a1a1a" transform="translate(0,0)"/>
<path d="" fill="#1a1a1a" transform="translate(0,0)"/>
<path d="" fill="#1a1a1a" transform="translate(0,0)"/>
<path d="" fill="#1a1a1a" transform="translate(0,0)"/>
<path d="" fill="#1a1a1a" transform="translate(0,0)"/>
<path d="" fill="#1a1a1a" transform="translate(0,0)"/>
<path d="" fill="#1a1a1a" transform="translate(0,0)"/>
<path d="" fill="#1a1a1a" transform="translate(0,0)"/>
<path d="" fill="#1a1a1a" transform="translate(0,0)"/>
<path d="" fill="#1a1a1a" transform="translate(0,0)"/>
<path d="" fill="#1a1a1a" transform="translate(0,0)"/>
<path d="" fill="#1a1a1a" transform="translate(0,0)"/>
<path d="" fill="#1a1a1a" transform="translate(0,0)"/>
<path d="" fill="#1a1a1a" transform="translate(0,0)"/>
<path d="" fill="#1a1a1a" transform="translate(0,0)"/>
<path d="" fill="#1a1a1a" transform="translate(0,0)"/>
<path d="" fill="#1a1a1a" transform="translate(0,0)"/>
<path d="" fill="#1a1a1a" transform="translate(0,0)"/>
</svg>
