<?xml version="1.0" encoding="UTF-8" standalone="no"?>
<!-- Generator: Adobe Illustrator 28.0.0, SVG Export Plug-In . SVG Version: 6.00 Build 0)  -->

<svg
   version="1.1"
   id="Ebene_1"
   x="0px"
   y="0px"
   viewBox="0 0 345.4 111.4"
   style="enable-background:new 0 0 345.4 111.4;"
   xml:space="preserve"
   sodipodi:docname="Logo_SVG-ONE-ai.svg"
   inkscape:version="1.2.2 (732a01da63, 2022-12-09)"
   xmlns:inkscape="http://www.inkscape.org/namespaces/inkscape"
   xmlns:sodipodi="http://sodipodi.sourceforge.net/DTD/sodipodi-0.dtd"
   xmlns="http://www.w3.org/2000/svg"
   xmlns:svg="http://www.w3.org/2000/svg"><defs
   id="defs221" /><sodipodi:namedview
   id="namedview219"
   pagecolor="#505050"
   bordercolor="#ffffff"
   borderopacity="1"
   inkscape:showpageshadow="0"
   inkscape:pageopacity="0"
   inkscape:pagecheckerboard="1"
   inkscape:deskcolor="#505050"
   showgrid="false"
   inkscape:zoom="0.99884194"
   inkscape:cx="219.75449"
   inkscape:cy="29.534202"
   inkscape:window-width="1920"
   inkscape:window-height="991"
   inkscape:window-x="-9"
   inkscape:window-y="-9"
   inkscape:window-maximized="1"
   inkscape:current-layer="Ebene_1" />
<style
   type="text/css"
   id="style174">
	.st0{display:none;opacity:0.5;}
	.st1{display:inline;fill:#1D1E1C;}
	.st2{fill:#00FFAF;}
	.st3{fill:#FFFFFF;}
	.st4{fill:#353435;}
	.st5{fill:#ECEDEE;}
</style>

<g
   id="g216"
   transform="matrix(1.2137394,0,0,1.2137394,-36.157975,-12.290894)">
	<g
   id="g206">
		<g
   id="g196">
			<g
   id="g182">
				<rect
   x="187.8"
   y="51.5"
   class="st3"
   width="31.799999"
   height="8.3999996"
   id="rect180" />
			</g>
			<g
   id="g186">
				<polygon
   class="st3"
   points="167.2,29.4 167.2,37.7 167.2,42.6 175.6,42.6 175.6,37.7 219.6,37.7 219.6,29.4 175.6,29.4 "
   id="polygon184" />
			</g>
			<g
   id="g190">
				<polygon
   class="st3"
   points="167.2,68.7 167.2,73.6 167.2,81.9 167.2,82 219.6,82 219.6,73.6 175.6,73.6 175.6,68.7 "
   id="polygon188" />
			</g>
			<g
   id="g194">
				<rect
   x="167.2"
   y="48.099998"
   class="st3"
   width="15.1"
   height="15.1"
   id="rect192" />
			</g>
		</g>
		<g
   id="g200">
			<path
   class="st3"
   d="m 42.7,29.4 v 0 8.4 35.9 8.3 h 8.3 35.7 8.4 v -8.4 -35.8 -8.3 0 H 42.7 Z m 44,44.2 H 51 V 37.8 h 35.7 z"
   id="path198" />
		</g>
		<g
   id="g204">
			<polyline
   class="st3"
   points="149.2,82 157.4,82 157.4,29.4 149.1,29.4 149.1,69.3 113.3,29.4 113.3,29.4 105,29.4 105,82      113.4,82 113.4,41.9 149.1,82 149.1,82 149.1,82    "
   id="polyline202" />
		</g>
	</g>
	<rect
   x="231.39999"
   y="48.200001"
   class="st2"
   width="15.1"
   height="15.1"
   id="rect208" />
	<g
   id="g214">
		<path
   class="st3"
   d="m 285,63.9 h -19.6 l -4.2,9.4 h -3.9 l 16,-35.1 h 3.7 l 16,35.1 h -3.9 z m -1.3,-3.1 -8.4,-18.8 -8.4,18.9 h 16.8 z"
   id="path210" />
		<path
   class="st3"
   d="m 299,38.1 h 3.7 V 73.2 H 299 Z"
   id="path212" />
	</g>
</g>
</svg>
