<?xml version="1.0" encoding="UTF-8"?>
<!-- Generator: visioncortex VTracer 0.6.4 -->
<svg version="1.1" xmlns="http://www.w3.org/2000/svg" width="637" height="568">
<path d="M0 0 C1.3 -0 1.3 -0 2.63 -0.01 C5.54 -0.02 8.45 -0.02 11.36 -0.02 C13.44 -0.03 15.53 -0.03 17.61 -0.04 C23.28 -0.05 28.95 -0.06 34.61 -0.06 C38.15 -0.06 41.7 -0.07 45.24 -0.07 C56.32 -0.08 67.4 -0.09 78.48 -0.1 C91.27 -0.1 104.06 -0.12 116.85 -0.15 C126.73 -0.17 136.62 -0.18 146.51 -0.18 C152.41 -0.18 158.31 -0.19 164.22 -0.21 C169.77 -0.22 175.33 -0.23 180.88 -0.22 C182.92 -0.22 184.96 -0.22 186.99 -0.23 C189.78 -0.24 192.57 -0.24 195.35 -0.23 C196.15 -0.24 196.95 -0.24 197.78 -0.25 C207.03 -0.17 213.84 2.6 220.54 8.95 C225.21 14.19 227.6 20.27 227.63 27.28 C227.64 28.1 227.65 28.92 227.65 29.76 C227.65 30.65 227.65 31.53 227.65 32.45 C227.66 33.39 227.66 34.33 227.67 35.3 C227.68 38.42 227.69 41.54 227.7 44.65 C227.7 46.82 227.71 48.99 227.71 51.16 C227.72 55.71 227.73 60.27 227.73 64.82 C227.74 70.64 227.76 76.46 227.79 82.28 C227.81 86.76 227.82 91.24 227.82 95.73 C227.82 97.87 227.83 100.02 227.84 102.16 C227.86 105.17 227.86 108.18 227.85 111.19 C227.86 112.06 227.87 112.94 227.88 113.85 C227.81 123.38 225.25 130.26 218.68 137.19 C211.89 143.24 204.82 144.29 195.99 144.28 C195.12 144.28 194.25 144.29 193.36 144.29 C190.45 144.3 187.54 144.3 184.63 144.3 C182.54 144.31 180.46 144.31 178.38 144.32 C172.71 144.33 167.04 144.34 161.37 144.34 C157.83 144.34 154.29 144.35 150.75 144.35 C139.67 144.37 128.59 144.38 117.51 144.38 C104.72 144.38 91.93 144.4 79.14 144.43 C69.25 144.45 59.37 144.46 49.48 144.46 C43.58 144.46 37.67 144.47 31.77 144.49 C26.21 144.5 20.66 144.51 15.1 144.5 C13.07 144.5 11.03 144.5 8.99 144.51 C6.21 144.52 3.42 144.52 0.63 144.51 C-0.16 144.52 -0.96 144.52 -1.79 144.53 C-11.05 144.45 -17.85 141.68 -24.56 135.33 C-29.22 130.09 -31.62 124.01 -31.65 117 C-31.65 116.18 -31.66 115.37 -31.66 114.52 C-31.67 113.64 -31.67 112.75 -31.67 111.83 C-31.67 110.89 -31.68 109.95 -31.68 108.98 C-31.7 105.86 -31.7 102.75 -31.71 99.63 C-31.72 97.46 -31.72 95.29 -31.73 93.12 C-31.74 88.57 -31.74 84.01 -31.75 79.46 C-31.75 73.64 -31.78 67.82 -31.8 62.01 C-31.82 57.52 -31.83 53.04 -31.83 48.55 C-31.83 46.41 -31.84 44.26 -31.85 42.12 C-31.87 39.11 -31.87 36.1 -31.86 33.09 C-31.87 32.22 -31.88 31.34 -31.89 30.43 C-31.83 20.9 -29.27 14.02 -22.7 7.09 C-15.9 1.05 -8.83 -0.01 0 0 Z M-17.94 18.2 C-20.63 23.25 -20.67 27.57 -20.68 33.17 C-20.69 34.09 -20.7 35.01 -20.7 35.97 C-20.72 39.03 -20.74 42.09 -20.75 45.15 C-20.75 46.2 -20.75 47.24 -20.76 48.32 C-20.78 53.86 -20.79 59.4 -20.8 64.94 C-20.81 70.66 -20.85 76.37 -20.89 82.09 C-20.91 86.49 -20.92 90.89 -20.93 95.29 C-20.93 97.4 -20.94 99.5 -20.96 101.61 C-20.98 104.56 -20.98 107.51 -20.98 110.47 C-20.99 111.33 -21 112.2 -21.02 113.09 C-20.97 118.84 -19.85 123.37 -16.51 128.14 C-10.78 132.7 -6.29 133.29 0.81 133.29 C1.67 133.29 2.53 133.29 3.41 133.3 C6.3 133.31 9.19 133.31 12.08 133.32 C14.14 133.32 16.21 133.33 18.27 133.34 C23.9 133.35 29.52 133.37 35.14 133.37 C38.65 133.38 42.16 133.38 45.68 133.39 C56.66 133.41 67.65 133.42 78.64 133.43 C91.32 133.44 104.01 133.47 116.69 133.51 C126.49 133.54 136.29 133.55 146.1 133.56 C151.95 133.56 157.81 133.57 163.66 133.59 C169.17 133.62 174.68 133.62 180.19 133.61 C182.21 133.61 184.23 133.62 186.25 133.63 C189.02 133.65 191.78 133.64 194.54 133.63 C195.73 133.64 195.73 133.64 196.95 133.66 C202.5 133.6 206.89 132.32 211.49 129.14 C216.21 123.21 216.65 118.46 216.67 111.11 C216.68 109.73 216.68 109.73 216.69 108.31 C216.71 105.25 216.72 102.19 216.73 99.13 C216.74 98.08 216.74 97.04 216.74 95.96 C216.76 90.42 216.78 84.88 216.79 79.34 C216.8 73.62 216.83 67.91 216.87 62.19 C216.9 57.79 216.91 53.39 216.91 48.99 C216.92 46.89 216.93 44.78 216.95 42.67 C216.97 39.72 216.97 36.77 216.96 33.81 C216.98 32.95 216.99 32.09 217 31.19 C216.95 25.44 215.84 20.91 212.49 16.14 C206.77 11.59 202.27 10.99 195.18 10.99 C194.32 10.99 193.46 10.99 192.57 10.98 C189.69 10.97 186.8 10.97 183.91 10.96 C181.84 10.96 179.78 10.95 177.71 10.94 C172.09 10.93 166.47 10.92 160.85 10.91 C157.33 10.9 153.82 10.9 150.31 10.89 C139.32 10.87 128.34 10.86 117.35 10.85 C104.67 10.84 91.98 10.81 79.3 10.77 C69.49 10.74 59.69 10.73 49.89 10.72 C44.03 10.72 38.18 10.71 32.32 10.69 C26.81 10.66 21.3 10.66 15.79 10.67 C13.77 10.67 11.75 10.66 9.73 10.65 C6.97 10.63 4.21 10.64 1.45 10.65 C0.65 10.64 -0.15 10.63 -0.97 10.62 C-7.98 10.7 -13.5 12.62 -17.94 18.2 Z " fill="#1a1a1a" transform="translate(280.5067596435547,391.85955810546875)"/>
<path d="M0 0 C0.92 -0 1.84 -0.01 2.78 -0.01 C5.85 -0.03 8.92 -0.02 11.99 -0.02 C14.19 -0.03 16.4 -0.04 18.6 -0.04 C24.58 -0.06 30.56 -0.07 36.54 -0.07 C40.28 -0.07 44.02 -0.07 47.76 -0.08 C60.13 -0.1 72.5 -0.1 84.87 -0.1 C85.53 -0.1 86.2 -0.1 86.89 -0.1 C87.55 -0.1 88.22 -0.1 88.91 -0.1 C99.72 -0.1 110.52 -0.12 121.33 -0.15 C132.44 -0.18 143.55 -0.19 154.66 -0.19 C160.89 -0.19 167.13 -0.2 173.36 -0.22 C179.22 -0.24 185.09 -0.24 190.95 -0.22 C193.1 -0.22 195.25 -0.22 197.4 -0.24 C200.34 -0.25 203.27 -0.24 206.21 -0.23 C207.06 -0.24 207.9 -0.25 208.77 -0.26 C215.46 -0.18 221.64 1.39 226.69 5.99 C231.77 11.43 233.04 16.94 233.09 24.32 C233.09 25 233.1 25.68 233.11 26.38 C233.13 28.61 233.13 30.84 233.13 33.07 C233.14 34.63 233.15 36.19 233.15 37.75 C233.17 41.02 233.17 44.29 233.17 47.56 C233.17 51.73 233.19 55.9 233.23 60.07 C233.25 63.29 233.26 66.52 233.25 69.74 C233.26 71.28 233.27 72.81 233.28 74.35 C233.45 92.23 233.45 92.23 227.08 99.13 C221.02 104.9 214.63 105.56 206.59 105.53 C205.68 105.54 204.76 105.54 203.81 105.55 C200.74 105.56 197.67 105.56 194.6 105.56 C192.4 105.56 190.2 105.57 188 105.58 C182.01 105.6 176.03 105.6 170.05 105.6 C166.31 105.6 162.58 105.61 158.84 105.61 C146.47 105.63 134.1 105.64 121.73 105.64 C121.06 105.64 120.4 105.64 119.71 105.64 C119.04 105.64 118.37 105.64 117.69 105.64 C106.88 105.64 96.07 105.66 85.26 105.68 C74.15 105.71 63.04 105.73 51.93 105.73 C45.7 105.72 39.47 105.73 33.23 105.75 C27.37 105.77 21.51 105.77 15.65 105.76 C13.5 105.75 11.35 105.76 9.2 105.77 C6.26 105.79 3.32 105.78 0.38 105.76 C-0.89 105.78 -0.89 105.78 -2.18 105.79 C-8.87 105.72 -15.04 104.14 -20.09 99.55 C-25.18 94.11 -26.45 88.6 -26.49 81.21 C-26.5 80.53 -26.51 79.85 -26.51 79.15 C-26.53 76.92 -26.54 74.7 -26.54 72.47 C-26.55 70.9 -26.55 69.34 -26.56 67.78 C-26.57 64.51 -26.57 61.24 -26.57 57.97 C-26.57 53.81 -26.6 49.64 -26.63 45.47 C-26.66 42.24 -26.66 39.02 -26.66 35.79 C-26.66 34.26 -26.67 32.72 -26.69 31.18 C-26.85 13.3 -26.85 13.3 -20.48 6.4 C-14.42 0.64 -8.04 -0.03 0 0 Z M-14.2 16.27 C-15.63 19.11 -15.36 21.55 -15.4 24.73 C-15.4 25.4 -15.41 26.06 -15.42 26.74 C-15.45 28.94 -15.46 31.15 -15.48 33.35 C-15.48 34.1 -15.49 34.85 -15.49 35.62 C-15.52 39.61 -15.54 43.59 -15.55 47.57 C-15.57 51.68 -15.61 55.78 -15.67 59.89 C-15.7 63.05 -15.71 66.21 -15.72 69.38 C-15.72 70.89 -15.74 72.4 -15.76 73.92 C-16.29 83.08 -16.29 83.08 -12.8 91.18 C-8.41 94.71 -4.97 94.42 0.46 94.42 C1.83 94.43 1.83 94.43 3.22 94.43 C6.28 94.45 9.34 94.45 12.4 94.46 C14.59 94.47 16.77 94.48 18.96 94.49 C26.16 94.51 33.36 94.53 40.56 94.54 C43.04 94.55 45.51 94.55 47.99 94.56 C58.29 94.58 68.58 94.6 78.88 94.61 C81.55 94.61 84.22 94.61 86.89 94.62 C87.89 94.62 87.89 94.62 88.91 94.62 C99.67 94.63 110.43 94.67 121.19 94.71 C132.23 94.75 143.27 94.77 154.32 94.78 C160.52 94.78 166.72 94.79 172.93 94.83 C178.76 94.86 184.59 94.86 190.43 94.85 C192.57 94.85 194.71 94.86 196.85 94.88 C199.78 94.9 202.7 94.89 205.62 94.88 C206.47 94.89 207.32 94.9 208.2 94.92 C212.37 94.86 215 94.52 218.31 91.85 C222.02 88 221.93 86.07 221.99 80.8 C222 80.14 222.01 79.47 222.01 78.79 C222.04 76.59 222.06 74.39 222.07 72.19 C222.08 71.06 222.08 71.06 222.09 69.91 C222.11 65.93 222.13 61.95 222.15 57.97 C222.16 53.86 222.21 49.75 222.26 45.65 C222.29 42.48 222.3 39.32 222.31 36.16 C222.32 34.65 222.33 33.13 222.36 31.62 C222.88 22.45 222.88 22.45 219.39 14.35 C215.01 10.83 211.57 11.12 206.13 11.11 C204.77 11.11 204.77 11.11 203.38 11.1 C200.32 11.09 197.26 11.08 194.19 11.07 C192.01 11.07 189.82 11.06 187.63 11.05 C180.43 11.02 173.23 11.01 166.03 10.99 C163.56 10.99 161.08 10.98 158.6 10.98 C148.31 10.96 138.01 10.94 127.72 10.93 C125.04 10.92 122.37 10.92 119.7 10.92 C118.7 10.92 118.7 10.92 117.69 10.92 C106.93 10.9 96.17 10.87 85.41 10.83 C74.36 10.79 63.32 10.76 52.27 10.76 C46.07 10.75 39.87 10.74 33.67 10.71 C27.83 10.68 22 10.67 16.17 10.68 C14.02 10.68 11.88 10.68 9.74 10.66 C6.82 10.64 3.89 10.64 0.97 10.66 C0.12 10.65 -0.73 10.63 -1.6 10.62 C-7.5 10.7 -10.1 12 -14.2 16.27 Z " fill="#1a1a1a" transform="translate(275.2028350830078,222.73257446289063)"/>
<path d="M0 0 C0.92 -0 1.84 -0.01 2.78 -0.01 C5.85 -0.03 8.92 -0.02 11.99 -0.02 C14.19 -0.03 16.4 -0.04 18.6 -0.04 C24.58 -0.06 30.56 -0.07 36.54 -0.07 C40.28 -0.07 44.02 -0.07 47.76 -0.08 C60.13 -0.1 72.5 -0.1 84.87 -0.1 C85.53 -0.1 86.2 -0.1 86.89 -0.1 C87.55 -0.1 88.22 -0.1 88.91 -0.1 C99.72 -0.1 110.52 -0.12 121.33 -0.15 C132.44 -0.18 143.55 -0.19 154.66 -0.19 C160.89 -0.19 167.13 -0.2 173.36 -0.22 C179.22 -0.24 185.09 -0.24 190.95 -0.22 C193.1 -0.22 195.25 -0.22 197.4 -0.24 C200.34 -0.25 203.27 -0.24 206.21 -0.23 C207.06 -0.24 207.9 -0.25 208.77 -0.26 C215.46 -0.18 221.64 1.39 226.69 5.99 C231.77 11.43 233.04 16.94 233.09 24.32 C233.09 25 233.1 25.68 233.11 26.38 C233.13 28.61 233.13 30.84 233.13 33.07 C233.14 34.63 233.15 36.19 233.15 37.75 C233.17 41.02 233.17 44.29 233.17 47.56 C233.17 51.73 233.19 55.9 233.23 60.07 C233.25 63.29 233.26 66.52 233.25 69.74 C233.26 71.28 233.27 72.81 233.28 74.35 C233.45 92.23 233.45 92.23 227.08 99.13 C221.02 104.9 214.63 105.56 206.59 105.53 C205.68 105.54 204.76 105.54 203.81 105.55 C200.74 105.56 197.67 105.56 194.6 105.56 C192.4 105.56 190.2 105.57 188 105.58 C182.01 105.6 176.03 105.6 170.05 105.6 C166.31 105.6 162.58 105.61 158.84 105.61 C146.47 105.63 134.1 105.64 121.73 105.64 C121.06 105.64 120.4 105.64 119.71 105.64 C119.04 105.64 118.37 105.64 117.69 105.64 C106.88 105.64 96.07 105.66 85.26 105.68 C74.15 105.71 63.04 105.73 51.93 105.73 C45.7 105.72 39.47 105.73 33.23 105.75 C27.37 105.77 21.51 105.77 15.65 105.76 C13.5 105.75 11.35 105.76 9.2 105.77 C6.26 105.79 3.32 105.78 0.38 105.76 C-0.89 105.78 -0.89 105.78 -2.18 105.79 C-8.87 105.72 -15.04 104.14 -20.09 99.55 C-25.18 94.11 -26.45 88.6 -26.49 81.21 C-26.5 80.53 -26.51 79.85 -26.51 79.15 C-26.53 76.92 -26.54 74.7 -26.54 72.47 C-26.55 70.9 -26.55 69.34 -26.56 67.78 C-26.57 64.51 -26.57 61.24 -26.57 57.97 C-26.57 53.81 -26.6 49.64 -26.63 45.47 C-26.66 42.24 -26.66 39.02 -26.66 35.79 C-26.66 34.26 -26.67 32.72 -26.69 31.18 C-26.85 13.3 -26.85 13.3 -20.48 6.4 C-14.42 0.64 -8.04 -0.03 0 0 Z M-13.2 14.27 C-15.65 17.61 -15.47 20.91 -15.51 24.96 C-15.52 25.62 -15.53 26.29 -15.53 26.97 C-15.56 29.16 -15.57 31.35 -15.57 33.54 C-15.58 35.07 -15.59 36.59 -15.6 38.12 C-15.62 41.32 -15.63 44.52 -15.63 47.72 C-15.63 51.81 -15.67 55.9 -15.72 59.99 C-15.75 63.15 -15.75 66.3 -15.76 69.45 C-15.76 70.96 -15.77 72.47 -15.79 73.98 C-16.29 83.11 -16.29 83.11 -12.79 91.18 C-8.41 94.71 -4.97 94.41 0.47 94.41 C1.38 94.41 2.29 94.41 3.22 94.42 C6.29 94.43 9.35 94.43 12.42 94.43 C14.6 94.43 16.79 94.44 18.98 94.44 C24.94 94.46 30.9 94.46 36.87 94.47 C40.59 94.47 44.31 94.47 48.03 94.48 C59.66 94.49 71.3 94.5 82.93 94.51 C84.27 94.51 85.61 94.51 86.95 94.51 C87.61 94.51 88.28 94.51 88.96 94.51 C99.73 94.51 110.5 94.53 121.26 94.55 C132.31 94.58 143.36 94.59 154.41 94.59 C160.62 94.59 166.83 94.6 173.03 94.62 C178.87 94.63 184.7 94.63 190.54 94.63 C192.68 94.62 194.83 94.63 196.97 94.64 C199.9 94.65 202.82 94.65 205.74 94.63 C206.6 94.64 207.45 94.65 208.32 94.66 C212.98 94.62 216 94.26 219.8 91.27 C222.25 87.91 222.06 84.62 222.07 80.56 C222.08 79.89 222.08 79.23 222.09 78.54 C222.1 76.35 222.1 74.15 222.1 71.96 C222.1 70.43 222.11 68.9 222.11 67.37 C222.12 64.17 222.12 60.96 222.11 57.76 C222.11 53.66 222.12 49.56 222.15 45.46 C222.16 42.3 222.16 39.14 222.16 35.99 C222.16 34.48 222.17 32.96 222.18 31.45 C222.19 29.34 222.18 27.22 222.17 25.11 C222.17 23.9 222.17 22.7 222.17 21.46 C221.75 17.91 221 16.07 218.8 13.27 C214.94 10.48 210.44 10.99 205.88 11.01 C204.97 11 204.06 11 203.12 11 C200.07 10.98 197.01 10.99 193.95 10.99 C191.76 10.99 189.57 10.98 187.38 10.98 C181.43 10.96 175.48 10.96 169.53 10.97 C164.56 10.97 159.6 10.96 154.63 10.96 C142.25 10.95 129.87 10.95 117.48 10.95 C106.73 10.96 95.98 10.95 85.22 10.93 C74.18 10.91 63.14 10.9 52.1 10.9 C45.9 10.91 39.7 10.9 33.5 10.89 C27.67 10.88 21.85 10.88 16.02 10.89 C13.88 10.89 11.74 10.89 9.59 10.88 C6.67 10.87 3.76 10.88 0.84 10.89 C-0.01 10.89 -0.86 10.88 -1.74 10.87 C-6.39 10.91 -9.41 11.28 -13.2 14.27 Z " fill="#1a1a1a" transform="translate(275.2028350830078,35.732574462890625)"/>
<path d="M0 0 C4.53 2.6 7.72 5.58 9.57 10.6 C10.82 15.57 10.72 18.96 9.31 23.88 C8.53 27.45 8.38 28.76 10.3 31.94 C12.67 34.56 15.17 36.96 17.75 39.38 C19.39 41.15 21.02 42.94 22.62 44.75 C23.34 45.54 24.06 46.33 24.8 47.15 C26.56 49.16 28.18 51.21 29.75 53.38 C31.2 52.88 31.2 52.88 32.69 52.38 C37.84 50.95 42.92 50.16 47.96 52.32 C53.63 55.67 57.98 59.87 59.75 66.38 C60.58 72.9 59.54 77.96 55.75 83.38 C50.98 87.91 47.26 89.65 40.69 89.56 C39.64 89.56 38.6 89.55 37.53 89.54 C34.75 89.38 34.75 89.38 31.75 88.38 C31.34 88.76 30.93 89.15 30.5 89.55 C29.27 90.7 28.05 91.85 26.82 93 C25.44 94.29 24.06 95.6 22.68 96.9 C19.16 100.23 15.66 103.21 11.69 106 C9.79 107.44 9.79 107.44 8.75 109.38 C8.84 112.53 9.45 115.31 10.2 118.38 C11.17 123.68 9.42 127.69 6.64 132.16 C3.87 135.83 1.08 137.93 -3.25 139.38 C-10.41 140.25 -15.45 139.75 -21.25 135.38 C-23.8 132.62 -25.94 129.9 -27.25 126.38 C-27.17 125.12 -27.09 123.86 -27 122.56 C-27.06 120.4 -27.06 120.4 -28.25 118.38 C-32.71 115.28 -38.91 111.09 -44.51 111.57 C-47.29 112.86 -49.72 114.65 -52.25 116.38 C-57.15 118.01 -61 117.81 -65.88 116.12 C-72.32 112.79 -75.13 109.85 -77.58 103.03 C-79.07 97.12 -78.06 92.34 -75.12 87.06 C-72.48 83.28 -69.7 80.77 -65.25 79.38 C-63.6 79.33 -61.96 79.31 -60.31 79.31 C-56.65 79.1 -55.5 78.6 -52.76 76.05 C-50.55 73.19 -48.66 70.72 -47.25 67.38 C-47.88 64.7 -47.88 64.7 -49.25 62.38 C-49.93 60.38 -50.6 58.38 -51.25 56.38 C-52.73 56.87 -52.73 56.87 -54.25 57.38 C-60.77 58.16 -65.86 57.19 -71.25 53.38 C-74.97 50.01 -77.3 46.32 -78.25 41.38 C-78.33 35 -77.52 30.34 -73.25 25.38 C-67.56 20.02 -64.02 19.04 -56.3 19.08 C-52 19.5 -49.78 20.95 -46.25 23.38 C-42.87 24.88 -40.41 24.05 -37.02 22.79 C-31.15 20.6 -31.15 20.6 -27.03 16.18 C-26.59 13.88 -26.59 13.88 -26.45 11.55 C-26.13 8.05 -24.46 6.02 -22.25 3.38 C-15.35 -1.83 -8.11 -3.71 0 0 Z M-18.25 10.38 C-20.22 14.78 -20.66 18.15 -19.12 22.75 C-16.51 26.41 -14.69 27.94 -10.38 29.25 C-6.38 29.41 -4.56 28.6 -1.25 26.38 C1.31 23.35 2.6 21.29 3.25 17.38 C2.51 12.91 0.56 9.75 -3.06 7 C-9.16 5.26 -13.64 5.98 -18.25 10.38 Z M-67.56 30 C-69.9 33.28 -70.44 36.43 -70.25 40.38 C-69.02 43.98 -67.92 45.82 -65 48.25 C-60.56 50.07 -56.97 50.04 -52.5 48.31 C-49.41 45.65 -48.43 43.26 -47.25 39.38 C-47.32 35.7 -48.01 33.78 -49.88 30.62 C-55.58 25.22 -61.42 25.68 -67.56 30 Z M-29.25 27.34 C-30.43 27.8 -31.6 28.27 -32.81 28.75 C-34.58 29.44 -34.58 29.44 -36.38 30.15 C-39.1 31.1 -39.1 31.1 -40.25 32.38 C-40.74 35.77 -40.83 38.99 -40.25 42.38 C-37.62 45.21 -37.62 45.21 -34.25 46.38 C-30.25 45.04 -28.77 42.45 -26.44 39.12 C-26.01 38.55 -25.57 37.98 -25.13 37.39 C-23.72 35.48 -23.72 35.48 -22.25 32.38 C-22.69 29.51 -22.69 29.51 -24.25 27.38 C-26.37 26.03 -26.37 26.03 -29.25 27.34 Z M-3.25 35.38 C-4.65 35.18 -4.65 35.18 -6.07 34.98 C-9.86 34.5 -12.54 34.4 -16.25 35.38 C-20.4 39.11 -22.93 44.38 -25.25 49.38 C-25.25 50.03 -25.25 50.69 -25.25 51.38 C-23.14 52.79 -23.14 52.79 -20.25 53.38 C-18.55 52.4 -16.86 51.41 -15.2 50.35 C-11.05 48.28 -6.65 48.65 -2.3 49.96 C1.84 51.92 3.04 53.85 4.69 58.06 C5.7 60.55 5.7 60.55 7.75 62.38 C13.12 63.49 18.28 63.54 23.75 63.38 C24.71 61.69 24.71 61.69 24.75 59.38 C23.15 57.25 21.61 55.49 19.75 53.62 C18.73 52.56 17.71 51.49 16.68 50.42 C16.18 49.9 15.68 49.38 15.16 48.85 C13.32 46.93 11.56 44.94 9.81 42.94 C9.27 42.32 8.73 41.7 8.18 41.07 C6.9 39.55 5.69 37.96 4.5 36.38 C3.92 35.72 3.34 35.06 2.75 34.38 C-0.3 34.22 -0.3 34.22 -3.25 35.38 Z M-44.25 50.38 C-44.58 51.37 -44.91 52.36 -45.25 53.38 C-43.88 56.05 -43.88 56.05 -42.25 58.38 C-41.26 58.05 -40.27 57.72 -39.25 57.38 C-38.03 54.87 -38.03 54.87 -37.25 52.38 C-39.9 50.91 -41.14 50.38 -44.25 50.38 Z M-14.62 58 C-16.64 60.94 -17.18 62.81 -17.25 66.38 C-15.88 69.92 -14.8 71.08 -11.44 72.88 C-7.33 73.52 -5.65 72.69 -2.25 70.38 C-0.25 67.85 -0.24 66.61 -0.38 63.38 C-1.41 59.84 -2.21 58.46 -5.25 56.38 C-9.2 55.81 -11.3 55.72 -14.62 58 Z M-31.25 57.38 C-32.84 59.62 -32.84 59.62 -34.38 62.38 C-35.18 63.77 -35.18 63.77 -36.01 65.19 C-36.42 65.91 -36.83 66.63 -37.25 67.38 C-35.21 71.08 -33.16 74.77 -31.12 78.47 C-30.42 79.73 -29.73 80.98 -29.04 82.24 C-25.27 89.06 -21.47 95.82 -17.25 102.38 C-14.78 101.88 -14.78 101.88 -12.25 101.38 C-12.02 97.98 -11.88 94.59 -11.75 91.19 C-11.68 90.23 -11.62 89.27 -11.55 88.28 C-11.47 85.44 -11.5 83.12 -12.25 80.38 C-14.16 78.51 -15.92 77.45 -18.33 76.3 C-21.27 74.88 -22.11 73.4 -23.25 70.38 C-23.4 68.67 -23.52 66.96 -23.62 65.25 C-23.82 61.16 -23.82 61.16 -26.69 58.25 C-29.11 57.27 -29.11 57.27 -31.25 57.38 Z M30.75 64.38 C29.15 67.57 29.39 70.9 29.75 74.38 C31.15 77.88 32.38 79.12 35.5 81.25 C39.51 82.64 41.68 82.56 45.75 81.38 C49.83 77.91 51.59 75.96 52.12 70.62 C52.1 67.27 51.51 65.53 49.38 62.94 C45.85 59.49 43.82 58.98 38.86 59.02 C35.13 59.65 33.35 61.71 30.75 64.38 Z M3.44 73.12 C2.88 74.2 2.32 75.27 1.75 76.38 C-0.56 77.69 -2.87 79.01 -5.25 80.38 C-5.25 87.31 -5.25 94.24 -5.25 101.38 C0.01 104.85 0.01 104.85 2.91 103.76 C4.79 102.35 6.51 100.92 8.21 99.29 C8.85 98.69 9.48 98.09 10.14 97.47 C10.8 96.84 11.45 96.21 12.12 95.56 C16.55 91.34 21 87.24 25.75 83.38 C25.55 82.76 25.34 82.15 25.13 81.51 C24 78.13 22.88 74.75 21.75 71.38 C16.08 69.16 7.46 68.34 3.44 73.12 Z M-42.25 74.38 C-43.9 76.69 -45.55 79 -47.25 81.38 C-46.04 83.9 -44.76 86.1 -43.19 88.44 C-41.17 91.76 -41.22 94.04 -41.38 97.88 C-41.4 100.74 -41.4 100.74 -40.25 103.38 C-35.9 106.55 -29.79 110.38 -24.25 110.38 C-23.44 108.68 -23.44 108.68 -23.25 106.38 C-24.44 103.39 -24.44 103.39 -26.29 100.25 C-26.62 99.67 -26.94 99.09 -27.28 98.49 C-27.97 97.26 -28.66 96.04 -29.36 94.81 C-30.43 92.95 -31.47 91.09 -32.52 89.22 C-35.47 83.98 -38.37 79 -42.25 74.38 Z M-66.25 89.38 C-66.83 89.77 -67.41 90.16 -68 90.56 C-70.07 93.57 -70.36 96.82 -70.25 100.38 C-69.02 103.98 -67.92 105.82 -65 108.25 C-61.41 109.72 -59.1 109.92 -55.25 109.38 C-51.14 106.66 -48.33 104.28 -47.25 99.38 C-47.45 94.49 -48.86 91.86 -52.25 88.38 C-57.33 84.93 -61.46 85.97 -66.25 89.38 Z M-18.25 113.38 C-20.09 117.83 -20.66 121.13 -19.12 125.75 C-16.51 129.41 -14.69 130.94 -10.38 132.25 C-6.38 132.41 -4.56 131.6 -1.25 129.38 C1.31 126.35 2.6 124.29 3.25 120.38 C2.61 116.55 1.15 114.39 -1.25 111.38 C-6.85 107.64 -13.88 107.94 -18.25 113.38 Z " fill="#1a1a1a" transform="translate(169.25,295.625)"/>
<path d="M0 0 C2.53 3.15 4.33 6.4 6.14 10.01 C6.71 11.16 7.29 12.31 7.88 13.5 C8.18 14.09 8.48 14.69 8.78 15.3 C9.69 17.13 10.61 18.95 11.53 20.78 C12.1 21.93 12.67 23.07 13.26 24.26 C14.05 25.84 14.05 25.84 14.85 27.45 C16 30 16 30 16 32 C12.7 32 9.4 32 6 32 C6 35.96 6 39.92 6 44 C2.37 44 -1.26 44 -5 44 C-5 40.04 -5 36.08 -5 32 C-8.3 32 -11.6 32 -15 32 C-13.66 27.69 -12 23.76 -9.96 19.73 C-9.38 18.57 -8.8 17.42 -8.2 16.23 C-7.59 15.03 -6.98 13.83 -6.38 12.62 C-5.76 11.4 -5.14 10.17 -4.52 8.95 C-3.02 5.96 -1.51 2.98 0 0 Z " fill="#00FED0" transform="translate(418,337)"/>
<path d="M0 0 C3.63 0 7.26 0 11 0 C11 3.96 11 7.92 11 12 C14.3 12 17.6 12 21 12 C19.66 16.31 18 20.24 15.96 24.27 C15.38 25.43 14.8 26.58 14.2 27.77 C13.59 28.97 12.98 30.17 12.38 31.38 C11.76 32.6 11.14 33.83 10.52 35.05 C9.02 38.04 7.51 41.02 6 44 C3.47 40.85 1.67 37.6 -0.14 33.99 C-0.71 32.84 -1.29 31.69 -1.88 30.5 C-2.18 29.91 -2.48 29.31 -2.78 28.7 C-3.69 26.87 -4.61 25.05 -5.53 23.22 C-6.1 22.07 -6.67 20.93 -7.26 19.74 C-7.79 18.69 -8.31 17.64 -8.85 16.55 C-10 14 -10 14 -10 12 C-6.7 12 -3.4 12 0 12 C0 8.04 0 4.08 0 0 Z " fill="#00FDD0" transform="translate(328,335)"/>
<path d="M0 0 C3.63 0 7.26 0 11 0 C11 3.96 11 7.92 11 12 C14.3 12 17.6 12 21 12 C19.66 16.31 18 20.24 15.96 24.27 C15.38 25.43 14.8 26.58 14.2 27.77 C13.59 28.97 12.98 30.17 12.38 31.38 C11.76 32.6 11.14 33.83 10.52 35.05 C9.02 38.04 7.51 41.02 6 44 C3.47 40.85 1.67 37.6 -0.14 33.99 C-0.71 32.84 -1.29 31.69 -1.88 30.5 C-2.18 29.91 -2.48 29.31 -2.78 28.7 C-3.69 26.87 -4.61 25.05 -5.53 23.22 C-6.1 22.07 -6.67 20.93 -7.26 19.74 C-7.79 18.69 -8.31 17.64 -8.85 16.55 C-10 14 -10 14 -10 12 C-6.7 12 -3.4 12 0 12 C0 8.04 0 4.08 0 0 Z " fill="#00FDD0" transform="translate(366,157)"/>
<path d="M0 0 C5 0 5 0 6.67 1.65 C7.15 2.41 7.62 3.16 8.11 3.94 C8.64 4.75 9.16 5.56 9.71 6.4 C10.24 7.26 10.77 8.12 11.31 9 C11.86 9.86 12.41 10.72 12.98 11.6 C14.33 13.72 15.67 15.86 17 18 C17.33 12.06 17.66 6.12 18 0 C19.32 0 20.64 0 22 0 C22 8.58 22 17.16 22 26 C20.35 26 18.7 26 17 26 C15.33 24.26 15.33 24.26 13.89 21.84 C13.36 20.99 12.84 20.13 12.29 19.25 C11.76 18.34 11.23 17.43 10.69 16.5 C10.14 15.59 9.59 14.69 9.02 13.75 C7.66 11.51 6.33 9.26 5 7 C4.67 13.27 4.34 19.54 4 26 C2.68 26 1.36 26 0 26 C0 17.42 0 8.84 0 0 Z " fill="#1a1a1a" transform="translate(301,473)"/>
<path d="M0 0 C2.48 0.5 2.48 0.5 5 1 C5.33 0.67 5.66 0.34 6 0 C10.03 -0.26 11.56 -0.29 15 2 C15.99 1.34 16.98 0.68 18 0 C21 -0.38 21 -0.38 24 0 C26.72 2.5 27 3.94 27.29 7.67 C27.27 9.03 27.24 10.39 27.19 11.75 C27.17 12.8 27.17 12.8 27.15 13.86 C27.11 15.58 27.06 17.29 27 19 C26.01 19 25.02 19 24 19 C23.94 18.08 23.88 17.17 23.82 16.23 C23.73 15.04 23.65 13.85 23.56 12.62 C23.48 11.44 23.4 10.26 23.32 9.04 C23.19 6.08 23.19 6.08 22 4 C20.35 4 18.7 4 17 4 C15.95 7.16 15.69 9.87 15.44 13.19 C15.35 14.27 15.27 15.36 15.18 16.48 C15.12 17.31 15.06 18.14 15 19 C14.01 19 13.02 19 12 19 C11.67 13.72 11.34 8.44 11 3 C9.02 3.66 7.04 4.32 5 5 C4.67 9.62 4.34 14.24 4 19 C2.68 19 1.36 19 0 19 C0 12.73 0 6.46 0 0 Z " fill="#1a1a1a" transform="translate(360,83)"/>
<path d="M0 0 C0.66 0.33 1.32 0.66 2 1 C1.67 2.32 1.34 3.64 1 5 C0.01 4.67 -0.98 4.34 -2 4 C-5.91 3.64 -8.36 3.7 -11.94 5.38 C-14.67 8.86 -14.66 11.31 -14.41 15.65 C-14.11 18.15 -14.11 18.15 -12.5 20.62 C-8.85 22.63 -6.13 22.28 -2 22 C-1.67 19.69 -1.34 17.38 -1 15 C-2.98 15 -4.96 15 -7 15 C-7 14.01 -7 13.02 -7 12 C-4.03 12 -1.06 12 2 12 C2.08 13.96 2.14 15.92 2.19 17.88 C2.24 19.51 2.24 19.51 2.29 21.18 C2.2 22.11 2.1 23.04 2 24 C-2.26 26.84 -6 26.64 -11 26 C-15.14 23.93 -17.27 22.25 -19 18 C-19.73 13.34 -19.43 9.86 -17.31 5.62 C-12.15 -0.24 -7.54 -0.69 0 0 Z " fill="#1a1a1a" transform="translate(407,473)"/>
<path d="M0 0 C1.32 0 2.64 0 4 0 C7.3 8.58 10.6 17.16 14 26 C12.35 25.67 10.7 25.34 9 25 C8.34 23.35 7.68 21.7 7 20 C3.37 19.67 -0.26 19.34 -4 19 C-4.33 20.98 -4.66 22.96 -5 25 C-6.65 25.33 -8.3 25.66 -10 26 C-3.85 8.14 -3.85 8.14 0 0 Z M1 5 C0.49 6.27 -0 7.54 -0.5 8.81 C-0.78 9.52 -1.06 10.23 -1.34 10.96 C-2.15 13.12 -2.15 13.12 -2 16 C0.64 16 3.28 16 6 16 C5.55 14.35 5.09 12.71 4.62 11.06 C4.24 9.69 4.24 9.69 3.85 8.29 C3.23 5.83 3.23 5.83 1 5 Z " fill="#1a1a1a" transform="translate(296,429)"/>
<path d="M0 0 C0.99 0 1.98 0 3 0 C3.02 0.56 3.04 1.12 3.06 1.7 C3.16 4.24 3.27 6.77 3.38 9.31 C3.41 10.19 3.44 11.07 3.47 11.98 C3.51 12.83 3.55 13.68 3.59 14.55 C3.62 15.33 3.65 16.11 3.68 16.92 C3.9 19.3 3.9 19.3 6 22 C9.5 22.5 9.5 22.5 13 22 C15.05 18.92 15.27 18.06 15.41 14.55 C15.47 13.28 15.47 13.28 15.53 11.98 C15.56 11.1 15.59 10.22 15.62 9.31 C15.66 8.42 15.7 7.53 15.74 6.61 C15.84 4.41 15.92 2.2 16 0 C16.99 0 17.98 0 19 0 C19.06 3.25 19.09 6.5 19.12 9.75 C19.14 10.67 19.16 11.59 19.18 12.54 C19.18 13.43 19.19 14.32 19.2 15.23 C19.21 16.05 19.22 16.87 19.23 17.71 C18.97 20.29 18.4 21.83 17 24 C13.98 26.01 13.08 26.34 9.62 26.44 C8.5 26.5 8.5 26.5 7.35 26.56 C3.55 25.66 2.25 24.18 0 21 C-0.6 17.37 -0.47 13.85 -0.31 10.19 C-0.29 9.21 -0.27 8.23 -0.24 7.22 C-0.19 4.81 -0.1 2.41 0 0 Z " fill="#1a1a1a" transform="translate(436,473)"/>
<path d="M0 0 C0.99 0 1.98 0 3 0 C3.02 0.56 3.04 1.12 3.06 1.7 C3.16 4.24 3.27 6.77 3.38 9.31 C3.41 10.19 3.44 11.07 3.47 11.98 C3.51 12.83 3.55 13.68 3.59 14.55 C3.62 15.33 3.65 16.11 3.68 16.92 C3.9 19.3 3.9 19.3 6 22 C9.5 22.5 9.5 22.5 13 22 C15.05 18.92 15.27 18.06 15.41 14.55 C15.47 13.28 15.47 13.28 15.53 11.98 C15.56 11.1 15.59 10.22 15.62 9.31 C15.66 8.42 15.7 7.53 15.74 6.61 C15.84 4.41 15.92 2.2 16 0 C16.99 0 17.98 0 19 0 C19.06 3.25 19.09 6.5 19.12 9.75 C19.14 10.67 19.16 11.59 19.18 12.54 C19.18 13.43 19.19 14.32 19.2 15.23 C19.21 16.05 19.22 16.87 19.23 17.71 C18.97 20.29 18.4 21.83 17 24 C13.98 26.01 13.08 26.34 9.62 26.44 C8.5 26.5 8.5 26.5 7.35 26.56 C3.55 25.66 2.25 24.18 0 21 C-0.6 17.37 -0.47 13.85 -0.31 10.19 C-0.29 9.21 -0.27 8.23 -0.24 7.22 C-0.19 4.81 -0.1 2.41 0 0 Z " fill="#1a1a1a" transform="translate(350,473)"/>
<path d="M0 0 C3.96 0 7.92 0 12 0 C16 4 16 4 16.44 7.5 C15.99 11.1 15.58 12.52 13 15 C9.53 16.16 6.64 16.07 3 16 C3 19.3 3 22.6 3 26 C2.01 26 1.02 26 0 26 C0 17.42 0 8.84 0 0 Z M3 3 C3 6.3 3 9.6 3 13 C7.43 13.3 7.43 13.3 11.38 11.5 C11.91 11 12.45 10.51 13 10 C12.66 7.03 12.66 7.03 12 4 C9.04 2.52 6.26 2.94 3 3 Z " fill="#1a1a1a" transform="translate(415,473)"/>
<path d="M0 0 C3.96 0 7.92 0 12 0 C16 4 16 4 16.44 7.5 C15.99 11.1 15.58 12.52 13 15 C9.53 16.16 6.64 16.07 3 16 C3 19.3 3 22.6 3 26 C2.01 26 1.02 26 0 26 C0 17.42 0 8.84 0 0 Z M3 3 C3 6.3 3 9.6 3 13 C7.43 13.3 7.43 13.3 11.38 11.5 C11.91 11 12.45 10.51 13 10 C12.66 7.03 12.66 7.03 12 4 C9.04 2.52 6.26 2.94 3 3 Z " fill="#1a1a1a" transform="translate(329,473)"/>
<path d="M0 0 C11 0 11 0 14.25 2.06 C16 5 16 5 16.12 8.56 C14.78 12.67 13.78 13.94 10 16 C6.19 16.25 6.19 16.25 3 16 C3 19.3 3 22.6 3 26 C2.01 26 1.02 26 0 26 C0 17.42 0 8.84 0 0 Z M3 3 C3 6.3 3 9.6 3 13 C7.79 13.23 7.79 13.23 12 11 C12.42 8 12.42 8 12 5 C10.04 2.59 10.04 2.59 6.38 2.88 C4.7 2.94 4.7 2.94 3 3 Z " fill="#1a1a1a" transform="translate(303,263)"/>
<path d="M0 0 C2.44 2.12 2.44 2.12 4 5 C4 6.98 4 8.96 4 11 C-0.29 11 -4.58 11 -9 11 C-8.34 12.32 -7.68 13.64 -7 15 C-3.7 15 -0.4 15 3 15 C3 15.99 3 16.98 3 18 C-0.47 19.74 -4.2 19.45 -8 19 C-10.56 17.62 -10.56 17.62 -12 15 C-12.9 9.89 -12.83 6.25 -9.94 1.88 C-6.23 -0.49 -4.31 -0.78 0 0 Z M-7 3 C-7.66 4.65 -8.32 6.3 -9 8 C-5.7 8 -2.4 8 1 8 C0.34 6.35 -0.32 4.7 -1 3 C-2.98 3 -4.96 3 -7 3 Z " fill="#1a1a1a" transform="translate(358,436)"/>
<path d="M0 0 C3.44 0.62 3.44 0.62 5.88 2.19 C7.96 5.44 7.73 7.83 7.44 11.62 C1.5 12.12 1.5 12.12 -4.56 12.62 C-3.57 14.11 -3.57 14.11 -2.56 15.62 C-0.36 15.99 -0.36 15.99 2.06 15.81 C2.88 15.79 3.7 15.76 4.54 15.73 C5.17 15.7 5.79 15.66 6.44 15.62 C6.44 16.62 6.44 17.61 6.44 18.62 C3.25 20.22 -0.1 20.14 -3.56 19.62 C-5.99 17.75 -7.2 16.34 -8.56 13.62 C-9.04 9.45 -8.97 6.6 -6.5 3.19 C-3.56 0.62 -3.56 0.62 0 0 Z M-2.56 3.62 C-4.42 6.03 -4.42 6.03 -5.56 8.62 C-2.26 8.62 1.04 8.62 4.44 8.62 C3.87 4.88 3.87 4.88 2.44 3.62 C0.02 3.12 0.02 3.12 -2.56 3.62 Z " fill="#1a1a1a" transform="translate(382.5625,435.375)"/>
<path d="M0 0 C3.44 0.62 3.44 0.62 5.88 2.19 C7.96 5.44 7.73 7.83 7.44 11.62 C1.5 12.12 1.5 12.12 -4.56 12.62 C-3.57 14.11 -3.57 14.11 -2.56 15.62 C-0.36 15.99 -0.36 15.99 2.06 15.81 C2.88 15.79 3.7 15.76 4.54 15.73 C5.17 15.7 5.79 15.66 6.44 15.62 C6.44 16.62 6.44 17.61 6.44 18.62 C3.25 20.22 -0.1 20.14 -3.56 19.62 C-5.99 17.75 -7.2 16.34 -8.56 13.62 C-9.04 9.45 -8.97 6.6 -6.5 3.19 C-3.56 0.62 -3.56 0.62 0 0 Z M-2.56 3.62 C-4.42 6.03 -4.42 6.03 -5.56 8.62 C-2.26 8.62 1.04 8.62 4.44 8.62 C3.87 4.88 3.87 4.88 2.44 3.62 C0.02 3.12 0.02 3.12 -2.56 3.62 Z " fill="#1a1a1a" transform="translate(381.5625,269.375)"/>
<path d="M0 0 C2.44 1.56 2.44 1.56 4 4 C4.25 7.75 4.25 7.75 4 11 C-0.29 11 -4.58 11 -9 11 C-8.67 12.32 -8.34 13.64 -8 15 C-4.37 15 -0.74 15 3 15 C3 15.99 3 16.98 3 18 C-0.23 19.62 -3.51 19.57 -7 19 C-10 17 -10 17 -12 14 C-12.68 10.39 -12.38 7.13 -11.19 3.62 C-8.13 -0.56 -4.8 -0.51 0 0 Z M-6 3 C-7.86 5.41 -7.86 5.41 -9 8 C-5.7 8 -2.4 8 1 8 C0.43 4.26 0.43 4.26 -1 3 C-3.41 2.5 -3.41 2.5 -6 3 Z " fill="#1a1a1a" transform="translate(403,83)"/>
<path d="M0 0 C2.01 0.33 2.01 0.33 3.75 1.33 C5.75 4.52 5.32 7.88 5.2 11.52 C5.18 12.27 5.17 13.01 5.15 13.79 C5.12 15.63 5.07 17.48 5.01 19.33 C4.39 19.14 3.77 18.96 3.13 18.77 C0.97 18.09 0.97 18.09 -0.99 19.33 C-6.23 19.77 -6.23 19.77 -8.93 18.2 C-9.99 16.33 -9.99 16.33 -9.8 13.27 C-8.99 10.33 -8.99 10.33 -6.99 8.33 C-4.83 7.91 -4.83 7.91 -2.37 7.7 C-1.55 7.63 -0.73 7.55 0.11 7.48 C0.74 7.43 1.36 7.38 2.01 7.33 C1.68 6.01 1.35 4.69 1.01 3.33 C-1.96 3.99 -4.93 4.65 -7.99 5.33 C-6.53 -0.52 -5.8 0.21 0 0 Z M-5.87 11.83 C-6.24 12.32 -6.61 12.82 -6.99 13.33 C-6.66 14.32 -6.33 15.31 -5.99 16.33 C-3.08 16.58 -3.08 16.58 0.01 16.33 C2.29 13.51 2.29 13.51 2.01 10.33 C-2.25 9.92 -2.25 9.92 -5.87 11.83 Z " fill="#1a1a1a" transform="translate(415.9921875,435.671875)"/>
<path d="M0 0 C2.01 0.33 2.01 0.33 3.75 1.33 C5.75 4.52 5.32 7.88 5.2 11.52 C5.18 12.27 5.17 13.01 5.15 13.79 C5.12 15.63 5.07 17.48 5.01 19.33 C4.39 19.14 3.77 18.96 3.13 18.77 C0.97 18.09 0.97 18.09 -0.99 19.33 C-6.23 19.77 -6.23 19.77 -8.93 18.2 C-9.99 16.33 -9.99 16.33 -9.8 13.27 C-8.99 10.33 -8.99 10.33 -6.99 8.33 C-4.83 7.91 -4.83 7.91 -2.37 7.7 C-1.55 7.63 -0.73 7.55 0.11 7.48 C0.74 7.43 1.36 7.38 2.01 7.33 C1.68 6.01 1.35 4.69 1.01 3.33 C-1.96 3.99 -4.93 4.65 -7.99 5.33 C-6.53 -0.52 -5.8 0.21 0 0 Z M-5.87 11.83 C-6.24 12.32 -6.61 12.82 -6.99 13.33 C-6.66 14.32 -6.33 15.31 -5.99 16.33 C-3.08 16.58 -3.08 16.58 0.01 16.33 C2.29 13.51 2.29 13.51 2.01 10.33 C-2.25 9.92 -2.25 9.92 -5.87 11.83 Z " fill="#1a1a1a" transform="translate(432.9921875,82.671875)"/>
<path d="M0 0 C2.01 0.33 2.01 0.33 3.75 1.33 C5.75 4.52 5.32 7.88 5.2 11.52 C5.18 12.27 5.17 13.01 5.15 13.79 C5.12 15.63 5.07 17.48 5.01 19.33 C4.39 19.14 3.77 18.96 3.13 18.77 C0.97 18.09 0.97 18.09 -0.99 19.33 C-6.23 19.77 -6.23 19.77 -8.93 18.2 C-9.99 16.33 -9.99 16.33 -9.8 13.27 C-8.99 10.33 -8.99 10.33 -6.99 8.33 C-4.83 7.91 -4.83 7.91 -2.37 7.7 C-1.55 7.63 -0.73 7.55 0.11 7.48 C0.74 7.43 1.36 7.38 2.01 7.33 C1.68 6.01 1.35 4.69 1.01 3.33 C-1.96 3.99 -4.93 4.65 -7.99 5.33 C-6.53 -0.52 -5.8 0.21 0 0 Z M-5.87 11.83 C-6.24 12.32 -6.61 12.82 -6.99 13.33 C-6.66 14.32 -6.33 15.31 -5.99 16.33 C-3.08 16.58 -3.08 16.58 0.01 16.33 C2.29 13.51 2.29 13.51 2.01 10.33 C-2.25 9.92 -2.25 9.92 -5.87 11.83 Z " fill="#1a1a1a" transform="translate(349.9921875,82.671875)"/>
<path d="M0 0 C0 1.32 0 2.64 0 4 C-0.68 3.97 -1.35 3.93 -2.05 3.89 C-2.94 3.87 -3.83 3.84 -4.75 3.81 C-5.63 3.78 -6.51 3.74 -7.42 3.71 C-10.5 4.06 -11.79 4.86 -14 7 C-15.21 10.64 -15.4 13.18 -15 17 C-13.27 20.14 -13.27 20.14 -10 22 C-6.62 22.4 -3.38 22.3 0 22 C-0.33 23.32 -0.66 24.64 -1 26 C-11.75 26.86 -11.75 26.86 -15.62 23.62 C-19.51 19.33 -19.28 16.33 -19.21 10.7 C-18.86 6.19 -17.26 4.14 -14 1.19 C-9.41 -0.63 -4.88 -0.23 0 0 Z " fill="#1a1a1a" transform="translate(337,76)"/>
<path d="M0 0 C2.43 1.87 3.64 3.28 5 6 C5.12 10.57 4.83 13.99 1.88 17.56 C-1.77 19.39 -3.96 19.58 -8 19 C-10.88 17.44 -10.88 17.44 -13 15 C-13.99 11.36 -14.23 8.92 -13.31 5.25 C-10.17 -0.14 -5.93 -1.13 0 0 Z M-8 3 C-10.46 6.69 -10.31 8.64 -10 13 C-9.01 14.49 -9.01 14.49 -8 16 C-4.54 16.67 -4.54 16.67 -1 16 C1.19 13.96 1.19 13.96 2 11 C1.78 7.3 1.65 5.65 -1 3 C-4.5 2.58 -4.5 2.58 -8 3 Z " fill="#1a1a1a" transform="translate(451,436)"/>
<path d="M0 0 C2.43 1.87 3.64 3.28 5 6 C5.12 10.57 4.83 13.99 1.88 17.56 C-1.77 19.39 -3.96 19.58 -8 19 C-10.88 17.44 -10.88 17.44 -13 15 C-13.99 11.36 -14.23 8.92 -13.31 5.25 C-10.17 -0.14 -5.93 -1.13 0 0 Z M-8 3 C-10.46 6.69 -10.31 8.64 -10 13 C-9.01 14.49 -9.01 14.49 -8 16 C-4.54 16.67 -4.54 16.67 -1 16 C1.19 13.96 1.19 13.96 2 11 C1.78 7.3 1.65 5.65 -1 3 C-4.5 2.58 -4.5 2.58 -8 3 Z " fill="#1a1a1a" transform="translate(348,270)"/>
<path d="M0 0 C3.14 2.03 4.66 3.45 5.48 7.16 C5.74 11.35 5.33 13.49 3 17.06 C-0.32 19.21 -2.18 19.76 -6.06 19.48 C-9.61 18.6 -11.01 16.98 -13 14 C-13.68 10.39 -13.38 7.13 -12.19 3.62 C-9.08 -0.63 -4.84 -0.88 0 0 Z M-8.94 4.56 C-10.45 8.02 -9.87 10.39 -9 14 C-7.12 16.3 -7.12 16.3 -4.06 16.31 C-1.09 16.22 -1.09 16.22 0.88 14.94 C2.64 11.89 2.37 9.44 2 6 C1.02 3.94 1.02 3.94 -1 3 C-4.44 2.5 -6.18 2.34 -8.94 4.56 Z " fill="#1a1a1a" transform="translate(437,270)"/>
<path d="M0 0 C0.99 0 1.98 0 3 0 C3 1.65 3 3.3 3 5 C4.32 5 5.64 5 7 5 C7 5.99 7 6.98 7 8 C5.68 8 4.36 8 3 8 C3 12.29 3 16.58 3 21 C4.32 21 5.64 21 7 21 C7 21.99 7 22.98 7 24 C4.66 23.74 2.32 23.41 0 23 C-1.44 20.12 -1.09 17.58 -1.06 14.38 C-1.05 13.19 -1.04 12 -1.04 10.77 C-1.02 9.86 -1.01 8.94 -1 8 C-1.99 8 -2.98 8 -4 8 C-4 7.01 -4 6.02 -4 5 C-3.01 5 -2.02 5 -1 5 C-0.67 3.35 -0.34 1.7 0 0 Z " fill="#1a1a1a" transform="translate(428,431)"/>
<path d="M0 0 C0.33 0.99 0.66 1.98 1 3 C-1.64 3 -4.28 3 -7 3 C-7 4.32 -7 5.64 -7 7 C-6.07 7.27 -5.14 7.54 -4.19 7.81 C0.45 9.54 0.45 9.54 2 12 C1.88 14.56 1.88 14.56 1 17 C-2.09 19.06 -2.71 19.24 -6.19 19.12 C-7.45 19.08 -8.7 19.04 -10 19 C-10.33 17.68 -10.66 16.36 -11 15 C-8.03 15.33 -5.06 15.66 -2 16 C-2 14.68 -2 13.36 -2 12 C-2.93 11.73 -3.86 11.46 -4.81 11.19 C-9.45 9.46 -9.45 9.46 -11 7 C-10.88 4.44 -10.88 4.44 -10 2 C-6.36 -0.43 -4.29 -0.16 0 0 Z " fill="#1a1a1a" transform="translate(419,270)"/>
<path d="M0 0 C1.89 0.06 1.89 0.06 3.81 0.12 C3.81 1.12 3.81 2.11 3.81 3.12 C1.5 3.45 -0.81 3.79 -3.19 4.12 C-3.52 5.12 -3.85 6.11 -4.19 7.12 C-3.26 7.39 -2.33 7.66 -1.38 7.94 C3.26 9.67 3.26 9.67 4.81 12.12 C4.69 14.69 4.69 14.69 3.81 17.12 C0.14 19.57 -1.86 19.36 -6.19 19.12 C-6.85 18.8 -7.51 18.46 -8.19 18.12 C-8.19 17.13 -8.19 16.14 -8.19 15.12 C-5.22 15.12 -2.25 15.12 0.81 15.12 C0.1 11.84 0.1 11.84 -3.19 10.5 C-4.18 10.05 -5.17 9.59 -6.19 9.12 C-7.19 8.12 -7.19 8.12 -7.44 5.19 C-7.36 4.18 -7.27 3.17 -7.19 2.12 C-4.1 0.07 -3.48 -0.11 0 0 Z " fill="#1a1a1a" transform="translate(400.1875,269.875)"/>
<path d="M0 0 C1.89 0.06 1.89 0.06 3.81 0.12 C4.14 1.44 4.47 2.76 4.81 4.12 C3.53 4.08 2.25 4.04 0.94 4 C-1.21 3.88 -1.21 3.88 -3.19 4.12 C-5.58 6.07 -5.58 6.07 -5.38 9.62 C-5.43 12.97 -5.43 12.97 -4.19 15.12 C-1.22 15.12 1.75 15.12 4.81 15.12 C4.81 16.12 4.81 17.11 4.81 18.12 C1.71 19.68 -0.77 19.41 -4.19 19.12 C-7.95 17.08 -8.97 15.87 -10.19 11.75 C-10.19 7.62 -9.43 5.56 -7.19 2.12 C-4.1 0.07 -3.48 -0.11 0 0 Z " fill="#1a1a1a" transform="translate(321.1875,435.875)"/>
<path d="M0 0 C1.32 0 2.64 0 4 0 C4 9.24 4 18.48 4 28 C2.68 28 1.36 28 0 28 C0 18.76 0 9.52 0 0 Z " fill="#1a1a1a" transform="translate(366,427)"/>
<path d="M0 0 C0.33 1.32 0.66 2.64 1 4 C-1.02 3.9 -3.04 3.8 -5.05 3.71 C-5.7 3.8 -6.34 3.9 -7 4 C-9.3 7.45 -9.34 8.95 -9 13 C-7.24 15.18 -7.24 15.18 -5.05 15.2 C-2.03 15.1 -2.03 15.1 1 15 C0.67 16.32 0.34 17.64 0 19 C-7.07 19.6 -7.07 19.6 -11 17.06 C-13.33 13.49 -13.74 11.35 -13.48 7.16 C-11.82 -0.33 -6.38 -0.54 0 0 Z " fill="#1a1a1a" transform="translate(342,436)"/>
<path d="M0 0 C0.33 1.32 0.66 2.64 1 4 C-1.02 3.9 -3.04 3.8 -5.05 3.71 C-5.7 3.8 -6.34 3.9 -7 4 C-9.39 6.91 -9.39 6.91 -8.69 10.62 C-8.36 13.83 -8.36 13.83 -7 15 C-4.33 15.14 -1.68 15.04 1 15 C0.67 16.32 0.34 17.64 0 19 C-7.1 19.6 -7.1 19.6 -11 17 C-13.23 13.65 -13.68 11.87 -13.43 7.93 C-12.75 4.89 -11.2 3.13 -9 1 C-6.04 -0.48 -3.26 -0.06 0 0 Z " fill="#1a1a1a" transform="translate(369,270)"/>
<path d="M0 0 C0.99 0 1.98 0 3 0 C7.26 7.15 8.87 12.58 8 21 C7.06 24.54 6.01 27.92 4 31 C1.86 31.78 1.86 31.78 0 32 C0.29 31.3 0.58 30.6 0.88 29.88 C1.25 28.93 1.62 27.98 2 27 C2.37 26.11 2.74 25.23 3.12 24.31 C5.18 16.55 4.18 10.25 1 3 C0.67 2.01 0.34 1.02 0 0 Z " fill="#1a1a1a" transform="translate(459,473)"/>
<path d="M0 0 C0.99 0.33 1.98 0.66 3 1 C2.34 2.03 1.68 3.06 1 4.12 C-2.32 10.8 -2.29 18.86 -0.09 25.9 C0.84 28.01 1.82 30.01 3 32 C1.14 31.7 1.14 31.7 -1 31 C-5.82 24.17 -5.98 17.17 -5 9 C-3.9 5.65 -2.55 2.55 0 0 Z " fill="#1a1a1a" transform="translate(295,473)"/>
<path d="M0 0 C0.99 0 1.98 0 3 0 C0.82 6.88 -1.8 13.45 -4.69 20.06 C-5.1 21.02 -5.52 21.98 -5.95 22.97 C-6.96 25.32 -7.98 27.66 -9 30 C-9.99 30 -10.98 30 -12 30 C-10.18 23.05 -7.66 16.54 -4.88 9.94 C-4.33 8.65 -4.33 8.65 -3.78 7.34 C-1.14 1.14 -1.14 1.14 0 0 Z " fill="#1a1a1a" transform="translate(384,473)"/>
<path d="M0 0 C2.48 0.5 2.48 0.5 5 1 C5.99 1 6.98 1 8 1 C8.66 1.66 9.32 2.32 10 3 C8.35 3.66 6.7 4.32 5 5 C4.67 9.62 4.34 14.24 4 19 C2.68 19 1.36 19 0 19 C0 12.73 0 6.46 0 0 Z " fill="#1a1a1a" transform="translate(360,83)"/>
<path d="M0 0 C0.99 0 1.98 0 3 0 C3.33 0.66 3.66 1.32 4 2 C4.66 1.34 5.32 0.68 6 0 C7.32 0 8.64 0 10 0 C9.67 1.32 9.34 2.64 9 4 C8.36 4.1 7.72 4.21 7.06 4.31 C6.38 4.54 5.7 4.77 5 5 C4 8.01 3.7 10.54 3.44 13.69 C3.31 15.18 3.31 15.18 3.18 16.7 C3.12 17.46 3.06 18.22 3 19 C2.01 19 1.02 19 0 19 C0 12.73 0 6.46 0 0 Z " fill="#1a1a1a" transform="translate(460,436)"/>
<path d="M0 0 C1.32 0.33 2.64 0.66 4 1 C6.01 0.73 8.01 0.41 10 0 C9.67 1.32 9.34 2.64 9 4 C8.36 4.12 7.72 4.25 7.06 4.38 C6.04 4.68 6.04 4.68 5 5 C3.65 7.7 3.66 10.12 3.44 13.12 C3.35 14.22 3.27 15.32 3.18 16.45 C3.12 17.29 3.06 18.13 3 19 C2.01 19 1.02 19 0 19 C0 12.73 0 6.46 0 0 Z " fill="#1a1a1a" transform="translate(447,270)"/>
<path d="M0 0 C0.99 0 1.98 0 3 0 C3.33 0.66 3.66 1.32 4 2 C4.66 1.34 5.32 0.68 6 0 C7.32 0 8.64 0 10 0 C9.67 1.32 9.34 2.64 9 4 C8.36 4.1 7.72 4.21 7.06 4.31 C6.38 4.54 5.7 4.77 5 5 C4 8.01 3.7 10.54 3.44 13.69 C3.31 15.18 3.31 15.18 3.18 16.7 C3.12 17.46 3.06 18.22 3 19 C2.01 19 1.02 19 0 19 C0 12.73 0 6.46 0 0 Z " fill="#1a1a1a" transform="translate(323,270)"/>
<path d="M0 0 C1.32 0.33 2.64 0.66 4 1 C4.33 0.67 4.66 0.34 5 0 C6.67 -0.04 8.33 -0.04 10 0 C9.67 1.32 9.34 2.64 9 4 C7.35 4 5.7 4 4 4 C3.5 11.43 3.5 11.43 3 19 C2.01 19 1.02 19 0 19 C0 12.73 0 6.46 0 0 Z " fill="#1a1a1a" transform="translate(395,436)"/>
<path d="M0 0 C1.32 0.33 2.64 0.66 4 1 C4.33 0.67 4.66 0.34 5 0 C6.67 -0.04 8.33 -0.04 10 0 C9.67 1.32 9.34 2.64 9 4 C7.35 4 5.7 4 4 4 C3.5 11.42 3.5 11.42 3 19 C2.01 19 1.02 19 0 19 C0 12.73 0 6.46 0 0 Z " fill="#1a1a1a" transform="translate(412,83)"/>
<path d="M0 0 C0.99 0 1.98 0 3 0 C3.06 3.25 3.09 6.5 3.12 9.75 C3.14 10.67 3.16 11.59 3.18 12.54 C3.18 13.43 3.19 14.32 3.2 15.23 C3.21 16.05 3.22 16.87 3.23 17.71 C2.97 20.27 2.41 21.85 1 24 C-1.62 24.75 -1.62 24.75 -4 25 C-3.52 24.21 -3.04 23.43 -2.54 22.62 C-0.59 18.03 -0.44 14.06 -0.31 9.12 C-0.28 8.25 -0.24 7.37 -0.21 6.46 C-0.13 4.31 -0.06 2.15 0 0 Z " fill="#1a1a1a" transform="translate(452,473)"/>
<path d="M0 0 C0.99 0 1.98 0 3 0 C3.06 3.25 3.09 6.5 3.12 9.75 C3.14 10.67 3.16 11.59 3.18 12.54 C3.18 13.43 3.19 14.32 3.2 15.23 C3.21 16.05 3.22 16.87 3.23 17.71 C2.97 20.27 2.41 21.85 1 24 C-1.62 24.75 -1.62 24.75 -4 25 C-3.52 24.21 -3.04 23.43 -2.54 22.62 C-0.59 18.03 -0.44 14.06 -0.31 9.12 C-0.28 8.25 -0.24 7.37 -0.21 6.46 C-0.13 4.31 -0.06 2.15 0 0 Z " fill="#1a1a1a" transform="translate(366,473)"/>
<path d="M0 0 C0.33 0.66 0.66 1.32 1 2 C-1.64 2.33 -4.28 2.66 -7 3 C-7 4.65 -7 6.3 -7 8 C-2.52 7.55 -2.52 7.55 1 5 C0.62 7.44 0.62 7.44 0 10 C-2.8 11.4 -4.9 11.25 -8 11 C-9.94 9.88 -9.94 9.88 -11 8 C-10.78 4.35 -10.62 2.62 -8 0 C-5.02 -1.09 -2.97 -1.13 0 0 Z " fill="#1a1a1a" transform="translate(417,444)"/>
<path d="M0 0 C0.33 0.66 0.66 1.32 1 2 C-1.64 2.33 -4.28 2.66 -7 3 C-7 4.65 -7 6.3 -7 8 C-2.52 7.55 -2.52 7.55 1 5 C0.62 7.44 0.62 7.44 0 10 C-2.8 11.4 -4.9 11.25 -8 11 C-9.94 9.88 -9.94 9.88 -11 8 C-10.78 4.35 -10.62 2.62 -8 0 C-5.02 -1.09 -2.97 -1.13 0 0 Z " fill="#1a1a1a" transform="translate(434,91)"/>
<path d="M0 0 C0.33 0.66 0.66 1.32 1 2 C-1.64 2.33 -4.28 2.66 -7 3 C-7 4.65 -7 6.3 -7 8 C-2.52 7.55 -2.52 7.55 1 5 C0.62 7.44 0.62 7.44 0 10 C-2.8 11.4 -4.9 11.25 -8 11 C-9.94 9.88 -9.94 9.88 -11 8 C-10.78 4.35 -10.62 2.62 -8 0 C-5.02 -1.09 -2.97 -1.13 0 0 Z " fill="#1a1a1a" transform="translate(351,91)"/>
<path d="M0 0 C3.83 0.41 6.08 1.51 9 4 C8.67 4.99 8.34 5.98 8 7 C7.78 9.06 7.59 11.12 7.44 13.19 C7.35 14.27 7.27 15.36 7.18 16.48 C7.12 17.31 7.06 18.14 7 19 C6.01 19 5.02 19 4 19 C3.94 18.01 3.88 17.03 3.82 16.01 C3.73 14.73 3.65 13.45 3.56 12.12 C3.44 10.21 3.44 10.21 3.32 8.26 C3.21 5.12 3.21 5.12 2 3 C1.01 2.34 0.02 1.68 -1 1 C-0.67 0.67 -0.34 0.34 0 0 Z " fill="#1a1a1a" transform="translate(368,83)"/>
<path d="M0 0 C2.97 0 5.94 0 9 0 C9.03 1.98 9.05 3.96 9.06 5.94 C9.07 7.04 9.09 8.14 9.1 9.28 C9 12 9 12 8 13 C6 13.04 4 13.04 2 13 C2.47 12.65 2.95 12.3 3.44 11.94 C5.68 9.16 5.67 6.49 6 3 C4.02 3 2.04 3 0 3 C0 2.01 0 1.02 0 0 Z " fill="#1a1a1a" transform="translate(400,485)"/>
<path d="M0 0 C0.12 0.63 0.24 1.25 0.37 1.9 C0.62 3.12 0.62 3.12 0.88 4.38 C1.04 5.19 1.2 6 1.37 6.84 C1.87 9.19 1.87 9.19 4 11 C6.07 11.64 6.07 11.64 8 12 C8 12.66 8 13.32 8 14 C4.06 14.46 2.43 14.3 -0.88 12 C-3.73 7.97 -3.41 5.84 -3 1 C-1 0 -1 0 0 0 Z " fill="#1a1a1a" transform="translate(427,275)"/>
<path d="M0 0 C1.16 2.87 0.99 4.02 0 7.02 C-0.71 8.62 -0.71 8.62 -1.44 10.25 C-1.91 11.33 -2.38 12.41 -2.87 13.52 C-3.24 14.34 -3.62 15.16 -4 16 C-4.99 16 -5.98 16 -7 16 C-5.42 9.96 -3.81 4.99 0 0 Z " fill="#1a1a1a" transform="translate(379,487)"/>
<path d="M0 0 C0.99 0.33 1.98 0.66 3 1 C2.04 2.67 2.04 2.67 1.06 4.38 C-1.36 9.15 -1.78 13.71 -2 19 C-2.33 19 -2.66 19 -3 19 C-3.14 18.09 -3.29 17.19 -3.44 16.25 C-3.88 13.18 -3.88 13.18 -4.65 11.06 C-5.11 8.37 -4.42 7.19 -3.12 4.81 C-2.57 3.77 -2.57 3.77 -2.01 2.71 C-1 1 -1 1 0 0 Z " fill="#1a1a1a" transform="translate(295,473)"/>
<path d="M0 0 C0 0.99 0 1.98 0 3 C-1.11 3.12 -2.23 3.25 -3.38 3.38 C-7.03 3.65 -7.03 3.65 -9 6 C-9.66 5.67 -10.32 5.34 -11 5 C-10.62 3.06 -10.62 3.06 -10 1 C-6.79 -0.61 -3.56 -0.06 0 0 Z " fill="#1a1a1a" transform="translate(404,270)"/>
<path d="M0 0 C1.89 0.06 1.89 0.06 3.81 0.12 C2.82 0.62 2.82 0.62 1.81 1.12 C1.81 1.79 1.81 2.44 1.81 3.12 C0.86 3.25 -0.08 3.37 -1.06 3.5 C-4.27 3.84 -4.27 3.84 -6.19 6.12 C-7.18 6.12 -8.17 6.12 -9.19 6.12 C-7.21 1.56 -5.02 -0.16 0 0 Z " fill="#1a1a1a" transform="translate(344.1875,269.875)"/>
<path d="M0 0 C0.33 0.66 0.66 1.32 1 2 C1.66 2 2.32 2 3 2 C1.94 5.4 0.99 8.01 -1 11 C-1.99 11 -2.98 11 -4 11 C-3.71 10.3 -3.42 9.6 -3.12 8.88 C-1.98 5.95 -0.97 2.99 0 0 Z " fill="#1a1a1a" transform="translate(463,494)"/>
<path d="M0 0 C0.99 0 1.98 0 3 0 C7 6.62 7 6.62 7 10 C6.01 10.33 5.02 10.66 4 11 C3.52 9.73 3.04 8.46 2.56 7.19 C2.16 6.13 2.16 6.13 1.75 5.04 C1.14 3.37 0.56 1.69 0 0 Z " fill="#1a1a1a" transform="translate(459,473)"/>
<path d="M0 0 C2.67 0 5.33 0 8 0 C7.67 1.32 7.34 2.64 7 4 C4.69 4 2.38 4 0 4 C0 2.68 0 1.36 0 0 Z " fill="#1a1a1a" transform="translate(397,436)"/>
<path d="M0 0 C0 0.66 0 1.32 0 2 C1.32 2.33 2.64 2.66 4 3 C3.05 3.29 2.1 3.58 1.12 3.88 C-2.05 4.77 -2.05 4.77 -4 7 C-4.66 6.67 -5.32 6.34 -6 6 C-5.69 4.12 -5.69 4.12 -5 2 C-2 0 -2 0 0 0 Z " fill="#1a1a1a" transform="translate(431,270)"/>
<path d="M0 0 C2.67 0 5.33 0 8 0 C7.67 1.32 7.34 2.64 7 4 C4.69 4 2.38 4 0 4 C0 2.68 0 1.36 0 0 Z " fill="#1a1a1a" transform="translate(414,83)"/>
<path d="M0 0 C1.65 0 3.3 0 5 0 C3.8 2.49 2.55 4.68 1 7 C0.01 7 -0.98 7 -2 7 C-1.34 4.69 -0.68 2.38 0 0 Z " fill="#1a1a1a" transform="translate(294,433)"/>
<path d="M0 0 C2.69 0.88 2.69 0.88 5 2 C4.4 2.27 3.8 2.54 3.19 2.81 C1.03 3.98 -0.36 5.19 -2 7 C-2.66 6.67 -3.32 6.34 -4 6 C-3.69 4.12 -3.69 4.12 -3 2 C-2.01 1.34 -1.02 0.68 0 0 Z " fill="#1a1a1a" transform="translate(396,83)"/>
<path d="M0 0 C-0.33 1.32 -0.66 2.64 -1 4 C-2.98 4.33 -4.96 4.66 -7 5 C-6.62 3.06 -6.62 3.06 -6 1 C-4 0 -4 0 0 0 Z " fill="#1a1a1a" transform="translate(457,270)"/>
<path d="M0 0 C0.66 0.33 1.32 0.66 2 1 C1.01 2.98 0.02 4.96 -1 7 C-1.99 7 -2.98 7 -4 7 C-4 4 -4 4 -2 1.81 C-1.34 1.21 -0.68 0.62 0 0 Z " fill="#1a1a1a" transform="translate(334,436)"/>
<path d="M0 0 C2.48 0.99 2.48 0.99 5 2 C2.06 3.52 -0.92 4.8 -4 6 C-2.85 3.53 -1.95 1.95 0 0 Z " fill="#1a1a1a" transform="translate(379,436)"/>
<path d="M0 0 C2.48 0.99 2.48 0.99 5 2 C2.06 3.52 -0.92 4.8 -4 6 C-2.85 3.53 -1.95 1.95 0 0 Z " fill="#1a1a1a" transform="translate(378,270)"/>
<path d="M0 0 C0 0.99 0 1.98 0 3 C-2.31 3.69 -2.31 3.69 -5 4 C-6.81 2.56 -6.81 2.56 -8 1 C-2.25 0 -2.25 0 0 0 Z " fill="#1a1a1a" transform="translate(361,451)"/>
<path d="M0 0 C0.66 0 1.32 0 2 0 C2 0.66 2 1.32 2 2 C3.32 2.33 4.64 2.66 6 3 C3.36 3.66 0.72 4.32 -2 5 C-1 1 -1 1 0 0 Z " fill="#1a1a1a" transform="translate(410,436)"/>
<path d="M0 0 C2.64 0.33 5.28 0.66 8 1 C6.68 1.33 5.36 1.66 4 2 C4 2.66 4 3.32 4 4 C2.68 3.67 1.36 3.34 0 3 C0 2.01 0 1.02 0 0 Z " fill="#1a1a1a" transform="translate(408,285)"/>
<path d="M0 0 C0.66 0 1.32 0 2 0 C2 0.66 2 1.32 2 2 C3.32 2.33 4.64 2.66 6 3 C3.36 3.66 0.72 4.32 -2 5 C-1 1 -1 1 0 0 Z " fill="#1a1a1a" transform="translate(427,83)"/>
<path d="M0 0 C0.66 0 1.32 0 2 0 C2 0.66 2 1.32 2 2 C3.32 2.33 4.64 2.66 6 3 C3.36 3.66 0.72 4.32 -2 5 C-1 1 -1 1 0 0 Z " fill="#1a1a1a" transform="translate(344,83)"/>
</svg>
