<?xml version="1.0" encoding="UTF-8"?>
<!-- Generator: visioncortex VTracer 0.6.4 -->
<svg version="1.1" xmlns="http://www.w3.org/2000/svg" width="550" height="538">
<path d="M0 0 C0.86 -0 1.73 -0.01 2.61 -0.01 C5.51 -0.02 8.41 -0.02 11.3 -0.02 C13.38 -0.03 15.45 -0.03 17.53 -0.04 C23.17 -0.05 28.81 -0.06 34.45 -0.06 C37.97 -0.06 41.5 -0.07 45.02 -0.07 C56.05 -0.08 67.08 -0.09 78.11 -0.1 C90.84 -0.1 103.56 -0.12 116.29 -0.15 C126.13 -0.17 135.97 -0.18 145.81 -0.18 C151.69 -0.18 157.56 -0.19 163.44 -0.21 C168.97 -0.22 174.5 -0.23 180.03 -0.22 C182.06 -0.22 184.08 -0.22 186.11 -0.23 C188.88 -0.24 191.65 -0.24 194.43 -0.23 C195.62 -0.24 195.62 -0.24 196.84 -0.25 C206.08 -0.17 212.89 2.61 219.58 8.95 C224.23 14.18 226.64 20.25 226.67 27.24 C226.68 28.05 226.68 28.86 226.69 29.69 C226.69 30.57 226.69 31.45 226.69 32.36 C226.7 33.29 226.7 34.22 226.71 35.18 C226.72 38.27 226.73 41.35 226.73 44.43 C226.74 46.58 226.75 48.73 226.75 50.88 C226.76 55.38 226.77 59.89 226.77 64.39 C226.78 70.15 226.8 75.91 226.83 81.67 C226.85 86.1 226.85 90.54 226.85 94.98 C226.86 97.1 226.87 99.22 226.88 101.35 C226.9 104.32 226.89 107.3 226.89 110.28 C226.9 111.15 226.91 112.01 226.92 112.91 C226.85 122.41 224.27 129.29 217.72 136.19 C210.94 142.22 203.88 143.29 195.06 143.28 C194.2 143.28 193.34 143.29 192.45 143.29 C189.55 143.3 186.66 143.3 183.76 143.3 C181.68 143.31 179.61 143.31 177.54 143.32 C171.89 143.33 166.25 143.34 160.61 143.34 C157.09 143.34 153.56 143.35 150.04 143.35 C139.01 143.37 127.98 143.38 116.95 143.38 C104.23 143.38 91.5 143.4 78.77 143.43 C68.93 143.45 59.09 143.46 49.25 143.46 C43.37 143.46 37.5 143.47 31.62 143.49 C26.09 143.5 20.56 143.51 15.03 143.5 C13.01 143.5 10.98 143.5 8.95 143.51 C6.18 143.52 3.41 143.52 0.63 143.51 C-0.56 143.52 -0.56 143.52 -1.78 143.53 C-11.02 143.45 -17.83 140.68 -24.52 134.33 C-29.17 129.11 -31.58 123.03 -31.61 116.04 C-31.61 115.23 -31.62 114.42 -31.63 113.59 C-31.63 112.71 -31.63 111.83 -31.63 110.92 C-31.63 109.99 -31.64 109.06 -31.64 108.1 C-31.66 105.02 -31.67 101.93 -31.67 98.85 C-31.68 96.7 -31.68 94.55 -31.69 92.41 C-31.7 87.9 -31.71 83.4 -31.71 78.89 C-31.71 73.13 -31.74 67.37 -31.77 61.61 C-31.79 57.18 -31.79 52.74 -31.79 48.3 C-31.8 46.18 -31.8 44.06 -31.82 41.93 C-31.83 38.96 -31.83 35.98 -31.83 33 C-31.83 32.13 -31.84 31.27 -31.85 30.37 C-31.79 20.87 -29.2 14 -22.66 7.09 C-15.88 1.06 -8.82 -0.01 0 0 Z M-18.94 19.35 C-21.06 23.69 -21.04 27.96 -21 32.71 C-21.01 33.65 -21.02 34.58 -21.03 35.54 C-21.05 38.62 -21.04 41.69 -21.04 44.76 C-21.04 46.91 -21.05 49.05 -21.05 51.2 C-21.06 55.69 -21.06 60.18 -21.05 64.67 C-21.03 70.42 -21.05 76.16 -21.09 81.9 C-21.11 86.33 -21.11 90.76 -21.1 95.19 C-21.1 97.31 -21.1 99.43 -21.12 101.54 C-21.14 104.51 -21.12 107.47 -21.1 110.44 C-21.11 111.31 -21.12 112.17 -21.14 113.07 C-21.04 119.04 -19.73 123.77 -15.47 128.14 C-10.06 131.94 -6.16 132.72 0.37 132.66 C1.67 132.67 1.67 132.67 2.99 132.68 C5.88 132.69 8.77 132.68 11.66 132.67 C13.74 132.68 15.81 132.69 17.89 132.7 C23.52 132.72 29.15 132.72 34.79 132.71 C39.49 132.71 44.2 132.71 48.9 132.72 C60 132.74 71.1 132.73 82.2 132.72 C93.64 132.7 105.09 132.72 116.53 132.75 C126.36 132.77 136.2 132.78 146.03 132.77 C151.9 132.77 157.77 132.77 163.64 132.79 C169.16 132.81 174.68 132.8 180.2 132.78 C182.22 132.77 184.24 132.78 186.27 132.79 C189.04 132.81 191.8 132.79 194.57 132.77 C195.36 132.78 196.16 132.79 196.98 132.8 C202.89 132.71 206.98 130.91 211.53 127.14 C215.83 122.05 216.11 117.04 216.06 110.57 C216.07 109.63 216.08 108.7 216.09 107.74 C216.11 104.66 216.11 101.59 216.1 98.52 C216.1 96.37 216.11 94.23 216.12 92.08 C216.13 87.59 216.12 83.1 216.11 78.61 C216.09 72.86 216.11 67.12 216.15 61.38 C216.17 56.95 216.17 52.52 216.16 48.09 C216.16 45.97 216.17 43.85 216.18 41.74 C216.2 38.77 216.18 35.81 216.16 32.84 C216.18 31.54 216.18 31.54 216.2 30.21 C216.11 24.24 214.79 19.51 210.53 15.14 C205.12 11.34 201.22 10.56 194.69 10.63 C193.83 10.62 192.96 10.61 192.07 10.6 C189.18 10.59 186.29 10.6 183.4 10.61 C181.33 10.6 179.25 10.59 177.17 10.58 C171.54 10.56 165.91 10.56 160.28 10.57 C155.57 10.58 150.87 10.57 146.16 10.56 C135.06 10.54 123.97 10.55 112.87 10.56 C101.42 10.58 89.98 10.57 78.53 10.53 C68.7 10.51 58.87 10.5 49.03 10.51 C43.16 10.51 37.29 10.51 31.42 10.49 C25.9 10.47 20.39 10.48 14.87 10.5 C12.84 10.51 10.82 10.5 8.79 10.49 C6.03 10.47 3.26 10.49 0.49 10.51 C-0.3 10.5 -1.1 10.49 -1.92 10.48 C-9.02 10.59 -14.86 13.41 -18.94 19.35 Z " fill="#1a1a1a" transform="translate(270.4687957763672,200.85955810546875)"/>
<path d="M0 0 C0.91 -0.01 1.83 -0.01 2.77 -0.02 C5.82 -0.04 8.87 -0.03 11.92 -0.03 C14.11 -0.03 16.3 -0.04 18.5 -0.05 C24.44 -0.07 30.39 -0.08 36.33 -0.07 C41.3 -0.07 46.27 -0.08 51.24 -0.09 C63.63 -0.11 76.02 -0.11 88.41 -0.11 C99.16 -0.1 109.91 -0.12 120.65 -0.15 C131.7 -0.19 142.75 -0.2 153.8 -0.2 C160 -0.2 166.2 -0.2 172.39 -0.23 C178.22 -0.25 184.05 -0.25 189.88 -0.23 C192.02 -0.22 194.16 -0.23 196.29 -0.24 C218.79 -0.38 218.79 -0.38 227.16 7.77 C230.57 13.5 232.1 17.86 232.14 24.55 C232.15 25.23 232.16 25.9 232.17 26.6 C232.19 28.82 232.19 31.04 232.19 33.26 C232.2 34.82 232.21 36.37 232.21 37.93 C232.23 41.19 232.23 44.45 232.22 47.71 C232.22 51.86 232.25 56.01 232.29 60.16 C232.31 63.38 232.32 66.6 232.31 69.81 C232.31 71.34 232.32 72.87 232.34 74.4 C232.45 84.6 231.78 93.21 224.35 100.83 C217.81 104.72 212.95 105.84 205.44 105.79 C204.53 105.79 203.62 105.8 202.67 105.81 C199.62 105.82 196.57 105.82 193.52 105.81 C191.33 105.82 189.14 105.83 186.95 105.84 C181 105.86 175.06 105.87 169.11 105.86 C164.14 105.86 159.17 105.87 154.21 105.88 C141.81 105.9 129.42 105.9 117.03 105.89 C106.28 105.89 95.54 105.91 84.79 105.94 C73.74 105.98 62.69 105.99 51.64 105.99 C45.44 105.98 39.25 105.99 33.05 106.01 C27.22 106.04 21.39 106.04 15.56 106.01 C13.42 106.01 11.29 106.02 9.15 106.03 C-13.35 106.17 -13.35 106.17 -21.72 98.02 C-25.12 92.29 -26.65 87.93 -26.7 81.24 C-26.71 80.56 -26.72 79.89 -26.72 79.19 C-26.75 76.97 -26.75 74.75 -26.75 72.53 C-26.75 70.97 -26.76 69.42 -26.77 67.86 C-26.78 64.6 -26.79 61.34 -26.78 58.08 C-26.77 53.93 -26.8 49.78 -26.84 45.62 C-26.87 42.41 -26.87 39.19 -26.87 35.98 C-26.87 34.45 -26.88 32.92 -26.9 31.39 C-27.01 21.19 -26.33 12.58 -18.9 4.96 C-12.37 1.07 -7.51 -0.05 0 0 Z M-13.28 14.39 C-15.74 17.75 -15.54 21.04 -15.55 25.1 C-15.56 25.77 -15.56 26.43 -15.57 27.12 C-15.58 29.31 -15.58 31.51 -15.58 33.7 C-15.58 35.23 -15.59 36.76 -15.59 38.29 C-15.6 41.49 -15.6 44.7 -15.59 47.9 C-15.59 52 -15.61 56.1 -15.63 60.2 C-15.64 63.36 -15.64 66.52 -15.64 69.68 C-15.64 71.19 -15.65 72.7 -15.66 74.21 C-15.67 76.33 -15.66 78.44 -15.65 80.56 C-15.65 81.76 -15.65 82.96 -15.65 84.2 C-15.24 87.75 -14.48 89.59 -12.28 92.39 C-8.42 95.18 -3.95 94.68 0.6 94.66 C1.5 94.66 2.41 94.66 3.34 94.67 C6.39 94.68 9.43 94.67 12.48 94.67 C14.65 94.67 16.83 94.68 19.01 94.68 C24.94 94.7 30.87 94.7 36.79 94.7 C41.73 94.69 46.68 94.7 51.62 94.7 C63.95 94.72 76.27 94.72 88.6 94.71 C98.64 94.7 108.68 94.71 118.72 94.73 C130.37 94.75 142.03 94.76 153.69 94.76 C159.86 94.76 166.03 94.76 172.2 94.77 C178 94.79 183.81 94.78 189.61 94.77 C191.74 94.77 193.87 94.77 196 94.78 C198.91 94.79 201.81 94.78 204.72 94.77 C205.57 94.78 206.41 94.78 207.28 94.79 C211.93 94.75 214.93 94.38 218.72 91.39 C221.18 88.04 220.98 84.75 221 80.69 C221 80.02 221.01 79.35 221.01 78.67 C221.03 76.47 221.02 74.28 221.02 72.09 C221.03 70.56 221.03 69.03 221.04 67.5 C221.04 64.29 221.04 61.09 221.04 57.89 C221.03 53.79 221.05 49.69 221.07 45.59 C221.09 42.43 221.09 39.27 221.08 36.11 C221.08 34.6 221.09 33.09 221.1 31.58 C221.11 29.46 221.11 27.35 221.09 25.23 C221.09 24.03 221.1 22.83 221.1 21.59 C220.68 18.03 219.92 16.2 217.72 13.39 C213.87 10.61 209.39 11.11 204.85 11.13 C203.94 11.13 203.03 11.13 202.1 11.12 C199.06 11.11 196.01 11.12 192.97 11.12 C190.79 11.12 188.61 11.11 186.43 11.1 C180.5 11.09 174.58 11.09 168.65 11.09 C163.71 11.09 158.77 11.09 153.82 11.08 C141.5 11.07 129.17 11.07 116.84 11.08 C106.81 11.08 96.77 11.08 86.73 11.06 C75.07 11.04 63.41 11.03 51.75 11.03 C45.58 11.03 39.41 11.03 33.24 11.02 C27.44 11 21.64 11.01 15.84 11.02 C13.7 11.02 11.57 11.02 9.44 11.01 C6.54 11 3.63 11.01 0.72 11.02 C-0.12 11.01 -0.97 11.01 -1.84 11 C-6.49 11.04 -9.49 11.41 -13.28 14.39 Z " fill="#1a1a1a" transform="translate(265.2783966064453,30.6055908203125)"/>
<path d="M0 0 C1.37 -0.01 1.37 -0.01 2.76 -0.01 C5.81 -0.02 8.85 -0.02 11.9 -0.01 C14.09 -0.02 16.27 -0.02 18.46 -0.03 C24.4 -0.04 30.33 -0.04 36.27 -0.04 C41.22 -0.04 46.18 -0.04 51.13 -0.05 C63.49 -0.06 75.85 -0.06 88.21 -0.05 C98.93 -0.05 109.66 -0.06 120.39 -0.08 C131.41 -0.1 142.43 -0.11 153.45 -0.1 C159.64 -0.1 165.82 -0.1 172 -0.12 C177.82 -0.13 183.63 -0.13 189.45 -0.12 C191.58 -0.11 193.72 -0.12 195.85 -0.12 C198.77 -0.13 201.68 -0.13 204.59 -0.11 C205.44 -0.12 206.28 -0.13 207.15 -0.14 C215.33 -0.06 220.96 2.63 226.86 8.26 C230.56 13.49 230.99 17.69 231.02 24.01 C231.03 24.68 231.03 25.35 231.04 26.05 C231.05 28.26 231.06 30.47 231.06 32.68 C231.07 34.23 231.07 35.77 231.08 37.32 C231.09 40.55 231.1 43.79 231.1 47.03 C231.11 51.16 231.13 55.3 231.16 59.43 C231.18 62.62 231.18 65.81 231.18 69 C231.19 70.53 231.19 72.05 231.21 73.57 C231.35 90.99 231.35 90.99 226.03 97.5 C225.37 98.04 224.72 98.58 224.05 99.14 C223.08 99.97 223.08 99.97 222.09 100.82 C216.54 104.41 211.11 104.55 204.73 104.52 C203.82 104.53 202.91 104.53 201.97 104.53 C198.92 104.54 195.88 104.54 192.83 104.54 C190.65 104.54 188.46 104.54 186.28 104.55 C180.35 104.56 174.42 104.56 168.48 104.56 C163.53 104.56 158.58 104.57 153.63 104.57 C141.27 104.58 128.92 104.58 116.57 104.58 C106.51 104.57 96.46 104.58 86.41 104.6 C74.73 104.62 63.04 104.63 51.36 104.62 C45.18 104.62 39 104.63 32.82 104.64 C27.01 104.65 21.2 104.65 15.38 104.64 C13.25 104.63 11.12 104.64 8.99 104.65 C6.07 104.66 3.16 104.65 0.25 104.63 C-1.01 104.65 -1.01 104.65 -2.3 104.66 C-8.65 104.6 -14.32 103.57 -19.38 99.43 C-19.92 98.78 -20.46 98.12 -21.02 97.45 C-21.57 96.8 -22.12 96.16 -22.7 95.49 C-25.83 90.65 -26.39 85.96 -26.42 80.28 C-26.42 79.27 -26.42 79.27 -26.43 78.25 C-26.44 76.05 -26.44 73.85 -26.44 71.64 C-26.45 70.1 -26.45 68.56 -26.45 67.02 C-26.46 63.79 -26.46 60.57 -26.46 57.34 C-26.45 53.22 -26.47 49.11 -26.49 44.99 C-26.51 41.8 -26.51 38.62 -26.5 35.44 C-26.5 33.92 -26.51 32.4 -26.52 30.89 C-26.62 13.52 -26.62 13.52 -21.31 7.02 C-20.65 6.48 -20 5.94 -19.33 5.39 C-18.68 4.83 -18.04 4.28 -17.37 3.71 C-11.82 0.11 -6.39 -0.03 0 0 Z M-13.14 14.26 C-15.58 17.6 -15.4 20.84 -15.42 24.88 C-15.42 25.53 -15.43 26.19 -15.43 26.86 C-15.44 29.03 -15.44 31.19 -15.44 33.35 C-15.45 34.86 -15.45 36.36 -15.45 37.87 C-15.46 41.03 -15.46 44.18 -15.46 47.34 C-15.45 51.38 -15.47 55.42 -15.49 59.46 C-15.51 62.57 -15.51 65.68 -15.5 68.79 C-15.5 70.28 -15.51 71.77 -15.52 73.26 C-15.53 75.35 -15.52 77.43 -15.51 79.51 C-15.51 80.7 -15.51 81.88 -15.51 83.1 C-15.1 86.64 -14.33 88.47 -12.14 91.26 C-8.29 94.03 -3.84 93.54 0.7 93.52 C1.6 93.53 2.5 93.53 3.43 93.53 C6.46 93.54 9.49 93.54 12.52 93.54 C14.69 93.54 16.86 93.54 19.03 93.55 C24.93 93.56 30.83 93.56 36.73 93.56 C41.65 93.56 46.57 93.57 51.49 93.57 C63.1 93.58 74.7 93.58 86.31 93.58 C98.29 93.57 110.27 93.58 122.25 93.6 C132.53 93.62 142.82 93.63 153.1 93.62 C159.24 93.62 165.38 93.63 171.52 93.64 C177.3 93.65 183.08 93.65 188.85 93.64 C190.97 93.63 193.1 93.64 195.22 93.65 C198.11 93.66 201 93.65 203.9 93.63 C204.74 93.64 205.58 93.65 206.45 93.66 C211.08 93.61 214.07 93.23 217.86 90.26 C220.3 86.92 220.12 83.68 220.13 79.64 C220.14 78.99 220.14 78.33 220.15 77.66 C220.16 75.49 220.16 73.33 220.16 71.17 C220.16 69.66 220.17 68.16 220.17 66.65 C220.18 63.49 220.18 60.34 220.18 57.18 C220.17 53.14 220.19 49.1 220.21 45.06 C220.22 41.95 220.23 38.84 220.22 35.73 C220.22 34.24 220.23 32.75 220.24 31.26 C220.25 29.18 220.24 27.09 220.23 25.01 C220.23 23.82 220.23 22.64 220.23 21.42 C219.82 17.89 219.04 16.05 216.86 13.26 C213.01 10.49 208.56 10.98 204.02 11 C203.12 11 202.22 10.99 201.29 10.99 C198.26 10.98 195.23 10.98 192.2 10.99 C190.03 10.98 187.86 10.98 185.69 10.97 C179.79 10.96 173.89 10.96 167.99 10.96 C163.07 10.96 158.15 10.96 153.23 10.95 C141.62 10.94 130.02 10.94 118.41 10.95 C106.43 10.95 94.45 10.94 82.46 10.92 C72.18 10.9 61.9 10.89 51.62 10.9 C45.48 10.9 39.34 10.9 33.19 10.88 C27.42 10.87 21.64 10.87 15.87 10.88 C13.75 10.89 11.62 10.88 9.5 10.88 C6.61 10.87 3.72 10.87 0.82 10.89 C-0.02 10.88 -0.86 10.87 -1.73 10.86 C-6.37 10.91 -9.36 11.29 -13.14 14.26 Z " fill="#1a1a1a" transform="translate(264.14036560058594,407.7393035888672)"/>
<path d="M0 0 C4.88 3.44 9.3 8.01 10.75 13.94 C11.22 18.89 10.67 22.33 8.75 26.94 C9.19 30.41 10.55 32.14 12.95 34.62 C13.6 35.3 14.26 35.98 14.93 36.68 C15.95 37.74 15.95 37.74 17 38.81 C18.34 40.2 19.68 41.6 21.02 42.99 C21.66 43.66 22.3 44.32 22.96 45.01 C24.59 46.76 26.09 48.57 27.57 50.45 C28.29 51.27 29.01 52.09 29.75 52.94 C32.53 52.89 32.53 52.89 35.75 51.94 C42.96 51.29 47.89 51.51 53.75 55.94 C57.89 60.3 59.82 64.26 60.12 70.25 C59.98 75.88 58.14 80.3 54.36 84.48 C51.09 87.42 47.97 88.88 43.75 89.94 C40.67 89.56 40.67 89.56 37.5 88.94 C33.31 88.52 31.48 88.44 27.96 90.84 C25.43 93.45 23.09 96.16 20.75 98.94 C19.32 100.24 17.86 101.51 16.38 102.75 C13.45 105.25 11.02 107.82 8.75 110.94 C9.08 111.6 9.41 112.26 9.75 112.94 C11.76 118.97 11.28 123.41 8.75 129.12 C6.03 134.05 3.15 137.13 -2.25 138.94 C-8.44 139.83 -14.05 139.69 -19.25 135.94 C-24.29 131.13 -27.11 126.69 -27.38 119.56 C-27.33 118.7 -27.29 117.83 -27.25 116.94 C-28.46 116.57 -28.46 116.57 -29.69 116.19 C-33.33 114.91 -36.67 113.31 -40.1 111.55 C-42.25 110.71 -42.25 110.71 -44.29 111.7 C-44.94 112.11 -45.58 112.52 -46.25 112.94 C-51.61 116.02 -55.98 118.13 -62.25 116.94 C-68.14 114.99 -71.79 112.03 -75.25 106.94 C-77.88 101.67 -77.51 96.57 -76.25 90.94 C-73.34 85.32 -69.12 81.36 -63.25 78.94 C-60.67 78.74 -60.67 78.74 -58 78.81 C-57.11 78.83 -56.22 78.85 -55.3 78.87 C-54.62 78.89 -53.95 78.91 -53.25 78.94 C-53.02 78.26 -52.8 77.58 -52.56 76.88 C-50.89 73.14 -48.69 70.22 -46.25 66.94 C-47.9 63.64 -49.55 60.34 -51.25 56.94 C-52.95 57.28 -52.95 57.28 -54.69 57.62 C-59.71 58.24 -63.74 57.18 -68.25 54.94 C-73.26 50.8 -76.17 46.67 -77.25 40.25 C-77.67 34.22 -75.84 29.74 -72.25 24.94 C-68.28 21.25 -63.75 19.18 -58.34 18.8 C-52.85 19.17 -47.94 20.8 -44.25 24.94 C-43.61 24.74 -42.97 24.55 -42.31 24.35 C-37.3 22.84 -32.28 21.36 -27.25 19.94 C-27.21 19.07 -27.21 19.07 -27.17 18.18 C-26.68 11.37 -24.94 7.36 -19.75 2.69 C-13.43 -1.74 -7.4 -2.42 0 0 Z M-18.25 11.94 C-19.86 15.17 -19.85 18.45 -19.25 21.94 C-17.51 24.96 -15.41 27.36 -12.25 28.94 C-7.13 29.54 -7.13 29.54 -2.43 27.89 C-0.26 26.11 1.49 24.46 2.75 21.94 C3.1 16.64 3.26 13.2 -0.25 8.94 C-3.22 6.63 -6.5 6.47 -10.21 6.54 C-13.87 7.25 -15.69 9.31 -18.25 11.94 Z M-67.25 30.94 C-69.84 34.35 -69.68 37.77 -69.25 41.94 C-67.52 45.33 -66.18 47.36 -62.94 49.38 C-59.35 50.13 -56.81 49.83 -53.25 48.94 C-50.54 47.11 -48.71 45.86 -47.25 42.94 C-46.62 38.42 -46.48 34.27 -49.19 30.44 C-52.64 27.62 -54.66 26.91 -59.03 26.7 C-62.61 27.08 -64.63 28.57 -67.25 30.94 Z M-32.81 29.31 C-34.58 29.97 -34.58 29.97 -36.38 30.65 C-39.36 31.62 -39.36 31.62 -40.25 33.94 C-40.44 37.09 -40.24 39.93 -39.25 42.94 C-37.02 44.97 -35.08 45.75 -32.25 46.94 C-26.67 40.31 -26.67 40.31 -22.25 32.94 C-22.52 30.56 -23.18 29.08 -24.25 26.94 C-27.36 26.94 -29.92 28.21 -32.81 29.31 Z M-1.55 34.98 C-4.66 36.08 -6.24 35.74 -9.44 35.19 C-12.52 35.07 -14.41 35.16 -16.73 37.3 C-20.01 41.23 -22.66 45.54 -25.25 49.94 C-23.89 51.49 -23.89 51.49 -22.25 52.94 C-19.01 52.76 -16.86 51.75 -13.94 50.31 C-8.58 48.32 -4.96 48.93 0.44 50.94 C3.44 53.54 4.94 56.46 6.73 59.98 C7.6 61.89 7.6 61.89 8.75 62.94 C11.28 63.01 13.78 63.03 16.31 63 C17.38 62.99 17.38 62.99 18.47 62.99 C20.23 62.97 21.99 62.96 23.75 62.94 C24.46 61.09 24.46 61.09 24.75 58.94 C22.99 56.65 21.27 54.72 19.25 52.69 C18.14 51.53 17.02 50.37 15.91 49.21 C15.37 48.65 14.82 48.09 14.26 47.51 C12.34 45.52 10.51 43.46 8.69 41.38 C8.18 40.8 7.67 40.22 7.15 39.62 C5.75 37.94 5.75 37.94 4.19 35.72 C3.72 35.13 3.24 34.54 2.75 33.94 C0.63 33.8 0.63 33.8 -1.55 34.98 Z M-43.25 49.94 C-44.04 51.68 -44.04 51.68 -44.25 53.94 C-42.9 56.67 -42.9 56.67 -41.25 58.94 C-39.93 57.62 -38.61 56.3 -37.25 54.94 C-37.97 52.92 -37.97 52.92 -39.25 50.94 C-41.3 50.13 -41.3 50.13 -43.25 49.94 Z M-15.25 58.94 C-16.82 62.08 -16.6 64.48 -16.25 67.94 C-13.8 71.32 -12.36 72.71 -8.25 73.56 C-4.14 72.71 -2.7 71.32 -0.25 67.94 C0.27 64.25 0.21 61.96 -1.31 58.56 C-5.94 54.68 -10.75 55.36 -15.25 58.94 Z M-31.93 59.48 C-32.47 60.16 -33.01 60.85 -33.56 61.56 C-34.12 62.24 -34.67 62.91 -35.24 63.6 C-36.69 66.96 -35.56 68.59 -34.25 71.94 C-33.34 73.74 -32.39 75.52 -31.39 77.27 C-30.55 78.75 -30.55 78.75 -29.7 80.25 C-28.83 81.77 -28.83 81.77 -27.94 83.31 C-27.37 84.32 -26.8 85.32 -26.21 86.35 C-23.01 91.96 -19.72 97.49 -16.25 102.94 C-14.27 102.44 -14.27 102.44 -12.25 101.94 C-12.25 94.68 -12.25 87.42 -12.25 79.94 C-14.56 78.62 -16.87 77.3 -19.25 75.94 C-22.22 72.32 -23.37 68.17 -23.81 63.56 C-23.96 62.37 -24.1 61.17 -24.25 59.94 C-28.17 57.29 -28.17 57.29 -31.93 59.48 Z M32.16 63.27 C29.57 66.34 29.52 70.05 29.75 73.94 C31.77 78.05 33.51 80.27 37.75 81.94 C42.71 82.36 45.95 81.59 49.81 78.44 C52.11 75.12 52.41 72.03 52.17 68.05 C51.52 64.79 50.21 63.13 47.75 60.94 C41.54 57.67 37.35 58.92 32.16 63.27 Z M4.85 71.32 C3.65 73.14 3.65 73.14 2.9 75.08 C1.75 76.94 1.75 76.94 -4.25 79.94 C-4.25 87.2 -4.25 94.46 -4.25 101.94 C0.18 104.14 0.18 104.14 2.86 103.76 C5.13 102.77 6.32 101.63 8 99.81 C13.51 94.06 19.61 89 25.75 83.94 C25.03 79.33 23.44 75.27 21.75 70.94 C12.94 69.15 12.94 69.15 4.85 71.32 Z M-42.25 74.94 C-44.63 77.59 -44.63 77.59 -46.25 80.94 C-45.43 84.69 -43.23 87.67 -41.25 90.94 C-40.29 93.82 -40.14 95.64 -40.19 98.62 C-40.2 99.43 -40.21 100.24 -40.21 101.07 C-40.23 101.69 -40.24 102.3 -40.25 102.94 C-38.01 104.17 -35.76 105.37 -33.5 106.56 C-32.55 107.09 -32.55 107.09 -31.58 107.62 C-29.48 108.76 -29.48 108.76 -26.25 109.94 C-23.82 109.31 -23.82 109.31 -22.25 107.94 C-26.22 99.63 -30.5 91.55 -35.06 83.56 C-35.54 82.71 -36.02 81.86 -36.52 80.99 C-36.97 80.2 -37.43 79.41 -37.89 78.6 C-38.3 77.89 -38.71 77.19 -39.12 76.46 C-39.5 75.96 -39.87 75.45 -40.25 74.94 C-40.91 74.94 -41.57 74.94 -42.25 74.94 Z M-68.25 91.94 C-69.62 96.22 -69.79 99.64 -68.06 103.81 C-64.86 107.57 -63.44 108.78 -58.38 109.44 C-53.61 109.28 -51.51 107.28 -48.25 103.94 C-46.65 100.75 -46.87 97.41 -47.25 93.94 C-48.89 90.35 -49.94 89.14 -53.25 86.94 C-59.81 85.75 -64.02 86.76 -68.25 91.94 Z M-18.25 113.94 C-19.85 117.14 -19.6 120.46 -19.25 123.94 C-17.79 127.81 -16.57 128.76 -12.94 130.81 C-8.97 132.02 -7.15 132.29 -3.25 130.94 C0.79 127.43 2.59 125.53 3.12 120.19 C3.1 116.84 2.51 115.09 0.38 112.5 C-3.15 109.05 -5.18 108.54 -10.14 108.58 C-13.87 109.21 -15.65 111.28 -18.25 113.94 Z " fill="#1a1a1a" transform="translate(164.25,303.0625)"/>
<path d="M0 0 C3.63 0 7.26 0 11 0 C11 3.63 11 7.26 11 11 C14.3 11 17.6 11 21 11 C20.37 15.33 18.81 18.72 16.84 22.61 C16.53 23.23 16.22 23.84 15.9 24.48 C14.92 26.42 13.93 28.37 12.94 30.31 C12.27 31.64 11.6 32.96 10.93 34.29 C9.29 37.53 7.65 40.77 6 44 C2.28 39.35 -0.14 34.06 -2.78 28.75 C-3.69 26.94 -4.61 25.12 -5.53 23.31 C-6.38 21.59 -6.38 21.59 -7.26 19.84 C-7.79 18.79 -8.31 17.74 -8.85 16.66 C-10 14 -10 14 -10 11 C-6.7 11 -3.4 11 0 11 C0 7.37 0 3.74 0 0 Z " fill="#00FCCE" transform="translate(322,354)"/>
<path d="M0 0 C3.63 0 7.26 0 11 0 C11 3.63 11 7.26 11 11 C14.3 11 17.6 11 21 11 C20.38 15.17 18.96 18.43 17.06 22.18 C16.48 23.33 15.89 24.49 15.29 25.68 C14.67 26.89 14.06 28.1 13.44 29.31 C12.82 30.54 12.19 31.77 11.57 33 C10.05 36 8.53 39 7 42 C6.01 42 5.02 42 4 42 C2 38.07 0 34.14 -1.98 30.2 C-2.66 28.86 -3.34 27.53 -4.02 26.19 C-5 24.27 -5.97 22.34 -6.94 20.42 C-7.52 19.26 -8.11 18.1 -8.71 16.91 C-10 14 -10 14 -10 11 C-6.7 11 -3.4 11 0 11 C0 7.37 0 3.74 0 0 Z " fill="#00FCCE" transform="translate(322,147)"/>
<path d="M0 0 C2.53 3.15 4.33 6.4 6.14 10.01 C6.71 11.16 7.29 12.31 7.88 13.5 C8.18 14.09 8.48 14.69 8.78 15.3 C9.69 17.13 10.61 18.95 11.53 20.78 C12.1 21.93 12.67 23.07 13.26 24.26 C14.05 25.84 14.05 25.84 14.85 27.45 C16 30 16 30 16 32 C12.7 32 9.4 32 6 32 C6 35.96 6 39.92 6 44 C2.37 44 -1.26 44 -5 44 C-5 40.04 -5 36.08 -5 32 C-8.3 32 -11.6 32 -15 32 C-13.66 27.69 -12 23.76 -9.96 19.73 C-9.38 18.57 -8.8 17.42 -8.2 16.23 C-7.59 15.03 -6.98 13.83 -6.38 12.62 C-5.76 11.4 -5.14 10.17 -4.52 8.95 C-3.02 5.96 -1.51 2.98 0 0 Z " fill="#00FED0" transform="translate(412,355)"/>
<path d="M0 0 C2.53 3.15 4.33 6.4 6.14 10.01 C6.71 11.16 7.29 12.31 7.88 13.5 C8.18 14.09 8.48 14.69 8.78 15.3 C9.69 17.13 10.61 18.95 11.53 20.78 C12.1 21.93 12.67 23.07 13.26 24.26 C14.05 25.84 14.05 25.84 14.85 27.45 C16 30 16 30 16 32 C12.7 32 9.4 32 6 32 C6 35.96 6 39.92 6 44 C2.37 44 -1.26 44 -5 44 C-5 40.04 -5 36.08 -5 32 C-8.3 32 -11.6 32 -15 32 C-13.66 27.69 -12 23.76 -9.96 19.73 C-9.38 18.57 -8.8 17.42 -8.2 16.23 C-7.59 15.03 -6.98 13.83 -6.38 12.62 C-5.76 11.4 -5.14 10.17 -4.52 8.95 C-3.02 5.96 -1.51 2.98 0 0 Z " fill="#00FED0" transform="translate(412,148)"/>
<path d="M0 0 C1.32 0 2.64 0 4 0 C5.98 6.27 7.96 12.54 10 19 C11.98 12.73 13.96 6.46 16 0 C17.32 0.33 18.64 0.66 20 1 C21.65 6.94 23.3 12.88 25 19 C26.65 13.06 28.3 7.12 30 1 C31.32 0.67 32.64 0.34 34 0 C32.56 8.94 29.79 17.41 27 26 C25.68 26 24.36 26 23 26 C22.65 24.86 22.3 23.71 21.94 22.54 C21.48 21.04 21.02 19.55 20.56 18.06 C20.33 17.31 20.1 16.55 19.87 15.78 C18.97 12.1 18.97 12.1 17 9 C15.35 14.61 13.7 20.22 12 26 C10.35 25.67 8.7 25.34 7 25 C4.69 16.75 2.38 8.5 0 0 Z " fill="#1a1a1a" transform="translate(361,238)"/>
<path d="M0 0 C5 1 5 1 6.67 2.77 C7.15 3.51 7.62 4.26 8.11 5.04 C8.9 6.25 8.9 6.25 9.71 7.49 C10.5 8.76 10.5 8.76 11.31 10.06 C12.14 11.34 12.14 11.34 12.98 12.65 C14.33 14.76 15.67 16.88 17 19 C17.33 12.73 17.66 6.46 18 0 C18.99 0 19.98 0 21 0 C21 8.58 21 17.16 21 26 C16 25 16 25 14.44 23.36 C13.8 22.32 13.8 22.32 13.14 21.25 C12.66 20.5 12.19 19.74 11.7 18.97 C10.98 17.78 10.98 17.78 10.25 16.56 C9.76 15.77 9.26 14.98 8.75 14.17 C5.35 8.7 5.35 8.7 4 6 C3.67 12.6 3.34 19.2 3 26 C2.01 26 1.02 26 0 26 C0 17.42 0 8.84 0 0 Z " fill="#1a1a1a" transform="translate(308,238)"/>
<path d="M0 0 C12 0 12 0 16 3 C16.53 4.94 16.53 4.94 16.5 7 C16.51 7.68 16.52 8.36 16.53 9.06 C16 11 16 11 12 14 C14.31 17.63 16.62 21.26 19 25 C17.68 25.33 16.36 25.66 15 26 C14.62 25.37 14.25 24.75 13.86 24.1 C13.35 23.28 12.84 22.47 12.31 21.62 C11.81 20.81 11.31 20 10.8 19.16 C8.86 16.48 8.86 16.48 4 15 C4 18.63 4 22.26 4 26 C2.68 26 1.36 26 0 26 C0 17.42 0 8.84 0 0 Z M4 3 C4 5.97 4 8.94 4 12 C8.17 12.33 8.17 12.33 11.94 10.81 C13.26 8.97 13.26 8.97 12.75 6.38 C12.22 4.07 12.22 4.07 11 3 C8.67 2.96 6.33 2.96 4 3 Z " fill="#1a1a1a" transform="translate(420,238)"/>
<path d="M0 0 C3.07 1.71 5.4 3.81 7 7 C7.53 12.34 7.64 16.7 5.25 21.56 C2.64 24.39 0.65 25.71 -3.15 26.37 C-7.38 26.5 -10.14 26.37 -13.5 23.62 C-17.69 19.23 -17.33 15.83 -17.29 9.93 C-16.92 6.15 -15.91 4.42 -13 2 C-8.75 -0.48 -4.83 -0.84 0 0 Z M-13 7 C-14.62 10.24 -14.56 13.5 -14 17 C-12.66 19.86 -11.51 20.86 -9 23 C-4.91 23.73 -2.83 23.41 0.88 21.56 C3.88 17.94 4.31 14.64 4 10 C2.65 6.98 1.32 5.32 -1 3 C-6.48 2.38 -9.09 3.09 -13 7 Z " fill="#1a1a1a" transform="translate(296,238)"/>
<path d="M0 0 C1.32 0 2.64 0 4 0 C5.51 3.96 7 7.92 8.5 11.88 C8.93 13 9.36 14.13 9.8 15.29 C10.41 16.91 10.41 16.91 11.03 18.55 C11.41 19.55 11.79 20.54 12.17 21.57 C13 24 13 24 13 26 C11.12 25.81 11.12 25.81 9 25 C8.34 23.35 7.68 21.7 7 20 C3.37 19.67 -0.26 19.34 -4 19 C-4.99 22.46 -4.99 22.46 -6 26 C-7.32 25.67 -8.64 25.34 -10 25 C-8.53 21.02 -7.04 17.04 -5.56 13.06 C-5.14 11.93 -4.72 10.79 -4.29 9.62 C-3.88 8.54 -3.48 7.46 -3.07 6.35 C-2.51 4.85 -2.51 4.85 -1.94 3.32 C-1 1 -1 1 0 0 Z M1 4 C-0.32 7.96 -1.64 11.92 -3 16 C-0.03 16 2.94 16 6 16 C4.68 12.04 3.36 8.08 2 4 C1.67 4 1.34 4 1 4 Z " fill="#1a1a1a" transform="translate(404,238)"/>
<path d="M0 0 C0.99 0 1.98 0 3 0 C3 9.24 3 18.48 3 28 C1.68 27.67 0.36 27.34 -1 27 C-1.66 27.33 -2.32 27.66 -3 28 C-6.38 28.38 -6.38 28.38 -10 28 C-12.56 25.9 -13.76 24.36 -14.34 21.06 C-14.55 16.59 -13.84 13.61 -11 10 C-8.02 8.51 -5.28 8.88 -2 9 C-1.67 9.33 -1.34 9.66 -1 10 C-0.67 6.7 -0.34 3.4 0 0 Z M-9.88 13.62 C-11.31 16.66 -11.42 18.67 -11 22 C-10 24 -10 24 -8 25 C-4.96 25.5 -4.96 25.5 -2 25 C0.46 21.31 0.31 19.36 0 15 C-0.66 14.01 -1.32 13.02 -2 12 C-5.43 11.49 -7.2 11.3 -9.88 13.62 Z " fill="#1a1a1a" transform="translate(383,280)"/>
<path d="M0 0 C4.62 0 9.24 0 14 0 C14 0.99 14 1.98 14 3 C10.7 3 7.4 3 4 3 C4 5.64 4 8.28 4 11 C6.97 11 9.94 11 13 11 C13 11.99 13 12.98 13 14 C10.03 14 7.06 14 4 14 C4 16.97 4 19.94 4 23 C7.63 23 11.26 23 15 23 C15 23.99 15 24.98 15 26 C10.05 26 5.1 26 0 26 C0 17.42 0 8.84 0 0 Z " fill="#1a1a1a" transform="translate(442,238)"/>
<path d="M0 0 C4.62 0 9.24 0 14 0 C14 0.99 14 1.98 14 3 C10.7 3 7.4 3 4 3 C4 5.64 4 8.28 4 11 C6.97 11 9.94 11 13 11 C13 11.99 13 12.98 13 14 C10.03 14 7.06 14 4 14 C4 16.97 4 19.94 4 23 C7.63 23 11.26 23 15 23 C15 23.99 15 24.98 15 26 C10.05 26 5.1 26 0 26 C0 17.42 0 8.84 0 0 Z " fill="#1a1a1a" transform="translate(335,238)"/>
<path d="M0 0 C0.99 0 1.98 0 3 0 C3.06 1.26 3.12 2.53 3.18 3.83 C3.27 5.49 3.35 7.15 3.44 8.81 C3.48 9.65 3.52 10.48 3.56 11.34 C3.6 12.14 3.64 12.94 3.68 13.77 C3.72 14.51 3.76 15.25 3.79 16.01 C3.95 18.21 3.95 18.21 5 21 C7.76 22.38 9.95 22.19 13 22 C15.44 19.56 15.29 18.79 15.41 15.43 C15.47 14.09 15.47 14.09 15.53 12.71 C15.56 11.78 15.59 10.84 15.62 9.88 C15.66 8.93 15.7 7.99 15.74 7.01 C15.84 4.67 15.92 2.34 16 0 C16.99 0 17.98 0 19 0 C19.15 3.4 19.23 6.79 19.31 10.19 C19.35 11.15 19.4 12.11 19.44 13.1 C19.52 17.8 19.56 20.22 16.77 24.14 C13.2 26.54 11.26 26.66 7.09 26.43 C4.07 25.81 2.75 24.48 1 22 C-0.2 19.6 -0.11 18.11 -0.1 15.43 C-0.09 14.53 -0.09 13.64 -0.09 12.71 C-0.08 11.78 -0.07 10.84 -0.06 9.88 C-0.06 8.93 -0.05 7.99 -0.05 7.01 C-0.04 4.67 -0.02 2.34 0 0 Z " fill="#1a1a1a" transform="translate(334,71)"/>
<path d="M0 0 C11 0 11 0 14.25 2.06 C16 5 16 5 16.12 8.56 C14.78 12.67 13.78 13.94 10 16 C6.19 16.25 6.19 16.25 3 16 C3 19.3 3 22.6 3 26 C2.01 26 1.02 26 0 26 C0 17.42 0 8.84 0 0 Z M3 3 C3 6.3 3 9.6 3 13 C7.79 13.23 7.79 13.23 12 11 C12.42 8 12.42 8 12 5 C10.04 2.59 10.04 2.59 6.38 2.88 C4.7 2.94 4.7 2.94 3 3 Z " fill="#1a1a1a" transform="translate(348,448)"/>
<path d="M0 0 C0 1.32 0 2.64 0 4 C-3.3 4 -6.6 4 -10 4 C-10.33 5.32 -10.66 6.64 -11 8 C-10.3 8.4 -9.6 8.8 -8.88 9.21 C-7.52 10 -7.52 10 -6.12 10.81 C-5.22 11.33 -4.32 11.86 -3.38 12.39 C-1 14 -1 14 1 17 C1.44 19.44 1.44 19.44 1 22 C-1.19 24.62 -2.83 25.86 -6.27 26.28 C-12.28 26.36 -12.28 26.36 -15 25 C-14.67 23.68 -14.34 22.36 -14 21 C-13.34 21.33 -12.68 21.66 -12 22 C-10.46 22.07 -8.92 22.08 -7.38 22.06 C-6.56 22.05 -5.74 22.04 -4.9 22.04 C-4.27 22.02 -3.65 22.01 -3 22 C-3.11 19.59 -3.11 19.59 -4 17 C-6.26 15.35 -6.26 15.35 -9 14.12 C-13.83 11.44 -13.83 11.44 -15.44 7.38 C-15 4 -15 4 -13.19 1.56 C-8.75 -0.61 -4.85 -0.34 0 0 Z " fill="#1a1a1a" transform="translate(333,282)"/>
<path d="M0 0 C2.31 1.06 2.31 1.06 4 3 C4.81 6.62 4.81 6.62 5 10 C4 11 4 11 1.28 11.1 C-0.38 11.08 -0.38 11.08 -2.06 11.06 C-3.72 11.05 -3.72 11.05 -5.41 11.04 C-6.26 11.02 -7.12 11.01 -8 11 C-7.34 12.32 -6.68 13.64 -6 15 C-3.03 15 -0.06 15 3 15 C3 15.99 3 16.98 3 18 C-0.21 19.6 -3.52 19.48 -7 19 C-10.35 16.85 -10.89 15.43 -11.88 11.56 C-12 7.93 -11.82 6.12 -10 3 C-6.89 -0.22 -4.38 -0.55 0 0 Z M-8 5 C-8 5.99 -8 6.98 -8 8 C-5.03 8 -2.06 8 1 8 C0.67 6.35 0.34 4.7 0 3 C-4.49 2.57 -4.49 2.57 -8 5 Z " fill="#1a1a1a" transform="translate(385,78)"/>
<path d="M0 0 C2.43 1.87 3.64 3.28 5 6 C5.12 10.57 4.83 13.99 1.88 17.56 C-1.77 19.39 -3.96 19.58 -8 19 C-10.88 17.44 -10.88 17.44 -13 15 C-13.99 11.36 -14.23 8.92 -13.31 5.25 C-10.17 -0.14 -5.93 -1.13 0 0 Z M-8 3 C-10.46 6.69 -10.31 8.64 -10 13 C-9.01 14.49 -9.01 14.49 -8 16 C-4.54 16.67 -4.54 16.67 -1 16 C1.19 13.96 1.19 13.96 2 11 C1.78 7.3 1.65 5.65 -1 3 C-4.5 2.58 -4.5 2.58 -8 3 Z " fill="#1a1a1a" transform="translate(413,289)"/>
<path d="M0 0 C0.99 0 1.98 0 3 0 C3.06 0.92 3.12 1.83 3.18 2.77 C3.27 3.96 3.35 5.15 3.44 6.38 C3.56 8.15 3.56 8.15 3.68 9.96 C3.81 12.92 3.81 12.92 5 15 C6.67 15.04 8.33 15.04 10 15 C11.94 13.06 11.4 9.53 11.56 6.94 C11.65 5.65 11.73 4.36 11.82 3.03 C11.88 2.03 11.94 1.03 12 0 C13.32 0 14.64 0 16 0 C16 6.27 16 12.54 16 19 C14.35 18.67 12.7 18.34 11 18 C10.67 18.33 10.34 18.66 10 19 C6.62 19.31 6.62 19.31 3 19 C0.24 16.53 0 15.06 -0.29 11.33 C-0.27 9.97 -0.24 8.61 -0.19 7.25 C-0.17 6.55 -0.16 5.86 -0.15 5.14 C-0.11 3.42 -0.06 1.71 0 0 Z " fill="#1a1a1a" transform="translate(349,289)"/>
<path d="M0 0 C0.9 0.01 1.8 0.02 2.73 0.03 C3.42 0.04 4.1 0.05 4.81 0.06 C4.48 1.38 4.15 2.7 3.81 4.06 C3.21 4.02 2.61 3.97 1.98 3.92 C-3.09 3.66 -3.09 3.66 -7.69 5.56 C-9.75 9 -10.41 12.06 -10.19 16.06 C-8.85 19.06 -8.13 20.59 -5.19 22.06 C-3.48 22.13 -1.77 22.15 -0.06 22.12 C0.85 22.12 1.76 22.11 2.7 22.1 C3.39 22.09 4.09 22.07 4.81 22.06 C4.48 23.38 4.15 24.7 3.81 26.06 C-1.26 26.42 -5.06 26.62 -9.69 24.31 C-12.59 21.7 -13.95 19.77 -14.49 15.88 C-14.52 10.02 -13.56 6.83 -9.69 2.31 C-6.7 -0.18 -3.71 -0.05 0 0 Z " fill="#1a1a1a" transform="translate(381.1875,447.9375)"/>
<path d="M0 0 C0.33 0.99 0.66 1.98 1 3 C-1.64 3.33 -4.28 3.66 -7 4 C-6.28 7.29 -6.28 7.29 -3 8.62 C-2.01 9.08 -1.02 9.53 0 10 C1 11 1 11 1.25 13.94 C1.17 14.95 1.08 15.96 1 17 C-2.09 19.06 -2.71 19.24 -6.19 19.12 C-7.45 19.08 -8.7 19.04 -10 19 C-10.33 17.68 -10.66 16.36 -11 15 C-8.03 15.33 -5.06 15.66 -2 16 C-2 14.68 -2 13.36 -2 12 C-2.93 11.73 -3.86 11.46 -4.81 11.19 C-9.45 9.46 -9.45 9.46 -11 7 C-10.88 4.44 -10.88 4.44 -10 2 C-6.36 -0.43 -4.29 -0.16 0 0 Z " fill="#1a1a1a" transform="translate(369,78)"/>
<path d="M0 0 C0.66 0 1.32 0 2 0 C2 1.65 2 3.3 2 5 C3.65 5 5.3 5 7 5 C6.67 5.99 6.34 6.98 6 8 C4.68 8 3.36 8 2 8 C2.33 11.96 2.66 15.92 3 20 C4.32 20.33 5.64 20.66 7 21 C6.67 21.99 6.34 22.98 6 24 C3.62 24.12 3.62 24.12 1 24 C-1 22 -1 22 -1.2 18.74 C-1.17 17.47 -1.15 16.19 -1.12 14.88 C-1.11 13.59 -1.09 12.31 -1.07 10.99 C-1.05 10 -1.02 9.02 -1 8 C-1.99 8 -2.98 8 -4 8 C-4 7.01 -4 6.02 -4 5 C-3.01 5 -2.02 5 -1 5 C-0.67 3.35 -0.34 1.7 0 0 Z " fill="#1a1a1a" transform="translate(339,284)"/>
<path d="M0 0 C0.99 0 1.98 0 3 0 C3 9.24 3 18.48 3 28 C2.01 28 1.02 28 0 28 C-1.06 26.12 -1.06 26.12 -2 24 C-1.67 23.34 -1.34 22.68 -1 22 C-0.95 20.54 -0.96 19.08 -1 17.62 C-1.07 11.71 -0.57 5.88 0 0 Z " fill="#1a1a1a" transform="translate(383,280)"/>
<path d="M0 0 C0.99 0 1.98 0 3 0 C3.15 3.4 3.23 6.79 3.31 10.19 C3.35 11.15 3.4 12.11 3.44 13.1 C3.56 20.25 3.56 20.25 0.61 24.18 C-2 26 -2 26 -4 26 C-2.12 21.12 -2.12 21.12 -1 20 C-0.84 18.51 -0.75 17.02 -0.68 15.53 C-0.64 14.63 -0.6 13.73 -0.56 12.8 C-0.52 11.86 -0.48 10.91 -0.44 9.94 C-0.39 8.99 -0.35 8.04 -0.31 7.06 C-0.2 4.71 -0.1 2.35 0 0 Z " fill="#1a1a1a" transform="translate(350,71)"/>
<path d="M0 0 C1.32 0.33 2.64 0.66 4 1 C6.01 0.73 8.01 0.41 10 0 C9.67 1.32 9.34 2.64 9 4 C8.36 4.12 7.72 4.25 7.06 4.38 C6.04 4.68 6.04 4.68 5 5 C3.65 7.7 3.66 10.12 3.44 13.12 C3.35 14.22 3.27 15.32 3.18 16.45 C3.12 17.29 3.06 18.13 3 19 C2.01 19 1.02 19 0 19 C0 12.73 0 6.46 0 0 Z " fill="#1a1a1a" transform="translate(394,78)"/>
<path d="M0 0 C1.32 0 2.64 0 4 0 C4 6.27 4 12.54 4 19 C3.01 19 2.02 19 1 19 C-1.16 14.68 -1.07 11.45 -0.62 6.69 C-0.51 5.43 -0.4 4.18 -0.29 2.89 C-0.15 1.46 -0.15 1.46 0 0 Z " fill="#1a1a1a" transform="translate(361,289)"/>
<path d="M0 0 C0.99 0 1.98 0 3 0 C3 6.27 3 12.54 3 19 C2.01 19 1.02 19 0 19 C0 12.73 0 6.46 0 0 Z " fill="#1a1a1a" transform="translate(392,289)"/>
<path d="M0 0 C0.66 0.99 1.32 1.98 2 3 C0 4 0 4 -2.94 3.88 C-6 3.7 -6 3.7 -7.88 5.5 C-8.25 6 -8.62 6.49 -9 7 C-9.66 6.67 -10.32 6.34 -11 6 C-8.74 -0.3 -6.66 -0.48 0 0 Z " fill="#1a1a1a" transform="translate(381,289)"/>
<path d="M0 0 C1.89 0.06 1.89 0.06 3.81 0.12 C2.82 0.62 2.82 0.62 1.81 1.12 C1.81 1.79 1.81 2.44 1.81 3.12 C0.86 3.25 -0.08 3.37 -1.06 3.5 C-4.27 3.84 -4.27 3.84 -6.19 6.12 C-7.18 6.12 -8.17 6.12 -9.19 6.12 C-7.21 1.56 -5.02 -0.16 0 0 Z " fill="#1a1a1a" transform="translate(409.1875,288.875)"/>
<path d="M0 0 C0.33 0 0.66 0 1 0 C0.67 2.64 0.34 5.28 0 8 C-1.32 8 -2.64 8 -4 8 C-4 7.01 -4 6.02 -4 5 C-3.34 5 -2.68 5 -2 5 C-1.34 3.35 -0.68 1.7 0 0 Z " fill="#1a1a1a" transform="translate(373,256)"/>
<path d="M0 0 C-0.33 1.32 -0.66 2.64 -1 4 C-2.98 4.33 -4.96 4.66 -7 5 C-6.62 3.06 -6.62 3.06 -6 1 C-4 0 -4 0 0 0 Z " fill="#1a1a1a" transform="translate(404,78)"/>
<path d="M0 0 C0.66 0.33 1.32 0.66 2 1 C1.01 2.98 0.02 4.96 -1 7 C-1.99 6.67 -2.98 6.34 -4 6 C-2.25 1.12 -2.25 1.12 0 0 Z " fill="#1a1a1a" transform="translate(374,289)"/>
<path d="M0 0 C0.66 0.33 1.32 0.66 2 1 C1.01 2.98 0.02 4.96 -1 7 C-1.99 7 -2.98 7 -4 7 C-4 4 -4 4 -2 1.81 C-1.34 1.21 -0.68 0.62 0 0 Z " fill="#1a1a1a" transform="translate(373,449)"/>
<path d="M0 0 C0.62 1.81 0.62 1.81 1 4 C0.01 5.49 0.01 5.49 -1 7 C-1.66 6.67 -2.32 6.34 -3 6 C-2.62 3.56 -2.62 3.56 -2 1 C-1.34 0.67 -0.68 0.34 0 0 Z " fill="#1a1a1a" transform="translate(404,241)"/>
<path d="M0 0 C1.65 0.33 3.3 0.66 5 1 C5 1.66 5 2.32 5 3 C2.69 3 0.38 3 -2 3 C-1.34 2.01 -0.68 1.02 0 0 Z " fill="#1a1a1a" transform="translate(365,78)"/>
<path d="M0 0 C0.99 0 1.98 0 3 0 C3 1.32 3 2.64 3 4 C1.68 3.67 0.36 3.34 -1 3 C-0.67 2.01 -0.34 1.02 0 0 Z " fill="#1a1a1a" transform="translate(392,280)"/>
</svg>
