<?xml version="1.0" encoding="UTF-8" standalone="no"?>
<!-- Generator: Adobe Illustrator 28.0.0, SVG Export Plug-In . SVG Version: 6.00 Build 0)  -->

<svg
   version="1.1"
   id="Ebene_1"
   x="0px"
   y="0px"
   viewBox="0 0 413.5 111.9"
   xml:space="preserve"
   sodipodi:docname="Logo_SVG-ONE2-plc.svg"
   inkscape:version="1.3.2 (091e20e, 2023-11-25, custom)"
   xmlns:inkscape="http://www.inkscape.org/namespaces/inkscape"
   xmlns:sodipodi="http://sodipodi.sourceforge.net/DTD/sodipodi-0.dtd"
   xmlns="http://www.w3.org/2000/svg"
   xmlns:svg="http://www.w3.org/2000/svg"><defs
   id="defs13" /><sodipodi:namedview
   id="namedview13"
   pagecolor="#ffffff"
   bordercolor="#000000"
   borderopacity="0.25"
   inkscape:showpageshadow="2"
   inkscape:pageopacity="0.0"
   inkscape:pagecheckerboard="0"
   inkscape:deskcolor="#d1d1d1"
   inkscape:zoom="3.3035067"
   inkscape:cx="73.558199"
   inkscape:cy="55.849744"
   inkscape:window-width="1920"
   inkscape:window-height="1009"
   inkscape:window-x="-8"
   inkscape:window-y="-8"
   inkscape:window-maximized="1"
   inkscape:current-layer="Ebene_1" />
<style
   type="text/css"
   id="style1">
	.st0{display:none;opacity:0.5;}
	.st1{display:inline;fill:none;}
	.st2{fill:#00FFD1;}
	.st3{fill:#FFFFFF;}
	.st4{fill:#353435;}
	.st5{fill:#ECEDEE;}
</style>
<g
   id="g1"
   style="display:inline">
	
</g>
<g
   id="g13"
   transform="matrix(1.3283217,0,0,1.3740696,-66.366964,-19.888419)">
	<g
   id="g10">
		<g
   id="g9">
			<g
   id="g6">
				<g
   id="g2">
					<rect
   x="328"
   y="51.700001"
   class="st3"
   width="31.799999"
   height="8.3999996"
   id="rect1" />
				</g>
				<g
   id="g3">
					<polygon
   class="st3"
   points="307.4,42.9 315.8,42.9 315.8,37.9 359.8,37.9 359.8,29.7 315.8,29.7 307.4,29.7 307.4,37.9 "
   id="polygon2" />
				</g>
				<g
   id="g4">
					<polygon
   class="st3"
   points="307.4,82.1 307.4,82.2 359.8,82.2 359.8,73.9 315.8,73.9 315.8,68.9 307.4,68.9 307.4,73.9 "
   id="polygon3" />
				</g>
				<g
   id="g5">
					<rect
   x="307.39999"
   y="48.400002"
   class="st3"
   width="15.1"
   height="15.1"
   id="rect4" />
				</g>
			</g>
			<g
   id="g7">
				<path
   class="st3"
   d="m 182.8,29.7 v 0 8.3 35.9 8.4 h 8.4 35.7 8.4 V 73.9 38 v -8.3 0 z m 44.1,44.2 H 191.2 V 38 h 35.7 z"
   id="path6" />
			</g>
			<g
   id="g8">
				<polyline
   class="st3"
   points="289.3,82.2 297.6,82.2 297.6,29.7 289.2,29.7 289.2,69.6 253.5,29.7 253.5,29.7 245.2,29.7       245.2,82.2 253.5,82.2 253.5,42.2 289.2,82.2 289.2,82.2 289.3,82.2     "
   id="polyline7" />
			</g>
		</g>
		<rect
   x="156"
   y="48.400002"
   class="st2"
   width="15.1"
   height="15.1"
   id="rect9" />
	</g>
	<g
   id="g12">
		<path
   class="st3"
   d="m 80.4,49.2 c 0,7.3 -5.3,11.6 -13.9,11.6 h -9.2 v 10.8 h -3.6 v -34 h 12.8 c 8.6,0 13.9,4.3 13.9,11.6 z m -3.6,0 c 0,-5.5 -3.6,-8.6 -10.4,-8.6 h -9.1 v 17 h 9.1 c 6.8,0.1 10.4,-3 10.4,-8.4 z"
   id="path10" />
		<path
   class="st3"
   d="m 88.2,37.6 h 3.6 v 31 h 19.1 v 3.1 H 88.2 Z"
   id="path11" />
		<path
   class="st3"
   d="m 113.2,54.6 c 0,-10 7.6,-17.3 17.9,-17.3 5,0 9.4,1.7 12.5,5 l -2.3,2.3 c -2.8,-2.8 -6.2,-4 -10.1,-4 -8.2,0 -14.4,6 -14.4,14.1 0,8.1 6.2,14.1 14.4,14.1 3.9,0 7.3,-1.2 10.1,-4.1 l 2.3,2.3 c -3,3.3 -7.5,5 -12.5,5 -10.3,-0.1 -17.9,-7.4 -17.9,-17.4 z"
   id="path12" />
	</g>
</g>
</svg>
