<?xml version="1.0" encoding="utf-8"?>
<!-- Generator: Adobe Illustrator 28.0.0, SVG Export Plug-In . SVG Version: 6.00 Build 0)  -->
<svg version="1.1" id="Ebene_1" xmlns="http://www.w3.org/2000/svg" xmlns:xlink="http://www.w3.org/1999/xlink" x="0px" y="0px"
	 viewBox="0 0 413.5 111.9" xml:space="preserve">
<style type="text/css">
	.st0{display:none;opacity:0.5;}
	.st1{display:inline;fill:none;}
	.st2{fill:#00FFD1;}
	.st3{fill:#FFFFFF;}
	.st4{fill:#353435;}
	.st5{fill:#ECEDEE;}
</style>
<g>
	
</g>
<g>
	<g>
		<g>
			<g>
				<g>
					<rect x="328" y="51.7" class="st3" width="31.8" height="8.4"/>
				</g>
				<g>
					<polygon class="st3" points="359.8,29.7 315.8,29.7 307.4,29.7 307.4,37.9 307.4,42.9 315.8,42.9 315.8,37.9 359.8,37.9 					
						"/>
				</g>
				<g>
					<polygon class="st3" points="315.8,73.9 315.8,68.9 307.4,68.9 307.4,73.9 307.4,82.1 307.4,82.2 359.8,82.2 359.8,73.9 					
						"/>
				</g>
				<g>
					<rect x="307.4" y="48.4" class="st3" width="15.1" height="15.1"/>
				</g>
			</g>
			<g>
				<path class="st3" d="M182.8,29.7L182.8,29.7V38v35.9v8.4h8.4h35.7h8.4v-8.4V38v-8.3v0H182.8z M226.9,73.9h-35.7V38h35.7V73.9z"
					/>
			</g>
			<g>
				<polyline class="st3" points="289.3,82.2 297.6,82.2 297.6,29.7 289.2,29.7 289.2,69.6 253.5,29.7 253.5,29.7 245.2,29.7 
					245.2,82.2 253.5,82.2 253.5,42.2 289.2,82.2 289.2,82.2 289.3,82.2 				"/>
			</g>
		</g>
		<rect x="156" y="48.4" class="st2" width="15.1" height="15.1"/>
	</g>
	<g>
		<path class="st3" d="M80.4,49.2c0,7.3-5.3,11.6-13.9,11.6h-9.2v10.8h-3.6V37.6h12.8C75.1,37.6,80.4,41.9,80.4,49.2z M76.8,49.2
			c0-5.5-3.6-8.6-10.4-8.6h-9.1v17h9.1C73.2,57.7,76.8,54.6,76.8,49.2z"/>
		<path class="st3" d="M88.2,37.6h3.6v31h19.1v3.1H88.2V37.6z"/>
		<path class="st3" d="M113.2,54.6c0-10,7.6-17.3,17.9-17.3c5,0,9.4,1.7,12.5,5l-2.3,2.3c-2.8-2.8-6.2-4-10.1-4
			c-8.2,0-14.4,6-14.4,14.1s6.2,14.1,14.4,14.1c3.9,0,7.3-1.2,10.1-4.1l2.3,2.3c-3,3.3-7.5,5-12.5,5
			C120.8,71.9,113.2,64.6,113.2,54.6z"/>
	</g>
</g>
</svg>
