<?xml version="1.0" encoding="UTF-8"?>
<!-- Generator: visioncortex VTracer 0.6.4 -->
<svg version="1.1" xmlns="http://www.w3.org/2000/svg" width="598" height="552">
<path d="M0 0 C1.38 -0.01 1.38 -0.01 2.79 -0.01 C5.88 -0.02 8.97 -0.02 12.06 -0.01 C14.27 -0.02 16.49 -0.02 18.7 -0.03 C24.72 -0.04 30.74 -0.04 36.75 -0.04 C41.77 -0.04 46.8 -0.04 51.82 -0.05 C64.35 -0.06 76.87 -0.06 89.4 -0.05 C100.27 -0.05 111.14 -0.06 122.01 -0.08 C133.18 -0.1 144.35 -0.11 155.52 -0.1 C161.79 -0.1 168.06 -0.1 174.33 -0.12 C180.22 -0.13 186.12 -0.13 192.01 -0.12 C194.17 -0.11 196.34 -0.12 198.5 -0.12 C201.45 -0.13 204.41 -0.13 207.36 -0.11 C208.22 -0.12 209.07 -0.13 209.95 -0.14 C216.33 -0.08 222.02 0.93 227.11 5.09 C227.65 5.75 228.19 6.4 228.75 7.07 C229.3 7.72 229.86 8.36 230.43 9.03 C233.6 13.93 234.13 18.68 234.16 24.42 C234.17 25.11 234.18 25.8 234.18 26.52 C234.2 28.78 234.21 31.05 234.21 33.32 C234.22 34.9 234.22 36.49 234.23 38.07 C234.24 41.4 234.24 44.72 234.24 48.04 C234.24 52.27 234.27 56.51 234.3 60.75 C234.33 64.03 234.33 67.3 234.33 70.58 C234.33 72.14 234.34 73.7 234.36 75.26 C234.44 84.55 234.47 91.93 228.13 99.28 C227.57 99.73 227.01 100.18 226.44 100.64 C225.88 101.1 225.32 101.56 224.75 102.03 C219.49 105.47 214.8 105.55 208.71 105.53 C207.78 105.53 206.86 105.54 205.9 105.54 C202.8 105.55 199.7 105.55 196.59 105.55 C194.37 105.56 192.15 105.56 189.92 105.57 C183.88 105.59 177.83 105.59 171.79 105.6 C166.75 105.6 161.7 105.6 156.66 105.61 C145.43 105.63 134.21 105.63 122.99 105.63 C122.32 105.63 121.64 105.63 120.95 105.63 C120.28 105.63 119.6 105.63 118.91 105.63 C107.99 105.63 97.07 105.65 86.15 105.68 C74.93 105.71 63.71 105.72 52.49 105.72 C46.2 105.72 39.9 105.72 33.61 105.74 C27.68 105.76 21.76 105.76 15.84 105.75 C13.67 105.75 11.5 105.75 9.32 105.76 C6.35 105.78 3.39 105.77 0.42 105.76 C-0.44 105.77 -1.29 105.78 -2.18 105.79 C-8.85 105.71 -14.06 103.91 -19.15 99.51 C-19.6 98.96 -20.04 98.4 -20.5 97.82 C-20.96 97.27 -21.43 96.71 -21.9 96.14 C-24.9 91.54 -25.38 87.56 -25.42 82.12 C-25.42 81.42 -25.43 80.72 -25.44 80 C-25.46 77.69 -25.46 75.39 -25.46 73.08 C-25.47 71.47 -25.48 69.86 -25.48 68.25 C-25.5 64.88 -25.5 61.51 -25.5 58.13 C-25.5 53.83 -25.52 49.52 -25.56 45.21 C-25.58 41.89 -25.59 38.56 -25.58 35.23 C-25.59 33.65 -25.6 32.06 -25.61 30.47 C-25.76 13.63 -25.76 13.63 -19.38 6.24 C-18.82 5.79 -18.26 5.35 -17.69 4.89 C-17.13 4.42 -16.58 3.96 -16.01 3.49 C-10.76 0.06 -6.08 -0.03 0 0 Z M-13.13 16.26 C-14.55 19.11 -14.29 21.54 -14.32 24.73 C-14.33 25.39 -14.34 26.05 -14.34 26.74 C-14.37 28.94 -14.39 31.14 -14.4 33.34 C-14.41 34.09 -14.41 34.84 -14.42 35.62 C-14.44 39.6 -14.46 43.58 -14.48 47.56 C-14.49 51.67 -14.54 55.78 -14.59 59.88 C-14.62 63.04 -14.63 66.21 -14.64 69.37 C-14.65 70.88 -14.66 72.4 -14.69 73.91 C-15.21 83.07 -15.21 83.07 -11.72 91.17 C-7.34 94.7 -3.9 94.41 1.54 94.41 C2.9 94.42 2.9 94.42 4.29 94.43 C7.35 94.44 10.41 94.45 13.48 94.45 C15.66 94.46 17.85 94.47 20.04 94.48 C27.24 94.5 34.44 94.52 41.64 94.53 C44.11 94.54 46.59 94.54 49.07 94.55 C59.36 94.57 69.66 94.59 79.95 94.6 C82.63 94.6 85.3 94.61 87.97 94.61 C88.97 94.61 88.97 94.61 89.98 94.61 C100.74 94.63 111.5 94.66 122.26 94.7 C133.31 94.74 144.35 94.77 155.4 94.77 C161.6 94.78 167.8 94.79 174 94.82 C179.84 94.85 185.67 94.86 191.5 94.84 C193.65 94.84 195.79 94.85 197.93 94.87 C200.85 94.89 203.78 94.88 206.7 94.87 C207.55 94.88 208.4 94.9 209.27 94.91 C213.45 94.85 216.08 94.52 219.38 91.85 C223.09 87.99 223.01 86.06 223.07 80.79 C223.07 80.13 223.08 79.47 223.09 78.78 C223.12 76.58 223.13 74.38 223.15 72.18 C223.15 71.05 223.15 71.05 223.16 69.9 C223.19 65.92 223.21 61.94 223.22 57.96 C223.24 53.85 223.28 49.75 223.34 45.64 C223.37 42.48 223.38 39.32 223.39 36.15 C223.39 34.64 223.41 33.13 223.43 31.61 C223.96 22.45 223.96 22.45 220.47 14.35 C216.08 10.82 212.64 11.11 207.21 11.11 C205.84 11.1 205.84 11.1 204.45 11.09 C201.39 11.08 198.33 11.07 195.27 11.07 C193.08 11.06 190.9 11.05 188.71 11.04 C181.51 11.02 174.31 11 167.11 10.99 C164.63 10.98 162.16 10.98 159.68 10.97 C149.38 10.95 139.09 10.93 128.79 10.92 C126.12 10.92 123.45 10.91 120.78 10.91 C119.78 10.91 119.78 10.91 118.76 10.91 C108 10.9 97.24 10.86 86.48 10.82 C75.44 10.78 64.4 10.76 53.35 10.75 C47.15 10.75 40.95 10.73 34.74 10.7 C28.91 10.67 23.08 10.67 17.24 10.68 C15.1 10.68 12.96 10.67 10.82 10.65 C7.89 10.63 4.97 10.64 2.05 10.65 C1.2 10.64 0.35 10.62 -0.53 10.61 C-6.42 10.69 -9.02 12 -13.13 16.26 Z " fill="#FDFDFD" transform="translate(271.1272735595703,207.7393035888672)"/>
<path d="M0 0 C1.38 -0.01 1.38 -0.01 2.78 -0.01 C5.85 -0.02 8.93 -0.02 12 -0.01 C14.2 -0.02 16.41 -0.02 18.61 -0.03 C24.6 -0.04 30.58 -0.04 36.57 -0.04 C41.57 -0.04 46.56 -0.04 51.56 -0.05 C64.03 -0.06 76.49 -0.06 88.96 -0.05 C99.77 -0.05 110.59 -0.06 121.4 -0.08 C132.52 -0.1 143.63 -0.11 154.75 -0.1 C160.99 -0.1 167.22 -0.1 173.46 -0.12 C179.32 -0.13 185.19 -0.13 191.06 -0.12 C193.21 -0.11 195.36 -0.12 197.51 -0.12 C200.45 -0.13 203.39 -0.13 206.33 -0.11 C207.17 -0.12 208.02 -0.13 208.9 -0.14 C215.27 -0.08 220.95 0.94 226.03 5.09 C226.57 5.75 227.11 6.4 227.67 7.07 C228.22 7.72 228.77 8.36 229.35 9.03 C232.5 13.9 233.04 18.62 233.07 24.33 C233.07 25.35 233.07 25.35 233.08 26.39 C233.09 28.63 233.09 30.86 233.09 33.1 C233.1 34.66 233.1 36.22 233.1 37.79 C233.11 41.06 233.11 44.34 233.11 47.61 C233.1 51.79 233.12 55.96 233.14 60.14 C233.16 63.37 233.16 66.6 233.15 69.83 C233.15 71.37 233.16 72.91 233.17 74.45 C233.27 92 233.27 92 227.96 98.5 C227.3 99.04 226.65 99.58 225.98 100.14 C225.01 100.97 225.01 100.97 224.02 101.82 C218.45 105.43 212.99 105.55 206.58 105.52 C205.66 105.53 204.74 105.53 203.8 105.53 C200.73 105.54 197.65 105.54 194.58 105.54 C192.38 105.54 190.17 105.54 187.97 105.55 C181.98 105.56 176 105.56 170.01 105.56 C165.01 105.56 160.02 105.57 155.02 105.57 C142.55 105.58 130.09 105.58 117.62 105.58 C106.81 105.57 95.99 105.58 85.18 105.6 C74.06 105.62 62.95 105.63 51.83 105.62 C45.59 105.62 39.36 105.63 33.12 105.64 C27.26 105.65 21.39 105.65 15.53 105.64 C13.37 105.63 11.22 105.64 9.07 105.65 C6.13 105.66 3.19 105.65 0.25 105.63 C-0.59 105.64 -1.44 105.65 -2.32 105.66 C-8.69 105.6 -14.37 104.58 -19.45 100.43 C-19.99 99.78 -20.53 99.12 -21.08 98.45 C-21.64 97.8 -22.19 97.16 -22.76 96.49 C-25.92 91.62 -26.46 86.9 -26.48 81.19 C-26.49 80.51 -26.49 79.83 -26.5 79.13 C-26.51 76.89 -26.51 74.66 -26.51 72.42 C-26.51 70.86 -26.52 69.3 -26.52 67.73 C-26.53 64.46 -26.53 61.19 -26.53 57.91 C-26.52 53.73 -26.54 49.56 -26.56 45.38 C-26.57 42.15 -26.58 38.92 -26.57 35.69 C-26.57 34.15 -26.58 32.61 -26.59 31.07 C-26.69 13.52 -26.69 13.52 -21.38 7.02 C-20.72 6.48 -20.07 5.94 -19.4 5.39 C-18.75 4.83 -18.11 4.28 -17.44 3.71 C-11.87 0.1 -6.41 -0.03 0 0 Z M-14.21 16.26 C-15.63 19.11 -15.37 21.54 -15.4 24.73 C-15.41 25.39 -15.42 26.05 -15.43 26.74 C-15.45 28.94 -15.47 31.14 -15.48 33.34 C-15.49 34.09 -15.49 34.84 -15.5 35.62 C-15.53 39.6 -15.55 43.58 -15.56 47.56 C-15.58 51.67 -15.62 55.78 -15.67 59.88 C-15.71 63.04 -15.72 66.21 -15.72 69.37 C-15.73 70.88 -15.74 72.4 -15.77 73.91 C-16.29 83.07 -16.29 83.07 -12.8 91.17 C-8.42 94.7 -4.98 94.41 0.46 94.41 C1.82 94.42 1.82 94.42 3.21 94.43 C6.27 94.44 9.33 94.45 12.39 94.45 C14.58 94.46 16.77 94.47 18.96 94.48 C26.16 94.5 33.36 94.52 40.56 94.53 C43.03 94.54 45.51 94.54 47.98 94.55 C58.28 94.57 68.57 94.59 78.87 94.6 C81.54 94.6 84.22 94.61 86.89 94.61 C87.88 94.61 87.88 94.61 88.9 94.61 C99.66 94.63 110.42 94.66 121.18 94.7 C132.22 94.74 143.27 94.77 154.31 94.77 C160.51 94.78 166.72 94.79 172.92 94.82 C178.75 94.85 184.59 94.86 190.42 94.84 C192.56 94.84 194.71 94.85 196.85 94.87 C199.77 94.89 202.69 94.88 205.62 94.87 C206.47 94.88 207.31 94.9 208.19 94.91 C212.37 94.85 214.99 94.52 218.3 91.85 C222.01 87.99 221.93 86.06 221.98 80.79 C221.99 80.13 222 79.47 222.01 78.78 C222.03 76.58 222.05 74.38 222.06 72.18 C222.07 71.05 222.07 71.05 222.08 69.9 C222.11 65.92 222.13 61.94 222.14 57.96 C222.16 53.85 222.2 49.75 222.25 45.64 C222.29 42.48 222.3 39.32 222.3 36.15 C222.31 34.64 222.33 33.13 222.35 31.61 C222.87 22.45 222.87 22.45 219.38 14.35 C215 10.82 211.56 11.11 206.12 11.11 C204.76 11.1 204.76 11.1 203.37 11.09 C200.31 11.08 197.25 11.07 194.19 11.07 C192 11.06 189.81 11.05 187.63 11.04 C180.43 11.02 173.22 11 166.02 10.99 C163.55 10.98 161.07 10.98 158.6 10.97 C148.3 10.95 138.01 10.93 127.71 10.92 C125.04 10.92 122.37 10.91 119.69 10.91 C118.7 10.91 118.7 10.91 117.68 10.91 C106.92 10.9 96.16 10.86 85.4 10.82 C74.36 10.78 63.31 10.76 52.27 10.75 C46.07 10.75 39.86 10.73 33.66 10.7 C27.83 10.67 21.99 10.67 16.16 10.68 C14.02 10.68 11.88 10.67 9.73 10.65 C6.81 10.63 3.89 10.64 0.96 10.65 C0.12 10.64 -0.73 10.62 -1.61 10.61 C-7.5 10.69 -10.11 12 -14.21 16.26 Z " fill="#FDFDFD" transform="translate(270.2095642089844,27.739303588867188)"/>
<path d="M0 0 C0.93 -0 1.85 -0.01 2.8 -0.01 C5.91 -0.03 9.01 -0.02 12.11 -0.02 C14.34 -0.03 16.56 -0.04 18.79 -0.04 C24.83 -0.06 30.87 -0.07 36.92 -0.07 C41.96 -0.07 47.01 -0.08 52.05 -0.08 C63.27 -0.1 74.5 -0.1 85.72 -0.1 C86.39 -0.1 87.06 -0.1 87.76 -0.1 C88.43 -0.1 89.11 -0.1 89.8 -0.1 C100.72 -0.1 111.64 -0.12 122.56 -0.15 C133.78 -0.18 145 -0.19 156.21 -0.19 C162.51 -0.19 168.81 -0.2 175.1 -0.22 C181.02 -0.24 186.95 -0.24 192.87 -0.22 C195.04 -0.22 197.21 -0.22 199.38 -0.24 C202.35 -0.25 205.32 -0.24 208.29 -0.23 C209.15 -0.24 210 -0.25 210.88 -0.26 C217.55 -0.18 222.77 1.62 227.86 6.01 C228.53 6.85 228.53 6.85 229.21 7.7 C229.9 8.54 229.9 8.54 230.61 9.39 C233.59 13.96 234.09 17.91 234.13 23.32 C234.13 24.01 234.14 24.7 234.15 25.41 C234.16 27.68 234.17 29.95 234.17 32.22 C234.18 33.81 234.18 35.4 234.19 36.99 C234.2 40.31 234.21 43.64 234.21 46.97 C234.21 51.21 234.23 55.46 234.27 59.71 C234.29 62.99 234.29 66.27 234.29 69.55 C234.29 71.11 234.3 72.68 234.32 74.24 C234.4 83.53 234.44 90.93 228.09 98.29 C227.53 98.74 226.97 99.18 226.4 99.64 C225.84 100.1 225.29 100.57 224.71 101.04 C219.46 104.47 214.76 104.56 208.67 104.53 C207.74 104.54 206.82 104.54 205.86 104.55 C202.76 104.56 199.66 104.56 196.56 104.56 C194.33 104.56 192.11 104.57 189.88 104.58 C183.84 104.6 177.8 104.6 171.75 104.6 C166.71 104.6 161.66 104.61 156.62 104.62 C145.4 104.63 134.17 104.64 122.95 104.64 C122.28 104.64 121.61 104.64 120.91 104.64 C120.24 104.64 119.56 104.64 118.87 104.64 C107.95 104.64 97.03 104.66 86.11 104.68 C74.89 104.71 63.67 104.73 52.45 104.73 C46.16 104.72 39.86 104.73 33.57 104.75 C27.65 104.77 21.72 104.77 15.8 104.76 C13.63 104.75 11.46 104.76 9.29 104.77 C6.32 104.79 3.35 104.78 0.38 104.76 C-0.48 104.77 -1.33 104.78 -2.21 104.79 C-8.88 104.72 -14.1 102.91 -19.19 98.52 C-19.63 97.96 -20.08 97.41 -20.54 96.83 C-21 96.27 -21.46 95.72 -21.94 95.15 C-24.92 90.58 -25.42 86.63 -25.46 81.22 C-25.46 80.53 -25.47 79.84 -25.48 79.13 C-25.5 76.85 -25.5 74.58 -25.5 72.31 C-25.51 70.72 -25.51 69.13 -25.52 67.55 C-25.53 64.22 -25.54 60.89 -25.54 57.57 C-25.54 53.32 -25.56 49.07 -25.6 44.83 C-25.62 41.55 -25.62 38.27 -25.62 34.99 C-25.62 33.42 -25.63 31.86 -25.65 30.29 C-25.73 21 -25.77 13.6 -19.42 6.24 C-18.86 5.8 -18.3 5.35 -17.73 4.89 C-17.17 4.43 -16.62 3.97 -16.04 3.49 C-10.79 0.06 -6.09 -0.02 0 0 Z M-13.17 16.27 C-14.58 19.09 -14.32 21.48 -14.36 24.64 C-14.37 25.3 -14.37 25.95 -14.38 26.62 C-14.41 28.79 -14.42 30.96 -14.44 33.13 C-14.45 34.24 -14.45 34.24 -14.45 35.37 C-14.48 39.3 -14.5 43.22 -14.52 47.14 C-14.53 50.39 -14.56 53.63 -14.6 56.87 C-14.65 60.79 -14.67 64.71 -14.68 68.63 C-14.69 70.12 -14.7 71.61 -14.72 73.1 C-15.23 82.16 -15.23 82.16 -11.76 90.17 C-7.38 93.71 -3.94 93.42 1.5 93.42 C2.86 93.43 2.86 93.43 4.25 93.43 C7.31 93.45 10.38 93.45 13.44 93.46 C15.62 93.47 17.81 93.48 20 93.49 C27.2 93.51 34.4 93.53 41.6 93.54 C44.08 93.55 46.55 93.55 49.03 93.56 C59.32 93.58 69.62 93.6 79.91 93.61 C82.59 93.61 85.26 93.61 87.93 93.62 C88.93 93.62 88.93 93.62 89.94 93.62 C100.7 93.63 111.46 93.67 122.22 93.71 C133.27 93.75 144.31 93.77 155.36 93.78 C161.56 93.78 167.76 93.79 173.96 93.83 C179.8 93.86 185.63 93.86 191.47 93.85 C193.61 93.85 195.75 93.86 197.89 93.88 C200.82 93.9 203.74 93.89 206.66 93.88 C207.51 93.89 208.36 93.9 209.23 93.92 C213.41 93.86 216.04 93.52 219.35 90.85 C223.03 87.02 222.97 85.13 223.03 79.89 C223.04 79.24 223.04 78.59 223.05 77.91 C223.08 75.74 223.09 73.58 223.11 71.41 C223.12 70.3 223.12 70.3 223.12 69.16 C223.15 65.24 223.17 61.32 223.18 57.39 C223.2 54.15 223.23 50.91 223.27 47.66 C223.32 43.74 223.34 39.83 223.35 35.91 C223.35 34.42 223.37 32.92 223.39 31.43 C223.9 22.37 223.9 22.37 220.43 14.37 C216.05 10.82 212.61 11.12 207.17 11.11 C205.81 11.11 205.81 11.11 204.42 11.1 C201.36 11.09 198.29 11.08 195.23 11.07 C193.04 11.07 190.86 11.06 188.67 11.05 C181.47 11.02 174.27 11.01 167.07 10.99 C164.59 10.99 162.12 10.98 159.64 10.98 C149.35 10.96 139.05 10.94 128.75 10.93 C126.08 10.92 123.41 10.92 120.74 10.92 C119.74 10.92 119.74 10.92 118.72 10.92 C107.97 10.9 97.21 10.87 86.45 10.83 C75.4 10.79 64.36 10.76 53.31 10.76 C47.11 10.75 40.91 10.74 34.71 10.71 C28.87 10.68 23.04 10.67 17.2 10.68 C15.06 10.68 12.92 10.68 10.78 10.66 C7.85 10.64 4.93 10.64 2.01 10.66 C1.16 10.65 0.31 10.63 -0.56 10.62 C-6.46 10.7 -9.06 12 -13.17 16.27 Z " fill="#FDFDFD" transform="translate(269.1652374267578,377.7325744628906)"/>
<path d="M0 0 C5.28 3.12 8.71 6.55 11.04 12.3 C11.99 17.51 11.65 22.45 9.87 27.46 C9.44 30.28 9.44 30.28 11.79 32.88 C12.75 33.89 13.73 34.88 14.72 35.86 C15.74 36.92 16.76 37.98 17.79 39.04 C18.29 39.55 18.79 40.06 19.31 40.59 C21.18 42.52 22.96 44.52 24.72 46.55 C25.24 47.14 25.75 47.73 26.29 48.33 C27.84 50.19 29.29 52.1 30.72 54.05 C31.9 53.56 31.9 53.56 33.1 53.05 C38.91 51.45 44.32 51.19 50.04 53.24 C55.09 56.64 58.65 60.26 60.72 66.05 C61.66 72.84 60.79 78.45 56.72 84.05 C54.03 86.88 51.47 88.8 47.72 90.05 C46.66 89.91 45.59 89.77 44.49 89.62 C36.68 88.72 36.68 88.72 29.5 91.44 C25.11 95 21.27 99.07 17.46 103.23 C15.05 105.75 12.45 107.89 9.72 110.05 C9.88 110.6 10.03 111.14 10.2 111.7 C12.01 118.75 12.46 124.71 9.04 131.3 C5.2 135.86 1.48 139.69 -4.73 140.29 C-13.03 140.51 -16.88 139.14 -23.09 133.49 C-25.43 130.59 -25.48 128.27 -25.71 124.61 C-25.97 121.71 -25.97 121.71 -27.28 119.05 C-29.63 117.28 -31.56 116.01 -34.15 114.74 C-34.78 114.43 -35.4 114.12 -36.05 113.8 C-38.78 112.61 -40.58 111.83 -43.49 112.75 C-44.38 113.39 -44.38 113.39 -45.28 114.05 C-50.98 117.4 -55.59 119.2 -62.28 118.05 C-68.18 116.16 -71.82 113.13 -75.28 108.05 C-77.62 102.81 -78.3 98.08 -76.44 92.56 C-74.09 87.24 -71.64 83.68 -66.52 80.84 C-63.98 79.95 -61.96 79.92 -59.28 79.93 C-55.62 79.76 -54.52 79.28 -51.79 76.73 C-49.58 73.87 -47.68 71.39 -46.28 68.05 C-46.91 65.35 -46.91 65.35 -48.28 63.05 C-48.74 61.66 -48.74 61.66 -49.21 60.24 C-51.05 57.8 -51.05 57.8 -53.64 57.88 C-55.57 57.95 -57.49 58.03 -59.42 58.12 C-64.46 58 -68.12 56.01 -71.81 52.66 C-75.35 48.75 -77.24 44.99 -77.31 39.7 C-76.97 34.1 -76.06 29.33 -72.28 25.05 C-67.59 21.05 -62.52 18.63 -56.28 19.05 C-51.43 20.09 -47.63 21.29 -44.28 25.05 C-43.64 24.86 -43 24.66 -42.34 24.46 C-37.33 22.96 -32.31 21.47 -27.28 20.05 C-27.2 19.34 -27.13 18.63 -27.05 17.89 C-26.11 11.06 -24.73 6.47 -19.28 2.05 C-13.39 -1.46 -6.47 -2.7 0 0 Z M-16.28 10.05 C-18.64 13.94 -19.65 16.79 -18.78 21.24 C-17.51 25.16 -16.04 27.13 -12.28 29.05 C-7.71 29.85 -4.39 29.69 -0.34 27.36 C2.91 23.72 3.75 21.45 3.66 16.55 C2.55 12.39 1 10.77 -2.28 8.05 C-7.14 5.62 -12.27 6.6 -16.28 10.05 Z M-68.28 33.05 C-69.78 37.19 -69.56 40.22 -68.15 44.36 C-66.04 47.4 -64.7 48.65 -61.28 50.05 C-57.91 50.54 -55.52 50.8 -52.53 49 C-49.64 46.65 -47.49 44.84 -47.04 41.06 C-46.91 36.9 -46.89 34.67 -49.15 31.05 C-52.64 27.76 -55.29 27.64 -59.95 27.71 C-64.12 28.32 -65.58 29.81 -68.28 33.05 Z M-33.53 30.55 C-35.14 31.25 -35.14 31.25 -36.79 31.96 C-37.61 32.32 -38.43 32.68 -39.28 33.05 C-39.63 36.45 -39.8 39.66 -39.28 43.05 C-36.65 45.89 -36.65 45.89 -33.28 47.05 C-29.27 45.72 -27.79 43.12 -25.46 39.8 C-25.03 39.23 -24.6 38.65 -24.15 38.06 C-22.75 36.16 -22.75 36.16 -21.28 33.05 C-21.85 30.17 -21.85 30.17 -23.28 28.05 C-27.52 28.05 -29.68 28.88 -33.53 30.55 Z M-6.71 36.71 C-9.5 37.08 -11.57 36.75 -14.28 36.05 C-21.01 43.32 -21.01 43.32 -24.28 52.05 C-22.17 53.46 -22.17 53.46 -19.28 54.05 C-17.6 53.07 -15.93 52.08 -14.3 51.03 C-10.42 49.15 -6.46 49.39 -2.28 50.05 C1.22 51.57 3.17 52.69 4.63 56.29 C4.95 57.09 5.27 57.9 5.6 58.74 C6.64 61.22 6.64 61.22 8.72 63.05 C14.1 64.17 19.25 64.21 24.72 64.05 C25.44 62.2 25.44 62.2 25.72 60.05 C23.96 57.77 22.24 55.83 20.22 53.8 C19.11 52.64 18 51.48 16.88 50.32 C16.34 49.76 15.8 49.2 15.23 48.62 C13.32 46.63 11.48 44.57 9.66 42.49 C9.15 41.91 8.65 41.33 8.12 40.73 C6.72 39.05 6.72 39.05 5.23 36.84 C4.73 36.25 4.23 35.66 3.72 35.05 C0.07 35.05 -3.16 35.88 -6.71 36.71 Z M-43.28 51.05 C-43.61 52.04 -43.94 53.03 -44.28 54.05 C-42.9 56.73 -42.9 56.73 -41.28 59.05 C-38.16 58.38 -38.16 58.38 -37.09 55.99 C-36.82 55.35 -36.55 54.71 -36.28 54.05 C-39.33 51.46 -39.33 51.46 -43.28 51.05 Z M-13.65 58.68 C-15.66 61.61 -16.2 63.49 -16.28 67.05 C-14.54 70.78 -14.54 70.78 -11.28 73.05 C-6.29 73.53 -6.29 73.53 -1.9 71.43 C0.11 68.49 0.65 66.61 0.72 63.05 C-1.01 59.32 -1.01 59.32 -4.28 57.05 C-9.27 56.58 -9.27 56.58 -13.65 58.68 Z M-30.28 58.05 C-31.69 59.66 -31.69 59.66 -32.96 61.74 C-33.42 62.42 -33.88 63.11 -34.35 63.81 C-35.55 66.71 -35.08 68.04 -34.28 71.05 C-33.17 73.52 -33.17 73.52 -31.77 76 C-31.25 76.93 -30.74 77.86 -30.22 78.82 C-29.68 79.78 -29.14 80.75 -28.59 81.74 C-28.07 82.68 -27.55 83.62 -27.02 84.6 C-23.58 90.83 -19.98 96.97 -16.28 103.05 C-13.8 102.56 -13.8 102.56 -11.28 102.05 C-11.04 98.66 -10.9 95.26 -10.78 91.86 C-10.71 90.9 -10.64 89.94 -10.57 88.96 C-10.5 86.11 -10.52 83.79 -11.28 81.05 C-13.18 79.18 -14.95 78.12 -17.36 76.98 C-20.3 75.56 -21.13 74.08 -22.28 71.05 C-22.43 69.34 -22.55 67.64 -22.65 65.93 C-22.85 61.83 -22.85 61.83 -25.71 58.93 C-28.14 57.94 -28.14 57.94 -30.28 58.05 Z M33.72 63.05 C31.4 65.94 30.76 67.81 30.22 71.49 C30.87 76.13 32.28 77.9 35.72 81.05 C40 83.03 41.92 83.28 46.47 81.99 C50.01 79.88 51.28 78.88 52.72 75.05 C53.42 69.91 53.42 69.91 51.67 65.24 C49.9 63.06 48.25 61.31 45.72 60.05 C40.74 59.67 37.67 59.87 33.72 63.05 Z M4.54 73.8 C3.94 74.87 3.34 75.95 2.72 77.05 C0.41 78.37 -1.9 79.69 -4.28 81.05 C-4.28 87.98 -4.28 94.91 -4.28 102.05 C0.98 105.52 0.98 105.52 3.87 104.45 C5.84 102.96 7.65 101.43 9.44 99.71 C10.12 99.06 10.81 98.41 11.52 97.74 C12.58 96.72 12.58 96.72 13.66 95.68 C22.21 87.5 22.21 87.5 26.72 84.05 C26.52 83.44 26.31 82.82 26.1 82.19 C24.98 78.81 23.85 75.43 22.72 72.05 C12.71 69.63 12.71 69.63 4.54 73.8 Z M-42.28 76.05 C-43.67 78.01 -45 80.01 -46.28 82.05 C-45.25 84.27 -44.2 86.16 -42.71 88.11 C-40.85 90.62 -40.23 92.38 -40.45 95.5 C-40.61 98.8 -40.5 100.96 -39.28 104.05 C-34.94 107.23 -28.81 111.05 -23.28 111.05 C-22.13 108.26 -22.2 107.23 -23.39 104.4 C-23.95 103.41 -24.52 102.42 -25.1 101.4 C-25.72 100.31 -26.34 99.23 -26.97 98.11 C-27.63 96.97 -28.29 95.84 -28.96 94.68 C-29.6 93.55 -30.24 92.43 -30.9 91.27 C-35.32 83.49 -35.32 83.49 -40.28 76.05 C-40.94 76.05 -41.6 76.05 -42.28 76.05 Z M-66.53 90.68 C-68.94 93.95 -69.47 97.08 -69.28 101.05 C-68.08 104.59 -66.9 106.48 -64.15 108.99 C-59.97 110.53 -56.52 110.41 -52.28 109.05 C-49 106.38 -47.65 104.93 -46.84 100.83 C-46.63 96.87 -46.97 94.58 -48.96 91.11 C-54.81 85.9 -60.32 86.19 -66.53 90.68 Z M-16.28 113.05 C-18.64 116.94 -19.65 119.79 -18.78 124.24 C-17.51 128.16 -16.04 130.13 -12.28 132.05 C-7.71 132.85 -4.39 132.69 -0.34 130.36 C2.91 126.72 3.75 124.45 3.66 119.55 C2.55 115.39 1 113.77 -2.28 111.05 C-7.14 108.62 -12.27 109.6 -16.28 113.05 Z " fill="#F3F3F4" transform="translate(168.27734375,274.94921875)"/>
<path d="M0 0 C3.63 0 7.26 0 11 0 C11 3.96 11 7.92 11 12 C14.3 12 17.6 12 21 12 C19.66 16.31 18 20.24 15.96 24.27 C15.38 25.43 14.8 26.58 14.2 27.77 C13.59 28.97 12.98 30.17 12.38 31.38 C11.76 32.6 11.14 33.83 10.52 35.05 C9.02 38.04 7.51 41.02 6 44 C3.47 40.85 1.67 37.6 -0.14 33.99 C-0.71 32.84 -1.29 31.69 -1.88 30.5 C-2.18 29.91 -2.48 29.31 -2.78 28.7 C-3.69 26.87 -4.61 25.05 -5.53 23.22 C-6.1 22.07 -6.67 20.93 -7.26 19.74 C-7.79 18.69 -8.31 17.64 -8.85 16.55 C-10 14 -10 14 -10 12 C-6.7 12 -3.4 12 0 12 C0 8.04 0 4.08 0 0 Z " fill="#00FDD0" transform="translate(363,494)"/>
<path d="M0 0 C3.63 0 7.26 0 11 0 C11 3.96 11 7.92 11 12 C14.3 12 17.6 12 21 12 C19.66 16.31 18 20.24 15.96 24.27 C15.38 25.43 14.8 26.58 14.2 27.77 C13.59 28.97 12.98 30.17 12.38 31.38 C11.76 32.6 11.14 33.83 10.52 35.05 C9.02 38.04 7.51 41.02 6 44 C3.47 40.85 1.67 37.6 -0.14 33.99 C-0.71 32.84 -1.29 31.69 -1.88 30.5 C-2.18 29.91 -2.48 29.31 -2.78 28.7 C-3.69 26.87 -4.61 25.05 -5.53 23.22 C-6.1 22.07 -6.67 20.93 -7.26 19.74 C-7.79 18.69 -8.31 17.64 -8.85 16.55 C-10 14 -10 14 -10 12 C-6.7 12 -3.4 12 0 12 C0 8.04 0 4.08 0 0 Z " fill="#00FDD0" transform="translate(361,323)"/>
<path d="M0 0 C3.63 0 7.26 0 11 0 C11 3.96 11 7.92 11 12 C14.3 12 17.6 12 21 12 C19.66 16.31 18 20.24 15.96 24.27 C15.38 25.43 14.8 26.58 14.2 27.77 C13.59 28.97 12.98 30.17 12.38 31.38 C11.76 32.6 11.14 33.83 10.52 35.05 C9.02 38.04 7.51 41.02 6 44 C3.47 40.85 1.67 37.6 -0.14 33.99 C-0.71 32.84 -1.29 31.69 -1.88 30.5 C-2.18 29.91 -2.48 29.31 -2.78 28.7 C-3.69 26.87 -4.61 25.05 -5.53 23.22 C-6.1 22.07 -6.67 20.93 -7.26 19.74 C-7.79 18.69 -8.31 17.64 -8.85 16.55 C-10 14 -10 14 -10 12 C-6.7 12 -3.4 12 0 12 C0 8.04 0 4.08 0 0 Z " fill="#00FDD0" transform="translate(361,149)"/>
<path d="M0 0 C2.48 0.5 2.48 0.5 5 1 C5.33 0.67 5.66 0.34 6 0 C10.03 -0.26 11.56 -0.29 15 2 C15.99 1.34 16.98 0.68 18 0 C21 -0.38 21 -0.38 24 0 C26.72 2.5 27 3.94 27.29 7.67 C27.27 9.03 27.24 10.39 27.19 11.75 C27.17 12.8 27.17 12.8 27.15 13.86 C27.11 15.58 27.06 17.29 27 19 C26.01 19 25.02 19 24 19 C23.94 18.08 23.88 17.17 23.82 16.23 C23.73 15.04 23.65 13.85 23.56 12.62 C23.48 11.44 23.4 10.26 23.32 9.04 C23.19 6.08 23.19 6.08 22 4 C19.52 3.5 19.52 3.5 17 3 C16.34 8.28 15.68 13.56 15 19 C14.01 19 13.02 19 12 19 C11.67 13.72 11.34 8.44 11 3 C9.02 3.66 7.04 4.32 5 5 C4.67 9.62 4.34 14.24 4 19 C2.68 19 1.36 19 0 19 C0 12.73 0 6.46 0 0 Z " fill="#EFEFEF" transform="translate(355,75)"/>
<path d="M0 0 C2.35 0.17 2.35 0.17 5 1 C6.39 3.32 6.39 3.32 7.46 6.35 C8.04 7.97 8.04 7.97 8.64 9.62 C9.03 10.76 9.41 11.89 9.81 13.06 C10.42 14.77 10.42 14.77 11.04 16.52 C12.05 19.34 13.03 22.17 14 25 C12.68 25.33 11.36 25.66 10 26 C8.54 23.35 8 22.11 8 19 C4.25 19.01 0.66 19.14 -3 20 C-5.32 22.87 -5.32 22.87 -6 26 C-6.99 26 -7.98 26 -9 26 C-8.38 20.12 -6.17 15.04 -3.94 9.62 C-3.56 8.7 -3.18 7.77 -2.79 6.82 C-1.87 4.54 -0.94 2.27 0 0 Z M2 5 C1.33 6.46 0.66 7.92 0 9.38 C-0.37 10.19 -0.74 11 -1.12 11.84 C-2.12 13.92 -2.12 13.92 -2 16 C0.64 16 3.28 16 6 16 C4.51 10.56 4.51 10.56 3 5 C2.67 5 2.34 5 2 5 Z " fill="#E7E8E9" transform="translate(303,417)"/>
<path d="M0 0 C1.32 0 2.64 0 4 0 C5.51 3.77 7.01 7.54 8.5 11.31 C8.93 12.38 9.36 13.46 9.8 14.56 C10.41 16.1 10.41 16.1 11.03 17.68 C11.41 18.62 11.79 19.57 12.17 20.55 C13 23 13 23 13 26 C11.68 26 10.36 26 9 26 C8.34 24.02 7.68 22.04 7 20 C3.37 19.67 -0.26 19.34 -4 19 C-4.99 22.46 -4.99 22.46 -6 26 C-7.32 26 -8.64 26 -10 26 C-8.11 20.11 -6.03 14.3 -3.88 8.5 C-3.61 7.78 -3.34 7.06 -3.07 6.32 C-1.12 1.12 -1.12 1.12 0 0 Z M1 4 C0.49 5.44 -0 6.87 -0.5 8.31 C-0.78 9.11 -1.06 9.91 -1.34 10.74 C-2.14 13.09 -2.14 13.09 -2 16 C0.64 16 3.28 16 6 16 C4.68 12.04 3.36 8.08 2 4 C1.67 4 1.34 4 1 4 Z " fill="#EAEBEB" transform="translate(305,247)"/>
<path d="M0 0 C2.79 2.46 3 3.94 3.29 7.67 C3.27 9.03 3.24 10.39 3.19 11.75 C3.17 12.45 3.16 13.14 3.15 13.86 C3.11 15.58 3.06 17.29 3 19 C2.2 18.81 1.39 18.63 0.56 18.44 C-0.28 18.29 -1.13 18.15 -2 18 C-2.33 18.33 -2.66 18.66 -3 19 C-8.28 19.46 -8.28 19.46 -10.88 17.81 C-12.41 15.34 -12.43 13.85 -12 11 C-11 9.25 -11 9.25 -9 8 C-6.32 7.46 -3.74 7.22 -1 7 C-1.33 6.01 -1.66 5.02 -2 4 C-4.64 4.33 -7.28 4.66 -10 5 C-10 3.68 -10 2.36 -10 1 C-6.89 -0.55 -3.37 -0.73 0 0 Z M-7.81 11.5 C-8.2 12 -8.6 12.49 -9 13 C-8.67 13.99 -8.34 14.98 -8 16 C-5.58 16.17 -5.58 16.17 -3 16 C-2.34 15.34 -1.68 14.68 -1 14 C-1 12.68 -1 11.36 -1 10 C-4.72 9.65 -4.72 9.65 -7.81 11.5 Z " fill="#E3E4E5" transform="translate(368,424)"/>
<path d="M0 0 C2.44 1.56 2.44 1.56 4 4 C4.25 7.75 4.25 7.75 4 11 C-0.29 11 -4.58 11 -9 11 C-8.67 12.32 -8.34 13.64 -8 15 C-4.37 15 -0.74 15 3 15 C3 15.99 3 16.98 3 18 C-0.23 19.62 -3.5 19.57 -7 19 C-10.14 16.97 -11.66 15.55 -12.48 11.84 C-12.75 7.61 -12.35 5.51 -9.94 1.94 C-6.25 -0.49 -4.33 -0.71 0 0 Z M-6 3 C-7.86 5.41 -7.86 5.41 -9 8 C-5.7 8 -2.4 8 1 8 C0.34 6.35 -0.32 4.7 -1 3 C-3.37 2.58 -3.37 2.58 -6 3 Z " fill="#E9EAEA" transform="translate(406,254)"/>
<path d="M0 0 C2.44 1.56 2.44 1.56 4 4 C4.25 7.75 4.25 7.75 4 11 C-0.29 11 -4.58 11 -9 11 C-8.67 12.32 -8.34 13.64 -8 15 C-4.37 15 -0.74 15 3 15 C3 15.99 3 16.98 3 18 C-0.23 19.62 -3.5 19.57 -7 19 C-10.14 16.97 -11.66 15.55 -12.48 11.84 C-12.75 7.61 -12.35 5.51 -9.94 1.94 C-6.25 -0.49 -4.33 -0.71 0 0 Z M-6 3 C-7.86 5.41 -7.86 5.41 -9 8 C-5.7 8 -2.4 8 1 8 C0.34 6.35 -0.32 4.7 -1 3 C-3.37 2.58 -3.37 2.58 -6 3 Z " fill="#E9E9E9" transform="translate(398,75)"/>
<path d="M0 0 C2.31 1.06 2.31 1.06 4 3 C4.81 6.62 4.81 6.62 5 10 C4 11 4 11 1.28 11.1 C-0.38 11.08 -0.38 11.08 -2.06 11.06 C-3.72 11.05 -3.72 11.05 -5.41 11.04 C-6.26 11.02 -7.12 11.01 -8 11 C-7.34 12.32 -6.68 13.64 -6 15 C-3.03 15 -0.06 15 3 15 C2.67 16.32 2.34 17.64 2 19 C-5.98 19.61 -5.98 19.61 -9.5 17.5 C-11.56 14.06 -12.21 11 -12 7 C-9.48 1.2 -6.26 -0.64 0 0 Z M-8 5 C-8 5.99 -8 6.98 -8 8 C-5.03 8 -2.06 8 1 8 C0.67 6.35 0.34 4.7 0 3 C-4.49 2.57 -4.49 2.57 -8 5 Z " fill="#E6E8E8" transform="translate(404,424)"/>
<path d="M0 0 C1.74 1 1.74 1 3 3 C3.22 5.81 3.28 8.39 3.19 11.19 C3.17 11.94 3.16 12.69 3.15 13.46 C3.11 15.31 3.06 17.15 3 19 C2.38 18.81 1.76 18.63 1.12 18.44 C-1.04 17.76 -1.04 17.76 -3 19 C-8.23 19.45 -8.23 19.45 -10.94 17.88 C-12 16 -12 16 -11.81 12.94 C-11 10 -11 10 -9 8 C-6.84 7.59 -6.84 7.59 -4.38 7.38 C-3.56 7.3 -2.74 7.23 -1.9 7.15 C-1.27 7.1 -0.65 7.05 0 7 C-0.33 5.68 -0.66 4.36 -1 3 C-3.97 3.66 -6.94 4.32 -10 5 C-10 3.68 -10 2.36 -10 1 C-6.88 -0.56 -3.4 -0.56 0 0 Z M-7.88 11.5 C-8.25 12 -8.62 12.49 -9 13 C-8.67 13.99 -8.34 14.98 -8 16 C-5.08 16.25 -5.08 16.25 -2 16 C0.28 13.18 0.28 13.18 0 10 C-4.26 9.59 -4.26 9.59 -7.88 11.5 Z " fill="#F9F9F9" transform="translate(430,75)"/>
<path d="M0 0 C1.74 1 1.74 1 3 3 C3.22 5.81 3.28 8.39 3.19 11.19 C3.17 11.94 3.16 12.69 3.15 13.46 C3.11 15.31 3.06 17.15 3 19 C2.38 18.81 1.76 18.63 1.12 18.44 C-1.04 17.76 -1.04 17.76 -3 19 C-8.23 19.45 -8.23 19.45 -10.94 17.88 C-12 16 -12 16 -11.81 12.94 C-11 10 -11 10 -9 8 C-6.84 7.59 -6.84 7.59 -4.38 7.38 C-3.56 7.3 -2.74 7.23 -1.9 7.15 C-1.27 7.1 -0.65 7.05 0 7 C-0.33 5.68 -0.66 4.36 -1 3 C-3.97 3.66 -6.94 4.32 -10 5 C-10 3.68 -10 2.36 -10 1 C-6.88 -0.56 -3.4 -0.56 0 0 Z M-7.88 11.5 C-8.25 12 -8.62 12.49 -9 13 C-8.67 13.99 -8.34 14.98 -8 16 C-5.08 16.25 -5.08 16.25 -2 16 C0.28 13.18 0.28 13.18 0 10 C-4.26 9.59 -4.26 9.59 -7.88 11.5 Z " fill="#F9F9F9" transform="translate(347,75)"/>
<path d="M0 0 C2.48 0.5 2.48 0.5 5 1 C6.32 4.96 7.64 8.92 9 13 C9.31 12.15 9.63 11.29 9.95 10.41 C10.38 9.31 10.81 8.2 11.25 7.06 C11.67 5.96 12.09 4.86 12.52 3.72 C14 1 14 1 16.17 0.12 C16.78 0.08 17.38 0.04 18 0 C16.36 6.12 14.31 12.04 12 17.94 C11.75 18.59 11.5 19.24 11.25 19.91 C8.84 25.95 8.84 25.95 6 28 C3.31 28.19 3.31 28.19 1 28 C1 27.01 1 26.02 1 25 C2.32 24.67 3.64 24.34 5 24 C6.28 17.51 5.62 13.54 3.06 7.5 C2.77 6.77 2.48 6.05 2.18 5.3 C1.47 3.52 0.74 1.76 0 0 Z " fill="#E5E7E7" transform="translate(373,424)"/>
<path d="M0 0 C0 1.32 0 2.64 0 4 C-0.68 3.97 -1.35 3.93 -2.05 3.89 C-2.94 3.87 -3.83 3.84 -4.75 3.81 C-5.63 3.78 -6.51 3.74 -7.42 3.71 C-10.5 4.06 -11.79 4.86 -14 7 C-15.21 10.64 -15.4 13.18 -15 17 C-13.27 20.14 -13.27 20.14 -10 22 C-6.62 22.4 -3.38 22.3 0 22 C-0.33 23.32 -0.66 24.64 -1 26 C-11.75 26.86 -11.75 26.86 -15.62 23.62 C-19.51 19.33 -19.28 16.33 -19.21 10.7 C-18.86 6.19 -17.26 4.14 -14 1.19 C-9.41 -0.63 -4.88 -0.23 0 0 Z " fill="#ECEDED" transform="translate(332,68)"/>
<path d="M0 0 C1.86 0.15 1.86 0.15 4 1 C5.27 3.5 5.27 3.5 6.25 6.56 C6.75 8.08 6.75 8.08 7.27 9.63 C7.63 10.8 7.63 10.8 8 12 C10.28 9.72 10.97 7.87 12.12 4.88 C12.48 3.96 12.83 3.05 13.2 2.12 C13.46 1.42 13.73 0.72 14 0 C14.99 0 15.98 0 17 0 C16.05 5.35 14.14 10.1 12.12 15.12 C11.77 16.03 11.42 16.94 11.06 17.87 C10.71 18.74 10.37 19.61 10.01 20.51 C9.69 21.3 9.38 22.09 9.06 22.9 C7.95 25.11 6.93 26.46 5 28 C2.31 28.19 2.31 28.19 0 28 C0 27.01 0 26.02 0 25 C0.62 24.96 1.24 24.92 1.88 24.88 C4.27 24.16 4.27 24.16 5.31 21.43 C6.2 17.02 4.95 14.24 3.12 10.31 C0 3.29 0 3.29 0 0 Z " fill="#E7E8E8" transform="translate(375,254)"/>
<path d="M0 0 C2.44 1 2.44 1 4 3 C4.46 6.17 4.69 7.99 4 11 C1.68 13.92 -0.84 15.88 -3.75 18.19 C-6.07 19.8 -6.07 19.8 -7 22 C-3.04 22.33 0.92 22.66 5 23 C5 23.99 5 24.98 5 26 C-0.28 26 -5.56 26 -11 26 C-11 21 -11 21 -8.81 18.44 C-6 16 -6 16 -3.25 14.12 C-0.22 11.27 -0.15 9.07 0 5 C-1.1 3.68 -1.1 3.68 -3.88 3.81 C-7.17 3.75 -7.17 3.75 -10 6 C-9.62 3.56 -9.62 3.56 -9 1 C-5.94 -0.53 -3.37 -0.23 0 0 Z " fill="#EBECEC" transform="translate(446,417)"/>
<path d="M0 0 C1.71 1 1.71 1 3 3 C3.22 5.81 3.28 8.39 3.19 11.19 C3.17 11.94 3.16 12.69 3.15 13.46 C3.11 15.31 3.06 17.15 3 19 C2.36 18.81 1.72 18.63 1.06 18.44 C0.04 18.22 0.04 18.22 -1 18 C-1.33 18.33 -1.66 18.66 -2 19 C-5.44 19.19 -5.44 19.19 -9 19 C-11 17 -11 17 -11.12 13.38 C-11.08 12.26 -11.04 11.15 -11 10 C-7.14 7.85 -4.45 6.61 0 7 C-0.33 6.01 -0.66 5.02 -1 4 C-4.34 3.93 -6.8 3.93 -10 5 C-9.62 3.06 -9.62 3.06 -9 1 C-5.95 -0.52 -3.36 -0.24 0 0 Z M-8 11 C-7.67 12.65 -7.34 14.3 -7 16 C-4.58 16.17 -4.58 16.17 -2 16 C-1.34 15.34 -0.68 14.68 0 14 C0 12.68 0 11.36 0 10 C-4.14 9.79 -4.14 9.79 -8 11 Z " fill="#F2F3F3" transform="translate(369,254)"/>
<path d="M0 0 C0.99 0 1.98 0 3 0 C3.84 2.92 4.12 5.51 4.1 8.55 C4.09 9.81 4.09 9.81 4.09 11.11 C4.08 11.98 4.07 12.85 4.06 13.75 C4.06 14.64 4.05 15.53 4.05 16.44 C4.04 18.63 4.02 20.81 4 23 C7.3 23 10.6 23 14 23 C14 23.99 14 24.98 14 26 C9.38 26 4.76 26 0 26 C0 17.42 0 8.84 0 0 Z " fill="#E0E2E3" transform="translate(340,417)"/>
<path d="M0 0 C0.99 0 1.98 0 3 0 C3 7.59 3 15.18 3 23 C6.63 23 10.26 23 14 23 C14 23.99 14 24.98 14 26 C9.38 26 4.76 26 0 26 C0 17.42 0 8.84 0 0 Z " fill="#F1F2F2" transform="translate(342,247)"/>
<path d="M0 0 C1.32 0 2.64 0 4 0 C4 8.58 4 17.16 4 26 C2.68 26 1.36 26 0 26 C0 17.42 0 8.84 0 0 Z " fill="#D3D6D7" transform="translate(320,417)"/>
<path d="M0 0 C0 8.58 0 17.16 0 26 C-0.99 26 -1.98 26 -3 26 C-3 19.07 -3 12.14 -3 5 C-4.98 5.66 -6.96 6.32 -9 7 C-8.88 5.19 -8.88 5.19 -8 3 C-2.96 0 -2.96 0 0 0 Z " fill="#FEFEFE" transform="translate(448,247)"/>
<path d="M0 0 C2.48 0.5 2.48 0.5 5 1 C7.73 0.62 7.73 0.62 10 0 C9.67 1.32 9.34 2.64 9 4 C7.68 4 6.36 4 5 4 C4.5 11.43 4.5 11.43 4 19 C2.68 19 1.36 19 0 19 C0 12.73 0 6.46 0 0 Z " fill="#DEDFDF" transform="translate(414,254)"/>
<path d="M0 0 C2.48 0.5 2.48 0.5 5 1 C5.99 1 6.98 1 8 1 C8.66 1.66 9.32 2.32 10 3 C8.35 3.66 6.7 4.32 5 5 C4.67 9.62 4.34 14.24 4 19 C2.68 19 1.36 19 0 19 C0 12.73 0 6.46 0 0 Z " fill="#DADBDB" transform="translate(355,75)"/>
<path d="M0 0 C0.99 0 1.98 0 3 0 C3.33 0.66 3.66 1.32 4 2 C4.66 1.34 5.32 0.68 6 0 C7.32 0 8.64 0 10 0 C9.67 1.32 9.34 2.64 9 4 C8.36 4.1 7.72 4.21 7.06 4.31 C6.38 4.54 5.7 4.77 5 5 C4 8.01 3.7 10.54 3.44 13.69 C3.31 15.18 3.31 15.18 3.18 16.7 C3.12 17.46 3.06 18.22 3 19 C2.01 19 1.02 19 0 19 C0 12.73 0 6.46 0 0 Z " fill="#F1F2F2" transform="translate(413,424)"/>
<path d="M0 0 C1.32 0.33 2.64 0.66 4 1 C4.33 0.67 4.66 0.34 5 0 C6.67 -0.04 8.33 -0.04 10 0 C9.67 1.32 9.34 2.64 9 4 C7.35 4 5.7 4 4 4 C3.5 11.42 3.5 11.42 3 19 C2.01 19 1.02 19 0 19 C0 12.73 0 6.46 0 0 Z " fill="#F6F6F6" transform="translate(407,75)"/>
<path d="M0 0 C0.99 0 1.98 0 3 0 C3 8.58 3 17.16 3 26 C2.01 26 1.02 26 0 26 C0 17.42 0 8.84 0 0 Z " fill="#F3F3F3" transform="translate(322,247)"/>
<path d="M0 0 C0.33 0.66 0.66 1.32 1 2 C-1.64 2.33 -4.28 2.66 -7 3 C-7 4.65 -7 6.3 -7 8 C-2.52 7.55 -2.52 7.55 1 5 C0.62 7.44 0.62 7.44 0 10 C-2.8 11.4 -4.9 11.25 -8 11 C-9.94 9.88 -9.94 9.88 -11 8 C-10.78 4.35 -10.62 2.62 -8 0 C-5.02 -1.09 -2.97 -1.13 0 0 Z " fill="#E3E3E3" transform="translate(429,83)"/>
<path d="M0 0 C0.33 0.66 0.66 1.32 1 2 C-1.64 2.33 -4.28 2.66 -7 3 C-7 4.65 -7 6.3 -7 8 C-2.52 7.55 -2.52 7.55 1 5 C0.62 7.44 0.62 7.44 0 10 C-2.8 11.4 -4.9 11.25 -8 11 C-9.94 9.88 -9.94 9.88 -11 8 C-10.78 4.35 -10.62 2.62 -8 0 C-5.02 -1.09 -2.97 -1.13 0 0 Z " fill="#E3E3E4" transform="translate(346,83)"/>
<path d="M0 0 C0.66 0.33 1.32 0.66 2 1 C2 1.66 2 2.32 2 3 C1.34 3 0.68 3 0 3 C0.33 4.32 0.66 5.64 1 7 C3.31 7 5.62 7 8 7 C8.33 8.32 8.66 9.64 9 11 C8.01 11 7.02 11 6 11 C4.24 11.06 4.24 11.06 2.44 11.12 C-1 11 -1 11 -3 9 C-3.31 5.5 -3.31 5.5 -3 2 C-2.01 1.34 -1.02 0.68 0 0 Z " fill="#E7E8E8" transform="translate(361,262)"/>
<path d="M0 0 C0.66 0 1.32 0 2 0 C2 0.99 2 1.98 2 3 C6.29 3 10.58 3 15 3 C15 3.99 15 4.98 15 6 C9.72 6 4.44 6 -1 6 C-1 1 -1 1 0 0 Z " fill="#F1F2F2" transform="translate(436,437)"/>
<path d="M0 0 C2 3 2 3 2 5 C4.31 5 6.62 5 9 5 C8.01 6.49 8.01 6.49 7 8 C3.92 8.26 1.79 8.39 -1 7 C-1.04 5 -1.04 3 -1 1 C-0.67 0.67 -0.34 0.34 0 0 Z " fill="#ECEEEE" transform="translate(358,435)"/>
<path d="M0 0 C2.67 0 5.33 0 8 0 C7.67 1.32 7.34 2.64 7 4 C4.69 4 2.38 4 0 4 C0 2.68 0 1.36 0 0 Z " fill="#DBDCDC" transform="translate(409,75)"/>
<path d="M0 0 C0.88 2.48 1.12 3.66 0.25 6.19 C-1 8 -1 8 -4 9 C-3.38 3.46 -3.38 3.46 -1.44 1.12 C-0.96 0.75 -0.49 0.38 0 0 Z " fill="#F1F2F2" transform="translate(302,424)"/>
<path d="M0 0 C0.99 0 1.98 0 3 0 C2.45 3.37 1.95 5.08 0 8 C-0.66 7.67 -1.32 7.34 -2 7 C-1.12 1.12 -1.12 1.12 0 0 Z " fill="#E1E2E3" transform="translate(389,254)"/>
<path d="M0 0 C0.66 0.33 1.32 0.66 2 1 C1.01 2.98 0.02 4.96 -1 7 C-1.99 7 -2.98 7 -4 7 C-4 4 -4 4 -2 1.81 C-1.34 1.21 -0.68 0.62 0 0 Z " fill="#D7D9D9" transform="translate(399,254)"/>
<path d="M0 0 C0.66 0.33 1.32 0.66 2 1 C1.01 2.98 0.02 4.96 -1 7 C-1.99 7 -2.98 7 -4 7 C-4 4 -4 4 -2 1.81 C-1.34 1.21 -0.68 0.62 0 0 Z " fill="#D6D7D7" transform="translate(391,75)"/>
<path d="M0 0 C3 1 3 1 5 3 C4.05 3.31 3.1 3.62 2.12 3.94 C-0.86 4.87 -0.86 4.87 -3 6 C-2.62 3.56 -2.62 3.56 -2 1 C-1.34 0.67 -0.68 0.34 0 0 Z " fill="#DBDDDE" transform="translate(439,417)"/>
<path d="M0 0 C0.66 0.33 1.32 0.66 2 1 C1.67 1.99 1.34 2.98 1 4 C-2.06 5.19 -2.06 5.19 -5 6 C-4.75 4.12 -4.75 4.12 -4 2 C-2.06 0.69 -2.06 0.69 0 0 Z " fill="#E3E5E5" transform="translate(444,248)"/>
<path d="M0 0 C2 0.69 2 0.69 4 2.69 C1.36 3.35 -1.28 4.01 -4 4.69 C-4 3.37 -4 2.05 -4 0.69 C-2 -0.31 -2 -0.31 0 0 Z " fill="#D5D6D6" transform="translate(424,75.3125)"/>
<path d="M0 0 C2 0.69 2 0.69 4 2.69 C1.36 3.35 -1.28 4.01 -4 4.69 C-4 3.37 -4 2.05 -4 0.69 C-2 -0.31 -2 -0.31 0 0 Z " fill="#D5D6D6" transform="translate(341,75.3125)"/>
<path d="M0 0 C2.31 0 4.62 0 7 0 C7 1.32 7 2.64 7 4 C4.36 3.34 1.72 2.68 -1 2 C-0.67 1.34 -0.34 0.68 0 0 Z " fill="#EEEEEF" transform="translate(325,68)"/>
<path d="M0 0 C3 1 3 1 5 3 C2.36 3.66 -0.28 4.32 -3 5 C-2.67 3.68 -2.34 2.36 -2 1 C-1.34 0.67 -0.68 0.34 0 0 Z " fill="#D8DADA" transform="translate(362,254)"/>
<path d="M0 0 C0.33 0 0.66 0 1 0 C1 1.65 1 3.3 1 5 C-0.32 5.33 -1.64 5.66 -3 6 C-2.43 3.13 -2.14 2.14 0 0 Z " fill="#F2F3F3" transform="translate(297,437)"/>
<path d="M0 0 C2 1 2 1 3 3 C2.34 3 1.68 3 1 3 C0.67 3.66 0.34 4.32 0 5 C-0.33 4.67 -0.66 4.34 -1 4 C-1.66 5.32 -2.32 6.64 -3 8 C-3.37 3.45 -3.37 3.45 -1.5 1.19 C-1 0.8 -0.51 0.4 0 0 Z " fill="#D7DADA" transform="translate(359,432)"/>
<path d="M0 0 C0 0.66 0 1.32 0 2 C0.99 2.33 1.98 2.66 3 3 C0.69 3.66 -1.62 4.32 -4 5 C-4 3.68 -4 2.36 -4 1 C-2 0 -2 0 0 0 Z " fill="#D6D9D9" transform="translate(362,424)"/>
</svg>
